<?xml version="1.0" encoding="utf-8"?>
<!-- Generator: Adobe Illustrator 19.2.0, SVG Export Plug-In . SVG Version: 6.00 Build 0)  -->
<svg version="1.0" id="Ebene_1" xmlns="http://www.w3.org/2000/svg" xmlns:xlink="http://www.w3.org/1999/xlink" x="0px" y="0px"
	 viewBox="0 0 128 128" style="enable-background:new 0 0 128 128;" xml:space="preserve">
<style type="text/css">
	.st0{fill:#C8E288;}
	.st1{fill:#84B026;}
</style>
<rect class="st0" width="128" height="128"/>
<rect x="42" y="126.1" class="st1" width="12" height="2"/>
<rect x="10" y="126.1" class="st1" width="12" height="2"/>
<rect x="74" y="126.1" class="st1" width="12" height="2"/>
<rect x="106" y="126.1" class="st1" width="12" height="2"/>
<rect x="26" y="110" class="st1" width="12" height="2"/>
<rect y="110" class="st1" width="6" height="2"/>
<rect x="58" y="110" class="st1" width="12" height="2"/>
<rect x="90" y="110" class="st1" width="12" height="2"/>
<rect x="42" y="94" class="st1" width="12" height="2"/>
<rect x="106" y="94" class="st1" width="12" height="2"/>
<rect x="26" y="78" class="st1" width="12" height="2"/>
<rect y="78" class="st1" width="6" height="2"/>
<rect x="58" y="78" class="st1" width="12" height="2"/>
<rect x="90" y="78" class="st1" width="12" height="2"/>
<rect x="42" y="62" class="st1" width="12" height="2"/>
<rect x="42" y="30" class="st1" width="12" height="2"/>
<rect x="10" y="62" class="st1" width="12" height="2"/>
<rect x="10" y="94" class="st1" width="12" height="2"/>
<rect x="74" y="62" class="st1" width="12" height="2"/>
<rect x="74" y="94" class="st1" width="12" height="2"/>
<rect x="106" y="62" class="st1" width="12" height="2"/>
<rect x="106" y="30" class="st1" width="12" height="2"/>
<rect x="26" y="46" class="st1" width="12" height="2"/>
<rect y="46" class="st1" width="6" height="2"/>
<rect x="58" y="46" class="st1" width="12" height="2"/>
<rect x="90" y="46" class="st1" width="12" height="2"/>
<rect x="26" y="14" class="st1" width="12" height="2"/>
<rect y="14" class="st1" width="6" height="2"/>
<rect x="122" y="110" class="st1" width="6" height="2"/>
<rect x="122" y="78" class="st1" width="6" height="2"/>
<rect x="122" y="46" class="st1" width="6" height="2"/>
<rect x="122" y="14" class="st1" width="6" height="2"/>
<rect x="58" y="14" class="st1" width="12" height="2"/>
<rect x="10.3" y="30" class="st1" width="12" height="2"/>
<rect x="74.2" y="30" class="st1" width="12" height="2"/>
<rect x="90" y="14" class="st1" width="12" height="2"/>
</svg>
