<?xml version="1.0" encoding="utf-8"?>
<!-- Generator: Adobe Illustrator 19.2.0, SVG Export Plug-In . SVG Version: 6.00 Build 0)  -->
<svg version="1.1" baseProfile="basic" id="Ebene_1"
	 xmlns="http://www.w3.org/2000/svg" xmlns:xlink="http://www.w3.org/1999/xlink" x="0px" y="0px" viewBox="0 0 128 128"
	 xml:space="preserve">
<rect fill="#C8E288" width="128" height="128"/>
<rect x="3.5" y="7" fill="#84B026" width="9" height="2"/>
<rect x="35.5" y="7" fill="#84B026" width="9" height="2"/>
<rect x="19.5" y="7" fill="#84B026" width="9" height="2"/>
<rect x="51.5" y="7" fill="#84B026" width="9" height="2"/>
<rect x="3.5" y="23" fill="#84B026" width="9" height="2"/>
<rect x="35.5" y="23" fill="#84B026" width="9" height="2"/>
<rect x="19.5" y="23" fill="#84B026" width="9" height="2"/>
<rect x="51.5" y="23" fill="#84B026" width="9" height="2"/>
<rect x="3.5" y="39" fill="#84B026" width="9" height="2"/>
<rect x="35.5" y="39" fill="#84B026" width="9" height="2"/>
<rect x="19.5" y="39" fill="#84B026" width="9" height="2"/>
<rect x="51.5" y="39" fill="#84B026" width="9" height="2"/>
<rect x="3.5" y="55" fill="#84B026" width="9" height="2"/>
<rect x="35.5" y="55" fill="#84B026" width="9" height="2"/>
<rect x="19.5" y="55" fill="#84B026" width="9" height="2"/>
<rect x="51.5" y="55" fill="#84B026" width="9" height="2"/>
<rect x="71" y="3.5" fill="#84B026" width="2" height="9"/>
<rect x="103" y="3.5" fill="#84B026" width="2" height="9"/>
<rect x="87" y="3.5" fill="#84B026" width="2" height="9"/>
<rect x="119" y="3.5" fill="#84B026" width="2" height="9"/>
<rect x="71" y="19.5" fill="#84B026" width="2" height="9"/>
<rect x="103" y="19.5" fill="#84B026" width="2" height="9"/>
<rect x="87" y="19.5" fill="#84B026" width="2" height="9"/>
<rect x="119" y="19.5" fill="#84B026" width="2" height="9"/>
<rect x="71" y="35.5" fill="#84B026" width="2" height="9"/>
<rect x="103" y="35.5" fill="#84B026" width="2" height="9"/>
<rect x="87" y="35.5" fill="#84B026" width="2" height="9"/>
<rect x="119" y="35.5" fill="#84B026" width="2" height="9"/>
<rect x="71" y="51.5" fill="#84B026" width="2" height="9"/>
<rect x="103" y="51.5" fill="#84B026" width="2" height="9"/>
<rect x="87" y="51.5" fill="#84B026" width="2" height="9"/>
<rect x="119" y="51.5" fill="#84B026" width="2" height="9"/>
<rect x="115.5" y="119" fill="#84B026" width="9" height="2"/>
<rect x="83.5" y="119" fill="#84B026" width="9" height="2"/>
<rect x="99.5" y="119" fill="#84B026" width="9" height="2"/>
<rect x="67.5" y="119" fill="#84B026" width="9" height="2"/>
<rect x="115.5" y="103" fill="#84B026" width="9" height="2"/>
<rect x="83.5" y="103" fill="#84B026" width="9" height="2"/>
<rect x="99.5" y="103" fill="#84B026" width="9" height="2"/>
<rect x="67.5" y="103" fill="#84B026" width="9" height="2"/>
<rect x="115.5" y="87" fill="#84B026" width="9" height="2"/>
<rect x="83.5" y="87" fill="#84B026" width="9" height="2"/>
<rect x="99.5" y="87" fill="#84B026" width="9" height="2"/>
<rect x="67.5" y="87" fill="#84B026" width="9" height="2"/>
<rect x="115.5" y="71" fill="#84B026" width="9" height="2"/>
<rect x="83.5" y="71" fill="#84B026" width="9" height="2"/>
<rect x="99.5" y="71" fill="#84B026" width="9" height="2"/>
<rect x="67.5" y="71" fill="#84B026" width="9" height="2"/>
<rect x="55" y="115.5" fill="#84B026" width="2" height="9"/>
<rect x="23" y="115.5" fill="#84B026" width="2" height="9"/>
<rect x="39" y="115.5" fill="#84B026" width="2" height="9"/>
<rect x="7" y="115.5" fill="#84B026" width="2" height="9"/>
<rect x="55" y="99.5" fill="#84B026" width="2" height="9"/>
<rect x="23" y="99.5" fill="#84B026" width="2" height="9"/>
<rect x="39" y="99.5" fill="#84B026" width="2" height="9"/>
<rect x="7" y="99.5" fill="#84B026" width="2" height="9"/>
<rect x="55" y="83.5" fill="#84B026" width="2" height="9"/>
<rect x="23" y="83.5" fill="#84B026" width="2" height="9"/>
<rect x="39" y="83.5" fill="#84B026" width="2" height="9"/>
<rect x="7" y="83.5" fill="#84B026" width="2" height="9"/>
<rect x="55" y="67.5" fill="#84B026" width="2" height="9"/>
<rect x="23" y="67.5" fill="#84B026" width="2" height="9"/>
<rect x="39" y="67.5" fill="#84B026" width="2" height="9"/>
<rect x="7" y="67.5" fill="#84B026" width="2" height="9"/>
</svg>
