<?xml version="1.0" encoding="utf-8"?>
<!-- Generator: Adobe Illustrator 19.2.0, SVG Export Plug-In . SVG Version: 6.00 Build 0)  -->
<svg version="1.1" baseProfile="basic" id="Ebene_1"
	 xmlns="http://www.w3.org/2000/svg" xmlns:xlink="http://www.w3.org/1999/xlink" x="0px" y="0px" viewBox="0 0 128 128"
	 xml:space="preserve">
<rect fill="#C8E288" width="128" height="128"/>
<g>
	<rect x="3.496" y="7" fill="#84B026" width="57.008" height="2"/>
	<rect x="3.496" y="23" fill="#84B026" width="57.008" height="2"/>
	<rect x="3.496" y="39" fill="#84B026" width="57.008" height="2"/>
	<rect x="3.496" y="55" fill="#84B026" width="57.008" height="2"/>
	<rect x="119.004" y="3.496" fill="#84B026" width="2" height="57.008"/>
	<rect x="103.004" y="3.496" fill="#84B026" width="2" height="57.008"/>
	<rect x="87.004" y="3.496" fill="#84B026" width="2" height="57.008"/>
	<rect x="71.004" y="3.496" fill="#84B026" width="2" height="57.008"/>
	<rect x="67.496" y="71" fill="#84B026" width="57.008" height="2"/>
	<rect x="67.496" y="87" fill="#84B026" width="57.008" height="2"/>
	<rect x="67.496" y="103" fill="#84B026" width="57.008" height="2"/>
	<rect x="67.496" y="119" fill="#84B026" width="57.008" height="2"/>
	<rect x="55.004" y="67.496" fill="#84B026" width="2" height="57.008"/>
	<rect x="39.004" y="67.496" fill="#84B026" width="2" height="57.008"/>
	<rect x="23.004" y="67.496" fill="#84B026" width="2" height="57.008"/>
	<rect x="7.004" y="67.496" fill="#84B026" width="2" height="57.008"/>
</g>
</svg>
