<?xml version="1.0" encoding="utf-8"?>
<!-- Generator: Adobe Illustrator 19.2.0, SVG Export Plug-In . SVG Version: 6.00 Build 0)  -->
<svg version="1.0" id="Ebene_1" xmlns="http://www.w3.org/2000/svg" xmlns:xlink="http://www.w3.org/1999/xlink" x="0px" y="0px"
	 viewBox="0 0 128 128" enable-background="new 0 0 128 128" xml:space="preserve">
<rect fill="#C8E288" width="128" height="128"/>
<rect x="42" y="126.104" fill="#84B026" width="12" height="2"/>
<rect x="10" y="126.104" fill="#84B026" width="12" height="2"/>
<rect x="73.969" y="126.104" fill="#84B026" width="12" height="2"/>
<rect x="106" y="126.104" fill="#84B026" width="12" height="2"/>
<rect x="26" y="110" fill="#84B026" width="12" height="2"/>
<rect y="110" fill="#84B026" width="6" height="2"/>
<rect x="57.969" y="110" fill="#84B026" width="12" height="2"/>
<rect x="90" y="110" fill="#84B026" width="12" height="2"/>
<rect x="42" y="94" fill="#84B026" width="12" height="2"/>
<rect x="106" y="94" fill="#84B026" width="12" height="2"/>
<rect x="26" y="78" fill="#84B026" width="12" height="2"/>
<rect y="78" fill="#84B026" width="6" height="2"/>
<rect x="57.969" y="78" fill="#84B026" width="12" height="2"/>
<rect x="90" y="78" fill="#84B026" width="12" height="2"/>
<rect x="42" y="62" fill="#84B026" width="12" height="2"/>
<rect x="10" y="62" fill="#84B026" width="12" height="2"/>
<rect x="73.969" y="62" fill="#84B026" width="12" height="2"/>
<rect x="106" y="62" fill="#84B026" width="12" height="2"/>
<rect x="26" y="46" fill="#84B026" width="12" height="2"/>
<rect y="46" fill="#84B026" width="6" height="2"/>
<rect x="57.969" y="46" fill="#84B026" width="12" height="2"/>
<rect x="90" y="46" fill="#84B026" width="12" height="2"/>
<rect x="26" y="14" fill="#84B026" width="12" height="2"/>
<rect y="14" fill="#84B026" width="6" height="2"/>
<rect x="122" y="110" fill="#84B026" width="6" height="2"/>
<rect x="122" y="78" fill="#84B026" width="6" height="2"/>
<rect x="122" y="46" fill="#84B026" width="6" height="2"/>
<rect x="122" y="14" fill="#84B026" width="6" height="2"/>
<rect x="57.969" y="14" fill="#84B026" width="12" height="2"/>
<rect x="10.256" y="30" fill="#84B026" width="12" height="2"/>
<rect x="74.225" y="30" fill="#84B026" width="12" height="2"/>
<rect x="90" y="14" fill="#84B026" width="12" height="2"/>
<g>
	<g>
		<g>
			<path fill="#C8E288" d="M109.09,34.117c1.184-2.861,2.148-3.439,2.916-3.123c0.766,0.316,1.092,1.279-0.145,4.271
				c-1.234,2.988-2.148,3.438-2.914,3.121C108.182,38.07,107.904,36.98,109.09,34.117z"/>
			<path fill="#84B026" d="M111.628,30.917c0.131,0,0.257,0.028,0.378,0.077c0.766,0.316,1.092,1.279-0.145,4.271
				c-1.022,2.473-1.824,3.207-2.504,3.207c-0.142,0-0.278-0.032-0.41-0.086c-0.766-0.316-1.043-1.406,0.143-4.27
				C110.087,31.707,110.929,30.917,111.628,30.917 M111.628,29.917L111.628,29.917c-1.302,0-2.37,1.178-3.463,3.818
				c-0.613,1.481-0.901,2.625-0.879,3.497c0.034,1.363,0.816,1.888,1.278,2.079c0.26,0.108,0.527,0.162,0.792,0.162
				c1.296,0,2.321-1.144,3.429-3.826c0.522-1.264,1.91-4.624-0.398-5.577C112.141,29.968,111.885,29.917,111.628,29.917
				L111.628,29.917z"/>
		</g>
		<g>
			<path fill="#C8E288" d="M112.152,26.727c1.182-2.861,2.148-3.441,2.914-3.123c0.766,0.316,1.094,1.279-0.143,4.269
				c-1.236,2.99-2.15,3.44-2.914,3.123C111.244,30.68,110.967,29.588,112.152,26.727z"/>
			<path fill="#84B026" d="M114.688,23.525c0.131,0,0.257,0.028,0.378,0.078c0.766,0.316,1.094,1.279-0.143,4.27
				c-1.023,2.475-1.826,3.209-2.505,3.209c-0.141,0-0.277-0.032-0.409-0.086c-0.766-0.316-1.043-1.408,0.143-4.27
				C113.147,24.317,113.99,23.525,114.688,23.525 M114.689,22.525L114.689,22.525c-1.303,0-2.37,1.178-3.461,3.82
				c-0.613,1.479-0.9,2.623-0.878,3.496c0.034,1.364,0.816,1.888,1.278,2.079c0.259,0.107,0.526,0.162,0.791,0.162
				c1.295,0,2.32-1.145,3.429-3.827c0.643-1.555,0.928-2.685,0.897-3.555c-0.047-1.311-0.833-1.829-1.297-2.021
				C115.203,22.577,114.947,22.525,114.689,22.525L114.689,22.525z"/>
		</g>
		<g>
			<path fill="#C8E288" d="M115.129,33.922c-2.861-1.182-3.439-2.149-3.123-2.914c0.316-0.766,1.279-1.094,4.271,0.143
				c2.988,1.236,3.439,2.15,3.121,2.914C119.082,34.83,117.992,35.107,115.129,33.922z"/>
			<path fill="#84B026" d="M113.23,30.327c0.654,0,1.619,0.234,3.047,0.824c2.988,1.236,3.439,2.15,3.121,2.914
				c-0.164,0.396-0.534,0.661-1.25,0.661c-0.668,0-1.637-0.231-3.02-0.804c-2.861-1.182-3.439-2.149-3.123-2.914
				C112.171,30.608,112.514,30.327,113.23,30.327 M113.23,29.327L113.23,29.327c-1.402,0-1.948,0.814-2.149,1.299
				c-0.191,0.462-0.371,1.386,0.57,2.373c0.602,0.632,1.615,1.236,3.095,1.847c1.429,0.592,2.542,0.88,3.402,0.88
				c1.431,0,1.976-0.802,2.174-1.279c0.214-0.512,0.217-1.052,0.008-1.557c-0.394-0.955-1.527-1.776-3.671-2.664
				C115.194,29.621,114.073,29.327,113.23,29.327L113.23,29.327z"/>
		</g>
		<g>
			<path fill="#C8E288" d="M107.738,30.861c-2.861-1.182-3.439-2.148-3.125-2.914c0.318-0.766,1.281-1.094,4.271,0.142
				c2.99,1.238,3.439,2.149,3.123,2.914C111.691,31.768,110.6,32.047,107.738,30.861z"/>
			<path fill="#84B026" d="M105.839,27.266c0.654,0,1.619,0.234,3.046,0.824c2.99,1.238,3.439,2.148,3.123,2.914
				c-0.164,0.395-0.535,0.661-1.251,0.661c-0.668,0-1.637-0.231-3.018-0.803c-2.861-1.182-3.44-2.148-3.125-2.914
				C104.78,27.547,105.123,27.266,105.839,27.266 M105.839,26.266L105.839,26.266c-1.401,0-1.948,0.813-2.149,1.297
				c-0.951,2.315,2.525,3.75,3.667,4.222c1.427,0.591,2.539,0.879,3.4,0.879c1.432,0,1.978-0.801,2.175-1.278
				c0.954-2.308-2.401-3.698-3.664-4.221C107.803,26.56,106.682,26.266,105.839,26.266L105.839,26.266z"/>
		</g>
		<g>
			<path fill="#C8E288" d="M107.736,31.141c2.859-1.188,3.951-0.914,4.27-0.148c0.316,0.766-0.133,1.678-3.121,2.92
				c-2.986,1.238-3.951,0.91-4.268,0.146C104.299,33.293,104.875,32.326,107.736,31.141z"/>
			<path fill="#84B026" d="M110.759,30.333c0.713,0,1.083,0.264,1.247,0.659c0.316,0.766-0.133,1.678-3.121,2.92
				c-1.426,0.591-2.392,0.826-3.045,0.826c-0.715,0-1.057-0.28-1.222-0.679c-0.318-0.766,0.258-1.732,3.119-2.918
				C109.12,30.566,110.091,30.333,110.759,30.333 M110.759,29.333L110.759,29.333c-0.86,0-1.975,0.289-3.407,0.884
				c-2.095,0.868-3.257,1.723-3.657,2.69c-0.209,0.505-0.209,1.036-0.002,1.535c0.2,0.483,0.746,1.295,2.146,1.295
				c0.843,0,1.965-0.295,3.428-0.902c1.263-0.525,4.616-1.919,3.662-4.226C112.731,30.132,112.186,29.333,110.759,29.333
				L110.759,29.333z"/>
		</g>
		<g>
			<path fill="#C8E288" d="M115.127,28.078c2.859-1.188,3.953-0.914,4.27-0.146c0.318,0.766-0.131,1.678-3.121,2.918
				c-2.986,1.24-3.951,0.912-4.268,0.148C111.689,30.232,112.266,29.266,115.127,28.078z"/>
			<path fill="#84B026" d="M118.15,27.271c0.713,0,1.084,0.265,1.247,0.661c0.318,0.766-0.131,1.678-3.121,2.918
				c-1.427,0.593-2.392,0.827-3.046,0.827c-0.714,0-1.056-0.28-1.221-0.679c-0.318-0.766,0.258-1.732,3.119-2.92
				C116.511,27.503,117.481,27.271,118.15,27.271 M118.15,26.271c-0.86,0-1.974,0.289-3.406,0.884
				c-1.48,0.614-2.492,1.22-3.093,1.853c-0.94,0.989-0.758,1.912-0.566,2.375c0.2,0.483,0.745,1.295,2.145,1.295
				c0.844,0,1.966-0.296,3.43-0.904c1.555-0.645,2.556-1.242,3.149-1.879c0.895-0.96,0.705-1.882,0.512-2.347
				C120.124,27.073,119.58,26.271,118.15,26.271L118.15,26.271z"/>
		</g>
		<g>
			<path fill="#C8E288" d="M112.152,35.275c-1.188-2.859-0.912-3.951-0.148-4.269c0.766-0.316,1.68,0.133,2.92,3.123
				c1.238,2.986,0.912,3.951,0.146,4.268C114.307,38.713,113.338,38.139,112.152,35.275z"/>
			<path fill="#84B026" d="M112.414,30.92c0.68,0,1.484,0.734,2.51,3.209c1.238,2.986,0.912,3.951,0.146,4.268
				c-0.121,0.05-0.246,0.078-0.377,0.078c-0.698,0-1.542-0.788-2.541-3.199c-1.188-2.859-0.912-3.951-0.148-4.269
				C112.136,30.951,112.272,30.92,112.414,30.92 M112.414,29.92L112.414,29.92c-0.265,0-0.532,0.055-0.792,0.162
				c-2.31,0.963-0.867,4.436-0.393,5.577c1.092,2.638,2.161,3.815,3.464,3.815c0.258,0,0.514-0.052,0.76-0.154
				c0.515-0.213,0.898-0.592,1.108-1.097c0.395-0.954,0.175-2.335-0.713-4.477C114.735,31.064,113.708,29.92,112.414,29.92
				L112.414,29.92z"/>
		</g>
		<g>
			<path fill="#C8E288" d="M109.09,27.887c-1.188-2.861-0.912-3.953-0.146-4.271c0.766-0.316,1.678,0.133,2.918,3.121
				c1.238,2.988,0.912,3.951,0.148,4.268C111.244,31.322,110.277,30.748,109.09,27.887z"/>
			<path fill="#84B026" d="M109.353,23.529c0.68,0,1.482,0.734,2.508,3.207c1.238,2.988,0.912,3.951,0.148,4.268
				c-0.121,0.051-0.248,0.079-0.38,0.079c-0.698,0-1.541-0.788-2.54-3.196c-1.188-2.861-0.912-3.953-0.146-4.272
				C109.075,23.561,109.212,23.529,109.353,23.529 M109.353,22.529L109.353,22.529c-0.265,0-0.531,0.055-0.792,0.162
				c-2.312,0.961-0.869,4.437-0.395,5.579c1.094,2.637,2.163,3.812,3.464,3.812c0.259,0,0.516-0.052,0.764-0.155
				c0.463-0.192,1.247-0.71,1.292-2.021c0.03-0.87-0.257-1.999-0.901-3.553C111.672,23.673,110.646,22.529,109.353,22.529
				L109.353,22.529z"/>
		</g>
		<g>
			<ellipse transform="matrix(1 -0.0039 0.0039 1 -0.12 0.437)" fill="#84B026" cx="112.002" cy="30.98" rx="3" ry="3"/>
		</g>
	</g>
	<g>
		<g>
			<path fill="#C8E288" d="M45.17,34.117c1.183-2.861,2.149-3.439,2.915-3.123c0.766,0.316,1.093,1.279-0.144,4.271
				c-1.235,2.988-2.149,3.438-2.914,3.121C44.262,38.07,43.984,36.98,45.17,34.117z"/>
			<path fill="#84B026" d="M47.708,30.917c0.131,0,0.256,0.028,0.377,0.077c0.766,0.316,1.093,1.279-0.144,4.271
				c-1.022,2.473-1.825,3.207-2.505,3.207c-0.142,0-0.278-0.032-0.409-0.086c-0.766-0.316-1.043-1.406,0.143-4.27
				C46.166,31.707,47.009,30.917,47.708,30.917 M47.708,29.917L47.708,29.917c-1.303,0-2.371,1.178-3.462,3.819
				c-0.613,1.48-0.9,2.625-0.878,3.497c0.034,1.363,0.815,1.888,1.278,2.079c0.26,0.107,0.526,0.162,0.791,0.162
				c1.295,0,2.32-1.144,3.429-3.825c0.523-1.265,1.91-4.624-0.399-5.578C48.22,29.968,47.965,29.917,47.708,29.917L47.708,29.917z"
				/>
		</g>
		<g>
			<path fill="#C8E288" d="M48.231,26.727c1.182-2.861,2.149-3.441,2.915-3.123c0.766,0.316,1.093,1.279-0.144,4.269
				c-1.236,2.99-2.149,3.44-2.913,3.123C47.323,30.68,47.047,29.588,48.231,26.727z"/>
			<path fill="#84B026" d="M50.768,23.525c0.131,0,0.257,0.028,0.378,0.078c0.766,0.316,1.093,1.279-0.144,4.27
				c-1.023,2.475-1.825,3.209-2.504,3.209c-0.141,0-0.277-0.032-0.409-0.086c-0.767-0.316-1.043-1.408,0.142-4.27
				C49.226,24.317,50.069,23.525,50.768,23.525 M50.768,22.525L50.768,22.525c-1.303,0-2.37,1.178-3.461,3.82
				c-0.867,2.095-1.084,3.521-0.683,4.488c0.21,0.505,0.585,0.881,1.084,1.087c0.259,0.107,0.525,0.162,0.79,0.162
				c1.294,0,2.319-1.145,3.428-3.827c0.643-1.555,0.928-2.685,0.898-3.555c-0.046-1.311-0.832-1.829-1.296-2.021
				C51.283,22.577,51.027,22.525,50.768,22.525L50.768,22.525z"/>
		</g>
		<g>
			<path fill="#C8E288" d="M51.208,33.922c-2.861-1.182-3.438-2.149-3.123-2.914c0.317-0.766,1.28-1.094,4.271,0.143
				c2.988,1.236,3.439,2.15,3.122,2.914C55.162,34.83,54.071,35.107,51.208,33.922z"/>
			<path fill="#84B026" d="M49.31,30.327c0.654,0,1.619,0.234,3.047,0.824c2.988,1.236,3.439,2.15,3.122,2.914
				c-0.164,0.396-0.534,0.661-1.25,0.661c-0.668,0-1.638-0.231-3.02-0.804c-2.861-1.182-3.438-2.149-3.123-2.914
				C48.251,30.608,48.593,30.327,49.31,30.327 M49.31,29.327L49.31,29.327c-1.402,0-1.948,0.813-2.149,1.298
				c-0.953,2.314,2.523,3.749,3.665,4.221c1.429,0.592,2.542,0.88,3.402,0.88c1.432,0,1.977-0.802,2.174-1.279
				c0.213-0.513,0.216-1.052,0.007-1.557c-0.395-0.955-1.527-1.776-3.671-2.663C51.274,29.621,50.153,29.327,49.31,29.327
				L49.31,29.327z"/>
		</g>
		<g>
			<path fill="#C8E288" d="M43.818,30.861c-2.862-1.182-3.441-2.148-3.125-2.914c0.318-0.766,1.281-1.094,4.271,0.142
				c2.989,1.238,3.439,2.149,3.123,2.914C47.771,31.768,46.68,32.047,43.818,30.861z"/>
			<path fill="#84B026" d="M41.919,27.266c0.654,0,1.619,0.234,3.046,0.824c2.989,1.238,3.439,2.148,3.123,2.914
				c-0.164,0.395-0.535,0.661-1.251,0.661c-0.668,0-1.637-0.231-3.018-0.803c-2.862-1.182-3.44-2.148-3.125-2.914
				C40.86,27.547,41.203,27.266,41.919,27.266 M41.919,26.266L41.919,26.266c-1.401,0-1.948,0.813-2.149,1.297
				c-0.954,2.315,2.524,3.75,3.667,4.222c1.427,0.591,2.539,0.879,3.4,0.879c1.432,0,1.978-0.801,2.175-1.278
				c0.954-2.308-2.401-3.698-3.664-4.221C43.883,26.56,42.762,26.266,41.919,26.266L41.919,26.266z"/>
		</g>
		<g>
			<path fill="#C8E288" d="M43.816,31.141c2.859-1.188,3.951-0.914,4.27-0.148c0.316,0.766-0.133,1.678-3.121,2.92
				c-2.987,1.238-3.952,0.91-4.268,0.146C40.379,33.293,40.954,32.326,43.816,31.141z"/>
			<path fill="#84B026" d="M46.839,30.333c0.713,0,1.082,0.264,1.247,0.659c0.316,0.766-0.133,1.678-3.121,2.92
				c-1.427,0.591-2.392,0.826-3.046,0.826c-0.715,0-1.057-0.28-1.222-0.679c-0.318-0.766,0.257-1.732,3.119-2.918
				C45.201,30.566,46.171,30.333,46.839,30.333 M46.839,29.333L46.839,29.333c-0.86,0-1.975,0.289-3.407,0.884
				c-2.095,0.868-3.257,1.723-3.657,2.69c-0.209,0.505-0.21,1.036-0.002,1.536c0.199,0.482,0.744,1.295,2.145,1.295
				c0.843,0,1.965-0.295,3.429-0.902c1.263-0.525,4.616-1.919,3.662-4.226C48.811,30.132,48.266,29.333,46.839,29.333L46.839,29.333
				z"/>
		</g>
		<g>
			<path fill="#C8E288" d="M51.207,28.078c2.859-1.188,3.952-0.914,4.27-0.146c0.317,0.766-0.132,1.678-3.121,2.918
				c-2.987,1.24-3.952,0.912-4.268,0.148C47.77,30.232,48.346,29.266,51.207,28.078z"/>
			<path fill="#84B026" d="M54.229,27.271c0.713,0,1.084,0.265,1.247,0.661c0.317,0.766-0.132,1.678-3.121,2.918
				c-1.427,0.593-2.393,0.827-3.047,0.827c-0.714,0-1.056-0.28-1.221-0.679c-0.318-0.766,0.258-1.732,3.119-2.92
				C52.591,27.503,53.561,27.271,54.229,27.271 M54.229,26.271c-0.86,0-1.974,0.289-3.406,0.884c-1.48,0.614-2.492,1.22-3.093,1.853
				c-0.94,0.989-0.758,1.912-0.566,2.375c0.199,0.482,0.744,1.295,2.144,1.295c0.844,0,1.966-0.296,3.43-0.904
				c1.263-0.524,4.618-1.916,3.661-4.224C56.203,27.072,55.659,26.271,54.229,26.271L54.229,26.271z"/>
		</g>
		<g>
			<path fill="#C8E288" d="M48.232,35.275c-1.188-2.859-0.913-3.951-0.148-4.269c0.766-0.316,1.679,0.133,2.919,3.123
				c1.239,2.986,0.912,3.951,0.147,4.268C50.386,38.713,49.418,38.139,48.232,35.275z"/>
			<path fill="#84B026" d="M48.494,30.92c0.68,0,1.483,0.734,2.509,3.209c1.239,2.986,0.912,3.951,0.148,4.268
				c-0.121,0.05-0.247,0.078-0.378,0.078c-0.698,0-1.542-0.788-2.54-3.199c-1.188-2.859-0.913-3.951-0.148-4.269
				C48.216,30.951,48.352,30.92,48.494,30.92 M48.494,29.92L48.494,29.92c-0.265,0-0.532,0.055-0.792,0.162
				c-2.31,0.962-0.867,4.436-0.393,5.577c1.092,2.638,2.161,3.815,3.464,3.815c0.258,0,0.514-0.052,0.76-0.154
				c0.516-0.213,0.899-0.593,1.108-1.098c0.395-0.954,0.175-2.335-0.714-4.477C50.814,31.064,49.788,29.92,48.494,29.92
				L48.494,29.92z"/>
		</g>
		<g>
			<path fill="#C8E288" d="M45.17,27.887c-1.188-2.861-0.912-3.953-0.147-4.271c0.767-0.316,1.679,0.133,2.919,3.121
				c1.238,2.988,0.912,3.951,0.148,4.268C47.324,31.322,46.356,30.748,45.17,27.887z"/>
			<path fill="#84B026" d="M45.433,23.529c0.681,0,1.482,0.734,2.509,3.207c1.238,2.988,0.912,3.951,0.147,4.268
				c-0.121,0.051-0.248,0.079-0.379,0.079c-0.698,0-1.541-0.788-2.54-3.196c-1.188-2.861-0.912-3.953-0.147-4.272
				C45.155,23.561,45.291,23.529,45.433,23.529 M45.433,22.529L45.433,22.529c-0.265,0-0.531,0.054-0.792,0.162
				c-2.311,0.962-0.869,4.437-0.395,5.579c1.093,2.637,2.161,3.812,3.463,3.812c0.259,0,0.516-0.052,0.764-0.155
				c0.462-0.191,1.248-0.709,1.292-2.021c0.03-0.87-0.256-1.999-0.9-3.553C47.753,23.673,46.726,22.529,45.433,22.529L45.433,22.529
				z"/>
		</g>
		<g>
			<ellipse transform="matrix(1 -0.0039 0.0039 1 -0.1205 0.1878)" fill="#84B026" cx="48.082" cy="30.98" rx="3" ry="3"/>
		</g>
	</g>
	<g>
		<rect x="73.797" y="94.5" fill="#84B026" width="12" height="1"/>
		<g>
			<path fill="#C8E288" d="M77.08,98.117c1.182-2.861,2.148-3.44,2.914-3.123c0.766,0.316,1.094,1.279-0.143,4.271
				c-1.236,2.988-2.15,3.438-2.914,3.121C76.172,102.07,75.895,100.98,77.08,98.117z"/>
			<path fill="#84B026" d="M79.617,94.917c0.131,0,0.256,0.028,0.377,0.077c0.766,0.316,1.094,1.279-0.143,4.271
				c-1.023,2.473-1.826,3.207-2.505,3.207c-0.141,0-0.277-0.032-0.409-0.086c-0.766-0.316-1.043-1.406,0.143-4.269
				C78.075,95.707,78.918,94.917,79.617,94.917 M79.617,93.917L79.617,93.917c-1.303,0-2.371,1.178-3.461,3.819
				c-0.613,1.48-0.9,2.624-0.878,3.497c0.034,1.363,0.816,1.888,1.278,2.079c0.259,0.107,0.526,0.162,0.791,0.162
				c1.294,0,2.32-1.144,3.429-3.825c0.523-1.265,1.91-4.624-0.4-5.578C80.13,93.968,79.875,93.917,79.617,93.917L79.617,93.917z"/>
		</g>
		<g>
			<path fill="#C8E288" d="M80.141,90.727c1.182-2.861,2.148-3.441,2.916-3.123c0.766,0.316,1.092,1.279-0.145,4.27
				c-1.236,2.99-2.148,3.439-2.912,3.123C79.232,94.68,78.957,93.588,80.141,90.727z"/>
			<path fill="#84B026" d="M82.678,87.525c0.131,0,0.257,0.028,0.379,0.078c0.766,0.316,1.092,1.279-0.145,4.27
				c-1.023,2.475-1.825,3.209-2.503,3.209c-0.141,0-0.277-0.032-0.409-0.086c-0.768-0.316-1.043-1.408,0.141-4.27
				C81.136,88.317,81.978,87.525,82.678,87.525 M82.678,86.525L82.678,86.525c-1.303,0-2.371,1.178-3.462,3.82
				c-0.867,2.096-1.084,3.523-0.682,4.489c0.21,0.505,0.585,0.881,1.085,1.087c0.258,0.107,0.525,0.162,0.79,0.162
				c1.293,0,2.318-1.145,3.428-3.827c0.643-1.555,0.928-2.685,0.898-3.554c-0.046-1.312-0.832-1.83-1.296-2.022
				C83.193,86.577,82.936,86.525,82.678,86.525L82.678,86.525z"/>
		</g>
		<g>
			<path fill="#C8E288" d="M83.117,97.922c-2.861-1.182-3.438-2.148-3.123-2.914c0.318-0.766,1.281-1.094,4.271,0.143
				c2.988,1.236,3.439,2.15,3.123,2.914C87.072,98.83,85.98,99.107,83.117,97.922z"/>
			<path fill="#84B026" d="M81.22,94.327c0.654,0,1.619,0.234,3.046,0.824c2.988,1.236,3.44,2.15,3.123,2.914
				c-0.164,0.396-0.535,0.661-1.251,0.661c-0.669,0-1.638-0.231-3.021-0.804c-2.861-1.182-3.438-2.148-3.123-2.914
				C80.161,94.608,80.503,94.327,81.22,94.327 M81.22,93.327L81.22,93.327c-1.401,0-1.948,0.813-2.149,1.297
				c-0.951,2.316,2.523,3.751,3.665,4.222c1.429,0.592,2.542,0.88,3.403,0.88c1.432,0,1.977-0.802,2.175-1.279
				c0.192-0.463,0.38-1.385-0.516-2.344c-0.595-0.637-1.595-1.233-3.149-1.876C83.184,93.621,82.063,93.327,81.22,93.327
				L81.22,93.327z"/>
		</g>
		<g>
			<path fill="#C8E288" d="M75.729,94.861c-2.863-1.182-3.441-2.148-3.125-2.914c0.318-0.766,1.281-1.094,4.271,0.142
				c2.988,1.238,3.439,2.148,3.123,2.914C79.682,95.768,78.59,96.047,75.729,94.861z"/>
			<path fill="#84B026" d="M73.829,91.266c0.654,0,1.619,0.234,3.046,0.824c2.988,1.238,3.439,2.148,3.123,2.914
				c-0.164,0.395-0.535,0.661-1.251,0.661c-0.668,0-1.637-0.231-3.018-0.803c-2.863-1.182-3.441-2.148-3.125-2.914
				C72.77,91.547,73.113,91.266,73.829,91.266 M73.83,90.266L73.83,90.266c-1.401,0-1.948,0.813-2.149,1.297
				c-0.192,0.465-0.372,1.388,0.57,2.375c0.603,0.632,1.616,1.236,3.097,1.847c1.427,0.591,2.539,0.879,3.4,0.879
				c1.432,0,1.978-0.801,2.175-1.278c0.954-2.307-2.401-3.697-3.664-4.221C75.793,90.56,74.672,90.266,73.83,90.266L73.83,90.266z"
				/>
		</g>
		<g>
			<path fill="#C8E288" d="M75.727,95.141c2.859-1.188,3.951-0.914,4.27-0.148c0.316,0.766-0.133,1.678-3.121,2.92
				c-2.988,1.238-3.953,0.91-4.268,0.146C72.289,97.293,72.863,96.326,75.727,95.141z"/>
			<path fill="#84B026" d="M78.749,94.333c0.713,0,1.082,0.264,1.247,0.659c0.316,0.766-0.133,1.678-3.121,2.92
				c-1.427,0.591-2.393,0.826-3.047,0.826c-0.715,0-1.057-0.28-1.221-0.679c-0.318-0.766,0.256-1.732,3.119-2.918
				C77.111,94.566,78.081,94.333,78.749,94.333 M78.749,93.333L78.749,93.333c-0.86,0-1.975,0.289-3.406,0.884
				c-2.095,0.867-3.257,1.722-3.657,2.689c-0.209,0.505-0.21,1.037-0.002,1.536c0.198,0.482,0.743,1.295,2.144,1.295
				c0.843,0,1.965-0.295,3.429-0.902c1.263-0.525,4.616-1.919,3.662-4.226C80.721,94.132,80.176,93.333,78.749,93.333L78.749,93.333
				z"/>
		</g>
		<g>
			<path fill="#C8E288" d="M83.117,92.078c2.859-1.188,3.951-0.914,4.27-0.146c0.316,0.766-0.133,1.678-3.121,2.918
				c-2.988,1.24-3.953,0.912-4.268,0.148C79.68,94.232,80.256,93.266,83.117,92.078z"/>
			<path fill="#84B026" d="M86.139,91.271c0.713,0,1.083,0.265,1.248,0.661c0.316,0.766-0.133,1.678-3.121,2.918
				c-1.428,0.593-2.394,0.827-3.048,0.827c-0.714,0-1.056-0.28-1.22-0.679c-0.318-0.766,0.258-1.732,3.119-2.92
				C84.501,91.503,85.471,91.271,86.139,91.271 M86.139,90.271c-0.86,0-1.974,0.289-3.405,0.884c-1.48,0.614-2.492,1.22-3.093,1.853
				c-0.94,0.989-0.758,1.912-0.566,2.375c0.198,0.482,0.742,1.295,2.143,1.295c0.844,0,1.966-0.296,3.431-0.904
				c1.262-0.524,4.616-1.916,3.662-4.224C88.113,91.071,87.567,90.271,86.139,90.271L86.139,90.271z"/>
		</g>
		<g>
			<path fill="#C8E288" d="M80.143,99.275c-1.188-2.859-0.914-3.951-0.148-4.27c0.766-0.316,1.678,0.133,2.918,3.123
				c1.24,2.986,0.912,3.951,0.148,4.268C82.295,102.713,81.328,102.139,80.143,99.275z"/>
			<path fill="#84B026" d="M80.404,94.92c0.68,0,1.482,0.734,2.508,3.209c1.24,2.986,0.912,3.951,0.148,4.268
				c-0.121,0.05-0.247,0.078-0.378,0.078c-0.699,0-1.542-0.788-2.54-3.199c-1.188-2.859-0.914-3.951-0.149-4.27
				C80.126,94.951,80.262,94.92,80.404,94.92 M80.404,93.92L80.404,93.92c-0.265,0-0.531,0.055-0.792,0.162
				c-2.31,0.961-0.867,4.435-0.393,5.577c1.092,2.638,2.161,3.815,3.463,3.815c0.258,0,0.513-0.052,0.76-0.154
				c0.465-0.193,1.25-0.711,1.295-2.022c0.03-0.871-0.257-2-0.902-3.553C82.723,95.064,81.697,93.92,80.404,93.92L80.404,93.92z"/>
		</g>
		<g>
			<path fill="#C8E288" d="M77.08,91.887c-1.188-2.861-0.912-3.953-0.148-4.272c0.768-0.316,1.68,0.133,2.92,3.121
				c1.238,2.988,0.912,3.951,0.146,4.268C79.234,95.322,78.266,94.748,77.08,91.887z"/>
			<path fill="#84B026" d="M77.342,87.529c0.681,0,1.483,0.734,2.509,3.207c1.238,2.988,0.912,3.951,0.146,4.268
				c-0.121,0.051-0.248,0.079-0.379,0.079c-0.697,0-1.541-0.788-2.539-3.196c-1.188-2.861-0.912-3.953-0.149-4.272
				C77.064,87.561,77.2,87.529,77.342,87.529 M77.342,86.529L77.342,86.529c-0.265,0-0.531,0.054-0.792,0.162
				c-2.31,0.963-0.868,4.438-0.394,5.579c1.092,2.636,2.16,3.812,3.462,3.812c0.259,0,0.516-0.052,0.764-0.156
				c0.462-0.191,1.248-0.709,1.293-2.02c0.03-0.87-0.256-1.998-0.9-3.553C79.663,87.673,78.636,86.529,77.342,86.529L77.342,86.529z
				"/>
		</g>
		<g>
			<ellipse transform="matrix(1 -0.0039 0.0039 1 -0.3699 0.3128)" fill="#84B026" cx="79.991" cy="94.98" rx="2.999" ry="3"/>
		</g>
	</g>
	<g>
		<rect x="9.797" y="94.5" fill="#84B026" width="12" height="1"/>
		<g>
			<path fill="#C8E288" d="M13.08,98.117c1.182-2.861,2.148-3.44,2.914-3.123c0.766,0.316,1.094,1.279-0.142,4.271
				c-1.236,2.988-2.15,3.438-2.914,3.121C12.172,102.07,11.894,100.98,13.08,98.117z"/>
			<path fill="#84B026" d="M15.617,94.917c0.131,0,0.256,0.028,0.377,0.077c0.766,0.316,1.094,1.279-0.142,4.271
				c-1.023,2.473-1.826,3.207-2.505,3.207c-0.141,0-0.277-0.032-0.409-0.086c-0.766-0.316-1.043-1.406,0.143-4.269
				C14.075,95.707,14.918,94.917,15.617,94.917 M15.617,93.917L15.617,93.917c-1.303,0-2.371,1.178-3.461,3.819
				c-0.613,1.48-0.9,2.624-0.878,3.497c0.034,1.363,0.816,1.888,1.278,2.079c0.259,0.107,0.526,0.162,0.791,0.162
				c1.294,0,2.32-1.144,3.429-3.825c0.523-1.265,1.91-4.624-0.4-5.578C16.13,93.968,15.875,93.917,15.617,93.917L15.617,93.917z"/>
		</g>
		<g>
			<path fill="#C8E288" d="M16.141,90.727c1.182-2.861,2.149-3.441,2.916-3.123c0.766,0.316,1.092,1.279-0.145,4.27
				c-1.236,2.99-2.148,3.439-2.912,3.123C15.232,94.68,14.957,93.588,16.141,90.727z"/>
			<path fill="#84B026" d="M18.678,87.525c0.131,0,0.257,0.028,0.379,0.078c0.766,0.316,1.092,1.279-0.145,4.27
				c-1.023,2.475-1.825,3.209-2.503,3.209c-0.141,0-0.277-0.032-0.409-0.086c-0.768-0.316-1.043-1.408,0.141-4.27
				C17.136,88.317,17.978,87.525,18.678,87.525 M18.678,86.525L18.678,86.525c-1.303,0-2.371,1.178-3.462,3.82
				c-0.867,2.096-1.084,3.523-0.682,4.489c0.21,0.505,0.585,0.881,1.085,1.087c0.258,0.107,0.525,0.162,0.79,0.162
				c1.293,0,2.318-1.145,3.428-3.827c0.643-1.555,0.928-2.685,0.898-3.554c-0.046-1.312-0.832-1.83-1.296-2.022
				C19.193,86.577,18.936,86.525,18.678,86.525L18.678,86.525z"/>
		</g>
		<g>
			<path fill="#C8E288" d="M19.117,97.922c-2.861-1.182-3.438-2.148-3.123-2.914c0.318-0.766,1.281-1.094,4.272,0.143
				c2.988,1.236,3.439,2.15,3.123,2.914C23.072,98.83,21.98,99.107,19.117,97.922z"/>
			<path fill="#84B026" d="M17.22,94.327c0.654,0,1.619,0.234,3.046,0.824c2.988,1.236,3.439,2.15,3.123,2.914
				c-0.164,0.396-0.535,0.661-1.251,0.661c-0.669,0-1.638-0.231-3.021-0.804c-2.861-1.182-3.438-2.148-3.123-2.914
				C16.161,94.608,16.503,94.327,17.22,94.327 M17.22,93.327L17.22,93.327c-1.401,0-1.948,0.813-2.149,1.297
				c-0.951,2.316,2.523,3.751,3.665,4.222c1.429,0.592,2.542,0.88,3.403,0.88c1.432,0,1.977-0.802,2.175-1.279
				c0.192-0.463,0.38-1.385-0.516-2.344c-0.595-0.637-1.595-1.233-3.149-1.876C19.184,93.621,18.063,93.327,17.22,93.327
				L17.22,93.327z"/>
		</g>
		<g>
			<path fill="#C8E288" d="M11.729,94.861c-2.863-1.182-3.441-2.148-3.125-2.914c0.318-0.766,1.281-1.094,4.271,0.142
				c2.988,1.238,3.44,2.148,3.123,2.914C15.682,95.768,14.59,96.047,11.729,94.861z"/>
			<path fill="#84B026" d="M9.829,91.266c0.654,0,1.619,0.234,3.046,0.824c2.988,1.238,3.44,2.148,3.123,2.914
				c-0.164,0.395-0.535,0.661-1.251,0.661c-0.668,0-1.637-0.231-3.018-0.803c-2.863-1.182-3.441-2.148-3.125-2.914
				C8.77,91.547,9.113,91.266,9.829,91.266 M9.83,90.266L9.83,90.266c-1.401,0-1.948,0.813-2.149,1.297
				c-0.192,0.465-0.372,1.388,0.57,2.375c0.603,0.632,1.616,1.236,3.097,1.847c1.427,0.591,2.539,0.879,3.4,0.879
				c1.432,0,1.978-0.801,2.175-1.278c0.954-2.307-2.401-3.697-3.664-4.221C11.793,90.56,10.672,90.266,9.83,90.266L9.83,90.266z"/>
		</g>
		<g>
			<path fill="#C8E288" d="M11.727,95.141c2.859-1.188,3.951-0.914,4.27-0.148c0.316,0.766-0.133,1.678-3.121,2.92
				c-2.988,1.238-3.953,0.91-4.268,0.146C8.289,97.293,8.863,96.326,11.727,95.141z"/>
			<path fill="#84B026" d="M14.749,94.333c0.713,0,1.082,0.264,1.247,0.659c0.316,0.766-0.133,1.678-3.121,2.92
				c-1.427,0.591-2.393,0.826-3.047,0.826c-0.715,0-1.057-0.28-1.221-0.679c-0.318-0.766,0.256-1.732,3.119-2.918
				C13.111,94.566,14.081,94.333,14.749,94.333 M14.749,93.333L14.749,93.333c-0.86,0-1.975,0.289-3.406,0.884
				c-2.095,0.867-3.257,1.722-3.657,2.689c-0.209,0.505-0.21,1.037-0.002,1.536c0.198,0.482,0.743,1.295,2.144,1.295
				c0.843,0,1.965-0.295,3.429-0.902c1.263-0.525,4.616-1.919,3.662-4.226C16.721,94.132,16.176,93.333,14.749,93.333L14.749,93.333
				z"/>
		</g>
		<g>
			<path fill="#C8E288" d="M19.117,92.078c2.859-1.188,3.951-0.914,4.269-0.146c0.316,0.766-0.133,1.678-3.121,2.918
				c-2.988,1.24-3.953,0.912-4.268,0.148C15.68,94.232,16.256,93.266,19.117,92.078z"/>
			<path fill="#84B026" d="M22.139,91.271c0.713,0,1.083,0.265,1.248,0.661c0.316,0.766-0.133,1.678-3.121,2.918
				c-1.428,0.593-2.394,0.827-3.048,0.827c-0.714,0-1.056-0.28-1.22-0.679c-0.318-0.766,0.258-1.732,3.119-2.92
				C20.501,91.503,21.471,91.271,22.139,91.271 M22.139,90.271c-0.86,0-1.974,0.289-3.405,0.884c-1.48,0.614-2.492,1.22-3.093,1.853
				c-0.94,0.989-0.758,1.912-0.566,2.375c0.198,0.482,0.742,1.295,2.143,1.295c0.844,0,1.966-0.296,3.431-0.904
				c1.262-0.524,4.616-1.916,3.662-4.224C24.113,91.071,23.567,90.271,22.139,90.271L22.139,90.271z"/>
		</g>
		<g>
			<path fill="#C8E288" d="M16.143,99.275c-1.187-2.859-0.914-3.951-0.148-4.27c0.766-0.316,1.678,0.133,2.918,3.123
				c1.24,2.986,0.912,3.951,0.148,4.268C18.295,102.713,17.328,102.139,16.143,99.275z"/>
			<path fill="#84B026" d="M16.404,94.92c0.68,0,1.482,0.734,2.508,3.209c1.24,2.986,0.912,3.951,0.148,4.268
				c-0.121,0.05-0.247,0.078-0.378,0.078c-0.699,0-1.542-0.788-2.54-3.199c-1.188-2.859-0.914-3.951-0.148-4.27
				C16.126,94.951,16.262,94.92,16.404,94.92 M16.404,93.92L16.404,93.92c-0.265,0-0.531,0.055-0.792,0.162
				c-2.31,0.961-0.867,4.435-0.393,5.577c1.092,2.638,2.161,3.815,3.463,3.815c0.258,0,0.513-0.052,0.76-0.154
				c0.465-0.193,1.25-0.711,1.295-2.022c0.03-0.871-0.257-2-0.902-3.553C18.723,95.064,17.697,93.92,16.404,93.92L16.404,93.92z"/>
		</g>
		<g>
			<path fill="#C8E288" d="M13.08,91.887c-1.188-2.861-0.912-3.953-0.149-4.272c0.768-0.316,1.68,0.133,2.92,3.121
				c1.238,2.988,0.912,3.951,0.146,4.268C15.234,95.322,14.266,94.748,13.08,91.887z"/>
			<path fill="#84B026" d="M13.342,87.529c0.681,0,1.483,0.734,2.51,3.207c1.238,2.988,0.912,3.951,0.146,4.268
				c-0.121,0.051-0.248,0.079-0.379,0.079c-0.697,0-1.541-0.788-2.539-3.196c-1.188-2.861-0.912-3.953-0.148-4.272
				C13.064,87.561,13.2,87.529,13.342,87.529 M13.342,86.529L13.342,86.529c-0.265,0-0.531,0.054-0.792,0.162
				c-2.31,0.963-0.868,4.438-0.394,5.579c1.092,2.636,2.16,3.812,3.462,3.812c0.259,0,0.516-0.052,0.764-0.156
				c0.462-0.191,1.248-0.709,1.293-2.02c0.03-0.87-0.256-1.999-0.9-3.553C15.663,87.673,14.636,86.529,13.342,86.529L13.342,86.529z
				"/>
		</g>
		<g>
			<ellipse transform="matrix(1 -0.0039 0.0039 1 -0.3704 0.0631)" fill="#84B026" cx="15.991" cy="94.98" rx="2.999" ry="3"/>
		</g>
	</g>
</g>
</svg>
