<?xml version="1.0" encoding="utf-8"?>
<!-- Generator: Adobe Illustrator 19.2.0, SVG Export Plug-In . SVG Version: 6.00 Build 0)  -->
<svg version="1.0" id="Ebene_1" xmlns="http://www.w3.org/2000/svg" xmlns:xlink="http://www.w3.org/1999/xlink" x="0px" y="0px"
	 viewBox="0 0 128 128" enable-background="new 0 0 128 128" xml:space="preserve">
<rect fill="#C8E288" width="128" height="128"/>
<g>
	<g>
		<path fill="#BBDA78" d="M80.004,64.014c-0.767-0.316-1.732,0.262-2.915,3.123c-1.186,2.863-0.908,3.953-0.143,4.27
			c0.765,0.316,1.679-0.133,2.914-3.121C81.097,65.293,80.769,64.33,80.004,64.014z"/>
		<path fill="#7AA42A" d="M80.386,63.089c-0.247-0.102-0.502-0.153-0.759-0.153h0c-1.303,0-2.37,1.178-3.462,3.819
			c-0.613,1.48-0.9,2.625-0.879,3.497c0.034,1.363,0.815,1.888,1.278,2.079c0.26,0.108,0.526,0.162,0.791,0.162
			c1.295,0,2.32-1.144,3.429-3.825C81.307,67.403,82.695,64.044,80.386,63.089z M79.86,68.285c-1.023,2.473-1.825,3.207-2.505,3.207
			c-0.141,0-0.278-0.032-0.409-0.086c-0.766-0.317-1.043-1.406,0.143-4.27c0.996-2.41,1.839-3.2,2.538-3.201
			c0.131,0,0.257,0.028,0.377,0.078C80.77,64.33,81.097,65.293,79.86,68.285z"/>
	</g>
	<g>
		<path fill="#BBDA78" d="M83.065,56.623c-0.767-0.317-1.733,0.262-2.915,3.123c-1.185,2.862-0.908,3.953-0.142,4.269
			c0.764,0.316,1.677-0.133,2.913-3.123C84.158,57.902,83.831,56.94,83.065,56.623z"/>
		<path fill="#7AA42A" d="M83.447,55.699c-0.246-0.102-0.502-0.154-0.76-0.154h0c-1.303,0-2.371,1.178-3.461,3.819
			c-0.613,1.48-0.9,2.624-0.878,3.496c0.034,1.364,0.816,1.888,1.279,2.079c0.259,0.107,0.525,0.162,0.79,0.162
			c1.294,0,2.319-1.145,3.428-3.827c0.643-1.555,0.928-2.685,0.898-3.555C84.698,56.409,83.912,55.891,83.447,55.699z
			 M82.922,60.893c-1.023,2.475-1.825,3.209-2.504,3.209c-0.141,0-0.277-0.032-0.409-0.086c-0.767-0.316-1.043-1.407,0.142-4.269
			c0.995-2.41,1.838-3.201,2.537-3.201c0.131,0,0.257,0.028,0.378,0.078C83.831,56.94,84.158,57.902,82.922,60.893z"/>
	</g>
	<g>
		<path fill="#BBDA78" d="M84.275,64.171c-2.991-1.237-3.954-0.909-4.271-0.144c-0.315,0.767,0.262,1.732,3.123,2.914
			c2.863,1.186,3.954,0.908,4.271,0.144C87.715,66.32,87.264,65.406,84.275,64.171z"/>
		<path fill="#7AA42A" d="M84.657,63.247c-1.465-0.606-2.586-0.9-3.429-0.9h0c-1.401,0-1.947,0.813-2.148,1.298
			c-0.952,2.315,2.523,3.75,3.665,4.221c1.429,0.592,2.543,0.88,3.403,0.88c1.431,0,1.976-0.801,2.174-1.278
			c0.214-0.515,0.216-1.054,0.007-1.559C87.933,64.954,86.801,64.133,84.657,63.247z M87.398,67.085
			c-0.164,0.395-0.534,0.66-1.25,0.66c-0.668,0-1.638-0.231-3.021-0.804c-2.861-1.182-3.439-2.148-3.123-2.914
			c0.166-0.4,0.508-0.681,1.224-0.681c0.654,0,1.619,0.234,3.047,0.824C87.264,65.406,87.715,66.32,87.398,67.085z"/>
	</g>
	<g>
		<path fill="#BBDA78" d="M76.884,61.109c-2.99-1.236-3.953-0.908-4.271-0.143c-0.315,0.766,0.263,1.732,3.125,2.915
			c2.861,1.185,3.953,0.906,4.269,0.142C80.323,63.258,79.873,62.348,76.884,61.109z"/>
		<path fill="#7AA42A" d="M77.267,60.186c-1.464-0.606-2.586-0.9-3.428-0.9h0c-1.401,0-1.948,0.813-2.149,1.297
			c-0.953,2.314,2.524,3.751,3.666,4.223c1.428,0.591,2.54,0.878,3.4,0.878c1.432,0,1.978-0.801,2.175-1.279
			C81.884,62.099,78.529,60.709,77.267,60.186z M80.007,64.023c-0.164,0.396-0.535,0.661-1.251,0.661
			c-0.668,0-1.637-0.231-3.018-0.803c-2.862-1.183-3.44-2.149-3.125-2.915c0.166-0.4,0.509-0.681,1.226-0.681
			c0.654,0,1.619,0.234,3.046,0.824C79.873,62.348,80.323,63.258,80.007,64.023z"/>
	</g>
	<g>
		<path fill="#BBDA78" d="M75.735,64.16c-2.862,1.186-3.438,2.152-3.119,2.918c0.315,0.764,1.28,1.092,4.268-0.146
			c2.988-1.242,3.438-2.154,3.121-2.92C79.687,63.246,78.595,62.973,75.735,64.16z"/>
		<path fill="#7AA42A" d="M78.758,62.353c-0.86,0-1.974,0.289-3.406,0.884c-2.095,0.868-3.257,1.722-3.657,2.69
			c-0.209,0.505-0.21,1.036-0.002,1.536c0.199,0.482,0.744,1.295,2.145,1.295c0.843,0,1.965-0.295,3.429-0.902
			c1.263-0.525,4.616-1.919,3.662-4.226C80.73,63.152,80.185,62.353,78.758,62.353z M76.884,66.932
			c-1.427,0.591-2.392,0.826-3.046,0.826c-0.715,0-1.057-0.28-1.222-0.679c-0.318-0.766,0.257-1.732,3.119-2.918
			c1.384-0.575,2.354-0.807,3.023-0.807c0.712,0,1.082,0.264,1.247,0.659C80.321,64.777,79.872,65.69,76.884,66.932z"/>
	</g>
	<g>
		<path fill="#BBDA78" d="M83.126,61.098c-2.861,1.188-3.438,2.154-3.119,2.92c0.316,0.764,1.28,1.092,4.268-0.148
			c2.989-1.24,3.438-2.152,3.121-2.918C87.078,60.185,85.985,59.91,83.126,61.098z"/>
		<path fill="#7AA42A" d="M86.148,59.291c-0.86,0-1.974,0.289-3.405,0.883c-1.48,0.614-2.492,1.22-3.093,1.853
			c-0.94,0.989-0.758,1.912-0.566,2.375c0.199,0.482,0.744,1.295,2.144,1.295c0.844,0,1.966-0.296,3.43-0.904
			c1.263-0.524,4.618-1.916,3.661-4.224C88.122,60.091,87.577,59.291,86.148,59.291z M84.274,63.869
			c-1.427,0.593-2.393,0.827-3.047,0.827c-0.714,0-1.056-0.28-1.221-0.679c-0.318-0.766,0.258-1.732,3.119-2.92
			c1.383-0.574,2.353-0.807,3.022-0.807c0.714,0,1.084,0.265,1.248,0.66C87.713,61.717,87.264,62.629,84.274,63.869z"/>
	</g>
	<g>
		<path fill="#BBDA78" d="M80.003,64.025c-0.765,0.318-1.039,1.41,0.148,4.271c1.185,2.862,2.153,3.438,2.918,3.12
			c0.765-0.316,1.092-1.281-0.147-4.268C81.682,64.158,80.769,63.709,80.003,64.025z"/>
		<path fill="#7AA42A" d="M80.413,62.939L80.413,62.939c-0.265,0-0.532,0.055-0.792,0.162c-2.31,0.962-0.867,4.436-0.393,5.578
			c1.093,2.638,2.161,3.815,3.463,3.815c0.258,0,0.515-0.052,0.762-0.154c0.515-0.213,0.898-0.593,1.107-1.097
			c0.395-0.954,0.175-2.335-0.714-4.477C82.733,64.083,81.707,62.939,80.413,62.939z M83.069,71.416
			c-0.121,0.05-0.247,0.078-0.378,0.078c-0.698,0-1.542-0.789-2.54-3.198c-1.188-2.86-0.913-3.952-0.148-4.271
			c0.132-0.055,0.268-0.086,0.41-0.086c0.68,0,1.483,0.734,2.509,3.209C84.161,70.135,83.834,71.1,83.069,71.416z"/>
	</g>
	<g>
		<path fill="#BBDA78" d="M76.941,56.635c-0.765,0.318-1.04,1.41,0.148,4.272c1.186,2.861,2.154,3.435,2.919,3.118
			c0.765-0.317,1.091-1.28-0.147-4.269C78.62,56.768,77.708,56.318,76.941,56.635z"/>
		<path fill="#7AA42A" d="M77.352,55.549L77.352,55.549c-0.265,0-0.531,0.055-0.792,0.162c-2.311,0.962-0.869,4.437-0.395,5.579
			c1.093,2.637,2.162,3.813,3.464,3.813c0.258,0,0.515-0.052,0.762-0.155c2.306-0.957,0.916-4.312,0.393-5.575
			C79.672,56.692,78.645,55.549,77.352,55.549z M80.008,64.024c-0.121,0.05-0.247,0.078-0.379,0.078
			c-0.698,0-1.542-0.788-2.54-3.196c-1.188-2.861-0.912-3.953-0.148-4.272c0.132-0.055,0.268-0.086,0.41-0.086
			c0.681,0,1.482,0.734,2.509,3.207C81.099,62.744,80.773,63.707,80.008,64.024z"/>
	</g>
	<g>
		<ellipse transform="matrix(1 -0.0041 0.0041 1 -0.2598 0.3261)" fill="#7AA42A" cx="80" cy="64" rx="3" ry="3"/>
	</g>
</g>
<g>
	<g>
		<path fill="#BBDA78" d="M80.004,128.002c-0.003-0.001-0.005-0.001-0.008-0.002h-0.712"/>
		<path fill="#BBDA78" d="M79.283,128h0.712C79.776,127.911,79.537,127.908,79.283,128z"/>
		<path fill="#7AA42A" d="M81.407,128h-1.413c0.003,0.001,0.007,0.001,0.01,0.002"/>
		<path fill="#7AA42A" d="M79.273,128h-1.58"/>
		<path fill="#7AA42A" d="M80.386,127.078c-0.247-0.102-0.502-0.153-0.759-0.153h0c-0.699,0-1.33,0.353-1.934,1.076h1.58
			c0.121-0.045,0.24-0.076,0.354-0.076c0.127,0,0.25,0.028,0.368,0.076h1.413C81.208,127.611,80.888,127.285,80.386,127.078z"/>
	</g>
	<g>
		<path fill="#BBDA78" d="M82.922,124.881c1.236-2.99,0.909-3.953,0.144-4.27c-0.767-0.317-1.733,0.262-2.915,3.123
			c-1.181,2.853-0.909,3.945-0.148,4.266h0.818C81.411,127.744,82.093,126.884,82.922,124.881z"/>
		<path fill="#7AA42A" d="M84.744,121.708c-0.046-1.312-0.832-1.829-1.296-2.021c-0.246-0.102-0.502-0.154-0.76-0.154h0
			c-1.303,0-2.371,1.178-3.461,3.819c-0.613,1.48-0.9,2.624-0.878,3.496c0.012,0.483,0.121,0.856,0.273,1.151h1.381
			c-0.761-0.32-1.033-1.412,0.148-4.266c0.995-2.41,1.838-3.201,2.537-3.201c0.131,0,0.257,0.028,0.378,0.078
			c0.766,0.316,1.093,1.279-0.144,4.27c-0.837,2.024-1.524,2.873-2.118,3.119h1.54c0.505-0.621,0.995-1.511,1.502-2.737
			C84.489,123.708,84.774,122.578,84.744,121.708z"/>
	</g>
	<g>
		<path fill="#BBDA78" d="M80.013,128h3.845C81.231,126.981,80.321,127.285,80.013,128z"/>
		<path fill="#7AA42A" d="M81.229,126.335L81.229,126.335c-1.401,0-1.947,0.813-2.148,1.298c-0.052,0.125-0.085,0.247-0.111,0.367
			h1.044c0.169-0.391,0.509-0.665,1.215-0.665c0.585,0,1.44,0.203,2.632,0.665h2.415c-0.461-0.253-0.991-0.506-1.617-0.765
			C83.193,126.629,82.071,126.335,81.229,126.335z"/>
	</g>
	<g>
		<path fill="#BBDA78" d="M76.884,125.098c-2.99-1.236-3.953-0.908-4.271-0.143c-0.315,0.766,0.263,1.732,3.125,2.915
			c0.123,0.051,0.225,0.084,0.341,0.13h3.932C80.318,127.237,79.858,126.33,76.884,125.098z"/>
		<path fill="#7AA42A" d="M76.077,128h-2.395"/>
		<path fill="#7AA42A" d="M77.266,124.174c-1.464-0.606-2.586-0.9-3.428-0.9h0c-1.401,0-1.948,0.813-2.149,1.297
			c-0.635,1.542,0.696,2.692,1.994,3.429h2.395c-0.116-0.045-0.218-0.079-0.34-0.13c-2.862-1.183-3.44-2.149-3.125-2.915
			c0.166-0.4,0.509-0.681,1.226-0.681c0.654,0,1.619,0.234,3.046,0.824c2.974,1.232,3.434,2.139,3.127,2.902h1.041
			C81.497,125.928,78.456,124.666,77.266,124.174z"/>
	</g>
	<g>
		<path fill="#BBDA78" d="M76.124,128h3.881C79.702,127.272,78.681,127.005,76.124,128z"/>
		<path fill="#7AA42A" d="M81.047,128h-1.042"/>
		<path fill="#7AA42A" d="M78.758,126.341L78.758,126.341c-0.86,0-1.975,0.289-3.406,0.884c-0.624,0.258-1.155,0.516-1.618,0.775
			h2.389c1.171-0.456,2.034-0.659,2.635-0.659c0.713,0,1.083,0.264,1.247,0.659h1.042c-0.028-0.125-0.064-0.251-0.118-0.382
			C80.73,127.14,80.185,126.341,78.758,126.341z"/>
	</g>
	<g>
		<path fill="#BBDA78" d="M83.902,128h-3.897"/>
		<path fill="#BBDA78" d="M87.396,124.94c-0.317-0.767-1.41-1.041-4.27,0.146c-2.854,1.185-3.434,2.149-3.121,2.914h3.897
			c0.127-0.05,0.237-0.086,0.372-0.143C87.264,126.617,87.713,125.705,87.396,124.94z"/>
		<path fill="#7AA42A" d="M86.318,128h-2.414"/>
		<path fill="#7AA42A" d="M88.319,124.557c-0.197-0.477-0.742-1.277-2.172-1.277h0c-0.86,0-1.974,0.289-3.405,0.883
			c-1.48,0.614-2.492,1.22-3.093,1.853c-0.724,0.761-0.781,1.482-0.682,1.985h1.038c-0.313-0.765,0.266-1.73,3.121-2.914
			c1.383-0.574,2.353-0.807,3.022-0.807c0.714,0,1.084,0.265,1.248,0.66c0.317,0.766-0.132,1.678-3.121,2.918
			c-0.134,0.056-0.245,0.093-0.371,0.143h2.414C87.637,127.262,88.968,126.12,88.319,124.557z"/>
	</g>
	<g>
		<path fill="#BBDA78" d="M80.043,128h0.736C80.517,127.897,80.273,127.913,80.043,128z"/>
		<path fill="#7AA42A" d="M82.327,128h-1.568"/>
		<path fill="#7AA42A" d="M80.413,126.927L80.413,126.927c-0.265,0-0.532,0.055-0.792,0.162c-0.491,0.204-0.804,0.526-1.001,0.911
			h1.448c0.112-0.04,0.226-0.073,0.345-0.073c0.111,0,0.227,0.029,0.346,0.073h1.568C81.729,127.274,81.11,126.927,80.413,126.927z"
			/>
	</g>
	<g>
		<path fill="#BBDA78" d="M79.86,123.744c-1.24-2.988-2.152-3.438-2.919-3.121c-0.765,0.318-1.04,1.41,0.148,4.271
			c0.825,1.99,1.542,2.859,2.161,3.106h0.78C80.777,127.672,81.086,126.701,79.86,123.744z"/>
		<path fill="#7AA42A" d="M80.784,123.361c-1.113-2.681-2.139-3.825-3.433-3.825c-0.265,0-0.531,0.054-0.792,0.162
			c-2.311,0.962-0.869,4.437-0.395,5.579c0.502,1.211,1,2.1,1.516,2.722h1.558c-0.616-0.253-1.331-1.127-2.151-3.106
			c-1.188-2.861-0.912-3.953-0.148-4.271c0.132-0.055,0.268-0.086,0.41-0.086c0.681,0,1.482,0.734,2.509,3.207
			c1.225,2.957,0.917,3.928,0.169,4.256h1.388C82.12,126.6,81.192,124.346,80.784,123.361z"/>
	</g>
	<g>
		<path fill="#7AA42A" d="M82.998,128h-5.997"/>
	</g>
	<g>
		<path fill="#7AA42A" d="M82.998,128c0-0.008,0.002-0.015,0.002-0.023c-0.006-1.656-1.354-2.994-3.012-2.987
			c-1.657,0.005-2.994,1.355-2.987,3.011"/>
	</g>
</g>
<g>
	<g>
		<path fill="#BBDA78" d="M77.089,3.117c-1.186,2.863-0.908,3.953-0.143,4.27c0.765,0.316,1.679-0.133,2.914-3.121
			c1.23-2.978,0.911-3.945,0.154-4.266h-0.749C78.642,0.237,77.92,1.106,77.089,3.117z"/>
		<path fill="#7AA42A" d="M75.286,6.232c0.034,1.363,0.816,1.888,1.278,2.079c0.26,0.107,0.526,0.162,0.791,0.162
			c1.295,0,2.32-1.144,3.429-3.825C81.193,3.66,82.121,1.399,81.411,0h-1.397c0.758,0.321,1.077,1.288-0.154,4.266
			c-1.023,2.473-1.825,3.207-2.505,3.207c-0.142,0-0.278-0.032-0.409-0.086c-0.766-0.316-1.043-1.406,0.143-4.27
			C77.915,1.118,78.634,0.244,79.255,0h-1.568c-0.519,0.624-1.018,1.517-1.522,2.735C75.552,4.216,75.264,5.36,75.286,6.232z"/>
	</g>
	<g>
		<path fill="#BBDA78" d="M80.804,0H80.02C80.264,0.099,80.524,0.117,80.804,0z"/>
		<path fill="#7AA42A" d="M79.627,0.92c0.259,0.107,0.525,0.162,0.79,0.162c0.7,0,1.321-0.349,1.92-1.082h-1.552
			c-0.126,0.05-0.25,0.082-0.368,0.082c-0.135,0-0.264-0.032-0.39-0.082h-1.403C78.902,0.533,79.33,0.798,79.627,0.92z"/>
	</g>
	<g>
		<path fill="#BBDA78" d="M83.127,2.922c2.863,1.186,3.954,0.908,4.271,0.144c0.317-0.765-0.134-1.679-3.122-2.914
			C84.131,0.092,84.014,0.052,83.879,0h-3.87c-0.001,0.003-0.003,0.005-0.005,0.008C79.688,0.774,80.266,1.74,83.127,2.922z"/>
		<path fill="#7AA42A" d="M82.745,3.846c1.429,0.592,2.543,0.88,3.403,0.88c1.431,0,1.976-0.801,2.174-1.278
			c0.214-0.515,0.216-1.054,0.007-1.559C88.05,1.216,87.395,0.609,86.288,0H83.88c0.134,0.052,0.252,0.092,0.395,0.151
			c2.988,1.235,3.439,2.149,3.122,2.914c-0.164,0.395-0.534,0.66-1.25,0.66c-0.668,0-1.638-0.231-3.021-0.804
			c-2.861-1.182-3.439-2.147-3.123-2.914C80.005,0.005,80.007,0.003,80.008,0h-1.042C78.51,2.094,81.667,3.401,82.745,3.846z"/>
	</g>
	<g>
		<path fill="#BBDA78" d="M80.007,0.004C80.007,0.003,80.008,0.001,80.008,0h-3.909C78.678,1.005,79.705,0.734,80.007,0.004z"/>
		<path fill="#7AA42A" d="M78.755,1.665c1.433,0,1.978-0.801,2.176-1.279C80.985,0.254,81.022,0.126,81.05,0h-1.042
			c-0.001,0.001-0.001,0.003-0.001,0.004c-0.164,0.396-0.535,0.661-1.251,0.661c-0.606,0-1.475-0.204-2.657-0.665h-2.402
			c0.645,0.365,1.281,0.63,1.659,0.786C76.783,1.378,77.895,1.665,78.755,1.665z"/>
	</g>
	<g>
		<path fill="#BBDA78" d="M72.616,3.059c0.315,0.764,1.28,1.092,4.268-0.146C79.862,1.674,80.318,0.764,80.008,0h-3.904
			c-0.125,0.049-0.235,0.086-0.368,0.141C72.873,1.326,72.298,2.293,72.616,3.059z"/>
		<path fill="#7AA42A" d="M71.695,1.907c-0.209,0.505-0.21,1.036-0.002,1.536c0.199,0.482,0.744,1.295,2.145,1.295
			c0.843,0,1.965-0.295,3.429-0.902c1.19-0.495,4.232-1.761,3.782-3.836h-1.042c0.31,0.764-0.146,1.674-3.124,2.912
			c-1.427,0.591-2.392,0.826-3.046,0.826c-0.715,0-1.057-0.28-1.222-0.679c-0.318-0.766,0.257-1.732,3.119-2.918
			C75.867,0.086,75.978,0.049,76.102,0H73.72C72.637,0.609,71.974,1.23,71.695,1.907z"/>
	</g>
	<g>
		<path fill="#BBDA78" d="M83.882,0h-3.874C80.309,0.726,81.221,1.04,83.882,0z"/>
		<path fill="#7AA42A" d="M81.228,1.677c0.844,0,1.966-0.296,3.43-0.904C85.062,0.605,85.681,0.347,86.304,0h-2.421
			c-1.205,0.471-2.067,0.677-2.656,0.677c-0.713,0-1.055-0.279-1.22-0.677h-1.039c0.03,0.147,0.071,0.278,0.114,0.382
			C79.283,0.864,79.827,1.677,81.228,1.677z"/>
	</g>
	<g>
		<path fill="#BBDA78" d="M80.151,4.276c1.185,2.862,2.153,3.438,2.918,3.12c0.765-0.316,1.092-1.281-0.147-4.268
			C82.081,1.102,81.391,0.245,80.795,0H80.02c-0.006,0.002-0.011,0.004-0.017,0.006C79.238,0.324,78.964,1.416,80.151,4.276z"/>
		<path fill="#7AA42A" d="M79.228,4.66c1.093,2.638,2.161,3.815,3.463,3.815c0.258,0,0.515-0.052,0.762-0.154
			c0.515-0.213,0.898-0.593,1.107-1.097c0.395-0.954,0.175-2.335-0.714-4.477C83.335,1.514,82.841,0.621,82.333,0h-1.556
			c0.6,0.234,1.295,1.08,2.145,3.129c1.239,2.986,0.912,3.951,0.147,4.268c-0.121,0.05-0.247,0.078-0.378,0.078
			c-0.698,0-1.542-0.789-2.54-3.198c-1.188-2.86-0.913-3.952-0.148-4.271C80.012,0.002,80.022,0.003,80.031,0h-1.415
			C77.892,1.427,78.855,3.762,79.228,4.66z"/>
	</g>
	<g>
		<path fill="#BBDA78" d="M80.008,0.005C80.011,0.004,80.013,0.001,80.016,0h-0.748C79.532,0.1,79.78,0.099,80.008,0.005z"/>
		<path fill="#7AA42A" d="M79.629,1.083c0.258,0,0.515-0.052,0.762-0.155C80.895,0.719,81.215,0.391,81.413,0h-1.397
			c-0.003,0.001-0.005,0.004-0.008,0.005c-0.121,0.05-0.247,0.078-0.379,0.078c-0.119,0-0.244-0.033-0.371-0.083h-1.57
			C78.294,0.728,78.927,1.083,79.629,1.083z"/>
	</g>
	<g>
		<path fill="#7AA42A" d="M80.013,2.98c1.646-0.006,2.974-1.339,2.984-2.98h-5.995C77.014,1.652,78.359,2.986,80.013,2.98z"/>
	</g>
</g>
<g>
	<g>
		<path fill="#BBDA78" d="M15.994,95.994c-0.767-0.316-1.732,0.262-2.916,3.123c-1.186,2.863-0.908,3.953-0.143,4.269
			c0.766,0.316,1.68-0.133,2.914-3.121C17.086,97.273,16.76,96.31,15.994,95.994z"/>
		<path fill="#7AA42A" d="M16.376,95.07c-0.247-0.102-0.502-0.153-0.759-0.153h0c-1.302,0-2.37,1.178-3.462,3.818
			c-0.613,1.481-0.901,2.625-0.879,3.497c0.034,1.363,0.815,1.888,1.278,2.079c0.26,0.108,0.527,0.162,0.792,0.162
			c1.296,0,2.321-1.144,3.429-3.826C17.296,99.383,18.684,96.024,16.376,95.07z M15.85,100.266
			c-1.022,2.473-1.824,3.207-2.504,3.207c-0.142,0-0.278-0.032-0.41-0.086c-0.766-0.316-1.043-1.406,0.143-4.269
			c0.997-2.41,1.839-3.201,2.538-3.201c0.131,0,0.257,0.028,0.378,0.078C16.76,96.31,17.086,97.273,15.85,100.266z"/>
	</g>
	<g>
		<path fill="#BBDA78" d="M19.055,88.603c-0.766-0.317-1.732,0.262-2.914,3.123c-1.186,2.862-0.908,3.953-0.143,4.27
			c0.764,0.316,1.678-0.133,2.914-3.123C20.148,89.883,19.82,88.92,19.055,88.603z"/>
		<path fill="#7AA42A" d="M19.437,87.679c-0.246-0.102-0.501-0.154-0.759-0.154h0c-1.303,0-2.37,1.178-3.461,3.819
			c-0.613,1.48-0.9,2.624-0.878,3.496c0.034,1.364,0.815,1.888,1.278,2.079c0.259,0.107,0.526,0.162,0.791,0.162
			c1.295,0,2.32-1.145,3.429-3.827c0.643-1.555,0.928-2.685,0.897-3.555C20.687,88.389,19.901,87.871,19.437,87.679z M18.912,92.873
			c-1.023,2.475-1.826,3.209-2.505,3.209c-0.141,0-0.277-0.032-0.409-0.086c-0.766-0.316-1.043-1.407,0.143-4.27
			c0.995-2.41,1.838-3.201,2.537-3.201c0.131,0,0.257,0.028,0.377,0.078C19.82,88.92,20.148,89.883,18.912,92.873z"/>
	</g>
	<g>
		<path fill="#BBDA78" d="M20.266,96.151c-2.992-1.237-3.955-0.909-4.272-0.144c-0.316,0.767,0.262,1.732,3.123,2.914
			c2.863,1.185,3.953,0.908,4.27,0.143C23.705,98.301,23.254,97.387,20.266,96.151z"/>
		<path fill="#7AA42A" d="M20.648,95.227c-1.465-0.606-2.587-0.9-3.43-0.9h0c-1.402,0-1.947,0.814-2.148,1.299
			c-0.954,2.312,2.523,3.748,3.666,4.22c1.429,0.592,2.542,0.88,3.402,0.88c1.431,0,1.976-0.801,2.173-1.278
			c0.214-0.513,0.217-1.053,0.008-1.558C23.924,96.935,22.792,96.114,20.648,95.227z M23.387,99.065
			c-0.164,0.395-0.534,0.66-1.249,0.66c-0.668,0-1.637-0.231-3.02-0.804c-2.861-1.182-3.44-2.147-3.123-2.914
			c0.165-0.4,0.508-0.681,1.224-0.681c0.654,0,1.62,0.234,3.048,0.824C23.254,97.387,23.705,98.301,23.387,99.065z"/>
	</g>
	<g>
		<path fill="#BBDA78" d="M12.873,93.09c-2.99-1.236-3.953-0.908-4.271-0.143c-0.314,0.766,0.264,1.732,3.125,2.915
			c2.861,1.185,3.953,0.906,4.269,0.142C16.312,95.238,15.863,94.328,12.873,93.09z"/>
		<path fill="#7AA42A" d="M13.256,92.166c-1.464-0.605-2.586-0.9-3.428-0.9h0c-1.401,0-1.948,0.813-2.149,1.297
			c-0.951,2.315,2.524,3.751,3.667,4.223c1.428,0.591,2.54,0.879,3.4,0.879c1.433,0,1.978-0.801,2.176-1.279
			C17.874,94.078,14.519,92.689,13.256,92.166z M15.996,96.004c-0.164,0.396-0.535,0.661-1.251,0.661
			c-0.668,0-1.637-0.231-3.018-0.803c-2.861-1.183-3.44-2.149-3.125-2.915c0.166-0.4,0.509-0.681,1.226-0.681
			c0.654,0,1.619,0.234,3.046,0.824C15.863,94.328,16.312,95.238,15.996,96.004z"/>
	</g>
	<g>
		<path fill="#BBDA78" d="M11.725,96.141c-2.861,1.186-3.438,2.152-3.119,2.918c0.316,0.764,1.281,1.092,4.268-0.146
			c2.988-1.242,3.438-2.154,3.121-2.92C15.676,95.227,14.584,94.953,11.725,96.141z"/>
		<path fill="#7AA42A" d="M14.748,94.333L14.748,94.333c-0.86,0-1.975,0.289-3.406,0.884c-2.095,0.868-3.257,1.723-3.657,2.69
			c-0.209,0.505-0.209,1.036-0.002,1.535c0.2,0.483,0.746,1.295,2.146,1.295c0.843,0,1.965-0.295,3.428-0.902
			c1.263-0.525,4.616-1.919,3.662-4.226C16.719,95.132,16.174,94.333,14.748,94.333z M12.873,98.912
			c-1.426,0.591-2.391,0.826-3.045,0.826c-0.715,0-1.057-0.28-1.222-0.679c-0.318-0.766,0.258-1.732,3.119-2.918
			c1.384-0.575,2.354-0.807,3.023-0.807c0.713,0,1.082,0.264,1.247,0.659C16.31,96.758,15.861,97.67,12.873,98.912z"/>
	</g>
	<g>
		<path fill="#BBDA78" d="M19.115,93.078c-2.861,1.188-3.438,2.154-3.119,2.92c0.316,0.764,1.281,1.092,4.268-0.148
			c2.99-1.24,3.439-2.152,3.121-2.918C23.068,92.165,21.975,91.891,19.115,93.078z"/>
		<path fill="#7AA42A" d="M22.137,91.271c-0.86,0-1.974,0.289-3.406,0.883c-1.48,0.614-2.492,1.22-3.093,1.853
			c-0.94,0.989-0.758,1.912-0.566,2.375c0.2,0.483,0.745,1.295,2.145,1.295c0.844,0,1.966-0.296,3.43-0.904
			c1.555-0.645,2.556-1.242,3.149-1.879c0.895-0.96,0.705-1.882,0.512-2.347C24.112,92.073,23.568,91.271,22.137,91.271z
			 M20.264,95.85c-1.427,0.593-2.393,0.827-3.046,0.827c-0.714,0-1.056-0.28-1.221-0.679c-0.318-0.766,0.258-1.732,3.119-2.92
			c1.383-0.574,2.353-0.807,3.022-0.807c0.714,0,1.084,0.265,1.247,0.66C23.703,93.697,23.254,94.609,20.264,95.85z"/>
	</g>
	<g>
		<path fill="#BBDA78" d="M15.992,96.006c-0.764,0.318-1.039,1.41,0.148,4.271c1.186,2.862,2.154,3.438,2.918,3.12
			c0.766-0.316,1.092-1.281-0.146-4.268C17.672,96.139,16.758,95.69,15.992,96.006z"/>
		<path fill="#7AA42A" d="M16.402,94.92L16.402,94.92c-0.265,0-0.532,0.055-0.792,0.162c-2.309,0.963-0.867,4.437-0.393,5.578
			c1.093,2.638,2.161,3.815,3.464,3.815c0.259,0,0.515-0.052,0.762-0.155c0.514-0.212,0.897-0.592,1.107-1.097
			c0.395-0.954,0.175-2.335-0.713-4.477C18.724,96.064,17.697,94.92,16.402,94.92z M19.059,103.396
			c-0.121,0.05-0.247,0.078-0.378,0.078c-0.698,0-1.542-0.789-2.54-3.198c-1.188-2.86-0.912-3.952-0.148-4.271
			c0.132-0.054,0.268-0.086,0.41-0.086c0.68,0,1.484,0.734,2.51,3.209C20.15,102.115,19.824,103.08,19.059,103.396z"/>
	</g>
	<g>
		<path fill="#BBDA78" d="M12.932,88.615c-0.766,0.318-1.041,1.41,0.147,4.271c1.188,2.861,2.154,3.436,2.92,3.118
			c0.764-0.317,1.09-1.28-0.148-4.269C14.609,88.748,13.697,88.299,12.932,88.615z"/>
		<path fill="#7AA42A" d="M13.341,87.529L13.341,87.529c-0.265,0-0.531,0.055-0.792,0.162c-2.312,0.961-0.869,4.437-0.395,5.579
			c1.094,2.637,2.163,3.813,3.465,3.813c0.258,0,0.515-0.052,0.762-0.154c2.306-0.958,0.916-4.312,0.392-5.575
			C15.661,88.673,14.634,87.529,13.341,87.529z M15.998,96.005c-0.121,0.05-0.248,0.078-0.379,0.078
			c-0.698,0-1.542-0.788-2.541-3.196c-1.188-2.861-0.912-3.953-0.147-4.272c0.132-0.055,0.268-0.086,0.41-0.086
			c0.68,0,1.482,0.734,2.508,3.207C17.088,94.725,16.762,95.688,15.998,96.005z"/>
	</g>
	<g>
		<ellipse transform="matrix(1 -0.0039 0.0039 1 -0.3758 0.0634)" fill="#7AA42A" cx="15.99" cy="95.981" rx="3" ry="3"/>
	</g>
</g>
<g>
	<g>
		<path fill="#BBDA78" d="M15.994,32.519c-0.767-0.316-1.732,0.262-2.916,3.123c-1.186,2.863-0.908,3.953-0.143,4.27
			c0.766,0.316,1.68-0.133,2.914-3.121C17.086,33.799,16.76,32.836,15.994,32.519z"/>
		<path fill="#7AA42A" d="M16.376,31.595c-0.247-0.102-0.502-0.153-0.759-0.153h0c-1.302,0-2.37,1.178-3.462,3.818
			c-0.613,1.481-0.901,2.625-0.879,3.497c0.034,1.363,0.815,1.888,1.278,2.079c0.26,0.108,0.527,0.162,0.792,0.162
			c1.296,0,2.321-1.144,3.429-3.826C17.296,35.908,18.684,32.549,16.376,31.595z M15.85,36.791
			c-1.022,2.473-1.824,3.207-2.504,3.207c-0.142,0-0.278-0.032-0.41-0.086c-0.766-0.316-1.043-1.406,0.143-4.27
			c0.997-2.41,1.839-3.201,2.538-3.201c0.131,0,0.257,0.028,0.378,0.078C16.76,32.836,17.086,33.799,15.85,36.791z"/>
	</g>
	<g>
		<path fill="#BBDA78" d="M19.055,25.129c-0.766-0.317-1.732,0.262-2.914,3.123c-1.186,2.862-0.908,3.953-0.143,4.269
			c0.764,0.316,1.678-0.133,2.914-3.123C20.148,26.408,19.82,25.445,19.055,25.129z"/>
		<path fill="#7AA42A" d="M19.437,24.205c-0.246-0.102-0.501-0.154-0.759-0.154h0c-1.303,0-2.37,1.178-3.461,3.819
			c-0.613,1.48-0.9,2.624-0.878,3.496c0.034,1.364,0.815,1.888,1.278,2.079c0.259,0.107,0.526,0.162,0.791,0.162
			c1.295,0,2.32-1.145,3.429-3.827c0.643-1.555,0.928-2.685,0.897-3.555C20.687,24.914,19.901,24.397,19.437,24.205z M18.912,29.398
			c-1.023,2.475-1.826,3.209-2.505,3.209c-0.141,0-0.277-0.032-0.409-0.086c-0.766-0.316-1.043-1.407,0.143-4.269
			c0.995-2.41,1.838-3.201,2.537-3.201c0.131,0,0.257,0.028,0.377,0.078C19.82,25.445,20.148,26.408,18.912,29.398z"/>
	</g>
	<g>
		<path fill="#BBDA78" d="M20.266,32.677c-2.992-1.237-3.955-0.909-4.272-0.144c-0.316,0.767,0.262,1.732,3.123,2.914
			c2.863,1.186,3.953,0.908,4.27,0.143C23.705,34.826,23.254,33.912,20.266,32.677z"/>
		<path fill="#7AA42A" d="M20.648,31.753c-1.465-0.606-2.587-0.9-3.43-0.9h0c-1.402,0-1.947,0.814-2.148,1.299
			c-0.954,2.312,2.523,3.748,3.666,4.22c1.429,0.592,2.542,0.88,3.402,0.88c1.431,0,1.976-0.801,2.173-1.278
			c0.214-0.513,0.217-1.053,0.008-1.558C23.924,33.46,22.792,32.639,20.648,31.753z M23.387,35.591
			c-0.164,0.395-0.534,0.66-1.249,0.66c-0.668,0-1.637-0.231-3.02-0.804c-2.861-1.182-3.44-2.147-3.123-2.914
			c0.165-0.4,0.508-0.681,1.224-0.681c0.654,0,1.62,0.234,3.048,0.825C23.254,33.912,23.705,34.826,23.387,35.591z"/>
	</g>
	<g>
		<path fill="#BBDA78" d="M12.873,29.615c-2.99-1.236-3.953-0.908-4.271-0.143c-0.314,0.766,0.264,1.732,3.125,2.915
			c2.861,1.185,3.953,0.906,4.269,0.142C16.312,31.764,15.863,30.853,12.873,29.615z"/>
		<path fill="#7AA42A" d="M13.256,28.691c-1.464-0.605-2.586-0.9-3.428-0.9h0c-1.401,0-1.948,0.813-2.149,1.297
			c-0.951,2.315,2.524,3.751,3.667,4.223c1.428,0.591,2.54,0.878,3.4,0.878c1.433,0,1.978-0.801,2.176-1.279
			C17.874,30.604,14.519,29.214,13.256,28.691z M15.996,32.529c-0.164,0.396-0.535,0.661-1.252,0.661
			c-0.668,0-1.637-0.231-3.018-0.803c-2.861-1.183-3.44-2.149-3.125-2.915c0.166-0.4,0.509-0.681,1.226-0.681
			c0.654,0,1.619,0.234,3.046,0.824C15.863,30.854,16.312,31.764,15.996,32.529z"/>
	</g>
	<g>
		<path fill="#BBDA78" d="M11.725,32.666c-2.861,1.186-3.438,2.152-3.119,2.918c0.316,0.764,1.281,1.092,4.268-0.146
			c2.988-1.242,3.438-2.154,3.121-2.92C15.676,31.752,14.584,31.478,11.725,32.666z"/>
		<path fill="#7AA42A" d="M14.748,30.859L14.748,30.859c-0.86,0-1.975,0.289-3.406,0.884c-2.095,0.868-3.257,1.723-3.657,2.69
			c-0.209,0.505-0.209,1.036-0.002,1.535c0.2,0.483,0.746,1.295,2.146,1.295c0.843,0,1.965-0.295,3.428-0.902
			c1.263-0.525,4.616-1.919,3.662-4.226C16.719,31.657,16.174,30.859,14.748,30.859z M12.873,35.438
			c-1.426,0.591-2.391,0.826-3.045,0.826c-0.715,0-1.057-0.28-1.222-0.679c-0.318-0.766,0.258-1.732,3.119-2.918
			c1.384-0.575,2.354-0.807,3.023-0.807c0.713,0,1.082,0.264,1.247,0.659C16.31,33.283,15.861,34.195,12.873,35.438z"/>
	</g>
	<g>
		<path fill="#BBDA78" d="M19.115,29.603c-2.861,1.188-3.438,2.154-3.119,2.92c0.316,0.764,1.281,1.092,4.268-0.148
			c2.99-1.24,3.439-2.152,3.121-2.918C23.068,28.69,21.975,28.416,19.115,29.603z"/>
		<path fill="#7AA42A" d="M22.137,27.797c-0.86,0-1.974,0.289-3.406,0.883c-1.48,0.614-2.492,1.22-3.093,1.853
			c-0.94,0.989-0.758,1.912-0.566,2.375c0.2,0.483,0.745,1.295,2.145,1.295c0.844,0,1.966-0.296,3.43-0.904
			c1.555-0.645,2.556-1.242,3.149-1.879c0.895-0.96,0.705-1.882,0.512-2.347C24.112,28.598,23.568,27.797,22.137,27.797z
			 M20.264,32.375c-1.427,0.593-2.393,0.827-3.046,0.827c-0.714,0-1.056-0.28-1.221-0.679c-0.318-0.766,0.258-1.732,3.119-2.92
			c1.383-0.575,2.353-0.807,3.022-0.807c0.714,0,1.084,0.265,1.247,0.66C23.703,30.223,23.254,31.135,20.264,32.375z"/>
	</g>
	<g>
		<path fill="#BBDA78" d="M15.992,32.531c-0.764,0.318-1.039,1.41,0.148,4.27c1.186,2.862,2.154,3.438,2.918,3.12
			c0.766-0.316,1.092-1.281-0.146-4.268C17.672,32.664,16.758,32.215,15.992,32.531z"/>
		<path fill="#7AA42A" d="M16.402,31.445L16.402,31.445c-0.265,0-0.531,0.055-0.792,0.162c-2.309,0.963-0.867,4.437-0.393,5.578
			C16.31,39.823,17.378,41,18.681,41c0.259,0,0.515-0.052,0.762-0.155c0.514-0.212,0.897-0.592,1.107-1.097
			c0.395-0.954,0.175-2.335-0.713-4.477C18.723,32.589,17.697,31.445,16.402,31.445z M19.059,39.922
			C18.938,39.972,18.812,40,18.681,40c-0.698,0-1.542-0.789-2.54-3.198c-1.188-2.86-0.912-3.952-0.148-4.27
			c0.132-0.055,0.268-0.086,0.41-0.086c0.68,0,1.484,0.734,2.51,3.209C20.15,38.641,19.824,39.605,19.059,39.922z"/>
	</g>
	<g>
		<path fill="#BBDA78" d="M12.932,25.141c-0.766,0.318-1.041,1.41,0.147,4.272c1.188,2.861,2.154,3.436,2.92,3.118
			c0.764-0.317,1.09-1.28-0.148-4.269C14.609,25.273,13.697,24.824,12.932,25.141z"/>
		<path fill="#7AA42A" d="M13.341,24.054L13.341,24.054c-0.265,0-0.531,0.055-0.792,0.162c-2.312,0.961-0.869,4.437-0.395,5.579
			c1.094,2.637,2.163,3.813,3.465,3.813c0.258,0,0.515-0.052,0.762-0.154c2.306-0.958,0.916-4.312,0.392-5.575
			C15.661,25.198,14.634,24.054,13.341,24.054z M15.998,32.53c-0.121,0.05-0.248,0.078-0.379,0.078
			c-0.698,0-1.542-0.788-2.541-3.196c-1.188-2.861-0.912-3.953-0.147-4.272c0.132-0.055,0.268-0.086,0.41-0.086
			c0.68,0,1.482,0.734,2.508,3.207C17.088,31.25,16.762,32.213,15.998,32.53z"/>
	</g>
	<g>
		<ellipse transform="matrix(1 -0.0039 0.0039 1 -0.1272 0.0629)" fill="#7AA42A" cx="15.99" cy="32.506" rx="3" ry="3"/>
	</g>
</g>
<rect x="40" y="23" fill="#7AA42A" width="80" height="2"/>
<rect x="40" y="38.998" fill="#7AA42A" width="80" height="2"/>
<rect x="104" y="55.001" fill="#7AA42A" width="24" height="2"/>
<rect x="104" y="70.999" fill="#7AA42A" width="24" height="2"/>
<rect y="55.043" fill="#7AA42A" width="56.02" height="2"/>
<rect y="71.041" fill="#7AA42A" width="56.02" height="2"/>
<rect x="103.997" y="7.042" fill="#7AA42A" width="24.003" height="2"/>
<rect y="7.042" fill="#7AA42A" width="56" height="2"/>
<rect x="40" y="86.979" fill="#7AA42A" width="80" height="2"/>
<rect x="40" y="102.978" fill="#7AA42A" width="80" height="2"/>
<rect x="104" y="118.98" fill="#7AA42A" width="24" height="2"/>
<rect y="119.022" fill="#7AA42A" width="56.02" height="2"/>
</svg>
