<?xml version="1.0" encoding="utf-8"?>
<!-- Generator: Adobe Illustrator 19.2.0, SVG Export Plug-In . SVG Version: 6.00 Build 0)  -->
<svg version="1.0" id="Ebene_1" xmlns="http://www.w3.org/2000/svg" xmlns:xlink="http://www.w3.org/1999/xlink" x="0px" y="0px"
	 viewBox="0 0 128 128" enable-background="new 0 0 128 128" xml:space="preserve">
<rect x="2.343" y="6.875" transform="matrix(0.7071 -0.7071 0.7071 0.7071 -3.225 7.9632)" fill="#84B026" width="11.314" height="2"/>
<rect x="34.343" y="6.875" transform="matrix(0.7071 -0.7071 0.7071 0.7071 6.1476 30.5907)" fill="#84B026" width="11.314" height="2"/>
<rect x="98.343" y="6.875" transform="matrix(0.7071 -0.7071 0.7071 0.7071 24.8928 75.8455)" fill="#84B026" width="11.314" height="2"/>
<rect x="66.343" y="6.875" transform="matrix(0.7071 -0.7071 0.7071 0.7071 15.5202 53.2181)" fill="#84B026" width="11.314" height="2"/>
<rect x="18.343" y="22.875" transform="matrix(0.7071 -0.7071 0.7071 0.7071 -9.8524 23.9632)" fill="#84B026" width="11.314" height="2"/>
<rect x="82.343" y="22.875" transform="matrix(0.7071 -0.7071 0.7071 0.7071 8.8928 69.2181)" fill="#84B026" width="11.314" height="2"/>
<rect x="2.343" y="38.875" transform="matrix(0.7071 -0.7071 0.7071 0.7071 -25.8524 17.3358)" fill="#84B026" width="11.314" height="2"/>
<rect x="66.343" y="38.875" transform="matrix(0.7071 -0.7071 0.7071 0.7071 -7.1072 62.5907)" fill="#84B026" width="11.314" height="2"/>
<rect x="18.343" y="54.875" transform="matrix(0.7071 -0.7071 0.7071 0.7071 -32.4798 33.3358)" fill="#84B026" width="11.314" height="2"/>
<rect x="82.343" y="54.875" transform="matrix(0.7071 -0.7071 0.7071 0.7071 -13.7346 78.5907)" fill="#84B026" width="11.314" height="2"/>
<rect x="50.343" y="54.875" transform="matrix(0.7071 -0.7071 0.7071 0.7071 -23.1072 55.9632)" fill="#84B026" width="11.314" height="2"/>
<rect x="114.343" y="54.875" transform="matrix(0.7071 -0.7071 0.7071 0.7071 -4.3621 101.2181)" fill="#84B026" width="11.314" height="2"/>
<rect x="2.343" y="70.875" transform="matrix(0.7071 -0.7071 0.7071 0.7071 -48.4798 26.7084)" fill="#84B026" width="11.314" height="2"/>
<rect x="34.343" y="70.875" transform="matrix(0.7071 -0.7071 0.7071 0.7071 -39.1072 49.3358)" fill="#84B026" width="11.314" height="2"/>
<rect x="98.343" y="70.875" transform="matrix(0.7071 -0.7071 0.7071 0.7071 -20.3621 94.5907)" fill="#84B026" width="11.314" height="2"/>
<rect x="66.343" y="70.875" transform="matrix(0.7071 -0.7071 0.7071 0.7071 -29.7346 71.9632)" fill="#84B026" width="11.314" height="2"/>
<rect x="50.343" y="86.875" transform="matrix(0.7071 -0.7071 0.7071 0.7071 -45.7348 65.3359)" fill="#84B026" width="11.314" height="2"/>
<rect x="114.343" y="86.875" transform="matrix(0.7071 -0.7071 0.7071 0.7071 -26.9896 110.5907)" fill="#84B026" width="11.314" height="2"/>
<rect x="34.343" y="102.875" transform="matrix(0.7071 -0.7071 0.7071 0.7071 -61.735 58.7086)" fill="#84B026" width="11.314" height="2"/>
<rect x="98.343" y="102.875" transform="matrix(0.7071 -0.7071 0.7071 0.7071 -42.9898 103.9634)" fill="#84B026" width="11.314" height="2"/>
<rect x="18.343" y="118.875" transform="matrix(0.7071 -0.7071 0.7071 0.7071 -77.735 52.0811)" fill="#84B026" width="11.314" height="2"/>
<rect x="50.343" y="118.875" transform="matrix(0.7071 -0.7071 0.7071 0.7071 -68.3624 74.7086)" fill="#84B026" width="11.314" height="2"/>
<rect x="114.343" y="118.875" transform="matrix(0.7071 -0.7071 0.7071 0.7071 -49.6172 119.9634)" fill="#84B026" width="11.314" height="2"/>
<rect x="82.343" y="118.875" transform="matrix(0.7071 -0.7071 0.7071 0.7071 -58.9898 97.336)" fill="#84B026" width="11.314" height="2"/>
<g>
	<path fill="#C8E288" d="M109.088,35.011c1.184-2.861,2.148-3.44,2.916-3.124c0.766,0.317,1.092,1.28-0.145,4.271
		c-1.234,2.989-2.148,3.438-2.914,3.122C108.18,38.964,107.902,37.874,109.088,35.011z"/>
	<path fill="#84B026" d="M111.627,31.81c0.131,0,0.256,0.028,0.377,0.077c0.766,0.317,1.092,1.28-0.145,4.271
		c-1.022,2.474-1.824,3.208-2.504,3.208c-0.142,0-0.278-0.032-0.41-0.086c-0.766-0.316-1.043-1.407,0.143-4.27
		C110.085,32.6,110.927,31.81,111.627,31.81 M111.627,30.81L111.627,30.81c-1.302,0-2.37,1.178-3.463,3.819
		c-0.613,1.48-0.901,2.624-0.879,3.497c0.034,1.364,0.816,1.888,1.278,2.079c0.26,0.108,0.527,0.162,0.792,0.162
		c1.296,0,2.321-1.144,3.429-3.827c0.522-1.264,1.91-4.621-0.397-5.577C112.139,30.861,111.884,30.81,111.627,30.81L111.627,30.81z"
		/>
</g>
<g>
	<path fill="#C8E288" d="M112.15,27.621c1.182-2.862,2.148-3.441,2.914-3.124c0.766,0.317,1.094,1.28-0.143,4.271
		c-1.236,2.989-2.15,3.439-2.914,3.123C111.242,31.574,110.965,30.482,112.15,27.621z"/>
	<path fill="#84B026" d="M114.687,24.419c0.131,0,0.256,0.028,0.377,0.078c0.766,0.317,1.094,1.28-0.143,4.271
		c-1.023,2.474-1.826,3.209-2.505,3.209c-0.141,0-0.277-0.032-0.409-0.086c-0.766-0.316-1.043-1.407,0.143-4.269
		C113.146,25.21,113.989,24.419,114.687,24.419 M114.687,23.419L114.687,23.419c-1.303,0-2.371,1.178-3.461,3.82
		c-0.868,2.094-1.085,3.521-0.684,4.488c0.21,0.505,0.584,0.881,1.084,1.087c0.258,0.107,0.525,0.162,0.79,0.162
		c1.294,0,2.32-1.144,3.429-3.827c0.522-1.264,1.91-4.619-0.398-5.576C115.201,23.471,114.945,23.419,114.687,23.419L114.687,23.419
		z"/>
</g>
<g>
	<path fill="#C8E288" d="M115.127,34.816c-2.861-1.183-3.439-2.148-3.123-2.915c0.316-0.766,1.279-1.093,4.271,0.144
		c2.988,1.236,3.439,2.15,3.121,2.914C119.08,35.724,117.99,36.001,115.127,34.816z"/>
	<path fill="#84B026" d="M113.227,31.22c0.654,0,1.62,0.234,3.048,0.824c2.988,1.236,3.439,2.15,3.121,2.914
		c-0.164,0.396-0.534,0.661-1.249,0.661c-0.668,0-1.637-0.231-3.02-0.804c-2.861-1.183-3.439-2.148-3.123-2.915
		C112.169,31.501,112.511,31.22,113.227,31.22 M113.227,30.22c-1.401,0-1.947,0.814-2.147,1.299
		c-0.954,2.312,2.523,3.749,3.665,4.221c1.429,0.592,2.542,0.88,3.402,0.88c1.431,0,1.976-0.801,2.174-1.279
		c0.214-0.513,0.217-1.052,0.008-1.558c-0.395-0.955-1.527-1.776-3.671-2.663C115.192,30.515,114.07,30.22,113.227,30.22
		L113.227,30.22z"/>
</g>
<g>
	<path fill="#C8E288" d="M107.736,31.756c-2.861-1.182-3.439-2.149-3.125-2.915c0.318-0.767,1.281-1.094,4.271,0.142
		c2.99,1.238,3.44,2.149,3.123,2.914C111.689,32.662,110.598,32.94,107.736,31.756z"/>
	<path fill="#84B026" d="M105.837,28.16c0.654,0,1.619,0.234,3.046,0.823c2.99,1.238,3.439,2.149,3.123,2.914
		c-0.164,0.396-0.535,0.661-1.251,0.661c-0.668,0-1.637-0.231-3.018-0.802c-2.861-1.182-3.439-2.149-3.125-2.915
		C104.778,28.44,105.121,28.16,105.837,28.16 M105.837,27.16L105.837,27.16c-1.401,0-1.948,0.813-2.149,1.298
		c-0.951,2.314,2.524,3.75,3.667,4.222c1.428,0.591,2.54,0.878,3.4,0.878c1.433,0,1.978-0.801,2.176-1.279
		c0.955-2.307-2.401-3.697-3.665-4.22C107.8,27.454,106.679,27.16,105.837,27.16L105.837,27.16z"/>
</g>
<g>
	<path fill="#C8E288" d="M107.734,32.034c2.859-1.187,3.951-0.914,4.27-0.147c0.316,0.766-0.133,1.678-3.121,2.919
		c-2.986,1.239-3.951,0.911-4.268,0.147C104.297,34.187,104.873,33.22,107.734,32.034z"/>
	<path fill="#84B026" d="M110.757,31.227c0.713,0,1.083,0.264,1.247,0.66c0.316,0.766-0.133,1.678-3.121,2.919
		c-1.427,0.592-2.392,0.826-3.046,0.826c-0.715,0-1.057-0.28-1.222-0.679c-0.318-0.766,0.258-1.733,3.119-2.919
		C109.118,31.459,110.088,31.227,110.757,31.227 M110.757,30.227c-0.86,0-1.974,0.289-3.406,0.884
		c-2.095,0.868-3.257,1.724-3.657,2.691c-0.209,0.505-0.209,1.036-0.002,1.535c0.2,0.483,0.746,1.295,2.145,1.295
		c0.843,0,1.965-0.295,3.429-0.903c1.263-0.524,4.616-1.917,3.662-4.225C112.729,31.026,112.184,30.227,110.757,30.227
		L110.757,30.227z"/>
</g>
<g>
	<path fill="#C8E288" d="M115.125,28.972c2.859-1.188,3.953-0.914,4.27-0.148c0.318,0.766-0.131,1.678-3.121,2.919
		c-2.986,1.239-3.951,0.912-4.268,0.147C111.688,31.125,112.264,30.159,115.125,28.972z"/>
	<path fill="#84B026" d="M118.148,28.165c0.713,0,1.083,0.264,1.247,0.66c0.318,0.766-0.131,1.678-3.121,2.919
		c-1.427,0.592-2.392,0.826-3.046,0.826c-0.714,0-1.056-0.28-1.222-0.679c-0.318-0.766,0.258-1.732,3.119-2.919
		C116.509,28.398,117.479,28.165,118.148,28.165 M118.148,27.165c-0.861,0-1.975,0.289-3.406,0.884
		c-2.095,0.869-3.258,1.724-3.657,2.691c-0.209,0.505-0.209,1.036-0.002,1.535c0.2,0.483,0.745,1.295,2.145,1.295
		c0.843,0,1.965-0.295,3.429-0.903c1.555-0.646,2.556-1.243,3.15-1.88c0.895-0.96,0.705-1.883,0.512-2.347
		C120.122,27.966,119.578,27.165,118.148,27.165L118.148,27.165z"/>
</g>
<g>
	<path fill="#C8E288" d="M112.15,36.17c-1.188-2.86-0.912-3.952-0.148-4.27c0.766-0.317,1.68,0.132,2.92,3.122
		c1.238,2.987,0.912,3.951,0.146,4.268C114.305,39.607,113.336,39.032,112.15,36.17z"/>
	<path fill="#84B026" d="M112.412,31.813c0.68,0,1.483,0.735,2.51,3.209c1.238,2.987,0.912,3.951,0.146,4.268
		c-0.121,0.05-0.247,0.078-0.378,0.078c-0.698,0-1.542-0.789-2.54-3.198c-1.188-2.86-0.912-3.952-0.148-4.27
		C112.134,31.845,112.271,31.813,112.412,31.813 M112.412,30.813L112.412,30.813c-0.266,0-0.533,0.055-0.793,0.163
		c-2.308,0.962-0.866,4.436-0.392,5.577c1.093,2.638,2.161,3.815,3.464,3.815c0.258,0,0.515-0.052,0.762-0.155
		c0.463-0.192,1.249-0.71,1.294-2.022c0.03-0.87-0.256-1.999-0.9-3.553C114.733,31.957,113.706,30.813,112.412,30.813
		L112.412,30.813z"/>
</g>
<g>
	<path fill="#C8E288" d="M109.088,28.78c-1.188-2.86-0.912-3.952-0.146-4.271c0.766-0.317,1.678,0.133,2.918,3.121
		c1.238,2.988,0.912,3.951,0.148,4.268C111.242,32.216,110.275,31.641,109.088,28.78z"/>
	<path fill="#84B026" d="M109.351,24.423c0.68,0,1.481,0.735,2.508,3.208c1.238,2.988,0.912,3.951,0.148,4.268
		c-0.121,0.05-0.248,0.078-0.379,0.078c-0.698,0-1.541-0.789-2.541-3.197c-1.188-2.86-0.912-3.952-0.146-4.271
		C109.073,24.455,109.21,24.423,109.351,24.423 M109.352,23.423L109.352,23.423c-0.266,0-0.532,0.055-0.793,0.163
		c-2.311,0.961-0.868,4.436-0.394,5.578c1.095,2.637,2.163,3.813,3.464,3.813c0.259,0,0.515-0.052,0.763-0.155
		c2.305-0.957,0.915-4.311,0.392-5.574C111.67,24.566,110.644,23.423,109.352,23.423L109.352,23.423z"/>
</g>
<g>
	<ellipse transform="matrix(1 -0.0039 0.0039 1 -0.1235 0.437)" fill="#84B026" cx="112" cy="31.874" rx="3" ry="2.999"/>
</g>
<g>
	<path fill="#C8E288" d="M45.088,35.011c1.183-2.861,2.148-3.44,2.915-3.124c0.766,0.317,1.093,1.28-0.143,4.271
		c-1.235,2.989-2.15,3.438-2.914,3.122C44.18,38.964,43.903,37.874,45.088,35.011z"/>
	<path fill="#84B026" d="M47.626,31.81c0.131,0,0.256,0.028,0.377,0.077c0.766,0.317,1.093,1.28-0.143,4.271
		c-1.023,2.474-1.825,3.208-2.505,3.208c-0.141,0-0.278-0.032-0.409-0.086c-0.766-0.316-1.043-1.407,0.143-4.27
		C46.085,32.6,46.927,31.81,47.626,31.81 M47.626,30.81L47.626,30.81c-1.303,0-2.37,1.178-3.462,3.819
		c-0.613,1.48-0.9,2.624-0.879,3.497c0.034,1.364,0.816,1.888,1.278,2.079c0.26,0.107,0.526,0.162,0.791,0.162
		c1.295,0,2.321-1.144,3.429-3.826c0.522-1.264,1.91-4.621-0.398-5.577C48.139,30.861,47.884,30.81,47.626,30.81L47.626,30.81z"/>
</g>
<g>
	<path fill="#C8E288" d="M48.15,27.621c1.182-2.862,2.148-3.441,2.915-3.124c0.766,0.317,1.093,1.28-0.144,4.271
		c-1.236,2.989-2.149,3.439-2.913,3.123C47.242,31.574,46.965,30.482,48.15,27.621z"/>
	<path fill="#84B026" d="M50.687,24.419c0.131,0,0.257,0.028,0.378,0.078c0.766,0.317,1.093,1.28-0.143,4.271
		c-1.023,2.474-1.825,3.209-2.504,3.209c-0.141,0-0.277-0.032-0.409-0.086c-0.767-0.316-1.043-1.407,0.142-4.269
		C49.145,25.21,49.988,24.419,50.687,24.419 M50.687,23.419L50.687,23.419c-1.304,0-2.371,1.178-3.462,3.82
		c-0.867,2.095-1.084,3.522-0.683,4.489c0.21,0.505,0.585,0.881,1.085,1.087c0.258,0.107,0.525,0.162,0.79,0.162
		c1.294,0,2.319-1.144,3.428-3.827c0.522-1.264,1.91-4.62-0.398-5.576C51.201,23.471,50.945,23.419,50.687,23.419L50.687,23.419z"/>
</g>
<g>
	<path fill="#C8E288" d="M51.126,34.816c-2.861-1.183-3.438-2.148-3.123-2.915c0.317-0.766,1.28-1.093,4.271,0.144
		c2.988,1.236,3.44,2.15,3.122,2.914C55.081,35.724,53.99,36.001,51.126,34.816z"/>
	<path fill="#84B026" d="M49.227,31.22c0.654,0,1.62,0.234,3.048,0.824c2.988,1.236,3.439,2.15,3.122,2.914
		c-0.164,0.396-0.534,0.661-1.25,0.661c-0.668,0-1.638-0.231-3.021-0.804c-2.861-1.183-3.438-2.148-3.123-2.915
		C48.169,31.501,48.511,31.22,49.227,31.22 M49.227,30.22c-1.401,0-1.947,0.813-2.148,1.297c-0.952,2.314,2.523,3.75,3.665,4.222
		c1.429,0.592,2.543,0.88,3.403,0.88c1.432,0,1.977-0.801,2.174-1.279c0.213-0.514,0.216-1.053,0.007-1.558
		c-0.395-0.955-1.527-1.776-3.671-2.662C51.192,30.515,50.07,30.22,49.227,30.22L49.227,30.22z"/>
</g>
<g>
	<path fill="#C8E288" d="M43.737,31.756c-2.862-1.182-3.44-2.149-3.125-2.915c0.318-0.767,1.281-1.094,4.271,0.142
		c2.989,1.238,3.439,2.149,3.123,2.914C47.69,32.662,46.598,32.94,43.737,31.756z"/>
	<path fill="#84B026" d="M41.838,28.16c0.654,0,1.619,0.234,3.046,0.823c2.989,1.238,3.439,2.149,3.123,2.914
		c-0.164,0.396-0.535,0.661-1.251,0.661c-0.668,0-1.637-0.231-3.018-0.802c-2.862-1.182-3.44-2.149-3.125-2.915
		C40.778,28.44,41.121,28.16,41.838,28.16 M41.838,27.16L41.838,27.16c-1.401,0-1.948,0.813-2.149,1.298
		c-0.954,2.314,2.524,3.75,3.667,4.222c1.428,0.591,2.54,0.878,3.4,0.878c1.433,0,1.978-0.801,2.176-1.279
		c0.955-2.307-2.401-3.697-3.664-4.22C43.801,27.454,42.68,27.16,41.838,27.16L41.838,27.16z"/>
</g>
<g>
	<path fill="#C8E288" d="M43.735,32.034c2.859-1.187,3.951-0.914,4.269-0.147c0.316,0.766-0.133,1.678-3.121,2.919
		c-2.987,1.239-3.952,0.911-4.268,0.147C40.297,34.187,40.873,33.22,43.735,32.034z"/>
	<path fill="#84B026" d="M46.757,31.227c0.713,0,1.083,0.264,1.247,0.66c0.316,0.766-0.133,1.678-3.121,2.919
		c-1.427,0.592-2.393,0.826-3.046,0.826c-0.715,0-1.057-0.28-1.221-0.679c-0.318-0.766,0.257-1.733,3.119-2.919
		C45.119,31.459,46.088,31.227,46.757,31.227 M46.757,30.227c-0.86,0-1.974,0.289-3.406,0.884c-2.095,0.868-3.257,1.723-3.657,2.691
		c-0.209,0.505-0.21,1.036-0.002,1.536c0.199,0.482,0.744,1.295,2.145,1.295c0.844,0,1.965-0.295,3.429-0.903
		c1.263-0.524,4.616-1.917,3.662-4.225C48.73,31.026,48.184,30.227,46.757,30.227L46.757,30.227z"/>
</g>
<g>
	<path fill="#C8E288" d="M51.125,28.972c2.859-1.188,3.952-0.914,4.27-0.148c0.317,0.766-0.132,1.678-3.121,2.919
		c-2.987,1.239-3.952,0.912-4.268,0.147C47.688,31.125,48.264,30.159,51.125,28.972z"/>
	<path fill="#84B026" d="M54.148,28.165c0.713,0,1.083,0.264,1.247,0.66c0.317,0.766-0.132,1.678-3.121,2.919
		c-1.427,0.592-2.393,0.826-3.047,0.826c-0.714,0-1.056-0.28-1.221-0.679c-0.318-0.766,0.258-1.732,3.119-2.919
		C52.509,28.398,53.479,28.165,54.148,28.165 M54.148,27.165c-0.86,0-1.974,0.289-3.406,0.884c-1.48,0.614-2.492,1.219-3.093,1.852
		c-0.94,0.989-0.758,1.912-0.566,2.375c0.199,0.482,0.744,1.295,2.144,1.295c0.843,0,1.965-0.295,3.43-0.903
		c1.263-0.525,4.618-1.918,3.662-4.226C56.121,27.965,55.577,27.165,54.148,27.165L54.148,27.165z"/>
</g>
<g>
	<path fill="#C8E288" d="M48.151,36.17c-1.188-2.86-0.913-3.952-0.149-4.27c0.766-0.317,1.679,0.132,2.919,3.122
		c1.239,2.987,0.912,3.951,0.147,4.268C50.304,39.607,49.336,39.032,48.151,36.17z"/>
	<path fill="#84B026" d="M48.413,31.813c0.68,0,1.482,0.735,2.509,3.209c1.239,2.987,0.912,3.951,0.147,4.268
		c-0.121,0.05-0.247,0.078-0.378,0.078c-0.698,0-1.542-0.789-2.54-3.198c-1.188-2.86-0.913-3.952-0.149-4.27
		C48.134,31.845,48.271,31.813,48.413,31.813 M48.413,30.813L48.413,30.813c-0.266,0-0.533,0.055-0.793,0.163
		c-2.309,0.961-0.866,4.436-0.392,5.577c1.093,2.638,2.161,3.815,3.463,3.815c0.258,0,0.515-0.052,0.762-0.155
		c0.464-0.192,1.249-0.711,1.294-2.022c0.03-0.87-0.256-1.999-0.901-3.553C50.733,31.957,49.706,30.813,48.413,30.813L48.413,30.813
		z"/>
</g>
<g>
	<path fill="#C8E288" d="M45.088,28.78c-1.188-2.86-0.912-3.952-0.148-4.271c0.767-0.317,1.679,0.133,2.919,3.121
		c1.238,2.988,0.912,3.951,0.147,4.268C47.243,32.216,46.275,31.641,45.088,28.78z"/>
	<path fill="#84B026" d="M45.351,24.423c0.68,0,1.482,0.735,2.508,3.208c1.238,2.988,0.912,3.951,0.147,4.268
		c-0.121,0.05-0.247,0.078-0.379,0.078c-0.698,0-1.542-0.789-2.54-3.197c-1.188-2.86-0.912-3.952-0.148-4.271
		C45.073,24.455,45.21,24.423,45.351,24.423 M45.351,23.423L45.351,23.423c-0.266,0-0.532,0.055-0.793,0.163
		c-2.31,0.962-0.868,4.436-0.394,5.578c1.094,2.637,2.162,3.813,3.464,3.813c0.259,0,0.515-0.052,0.763-0.155
		c2.306-0.956,0.916-4.311,0.393-5.574C47.671,24.566,46.645,23.423,45.351,23.423L45.351,23.423z"/>
</g>
<g>
	<ellipse transform="matrix(1 -0.0039 0.0039 1 -0.124 0.1875)" fill="#84B026" cx="48" cy="31.874" rx="3" ry="2.999"/>
</g>
<g>
	<path fill="#C8E288" d="M77.079,98.992c1.183-2.861,2.148-3.44,2.915-3.124c0.766,0.317,1.093,1.28-0.144,4.271
		c-1.235,2.989-2.149,3.438-2.914,3.122C76.171,102.945,75.894,101.854,77.079,98.992z"/>
	<path fill="#84B026" d="M79.617,95.791c0.131,0,0.256,0.028,0.377,0.077c0.766,0.317,1.093,1.28-0.144,4.271
		c-1.023,2.474-1.825,3.208-2.505,3.208c-0.142,0-0.278-0.032-0.409-0.086c-0.766-0.316-1.043-1.407,0.143-4.27
		C78.075,96.581,78.918,95.791,79.617,95.791 M79.617,94.791L79.617,94.791c-1.303,0-2.37,1.178-3.462,3.819
		c-0.613,1.48-0.9,2.624-0.878,3.497c0.034,1.364,0.815,1.888,1.278,2.079c0.26,0.108,0.526,0.162,0.791,0.162
		c1.295,0,2.321-1.144,3.429-3.826c0.522-1.264,1.91-4.621-0.398-5.577C80.13,94.842,79.874,94.791,79.617,94.791L79.617,94.791z"/>
</g>
<g>
	<path fill="#C8E288" d="M80.141,91.602c1.182-2.862,2.148-3.441,2.915-3.124c0.766,0.317,1.093,1.28-0.144,4.271
		c-1.236,2.989-2.149,3.439-2.913,3.123C79.232,95.555,78.956,94.463,80.141,91.602z"/>
	<path fill="#84B026" d="M82.678,88.4c0.131,0,0.257,0.028,0.378,0.078c0.766,0.317,1.093,1.28-0.144,4.271
		c-1.023,2.475-1.826,3.209-2.505,3.209c-0.141,0-0.277-0.032-0.409-0.086c-0.767-0.316-1.043-1.408,0.142-4.27
		C81.136,89.191,81.979,88.4,82.678,88.4 M82.678,87.4L82.678,87.4c-1.304,0-2.371,1.178-3.462,3.82
		c-0.867,2.095-1.084,3.521-0.683,4.488c0.21,0.505,0.585,0.881,1.084,1.087c0.259,0.107,0.525,0.162,0.79,0.162
		c1.294,0,2.319-1.145,3.429-3.827c0.522-1.264,1.91-4.62-0.398-5.576C83.191,87.452,82.936,87.4,82.678,87.4L82.678,87.4z"/>
</g>
<g>
	<path fill="#C8E288" d="M83.117,98.797c-2.861-1.183-3.438-2.148-3.123-2.915c0.317-0.766,1.28-1.093,4.271,0.144
		c2.988,1.236,3.439,2.15,3.122,2.914C87.071,99.705,85.98,99.982,83.117,98.797z"/>
	<path fill="#84B026" d="M81.218,95.201c0.654,0,1.619,0.234,3.047,0.824c2.988,1.236,3.439,2.15,3.122,2.914
		c-0.164,0.396-0.534,0.661-1.25,0.661c-0.668,0-1.638-0.231-3.02-0.804c-2.861-1.183-3.439-2.148-3.123-2.915
		C80.16,95.482,80.502,95.201,81.218,95.201 M81.218,94.201L81.218,94.201c-1.401,0-1.947,0.813-2.148,1.298
		c-0.952,2.314,2.523,3.75,3.665,4.222c1.429,0.592,2.543,0.88,3.402,0.88c1.432,0,1.977-0.802,2.174-1.279
		c0.213-0.513,0.216-1.052,0.007-1.557c-0.395-0.955-1.527-1.776-3.671-2.663C83.183,94.496,82.061,94.201,81.218,94.201
		L81.218,94.201z"/>
</g>
<g>
	<path fill="#C8E288" d="M75.728,95.736c-2.862-1.182-3.44-2.148-3.125-2.914c0.318-0.767,1.281-1.094,4.271,0.142
		c2.989,1.238,3.439,2.149,3.123,2.914S78.589,96.921,75.728,95.736z"/>
	<path fill="#84B026" d="M73.828,92.141c0.654,0,1.619,0.234,3.046,0.823c2.989,1.238,3.439,2.149,3.123,2.914
		c-0.164,0.396-0.535,0.661-1.251,0.661c-0.668,0-1.637-0.231-3.018-0.803c-2.862-1.182-3.44-2.148-3.125-2.914
		C72.769,92.421,73.112,92.141,73.828,92.141 M73.828,91.141L73.828,91.141c-1.401,0-1.948,0.813-2.149,1.298
		c-0.953,2.315,2.524,3.75,3.667,4.222c1.427,0.591,2.54,0.878,3.4,0.878c1.433,0,1.978-0.801,2.176-1.279
		c0.955-2.307-2.401-3.697-3.664-4.22C75.792,91.435,74.671,91.141,73.828,91.141L73.828,91.141z"/>
</g>
<g>
	<path fill="#C8E288" d="M75.726,96.015c2.859-1.188,3.951-0.913,4.27-0.147c0.316,0.766-0.133,1.678-3.121,2.919
		c-2.987,1.239-3.952,0.911-4.268,0.147C72.288,98.168,72.863,97.201,75.726,96.015z"/>
	<path fill="#84B026" d="M78.747,95.208c0.713,0,1.083,0.264,1.248,0.659c0.316,0.766-0.133,1.678-3.121,2.919
		c-1.427,0.592-2.393,0.826-3.046,0.826c-0.715,0-1.056-0.28-1.221-0.679c-0.318-0.766,0.257-1.732,3.119-2.919
		C77.109,95.44,78.079,95.208,78.747,95.208 M78.748,94.208L78.748,94.208c-0.86,0-1.974,0.289-3.406,0.883
		c-2.095,0.868-3.257,1.724-3.657,2.691c-0.209,0.505-0.209,1.036-0.002,1.535c0.199,0.482,0.744,1.295,2.145,1.295
		c0.844,0,1.965-0.295,3.43-0.903c1.263-0.524,4.616-1.917,3.662-4.225C80.72,95.007,80.175,94.208,78.748,94.208L78.748,94.208z"/>
</g>
<g>
	<path fill="#C8E288" d="M83.116,92.953c2.859-1.188,3.952-0.914,4.27-0.147c0.317,0.766-0.132,1.678-3.121,2.919
		c-2.987,1.239-3.952,0.912-4.268,0.147C79.679,95.106,80.255,94.14,83.116,92.953z"/>
	<path fill="#84B026" d="M86.139,92.146c0.713,0,1.083,0.264,1.247,0.66c0.317,0.766-0.132,1.678-3.121,2.919
		c-1.427,0.592-2.393,0.827-3.047,0.827c-0.714,0-1.056-0.28-1.221-0.679c-0.318-0.766,0.258-1.732,3.119-2.919
		C84.5,92.378,85.47,92.146,86.139,92.146 M86.139,91.146c-0.86,0-1.974,0.289-3.406,0.884c-2.095,0.869-3.257,1.724-3.657,2.691
		c-0.209,0.505-0.209,1.036-0.002,1.535c0.199,0.482,0.743,1.295,2.144,1.295c0.843,0,1.965-0.295,3.43-0.903
		c1.263-0.525,4.618-1.918,3.662-4.226C88.112,91.946,87.568,91.146,86.139,91.146L86.139,91.146z"/>
</g>
<g>
	<path fill="#C8E288" d="M80.142,100.15c-1.188-2.859-0.913-3.951-0.148-4.27c0.766-0.317,1.679,0.133,2.919,3.122
		c1.239,2.987,0.912,3.951,0.147,4.269C82.295,103.588,81.327,103.014,80.142,100.15z"/>
	<path fill="#84B026" d="M80.403,95.794c0.68,0,1.482,0.735,2.509,3.209c1.239,2.987,0.912,3.951,0.147,4.269
		c-0.121,0.05-0.247,0.078-0.378,0.078c-0.698,0-1.542-0.788-2.54-3.199c-1.188-2.859-0.913-3.951-0.148-4.27
		C80.125,95.826,80.262,95.794,80.403,95.794 M80.403,94.794c-0.266,0-0.532,0.055-0.793,0.163
		c-2.309,0.961-0.866,4.435-0.392,5.577c1.092,2.638,2.161,3.815,3.464,3.815c0.258,0,0.514-0.052,0.76-0.154
		c2.309-0.959,0.918-4.313,0.394-5.576C82.723,95.938,81.697,94.794,80.403,94.794L80.403,94.794z"/>
</g>
<g>
	<path fill="#C8E288" d="M77.079,92.761c-1.188-2.86-0.912-3.952-0.147-4.271c0.767-0.317,1.679,0.133,2.919,3.121
		c1.238,2.988,0.912,3.951,0.147,4.268C79.233,96.197,78.266,95.622,77.079,92.761z"/>
	<path fill="#84B026" d="M77.342,88.404c0.68,0,1.482,0.735,2.508,3.208c1.238,2.988,0.912,3.951,0.147,4.268
		c-0.121,0.05-0.248,0.078-0.379,0.078c-0.698,0-1.541-0.789-2.54-3.197c-1.188-2.86-0.912-3.952-0.147-4.271
		C77.064,88.436,77.2,88.404,77.342,88.404 M77.342,87.404L77.342,87.404c-0.266,0-0.532,0.055-0.793,0.163
		c-2.31,0.962-0.868,4.436-0.394,5.578c1.093,2.637,2.162,3.813,3.463,3.813c0.259,0,0.516-0.052,0.763-0.155
		c0.462-0.191,1.248-0.709,1.292-2.021c0.03-0.87-0.256-1.999-0.9-3.553C79.662,88.547,78.635,87.404,77.342,87.404L77.342,87.404z"
		/>
</g>
<g>
	<ellipse transform="matrix(1 -0.0039 0.0039 1 -0.3739 0.3132)" fill="#84B026" cx="79.991" cy="95.855" rx="3" ry="3"/>
</g>
<g>
	<path fill="#C8E288" d="M13.079,98.992c1.183-2.861,2.149-3.44,2.915-3.124c0.766,0.317,1.093,1.28-0.144,4.271
		c-1.235,2.989-2.149,3.438-2.914,3.122C12.17,102.945,11.893,101.854,13.079,98.992z"/>
	<path fill="#84B026" d="M15.617,95.791c0.131,0,0.256,0.028,0.377,0.077c0.766,0.317,1.093,1.28-0.144,4.271
		c-1.023,2.474-1.825,3.208-2.505,3.208c-0.142,0-0.278-0.032-0.409-0.086c-0.766-0.316-1.043-1.407,0.143-4.27
		C14.075,96.581,14.918,95.791,15.617,95.791 M15.617,94.791L15.617,94.791c-1.303,0-2.37,1.178-3.462,3.819
		c-0.613,1.48-0.9,2.624-0.878,3.497c0.034,1.364,0.815,1.888,1.278,2.079c0.26,0.108,0.526,0.162,0.791,0.162
		c1.295,0,2.321-1.144,3.429-3.826c0.522-1.264,1.91-4.621-0.398-5.577C16.129,94.842,15.874,94.791,15.617,94.791L15.617,94.791z"
		/>
</g>
<g>
	<path fill="#C8E288" d="M16.14,91.602c1.182-2.862,2.149-3.441,2.915-3.124c0.766,0.317,1.093,1.28-0.144,4.271
		c-1.236,2.989-2.149,3.439-2.913,3.123C15.232,95.555,14.956,94.463,16.14,91.602z"/>
	<path fill="#84B026" d="M18.678,88.4c0.131,0,0.257,0.028,0.378,0.078c0.766,0.317,1.093,1.28-0.144,4.271
		c-1.023,2.475-1.826,3.209-2.505,3.209c-0.141,0-0.277-0.032-0.409-0.086c-0.767-0.316-1.043-1.408,0.142-4.27
		C17.135,89.191,17.978,88.4,18.678,88.4 M18.678,87.4L18.678,87.4c-1.304,0-2.371,1.178-3.462,3.82
		c-0.867,2.095-1.084,3.521-0.683,4.488c0.21,0.505,0.585,0.881,1.084,1.087c0.259,0.107,0.525,0.162,0.79,0.162
		c1.294,0,2.319-1.145,3.429-3.827c0.522-1.264,1.91-4.62-0.398-5.576C19.191,87.452,18.935,87.4,18.678,87.4L18.678,87.4z"/>
</g>
<g>
	<path fill="#C8E288" d="M19.117,98.797c-2.861-1.183-3.438-2.148-3.123-2.915c0.317-0.766,1.28-1.093,4.271,0.144
		c2.988,1.236,3.439,2.15,3.122,2.914C23.071,99.705,21.98,99.982,19.117,98.797z"/>
	<path fill="#84B026" d="M17.218,95.201c0.654,0,1.619,0.234,3.047,0.824c2.988,1.236,3.439,2.15,3.122,2.914
		c-0.164,0.396-0.534,0.661-1.25,0.661c-0.668,0-1.638-0.231-3.02-0.804c-2.861-1.183-3.438-2.148-3.123-2.915
		C16.16,95.482,16.502,95.201,17.218,95.201 M17.218,94.201L17.218,94.201c-1.401,0-1.947,0.813-2.148,1.298
		c-0.952,2.314,2.523,3.75,3.665,4.222c1.429,0.592,2.543,0.88,3.402,0.88c1.432,0,1.977-0.802,2.174-1.279
		c0.213-0.513,0.216-1.052,0.007-1.557c-0.395-0.955-1.527-1.776-3.671-2.663C19.182,94.496,18.06,94.201,17.218,94.201
		L17.218,94.201z"/>
</g>
<g>
	<path fill="#C8E288" d="M11.727,95.736c-2.862-1.182-3.441-2.148-3.125-2.914c0.318-0.767,1.281-1.094,4.271,0.142
		c2.989,1.238,3.439,2.149,3.123,2.914C15.68,96.643,14.588,96.921,11.727,95.736z"/>
	<path fill="#84B026" d="M9.828,92.141c0.654,0,1.619,0.234,3.046,0.823c2.989,1.238,3.44,2.149,3.123,2.914
		c-0.164,0.396-0.535,0.661-1.251,0.661c-0.668,0-1.637-0.231-3.018-0.803c-2.862-1.182-3.44-2.148-3.125-2.914
		C8.769,92.421,9.111,92.141,9.828,92.141 M9.828,91.141L9.828,91.141c-1.401,0-1.948,0.813-2.149,1.298
		c-0.954,2.314,2.524,3.75,3.667,4.222c1.427,0.591,2.54,0.878,3.4,0.878c1.433,0,1.978-0.801,2.175-1.279
		c0.955-2.307-2.401-3.697-3.664-4.22C11.791,91.435,10.67,91.141,9.828,91.141L9.828,91.141z"/>
</g>
<g>
	<path fill="#C8E288" d="M11.725,96.015c2.859-1.188,3.951-0.913,4.27-0.147c0.316,0.766-0.133,1.678-3.121,2.919
		c-2.987,1.239-3.952,0.911-4.267,0.147C8.288,98.168,8.863,97.201,11.725,96.015z"/>
	<path fill="#84B026" d="M14.747,95.208c0.713,0,1.083,0.264,1.248,0.659c0.316,0.766-0.133,1.678-3.121,2.919
		c-1.427,0.592-2.393,0.826-3.046,0.826c-0.715,0-1.056-0.28-1.221-0.679c-0.318-0.766,0.257-1.732,3.119-2.919
		C13.109,95.44,14.078,95.208,14.747,95.208 M14.747,94.208L14.747,94.208c-0.86,0-1.974,0.289-3.406,0.883
		c-2.095,0.869-3.257,1.724-3.657,2.691c-0.209,0.505-0.209,1.036-0.002,1.536c0.199,0.482,0.744,1.295,2.145,1.295
		c0.844,0,1.965-0.295,3.43-0.903c1.263-0.524,4.616-1.917,3.662-4.225C16.72,95.007,16.175,94.208,14.747,94.208L14.747,94.208z"/>
</g>
<g>
	<path fill="#C8E288" d="M19.116,92.953c2.859-1.188,3.952-0.914,4.27-0.147c0.317,0.766-0.132,1.678-3.121,2.919
		c-2.987,1.239-3.952,0.912-4.268,0.147C15.678,95.106,16.254,94.14,19.116,92.953z"/>
	<path fill="#84B026" d="M22.138,92.146c0.713,0,1.083,0.264,1.247,0.66c0.317,0.766-0.132,1.678-3.121,2.919
		c-1.427,0.592-2.393,0.827-3.047,0.827c-0.714,0-1.056-0.28-1.221-0.679c-0.318-0.766,0.258-1.732,3.119-2.919
		C20.5,92.378,21.47,92.146,22.138,92.146 M22.138,91.146c-0.86,0-1.974,0.289-3.406,0.884c-2.095,0.869-3.257,1.724-3.657,2.691
		c-0.209,0.505-0.209,1.036-0.002,1.535c0.199,0.482,0.743,1.295,2.144,1.295c0.843,0,1.965-0.295,3.43-0.903
		c1.263-0.525,4.618-1.918,3.662-4.225C24.112,91.946,23.567,91.146,22.138,91.146L22.138,91.146z"/>
</g>
<g>
	<path fill="#C8E288" d="M16.141,100.15c-1.188-2.859-0.913-3.951-0.148-4.27c0.766-0.317,1.679,0.133,2.919,3.122
		c1.239,2.987,0.912,3.951,0.147,4.269C18.294,103.588,17.327,103.014,16.141,100.15z"/>
	<path fill="#84B026" d="M16.403,95.794c0.68,0,1.482,0.735,2.509,3.209c1.239,2.987,0.912,3.951,0.147,4.269
		c-0.121,0.05-0.247,0.078-0.378,0.078c-0.698,0-1.542-0.788-2.54-3.199c-1.188-2.859-0.913-3.951-0.148-4.27
		C16.125,95.826,16.261,95.794,16.403,95.794 M16.403,94.794c-0.266,0-0.532,0.055-0.793,0.163
		c-2.309,0.961-0.866,4.435-0.392,5.577c1.092,2.638,2.161,3.815,3.464,3.815c0.258,0,0.514-0.052,0.76-0.154
		c2.309-0.959,0.918-4.313,0.394-5.576C18.723,95.938,17.696,94.794,16.403,94.794L16.403,94.794z"/>
</g>
<g>
	<path fill="#C8E288" d="M13.079,92.761c-1.188-2.86-0.912-3.952-0.147-4.271c0.767-0.317,1.679,0.133,2.919,3.121
		c1.238,2.988,0.912,3.951,0.148,4.268C15.233,96.197,14.265,95.622,13.079,92.761z"/>
	<path fill="#84B026" d="M13.342,88.404c0.68,0,1.482,0.735,2.508,3.208c1.238,2.988,0.912,3.951,0.147,4.268
		c-0.121,0.05-0.248,0.078-0.379,0.078c-0.698,0-1.541-0.789-2.54-3.197c-1.188-2.86-0.912-3.952-0.147-4.271
		C13.063,88.436,13.2,88.404,13.342,88.404 M13.342,87.404L13.342,87.404c-0.266,0-0.532,0.055-0.793,0.163
		c-2.31,0.962-0.868,4.436-0.394,5.578c1.093,2.637,2.162,3.813,3.463,3.813c0.259,0,0.516-0.052,0.763-0.155
		c0.462-0.191,1.248-0.709,1.292-2.021c0.03-0.87-0.256-1.999-0.9-3.553C15.661,88.547,14.635,87.404,13.342,87.404L13.342,87.404z"
		/>
</g>
<g>
	<ellipse transform="matrix(1 -0.0039 0.0039 1 -0.3744 0.0632)" fill="#84B026" cx="15.99" cy="95.855" rx="3" ry="3"/>
</g>
<rect fill="#C8E288" width="128" height="128"/>
<rect x="2.343" y="6.875" transform="matrix(0.7071 -0.7071 0.7071 0.7071 -3.225 7.9632)" fill="#84B026" width="11.314" height="2"/>
<rect x="34.343" y="6.875" transform="matrix(0.7071 -0.7071 0.7071 0.7071 6.1476 30.5907)" fill="#84B026" width="11.314" height="2"/>
<rect x="98.343" y="6.875" transform="matrix(0.7071 -0.7071 0.7071 0.7071 24.8928 75.8455)" fill="#84B026" width="11.314" height="2"/>
<rect x="66.343" y="6.875" transform="matrix(0.7071 -0.7071 0.7071 0.7071 15.5202 53.2181)" fill="#84B026" width="11.314" height="2"/>
<rect x="18.343" y="22.875" transform="matrix(0.7071 -0.7071 0.7071 0.7071 -9.8524 23.9632)" fill="#84B026" width="11.314" height="2"/>
<rect x="82.343" y="22.875" transform="matrix(0.7071 -0.7071 0.7071 0.7071 8.8928 69.2181)" fill="#84B026" width="11.314" height="2"/>
<rect x="2.343" y="38.875" transform="matrix(0.7071 -0.7071 0.7071 0.7071 -25.8524 17.3358)" fill="#84B026" width="11.314" height="2"/>
<rect x="66.343" y="38.875" transform="matrix(0.7071 -0.7071 0.7071 0.7071 -7.1072 62.5907)" fill="#84B026" width="11.314" height="2"/>
<rect x="18.343" y="54.875" transform="matrix(0.7071 -0.7071 0.7071 0.7071 -32.4798 33.3358)" fill="#84B026" width="11.314" height="2"/>
<rect x="82.343" y="54.875" transform="matrix(0.7071 -0.7071 0.7071 0.7071 -13.7346 78.5907)" fill="#84B026" width="11.314" height="2"/>
<rect x="50.343" y="54.875" transform="matrix(0.7071 -0.7071 0.7071 0.7071 -23.1072 55.9632)" fill="#84B026" width="11.314" height="2"/>
<rect x="114.343" y="54.875" transform="matrix(0.7071 -0.7071 0.7071 0.7071 -4.3621 101.2181)" fill="#84B026" width="11.314" height="2"/>
<rect x="2.343" y="70.875" transform="matrix(0.7071 -0.7071 0.7071 0.7071 -48.4798 26.7084)" fill="#84B026" width="11.314" height="2"/>
<rect x="34.343" y="70.875" transform="matrix(0.7071 -0.7071 0.7071 0.7071 -39.1072 49.3358)" fill="#84B026" width="11.314" height="2"/>
<rect x="98.343" y="70.875" transform="matrix(0.7071 -0.7071 0.7071 0.7071 -20.3621 94.5907)" fill="#84B026" width="11.314" height="2"/>
<rect x="66.343" y="70.875" transform="matrix(0.7071 -0.7071 0.7071 0.7071 -29.7346 71.9632)" fill="#84B026" width="11.314" height="2"/>
<rect x="50.343" y="86.875" transform="matrix(0.7071 -0.7071 0.7071 0.7071 -45.7348 65.3359)" fill="#84B026" width="11.314" height="2"/>
<rect x="114.343" y="86.875" transform="matrix(0.7071 -0.7071 0.7071 0.7071 -26.9896 110.5907)" fill="#84B026" width="11.314" height="2"/>
<rect x="34.343" y="102.875" transform="matrix(0.7071 -0.7071 0.7071 0.7071 -61.735 58.7086)" fill="#84B026" width="11.314" height="2"/>
<rect x="98.343" y="102.875" transform="matrix(0.7071 -0.7071 0.7071 0.7071 -42.9898 103.9634)" fill="#84B026" width="11.314" height="2"/>
<rect x="18.343" y="118.875" transform="matrix(0.7071 -0.7071 0.7071 0.7071 -77.735 52.0811)" fill="#84B026" width="11.314" height="2"/>
<rect x="50.343" y="118.875" transform="matrix(0.7071 -0.7071 0.7071 0.7071 -68.3624 74.7086)" fill="#84B026" width="11.314" height="2"/>
<rect x="114.343" y="118.875" transform="matrix(0.7071 -0.7071 0.7071 0.7071 -49.6172 119.9634)" fill="#84B026" width="11.314" height="2"/>
<rect x="82.343" y="118.875" transform="matrix(0.7071 -0.7071 0.7071 0.7071 -58.9898 97.336)" fill="#84B026" width="11.314" height="2"/>
<path fill="#C8E288" d="M109.088,35.011c1.184-2.861,2.148-3.44,2.916-3.124c0.766,0.317,1.092,1.28-0.145,4.271
	c-1.234,2.989-2.148,3.438-2.914,3.122C108.18,38.964,107.902,37.874,109.088,35.011z"/>
<path fill="#84B026" d="M111.627,31.81c0.131,0,0.256,0.028,0.377,0.077c0.766,0.317,1.092,1.28-0.145,4.271
	c-1.022,2.474-1.824,3.208-2.504,3.208c-0.142,0-0.278-0.032-0.41-0.086c-0.766-0.316-1.043-1.407,0.143-4.27
	C110.085,32.6,110.927,31.81,111.627,31.81 M111.627,30.81L111.627,30.81c-1.302,0-2.37,1.178-3.463,3.819
	c-0.613,1.48-0.901,2.624-0.879,3.497c0.034,1.364,0.816,1.888,1.278,2.079c0.26,0.108,0.527,0.162,0.792,0.162
	c1.296,0,2.321-1.144,3.429-3.827c0.522-1.264,1.91-4.621-0.397-5.577C112.139,30.861,111.884,30.81,111.627,30.81L111.627,30.81z"
	/>
<path fill="#C8E288" d="M112.15,27.621c1.182-2.862,2.148-3.441,2.914-3.124c0.766,0.317,1.094,1.28-0.143,4.271
	c-1.236,2.989-2.15,3.439-2.914,3.123C111.242,31.574,110.965,30.482,112.15,27.621z"/>
<path fill="#84B026" d="M114.687,24.419c0.131,0,0.256,0.028,0.377,0.078c0.766,0.317,1.094,1.28-0.143,4.271
	c-1.023,2.474-1.826,3.209-2.505,3.209c-0.141,0-0.277-0.032-0.409-0.086c-0.766-0.316-1.043-1.407,0.143-4.269
	C113.146,25.21,113.989,24.419,114.687,24.419 M114.687,23.419L114.687,23.419c-1.303,0-2.371,1.178-3.461,3.82
	c-0.868,2.094-1.085,3.521-0.684,4.488c0.21,0.505,0.584,0.881,1.084,1.087c0.258,0.107,0.525,0.162,0.79,0.162
	c1.294,0,2.32-1.144,3.429-3.827c0.522-1.264,1.91-4.619-0.398-5.576C115.201,23.471,114.945,23.419,114.687,23.419L114.687,23.419z
	"/>
<path fill="#C8E288" d="M115.127,34.816c-2.861-1.183-3.439-2.148-3.123-2.915c0.316-0.766,1.279-1.093,4.271,0.144
	c2.988,1.236,3.439,2.15,3.121,2.914C119.08,35.724,117.99,36.001,115.127,34.816z"/>
<path fill="#84B026" d="M113.227,31.22c0.654,0,1.62,0.234,3.048,0.824c2.988,1.236,3.439,2.15,3.121,2.914
	c-0.164,0.396-0.534,0.661-1.249,0.661c-0.668,0-1.637-0.231-3.02-0.804c-2.861-1.183-3.439-2.148-3.123-2.915
	C112.169,31.501,112.511,31.22,113.227,31.22 M113.227,30.22c-1.401,0-1.947,0.814-2.147,1.299
	c-0.954,2.312,2.523,3.749,3.665,4.221c1.429,0.592,2.542,0.88,3.402,0.88c1.431,0,1.976-0.801,2.174-1.279
	c0.214-0.513,0.217-1.052,0.008-1.558c-0.395-0.955-1.527-1.776-3.671-2.663C115.192,30.515,114.07,30.22,113.227,30.22
	L113.227,30.22z"/>
<path fill="#C8E288" d="M107.736,31.756c-2.861-1.182-3.439-2.149-3.125-2.915c0.318-0.767,1.281-1.094,4.271,0.142
	c2.99,1.238,3.44,2.149,3.123,2.914C111.689,32.662,110.598,32.94,107.736,31.756z"/>
<path fill="#84B026" d="M105.837,28.16c0.654,0,1.619,0.234,3.046,0.823c2.99,1.238,3.439,2.149,3.123,2.914
	c-0.164,0.396-0.535,0.661-1.251,0.661c-0.668,0-1.637-0.231-3.018-0.802c-2.861-1.182-3.439-2.149-3.125-2.915
	C104.778,28.44,105.121,28.16,105.837,28.16 M105.837,27.16L105.837,27.16c-1.401,0-1.948,0.813-2.149,1.298
	c-0.951,2.314,2.524,3.75,3.667,4.222c1.428,0.591,2.54,0.878,3.4,0.878c1.433,0,1.978-0.801,2.176-1.279
	c0.955-2.307-2.401-3.697-3.665-4.22C107.8,27.454,106.679,27.16,105.837,27.16L105.837,27.16z"/>
<path fill="#C8E288" d="M107.734,32.034c2.859-1.187,3.951-0.914,4.27-0.147c0.316,0.766-0.133,1.678-3.121,2.919
	c-2.986,1.239-3.951,0.911-4.268,0.147C104.297,34.187,104.873,33.22,107.734,32.034z"/>
<path fill="#84B026" d="M110.757,31.227c0.713,0,1.083,0.264,1.247,0.66c0.316,0.766-0.133,1.678-3.121,2.919
	c-1.427,0.592-2.392,0.826-3.046,0.826c-0.715,0-1.057-0.28-1.222-0.679c-0.318-0.766,0.258-1.733,3.119-2.919
	C109.118,31.459,110.088,31.227,110.757,31.227 M110.757,30.227c-0.86,0-1.974,0.289-3.406,0.884
	c-2.095,0.868-3.257,1.724-3.657,2.691c-0.209,0.505-0.209,1.036-0.002,1.535c0.2,0.483,0.746,1.295,2.145,1.295
	c0.843,0,1.965-0.295,3.429-0.903c1.263-0.524,4.616-1.917,3.662-4.225C112.729,31.026,112.184,30.227,110.757,30.227
	L110.757,30.227z"/>
<path fill="#C8E288" d="M115.125,28.972c2.859-1.188,3.953-0.914,4.27-0.148c0.318,0.766-0.131,1.678-3.121,2.919
	c-2.986,1.239-3.951,0.912-4.268,0.147C111.688,31.125,112.264,30.159,115.125,28.972z"/>
<path fill="#84B026" d="M118.148,28.165c0.713,0,1.083,0.264,1.247,0.66c0.318,0.766-0.131,1.678-3.121,2.919
	c-1.427,0.592-2.392,0.826-3.046,0.826c-0.714,0-1.056-0.28-1.222-0.679c-0.318-0.766,0.258-1.732,3.119-2.919
	C116.509,28.398,117.479,28.165,118.148,28.165 M118.148,27.165c-0.861,0-1.975,0.289-3.406,0.884
	c-2.095,0.869-3.258,1.724-3.657,2.691c-0.209,0.505-0.209,1.036-0.002,1.535c0.2,0.483,0.745,1.295,2.145,1.295
	c0.843,0,1.965-0.295,3.429-0.903c1.555-0.646,2.556-1.243,3.15-1.88c0.895-0.96,0.705-1.883,0.512-2.347
	C120.122,27.966,119.578,27.165,118.148,27.165L118.148,27.165z"/>
<path fill="#C8E288" d="M112.15,36.17c-1.188-2.86-0.912-3.952-0.148-4.27c0.766-0.317,1.68,0.132,2.92,3.122
	c1.238,2.987,0.912,3.951,0.146,4.268C114.305,39.607,113.336,39.032,112.15,36.17z"/>
<path fill="#84B026" d="M112.412,31.813c0.68,0,1.483,0.735,2.51,3.209c1.238,2.987,0.912,3.951,0.146,4.268
	c-0.121,0.05-0.247,0.078-0.378,0.078c-0.698,0-1.542-0.789-2.54-3.198c-1.188-2.86-0.912-3.952-0.148-4.27
	C112.134,31.845,112.271,31.813,112.412,31.813 M112.412,30.813L112.412,30.813c-0.266,0-0.533,0.055-0.793,0.163
	c-2.308,0.962-0.866,4.436-0.392,5.577c1.093,2.638,2.161,3.815,3.464,3.815c0.258,0,0.515-0.052,0.762-0.155
	c0.463-0.192,1.249-0.71,1.294-2.022c0.03-0.87-0.256-1.999-0.9-3.553C114.733,31.957,113.706,30.813,112.412,30.813L112.412,30.813
	z"/>
<path fill="#C8E288" d="M109.088,28.78c-1.188-2.86-0.912-3.952-0.146-4.271c0.766-0.317,1.678,0.133,2.918,3.121
	c1.238,2.988,0.912,3.951,0.148,4.268C111.242,32.216,110.275,31.641,109.088,28.78z"/>
<path fill="#84B026" d="M109.351,24.423c0.68,0,1.481,0.735,2.508,3.208c1.238,2.988,0.912,3.951,0.148,4.268
	c-0.121,0.05-0.248,0.078-0.379,0.078c-0.698,0-1.541-0.789-2.541-3.197c-1.188-2.86-0.912-3.952-0.146-4.271
	C109.073,24.455,109.21,24.423,109.351,24.423 M109.352,23.423L109.352,23.423c-0.266,0-0.532,0.055-0.793,0.163
	c-2.311,0.961-0.868,4.436-0.394,5.578c1.095,2.637,2.163,3.813,3.464,3.813c0.259,0,0.515-0.052,0.763-0.155
	c2.305-0.957,0.915-4.311,0.392-5.574C111.67,24.566,110.644,23.423,109.352,23.423L109.352,23.423z"/>
<g>
	<ellipse transform="matrix(1 -0.0039 0.0039 1 -0.1235 0.437)" fill="#84B026" cx="112" cy="31.874" rx="3" ry="2.999"/>
</g>
<path fill="#C8E288" d="M45.088,35.011c1.183-2.861,2.148-3.44,2.915-3.124c0.766,0.317,1.093,1.28-0.143,4.271
	c-1.235,2.989-2.15,3.438-2.914,3.122C44.18,38.964,43.903,37.874,45.088,35.011z"/>
<path fill="#84B026" d="M47.626,31.81c0.131,0,0.256,0.028,0.377,0.077c0.766,0.317,1.093,1.28-0.143,4.271
	c-1.023,2.474-1.825,3.208-2.505,3.208c-0.141,0-0.278-0.032-0.409-0.086c-0.766-0.316-1.043-1.407,0.143-4.27
	C46.085,32.6,46.927,31.81,47.626,31.81 M47.626,30.81L47.626,30.81c-1.303,0-2.37,1.178-3.462,3.819
	c-0.613,1.48-0.9,2.624-0.879,3.497c0.034,1.364,0.816,1.888,1.278,2.079c0.26,0.107,0.526,0.162,0.791,0.162
	c1.295,0,2.321-1.144,3.429-3.826c0.522-1.264,1.91-4.621-0.398-5.577C48.139,30.861,47.884,30.81,47.626,30.81L47.626,30.81z"/>
<path fill="#C8E288" d="M48.15,27.621c1.182-2.862,2.148-3.441,2.915-3.124c0.766,0.317,1.093,1.28-0.144,4.271
	c-1.236,2.989-2.149,3.439-2.913,3.123C47.242,31.574,46.965,30.482,48.15,27.621z"/>
<path fill="#84B026" d="M50.687,24.419c0.131,0,0.257,0.028,0.378,0.078c0.766,0.317,1.093,1.28-0.143,4.271
	c-1.023,2.474-1.825,3.209-2.504,3.209c-0.141,0-0.277-0.032-0.409-0.086c-0.767-0.316-1.043-1.407,0.142-4.269
	C49.145,25.21,49.988,24.419,50.687,24.419 M50.687,23.419L50.687,23.419c-1.304,0-2.371,1.178-3.462,3.82
	c-0.867,2.095-1.084,3.522-0.683,4.489c0.21,0.505,0.585,0.881,1.085,1.087c0.258,0.107,0.525,0.162,0.79,0.162
	c1.294,0,2.319-1.144,3.428-3.827c0.522-1.264,1.91-4.62-0.398-5.576C51.201,23.471,50.945,23.419,50.687,23.419L50.687,23.419z"/>
<path fill="#C8E288" d="M51.126,34.816c-2.861-1.183-3.438-2.148-3.123-2.915c0.317-0.766,1.28-1.093,4.271,0.144
	c2.988,1.236,3.44,2.15,3.122,2.914C55.081,35.724,53.99,36.001,51.126,34.816z"/>
<path fill="#84B026" d="M49.227,31.22c0.654,0,1.62,0.234,3.048,0.824c2.988,1.236,3.439,2.15,3.122,2.914
	c-0.164,0.396-0.534,0.661-1.25,0.661c-0.668,0-1.638-0.231-3.021-0.804c-2.861-1.183-3.438-2.148-3.123-2.915
	C48.169,31.501,48.511,31.22,49.227,31.22 M49.227,30.22c-1.401,0-1.947,0.813-2.148,1.297c-0.952,2.314,2.523,3.75,3.665,4.222
	c1.429,0.592,2.543,0.88,3.403,0.88c1.432,0,1.977-0.801,2.174-1.279c0.213-0.514,0.216-1.053,0.007-1.558
	c-0.395-0.955-1.527-1.776-3.671-2.662C51.192,30.515,50.07,30.22,49.227,30.22L49.227,30.22z"/>
<path fill="#C8E288" d="M43.737,31.756c-2.862-1.182-3.44-2.149-3.125-2.915c0.318-0.767,1.281-1.094,4.271,0.142
	c2.989,1.238,3.439,2.149,3.123,2.914C47.69,32.662,46.598,32.94,43.737,31.756z"/>
<path fill="#84B026" d="M41.838,28.16c0.654,0,1.619,0.234,3.046,0.823c2.989,1.238,3.439,2.149,3.123,2.914
	c-0.164,0.396-0.535,0.661-1.251,0.661c-0.668,0-1.637-0.231-3.018-0.802c-2.862-1.182-3.44-2.149-3.125-2.915
	C40.778,28.44,41.121,28.16,41.838,28.16 M41.838,27.16L41.838,27.16c-1.401,0-1.948,0.813-2.149,1.298
	c-0.954,2.314,2.524,3.75,3.667,4.222c1.428,0.591,2.54,0.878,3.4,0.878c1.433,0,1.978-0.801,2.176-1.279
	c0.955-2.307-2.401-3.697-3.664-4.22C43.801,27.454,42.68,27.16,41.838,27.16L41.838,27.16z"/>
<path fill="#C8E288" d="M43.735,32.034c2.859-1.187,3.951-0.914,4.269-0.147c0.316,0.766-0.133,1.678-3.121,2.919
	c-2.987,1.239-3.952,0.911-4.268,0.147C40.297,34.187,40.873,33.22,43.735,32.034z"/>
<path fill="#84B026" d="M46.757,31.227c0.713,0,1.083,0.264,1.247,0.66c0.316,0.766-0.133,1.678-3.121,2.919
	c-1.427,0.592-2.393,0.826-3.046,0.826c-0.715,0-1.057-0.28-1.221-0.679c-0.318-0.766,0.257-1.733,3.119-2.919
	C45.119,31.459,46.088,31.227,46.757,31.227 M46.757,30.227c-0.86,0-1.974,0.289-3.406,0.884c-2.095,0.868-3.257,1.723-3.657,2.691
	c-0.209,0.505-0.21,1.036-0.002,1.536c0.199,0.482,0.744,1.295,2.145,1.295c0.844,0,1.965-0.295,3.429-0.903
	c1.263-0.524,4.616-1.917,3.662-4.225C48.73,31.026,48.184,30.227,46.757,30.227L46.757,30.227z"/>
<path fill="#C8E288" d="M51.125,28.972c2.859-1.188,3.952-0.914,4.27-0.148c0.317,0.766-0.132,1.678-3.121,2.919
	c-2.987,1.239-3.952,0.912-4.268,0.147C47.688,31.125,48.264,30.159,51.125,28.972z"/>
<path fill="#84B026" d="M54.148,28.165c0.713,0,1.083,0.264,1.247,0.66c0.317,0.766-0.132,1.678-3.121,2.919
	c-1.427,0.592-2.393,0.826-3.047,0.826c-0.714,0-1.056-0.28-1.221-0.679c-0.318-0.766,0.258-1.732,3.119-2.919
	C52.509,28.398,53.479,28.165,54.148,28.165 M54.148,27.165c-0.86,0-1.974,0.289-3.406,0.884c-1.48,0.614-2.492,1.219-3.093,1.852
	c-0.94,0.989-0.758,1.912-0.566,2.375c0.199,0.482,0.744,1.295,2.144,1.295c0.843,0,1.965-0.295,3.43-0.903
	c1.263-0.525,4.618-1.918,3.662-4.226C56.121,27.965,55.577,27.165,54.148,27.165L54.148,27.165z"/>
<path fill="#C8E288" d="M48.151,36.17c-1.188-2.86-0.913-3.952-0.149-4.27c0.766-0.317,1.679,0.132,2.919,3.122
	c1.239,2.987,0.912,3.951,0.147,4.268C50.304,39.607,49.336,39.032,48.151,36.17z"/>
<path fill="#84B026" d="M48.413,31.813c0.68,0,1.482,0.735,2.509,3.209c1.239,2.987,0.912,3.951,0.147,4.268
	c-0.121,0.05-0.247,0.078-0.378,0.078c-0.698,0-1.542-0.789-2.54-3.198c-1.188-2.86-0.913-3.952-0.149-4.27
	C48.134,31.845,48.271,31.813,48.413,31.813 M48.413,30.813L48.413,30.813c-0.266,0-0.533,0.055-0.793,0.163
	c-2.309,0.961-0.866,4.436-0.392,5.577c1.093,2.638,2.161,3.815,3.463,3.815c0.258,0,0.515-0.052,0.762-0.155
	c0.464-0.192,1.249-0.711,1.294-2.022c0.03-0.87-0.256-1.999-0.901-3.553C50.733,31.957,49.706,30.813,48.413,30.813L48.413,30.813z
	"/>
<path fill="#C8E288" d="M45.088,28.78c-1.188-2.86-0.912-3.952-0.148-4.271c0.767-0.317,1.679,0.133,2.919,3.121
	c1.238,2.988,0.912,3.951,0.147,4.268C47.243,32.216,46.275,31.641,45.088,28.78z"/>
<path fill="#84B026" d="M45.351,24.423c0.68,0,1.482,0.735,2.508,3.208c1.238,2.988,0.912,3.951,0.147,4.268
	c-0.121,0.05-0.247,0.078-0.379,0.078c-0.698,0-1.542-0.789-2.54-3.197c-1.188-2.86-0.912-3.952-0.148-4.271
	C45.073,24.455,45.21,24.423,45.351,24.423 M45.351,23.423L45.351,23.423c-0.266,0-0.532,0.055-0.793,0.163
	c-2.31,0.962-0.868,4.436-0.394,5.578c1.094,2.637,2.162,3.813,3.464,3.813c0.259,0,0.515-0.052,0.763-0.155
	c2.306-0.956,0.916-4.311,0.393-5.574C47.671,24.566,46.645,23.423,45.351,23.423L45.351,23.423z"/>
<g>
	<ellipse transform="matrix(1 -0.0039 0.0039 1 -0.124 0.1875)" fill="#84B026" cx="48" cy="31.874" rx="3" ry="2.999"/>
</g>
<path fill="#C8E288" d="M77.079,98.992c1.183-2.861,2.148-3.44,2.915-3.124c0.766,0.317,1.093,1.28-0.144,4.271
	c-1.235,2.989-2.149,3.438-2.914,3.122C76.171,102.945,75.894,101.854,77.079,98.992z"/>
<path fill="#84B026" d="M79.617,95.791c0.131,0,0.256,0.028,0.377,0.077c0.766,0.317,1.093,1.28-0.144,4.271
	c-1.023,2.474-1.825,3.208-2.505,3.208c-0.142,0-0.278-0.032-0.409-0.086c-0.766-0.316-1.043-1.407,0.143-4.27
	C78.075,96.581,78.918,95.791,79.617,95.791 M79.617,94.791L79.617,94.791c-1.303,0-2.37,1.178-3.462,3.819
	c-0.613,1.48-0.9,2.624-0.878,3.497c0.034,1.364,0.815,1.888,1.278,2.079c0.26,0.108,0.526,0.162,0.791,0.162
	c1.295,0,2.321-1.144,3.429-3.826c0.522-1.264,1.91-4.621-0.398-5.577C80.13,94.842,79.874,94.791,79.617,94.791L79.617,94.791z"/>
<path fill="#C8E288" d="M80.141,91.602c1.182-2.862,2.148-3.441,2.915-3.124c0.766,0.317,1.093,1.28-0.144,4.271
	c-1.236,2.989-2.149,3.439-2.913,3.123C79.232,95.555,78.956,94.463,80.141,91.602z"/>
<path fill="#84B026" d="M82.678,88.4c0.131,0,0.257,0.028,0.378,0.078c0.766,0.317,1.093,1.28-0.144,4.271
	c-1.023,2.475-1.826,3.209-2.505,3.209c-0.141,0-0.277-0.032-0.409-0.086c-0.767-0.316-1.043-1.408,0.142-4.27
	C81.136,89.191,81.979,88.4,82.678,88.4 M82.678,87.4L82.678,87.4c-1.304,0-2.371,1.178-3.462,3.82
	c-0.867,2.095-1.084,3.521-0.683,4.488c0.21,0.505,0.585,0.881,1.084,1.087c0.259,0.107,0.525,0.162,0.79,0.162
	c1.294,0,2.319-1.145,3.429-3.827c0.522-1.264,1.91-4.62-0.398-5.576C83.191,87.452,82.936,87.4,82.678,87.4L82.678,87.4z"/>
<path fill="#C8E288" d="M83.117,98.797c-2.861-1.183-3.438-2.148-3.123-2.915c0.317-0.766,1.28-1.093,4.271,0.144
	c2.988,1.236,3.439,2.15,3.122,2.914C87.071,99.705,85.98,99.982,83.117,98.797z"/>
<path fill="#84B026" d="M81.218,95.201c0.654,0,1.619,0.234,3.047,0.824c2.988,1.236,3.439,2.15,3.122,2.914
	c-0.164,0.396-0.534,0.661-1.25,0.661c-0.668,0-1.638-0.231-3.02-0.804c-2.861-1.183-3.439-2.148-3.123-2.915
	C80.16,95.482,80.502,95.201,81.218,95.201 M81.218,94.201L81.218,94.201c-1.401,0-1.947,0.813-2.148,1.298
	c-0.952,2.314,2.523,3.75,3.665,4.222c1.429,0.592,2.543,0.88,3.402,0.88c1.432,0,1.977-0.802,2.174-1.279
	c0.213-0.513,0.216-1.052,0.007-1.557c-0.395-0.955-1.527-1.776-3.671-2.663C83.183,94.496,82.061,94.201,81.218,94.201
	L81.218,94.201z"/>
<path fill="#C8E288" d="M75.728,95.736c-2.862-1.182-3.44-2.148-3.125-2.914c0.318-0.767,1.281-1.094,4.271,0.142
	c2.989,1.238,3.439,2.149,3.123,2.914S78.589,96.921,75.728,95.736z"/>
<path fill="#84B026" d="M73.828,92.141c0.654,0,1.619,0.234,3.046,0.823c2.989,1.238,3.439,2.149,3.123,2.914
	c-0.164,0.396-0.535,0.661-1.251,0.661c-0.668,0-1.637-0.231-3.018-0.803c-2.862-1.182-3.44-2.148-3.125-2.914
	C72.769,92.421,73.112,92.141,73.828,92.141 M73.828,91.141L73.828,91.141c-1.401,0-1.948,0.813-2.149,1.298
	c-0.953,2.315,2.524,3.75,3.667,4.222c1.427,0.591,2.54,0.878,3.4,0.878c1.433,0,1.978-0.801,2.176-1.279
	c0.955-2.307-2.401-3.697-3.664-4.22C75.792,91.435,74.671,91.141,73.828,91.141L73.828,91.141z"/>
<path fill="#C8E288" d="M75.726,96.015c2.859-1.188,3.951-0.913,4.27-0.147c0.316,0.766-0.133,1.678-3.121,2.919
	c-2.987,1.239-3.952,0.911-4.268,0.147C72.288,98.168,72.863,97.201,75.726,96.015z"/>
<path fill="#84B026" d="M78.747,95.208c0.713,0,1.083,0.264,1.248,0.659c0.316,0.766-0.133,1.678-3.121,2.919
	c-1.427,0.592-2.393,0.826-3.046,0.826c-0.715,0-1.056-0.28-1.221-0.679c-0.318-0.766,0.257-1.732,3.119-2.919
	C77.109,95.44,78.079,95.208,78.747,95.208 M78.748,94.208L78.748,94.208c-0.86,0-1.974,0.289-3.406,0.883
	c-2.095,0.868-3.257,1.724-3.657,2.691c-0.209,0.505-0.209,1.036-0.002,1.535c0.199,0.482,0.744,1.295,2.145,1.295
	c0.844,0,1.965-0.295,3.43-0.903c1.263-0.524,4.616-1.917,3.662-4.225C80.72,95.007,80.175,94.208,78.748,94.208L78.748,94.208z"/>
<path fill="#C8E288" d="M83.116,92.953c2.859-1.188,3.952-0.914,4.27-0.147c0.317,0.766-0.132,1.678-3.121,2.919
	c-2.987,1.239-3.952,0.912-4.268,0.147C79.679,95.106,80.255,94.14,83.116,92.953z"/>
<path fill="#84B026" d="M86.139,92.146c0.713,0,1.083,0.264,1.247,0.66c0.317,0.766-0.132,1.678-3.121,2.919
	c-1.427,0.592-2.393,0.827-3.047,0.827c-0.714,0-1.056-0.28-1.221-0.679c-0.318-0.766,0.258-1.732,3.119-2.919
	C84.5,92.378,85.47,92.146,86.139,92.146 M86.139,91.146c-0.86,0-1.974,0.289-3.406,0.884c-2.095,0.869-3.257,1.724-3.657,2.691
	c-0.209,0.505-0.209,1.036-0.002,1.535c0.199,0.482,0.743,1.295,2.144,1.295c0.843,0,1.965-0.295,3.43-0.903
	c1.263-0.525,4.618-1.918,3.662-4.226C88.112,91.946,87.568,91.146,86.139,91.146L86.139,91.146z"/>
<path fill="#C8E288" d="M80.142,100.15c-1.188-2.859-0.913-3.951-0.148-4.27c0.766-0.317,1.679,0.133,2.919,3.122
	c1.239,2.987,0.912,3.951,0.147,4.269C82.295,103.588,81.327,103.014,80.142,100.15z"/>
<path fill="#84B026" d="M80.403,95.794c0.68,0,1.482,0.735,2.509,3.209c1.239,2.987,0.912,3.951,0.147,4.269
	c-0.121,0.05-0.247,0.078-0.378,0.078c-0.698,0-1.542-0.788-2.54-3.199c-1.188-2.859-0.913-3.951-0.148-4.27
	C80.125,95.826,80.262,95.794,80.403,95.794 M80.403,94.794c-0.266,0-0.532,0.055-0.793,0.163c-2.309,0.961-0.866,4.435-0.392,5.577
	c1.092,2.638,2.161,3.815,3.464,3.815c0.258,0,0.514-0.052,0.76-0.154c2.309-0.959,0.918-4.313,0.394-5.576
	C82.723,95.938,81.697,94.794,80.403,94.794L80.403,94.794z"/>
<path fill="#C8E288" d="M77.079,92.761c-1.188-2.86-0.912-3.952-0.147-4.271c0.767-0.317,1.679,0.133,2.919,3.121
	c1.238,2.988,0.912,3.951,0.147,4.268C79.233,96.197,78.266,95.622,77.079,92.761z"/>
<path fill="#84B026" d="M77.342,88.404c0.68,0,1.482,0.735,2.508,3.208c1.238,2.988,0.912,3.951,0.147,4.268
	c-0.121,0.05-0.248,0.078-0.379,0.078c-0.698,0-1.541-0.789-2.54-3.197c-1.188-2.86-0.912-3.952-0.147-4.271
	C77.064,88.436,77.2,88.404,77.342,88.404 M77.342,87.404L77.342,87.404c-0.266,0-0.532,0.055-0.793,0.163
	c-2.31,0.962-0.868,4.436-0.394,5.578c1.093,2.637,2.162,3.813,3.463,3.813c0.259,0,0.516-0.052,0.763-0.155
	c0.462-0.191,1.248-0.709,1.292-2.021c0.03-0.87-0.256-1.999-0.9-3.553C79.662,88.547,78.635,87.404,77.342,87.404L77.342,87.404z"
	/>
<g>
	<ellipse transform="matrix(1 -0.0039 0.0039 1 -0.3739 0.3132)" fill="#84B026" cx="79.991" cy="95.855" rx="3" ry="3"/>
</g>
<path fill="#C8E288" d="M13.079,98.992c1.183-2.861,2.149-3.44,2.915-3.124c0.766,0.317,1.093,1.28-0.144,4.271
	c-1.235,2.989-2.149,3.438-2.914,3.122C12.17,102.945,11.893,101.854,13.079,98.992z"/>
<path fill="#84B026" d="M15.617,95.791c0.131,0,0.256,0.028,0.377,0.077c0.766,0.317,1.093,1.28-0.144,4.271
	c-1.023,2.474-1.825,3.208-2.505,3.208c-0.142,0-0.278-0.032-0.409-0.086c-0.766-0.316-1.043-1.407,0.143-4.27
	C14.075,96.581,14.918,95.791,15.617,95.791 M15.617,94.791L15.617,94.791c-1.303,0-2.37,1.178-3.462,3.819
	c-0.613,1.48-0.9,2.624-0.878,3.497c0.034,1.364,0.815,1.888,1.278,2.079c0.26,0.108,0.526,0.162,0.791,0.162
	c1.295,0,2.321-1.144,3.429-3.826c0.522-1.264,1.91-4.621-0.398-5.577C16.129,94.842,15.874,94.791,15.617,94.791L15.617,94.791z"/>
<path fill="#C8E288" d="M16.14,91.602c1.182-2.862,2.149-3.441,2.915-3.124c0.766,0.317,1.093,1.28-0.144,4.271
	c-1.236,2.989-2.149,3.439-2.913,3.123C15.232,95.555,14.956,94.463,16.14,91.602z"/>
<path fill="#84B026" d="M18.678,88.4c0.131,0,0.257,0.028,0.378,0.078c0.766,0.317,1.093,1.28-0.144,4.271
	c-1.023,2.475-1.826,3.209-2.505,3.209c-0.141,0-0.277-0.032-0.409-0.086c-0.767-0.316-1.043-1.408,0.142-4.27
	C17.135,89.191,17.978,88.4,18.678,88.4 M18.678,87.4L18.678,87.4c-1.304,0-2.371,1.178-3.462,3.82
	c-0.867,2.095-1.084,3.521-0.683,4.488c0.21,0.505,0.585,0.881,1.084,1.087c0.259,0.107,0.525,0.162,0.79,0.162
	c1.294,0,2.319-1.145,3.429-3.827c0.522-1.264,1.91-4.62-0.398-5.576C19.191,87.452,18.935,87.4,18.678,87.4L18.678,87.4z"/>
<path fill="#C8E288" d="M19.117,98.797c-2.861-1.183-3.438-2.148-3.123-2.915c0.317-0.766,1.28-1.093,4.271,0.144
	c2.988,1.236,3.439,2.15,3.122,2.914C23.071,99.705,21.98,99.982,19.117,98.797z"/>
<path fill="#84B026" d="M17.218,95.201c0.654,0,1.619,0.234,3.047,0.824c2.988,1.236,3.439,2.15,3.122,2.914
	c-0.164,0.396-0.534,0.661-1.25,0.661c-0.668,0-1.638-0.231-3.02-0.804c-2.861-1.183-3.438-2.148-3.123-2.915
	C16.16,95.482,16.502,95.201,17.218,95.201 M17.218,94.201L17.218,94.201c-1.401,0-1.947,0.813-2.148,1.298
	c-0.952,2.314,2.523,3.75,3.665,4.222c1.429,0.592,2.543,0.88,3.402,0.88c1.432,0,1.977-0.802,2.174-1.279
	c0.213-0.513,0.216-1.052,0.007-1.557c-0.395-0.955-1.527-1.776-3.671-2.663C19.182,94.496,18.06,94.201,17.218,94.201
	L17.218,94.201z"/>
<path fill="#C8E288" d="M11.727,95.736c-2.862-1.182-3.441-2.148-3.125-2.914c0.318-0.767,1.281-1.094,4.271,0.142
	c2.989,1.238,3.439,2.149,3.123,2.914C15.68,96.643,14.588,96.921,11.727,95.736z"/>
<path fill="#84B026" d="M9.828,92.141c0.654,0,1.619,0.234,3.046,0.823c2.989,1.238,3.44,2.149,3.123,2.914
	c-0.164,0.396-0.535,0.661-1.251,0.661c-0.668,0-1.637-0.231-3.018-0.803c-2.862-1.182-3.44-2.148-3.125-2.914
	C8.769,92.421,9.111,92.141,9.828,92.141 M9.828,91.141L9.828,91.141c-1.401,0-1.948,0.813-2.149,1.298
	c-0.954,2.314,2.524,3.75,3.667,4.222c1.427,0.591,2.54,0.878,3.4,0.878c1.433,0,1.978-0.801,2.175-1.279
	c0.955-2.307-2.401-3.697-3.664-4.22C11.791,91.435,10.67,91.141,9.828,91.141L9.828,91.141z"/>
<path fill="#C8E288" d="M11.725,96.015c2.859-1.188,3.951-0.913,4.27-0.147c0.316,0.766-0.133,1.678-3.121,2.919
	c-2.987,1.239-3.952,0.911-4.267,0.147C8.288,98.168,8.863,97.201,11.725,96.015z"/>
<path fill="#84B026" d="M14.747,95.208c0.713,0,1.083,0.264,1.248,0.659c0.316,0.766-0.133,1.678-3.121,2.919
	c-1.427,0.592-2.393,0.826-3.046,0.826c-0.715,0-1.056-0.28-1.221-0.679c-0.318-0.766,0.257-1.732,3.119-2.919
	C13.109,95.44,14.078,95.208,14.747,95.208 M14.747,94.208L14.747,94.208c-0.86,0-1.974,0.289-3.406,0.883
	c-2.095,0.869-3.257,1.724-3.657,2.691c-0.209,0.505-0.209,1.036-0.002,1.536c0.199,0.482,0.744,1.295,2.145,1.295
	c0.844,0,1.965-0.295,3.43-0.903c1.263-0.524,4.616-1.917,3.662-4.225C16.72,95.007,16.175,94.208,14.747,94.208L14.747,94.208z"/>
<path fill="#C8E288" d="M19.116,92.953c2.859-1.188,3.952-0.914,4.27-0.147c0.317,0.766-0.132,1.678-3.121,2.919
	c-2.987,1.239-3.952,0.912-4.268,0.147C15.678,95.106,16.254,94.14,19.116,92.953z"/>
<path fill="#84B026" d="M22.138,92.146c0.713,0,1.083,0.264,1.247,0.66c0.317,0.766-0.132,1.678-3.121,2.919
	c-1.427,0.592-2.393,0.827-3.047,0.827c-0.714,0-1.056-0.28-1.221-0.679c-0.318-0.766,0.258-1.732,3.119-2.919
	C20.5,92.378,21.47,92.146,22.138,92.146 M22.138,91.146c-0.86,0-1.974,0.289-3.406,0.884c-2.095,0.869-3.257,1.724-3.657,2.691
	c-0.209,0.505-0.209,1.036-0.002,1.535c0.199,0.482,0.743,1.295,2.144,1.295c0.843,0,1.965-0.295,3.43-0.903
	c1.263-0.525,4.618-1.918,3.662-4.225C24.112,91.946,23.567,91.146,22.138,91.146L22.138,91.146z"/>
<path fill="#C8E288" d="M16.141,100.15c-1.188-2.859-0.913-3.951-0.148-4.27c0.766-0.317,1.679,0.133,2.919,3.122
	c1.239,2.987,0.912,3.951,0.147,4.269C18.294,103.588,17.327,103.014,16.141,100.15z"/>
<path fill="#84B026" d="M16.403,95.794c0.68,0,1.482,0.735,2.509,3.209c1.239,2.987,0.912,3.951,0.147,4.269
	c-0.121,0.05-0.247,0.078-0.378,0.078c-0.698,0-1.542-0.788-2.54-3.199c-1.188-2.859-0.913-3.951-0.148-4.27
	C16.125,95.826,16.261,95.794,16.403,95.794 M16.403,94.794c-0.266,0-0.532,0.055-0.793,0.163c-2.309,0.961-0.866,4.435-0.392,5.577
	c1.092,2.638,2.161,3.815,3.464,3.815c0.258,0,0.514-0.052,0.76-0.154c2.309-0.959,0.918-4.313,0.394-5.576
	C18.723,95.938,17.696,94.794,16.403,94.794L16.403,94.794z"/>
<path fill="#C8E288" d="M13.079,92.761c-1.188-2.86-0.912-3.952-0.147-4.271c0.767-0.317,1.679,0.133,2.919,3.121
	c1.238,2.988,0.912,3.951,0.148,4.268C15.233,96.197,14.265,95.622,13.079,92.761z"/>
<path fill="#84B026" d="M13.342,88.404c0.68,0,1.482,0.735,2.508,3.208c1.238,2.988,0.912,3.951,0.147,4.268
	c-0.121,0.05-0.248,0.078-0.379,0.078c-0.698,0-1.541-0.789-2.54-3.197c-1.188-2.86-0.912-3.952-0.147-4.271
	C13.063,88.436,13.2,88.404,13.342,88.404 M13.342,87.404L13.342,87.404c-0.266,0-0.532,0.055-0.793,0.163
	c-2.31,0.962-0.868,4.436-0.394,5.578c1.093,2.637,2.162,3.813,3.463,3.813c0.259,0,0.516-0.052,0.763-0.155
	c0.462-0.191,1.248-0.709,1.292-2.021c0.03-0.87-0.256-1.999-0.9-3.553C15.661,88.547,14.635,87.404,13.342,87.404L13.342,87.404z"
	/>
<g>
	<ellipse transform="matrix(1 -0.0039 0.0039 1 -0.3744 0.0632)" fill="#84B026" cx="15.99" cy="95.855" rx="3" ry="3"/>
</g>
</svg>
