<?xml version="1.0" encoding="utf-8"?>
<!-- Generator: Adobe Illustrator 19.2.0, SVG Export Plug-In . SVG Version: 6.00 Build 0)  -->
<svg version="1.0" id="Ebene_1" xmlns="http://www.w3.org/2000/svg" xmlns:xlink="http://www.w3.org/1999/xlink" x="0px" y="0px"
	 viewBox="0 0 128 128" enable-background="new 0 0 128 128" xml:space="preserve">
<rect fill="#C8E288" width="128" height="128"/>
<polygon fill="#84B026" points="4.707,12.707 17.414,0 14.586,0 3.293,11.293 "/>
<polygon fill="#84B026" points="68.707,12.707 81.414,0 78.586,0 67.293,11.293 "/>
<polygon fill="#84B026" points="20.707,28.707 49.414,0 46.586,0 19.293,27.293 "/>
<polygon fill="#84B026" points="84.707,28.707 113.414,0 110.586,0 83.293,27.293 "/>
<polygon fill="#84B026" points="11.293,35.293 0,46.586 0,49.414 12.707,36.707 "/>
<polygon fill="#84B026" points="27.293,51.293 0,78.586 0,81.414 28.707,52.707 "/>
<rect x="27.716" y="55" transform="matrix(0.7071 -0.7071 0.7071 0.7071 -23.196 56)" fill="#84B026" width="56.569" height="2"/>
<polygon fill="#84B026" points="100.707,76.707 128,49.414 128,46.586 99.293,75.293 "/>
<rect x="43.716" y="71" transform="matrix(0.7071 -0.7071 0.7071 0.7071 -29.8234 72)" fill="#84B026" width="56.569" height="2"/>
<polygon fill="#84B026" points="116.707,92.707 128,81.414 128,78.586 115.293,91.293 "/>
<polygon fill="#84B026" points="43.293,99.293 14.586,128 17.414,128 44.707,100.707 "/>
<polygon fill="#84B026" points="59.293,115.293 46.586,128 49.414,128 60.707,116.707 "/>
<polygon fill="#84B026" points="107.293,99.293 78.586,128 81.414,128 108.707,100.707 "/>
<polygon fill="#84B026" points="123.293,115.293 110.586,128 113.414,128 124.707,116.707 "/>
<path fill="#C8E288" d="M48.004,32.013c-0.768-0.316-1.732,0.263-2.916,3.124c-1.186,2.862-0.908,3.953-0.143,4.27
	c0.766,0.316,1.68-0.133,2.914-3.122C49.096,33.293,48.769,32.33,48.004,32.013z"/>
<path fill="#84B026" d="M48.387,31.089c-0.248-0.102-0.503-0.154-0.76-0.154c-1.302,0-2.37,1.178-3.463,3.819
	c-0.613,1.48-0.901,2.624-0.879,3.497c0.034,1.364,0.815,1.888,1.278,2.079c0.26,0.108,0.527,0.162,0.792,0.162
	c1.296,0,2.321-1.144,3.429-3.827C49.306,35.402,50.693,32.045,48.387,31.089z M47.859,36.284c-1.022,2.474-1.824,3.208-2.504,3.208
	c-0.142,0-0.278-0.032-0.41-0.086c-0.766-0.317-1.043-1.407,0.143-4.27c0.997-2.411,1.839-3.201,2.539-3.201
	c0.131,0,0.257,0.028,0.377,0.077C48.77,32.33,49.096,33.293,47.859,36.284z"/>
<path fill="#C8E288" d="M51.065,24.622c-0.766-0.317-1.733,0.262-2.914,3.124c-1.186,2.862-0.908,3.953-0.143,4.269
	c0.764,0.317,1.678-0.133,2.914-3.122C52.158,25.902,51.83,24.94,51.065,24.622z"/>
<path fill="#84B026" d="M51.447,23.698c-0.247-0.102-0.503-0.154-0.76-0.154h0c-1.303,0-2.371,1.178-3.461,3.82
	c-0.868,2.094-1.085,3.521-0.684,4.488c0.21,0.505,0.584,0.881,1.084,1.087c0.258,0.107,0.525,0.162,0.79,0.162
	c1.294,0,2.32-1.144,3.429-3.827C52.368,28.011,53.756,24.655,51.447,23.698z M50.922,28.893c-1.023,2.474-1.826,3.209-2.505,3.209
	c-0.141,0-0.277-0.032-0.409-0.086c-0.766-0.316-1.043-1.407,0.143-4.269c0.995-2.411,1.838-3.202,2.537-3.202
	c0.131,0,0.256,0.028,0.377,0.078C51.83,24.94,52.158,25.902,50.922,28.893z"/>
<path fill="#C8E288" d="M52.275,32.17c-2.992-1.237-3.955-0.91-4.271-0.144c-0.316,0.767,0.262,1.732,3.123,2.915
	c2.863,1.186,3.953,0.908,4.269,0.143C55.715,34.32,55.264,33.406,52.275,32.17z"/>
<path fill="#84B026" d="M52.658,31.246c-1.466-0.606-2.588-0.9-3.43-0.9h0c-1.402,0-1.947,0.814-2.147,1.299
	c-0.954,2.312,2.523,3.749,3.665,4.221c1.429,0.592,2.542,0.88,3.402,0.88c1.431,0,1.976-0.801,2.174-1.279
	c0.214-0.513,0.217-1.052,0.008-1.558C55.934,32.954,54.802,32.133,52.658,31.246z M55.396,35.084
	c-0.164,0.396-0.534,0.661-1.249,0.661c-0.668,0-1.637-0.231-3.02-0.804c-2.861-1.183-3.44-2.148-3.123-2.915
	c0.165-0.4,0.507-0.68,1.223-0.68c0.654,0,1.62,0.234,3.048,0.825C55.264,33.406,55.715,34.32,55.396,35.084z"/>
<path fill="#C8E288" d="M44.883,29.108c-2.99-1.235-3.953-0.908-4.271-0.142c-0.314,0.765,0.264,1.732,3.125,2.914
	c2.861,1.184,3.953,0.906,4.27,0.141C48.322,31.258,47.873,30.347,44.883,29.108z"/>
<path fill="#84B026" d="M45.265,28.184c-1.465-0.605-2.586-0.899-3.428-0.899h0c-1.401,0-1.948,0.813-2.149,1.298
	c-0.951,2.315,2.525,3.75,3.667,4.222c1.428,0.591,2.54,0.878,3.4,0.878c1.433,0,1.978-0.801,2.176-1.279
	C49.885,30.097,46.529,28.708,45.265,28.184z M48.006,32.022c-0.164,0.396-0.535,0.661-1.251,0.661
	c-0.668,0-1.637-0.231-3.018-0.802c-2.861-1.182-3.439-2.149-3.125-2.914c0.166-0.401,0.509-0.682,1.226-0.682
	c0.654,0,1.619,0.234,3.046,0.823C47.873,30.347,48.322,31.258,48.006,32.022z"/>
<path fill="#C8E288" d="M43.734,32.159c-2.861,1.186-3.438,2.153-3.119,2.919c0.316,0.764,1.281,1.092,4.268-0.147
	c2.988-1.241,3.438-2.153,3.121-2.919C47.685,31.246,46.594,30.972,43.734,32.159z"/>
<path fill="#84B026" d="M46.757,30.352c-0.86,0-1.974,0.289-3.406,0.884c-2.095,0.868-3.257,1.723-3.657,2.691
	c-0.209,0.505-0.209,1.036-0.002,1.535c0.2,0.483,0.746,1.295,2.145,1.295c0.844,0,1.965-0.295,3.429-0.903
	c1.263-0.524,4.616-1.917,3.662-4.225C48.729,31.151,48.184,30.352,46.757,30.352z M44.883,34.931
	c-1.427,0.592-2.392,0.826-3.046,0.826c-0.715,0-1.057-0.28-1.222-0.679c-0.318-0.766,0.258-1.733,3.119-2.919
	c1.384-0.575,2.354-0.807,3.022-0.807c0.713,0,1.083,0.264,1.247,0.66C48.32,32.777,47.871,33.69,44.883,34.931z"/>
<path fill="#C8E288" d="M51.125,29.098c-2.861,1.187-3.438,2.153-3.119,2.919c0.316,0.764,1.281,1.092,4.267-0.148
	c2.99-1.241,3.44-2.153,3.121-2.919C55.078,28.184,53.984,27.91,51.125,29.098z"/>
<path fill="#84B026" d="M54.148,27.291c-0.861,0-1.975,0.289-3.406,0.884c-2.095,0.869-3.258,1.724-3.657,2.691
	c-0.209,0.505-0.209,1.036-0.002,1.535c0.2,0.483,0.745,1.295,2.145,1.295c0.843,0,1.965-0.295,3.429-0.903
	c1.555-0.646,2.556-1.243,3.15-1.88c0.895-0.96,0.705-1.883,0.512-2.347C56.122,28.091,55.578,27.291,54.148,27.291z M52.273,31.869
	c-1.427,0.592-2.392,0.827-3.046,0.827c-0.714,0-1.056-0.28-1.222-0.679c-0.318-0.766,0.258-1.732,3.119-2.919
	c1.384-0.575,2.354-0.807,3.023-0.807c0.713,0,1.083,0.264,1.247,0.66C55.713,29.716,55.264,30.628,52.273,31.869z"/>
<path fill="#C8E288" d="M48.002,32.025c-0.764,0.318-1.039,1.41,0.148,4.27c1.185,2.862,2.154,3.438,2.918,3.12
	c0.766-0.317,1.092-1.281-0.147-4.268C49.682,32.158,48.768,31.708,48.002,32.025z"/>
<path fill="#84B026" d="M48.412,30.939L48.412,30.939c-0.266,0-0.533,0.055-0.793,0.163c-2.308,0.962-0.866,4.436-0.392,5.577
	c1.093,2.638,2.161,3.815,3.464,3.815c0.258,0,0.515-0.052,0.762-0.155c0.463-0.192,1.249-0.71,1.294-2.022
	c0.03-0.87-0.256-1.999-0.9-3.552C50.733,32.083,49.706,30.939,48.412,30.939z M51.068,39.415c-0.121,0.05-0.247,0.078-0.378,0.078
	c-0.698,0-1.542-0.789-2.54-3.198c-1.188-2.86-0.912-3.952-0.148-4.27c0.132-0.055,0.269-0.087,0.41-0.087
	c0.68,0,1.483,0.735,2.51,3.209C52.16,38.134,51.834,39.099,51.068,39.415z"/>
<path fill="#C8E288" d="M44.941,24.635c-0.766,0.318-1.041,1.41,0.146,4.271c1.188,2.861,2.154,3.437,2.92,3.119
	c0.764-0.317,1.09-1.28-0.148-4.268C46.619,24.768,45.707,24.317,44.941,24.635z"/>
<path fill="#84B026" d="M45.352,23.548L45.352,23.548c-0.266,0-0.532,0.055-0.793,0.163c-2.311,0.961-0.868,4.436-0.394,5.578
	c1.095,2.637,2.163,3.813,3.464,3.813c0.259,0,0.515-0.052,0.763-0.155c2.305-0.957,0.915-4.311,0.392-5.574
	C47.67,24.692,46.644,23.548,45.352,23.548z M48.008,32.024c-0.121,0.05-0.248,0.078-0.379,0.078c-0.698,0-1.541-0.789-2.541-3.197
	c-1.188-2.86-0.912-3.952-0.146-4.271c0.132-0.055,0.268-0.087,0.41-0.087c0.68,0,1.481,0.735,2.508,3.208
	C49.098,30.744,48.771,31.707,48.008,32.024z"/>
<g>
	<ellipse transform="matrix(1 -0.0039 0.0039 1 -0.1247 0.1878)" fill="#84B026" cx="48" cy="32" rx="3" ry="2.999"/>
</g>
<path fill="#C8E288" d="M111.995,31.994c-0.768-0.316-1.732,0.263-2.916,3.124c-1.186,2.862-0.908,3.953-0.143,4.27
	c0.766,0.316,1.68-0.133,2.914-3.122C113.087,33.274,112.76,32.311,111.995,31.994z"/>
<path fill="#84B026" d="M112.378,31.07c-0.248-0.102-0.503-0.154-0.76-0.154c-1.302,0-2.37,1.178-3.463,3.819
	c-0.613,1.48-0.901,2.624-0.879,3.497c0.034,1.363,0.815,1.888,1.278,2.079c0.26,0.108,0.527,0.162,0.792,0.162
	c1.296,0,2.321-1.144,3.429-3.827C113.297,35.383,114.684,32.026,112.378,31.07z M111.85,36.265
	c-1.022,2.474-1.824,3.208-2.504,3.208c-0.142,0-0.278-0.032-0.41-0.086c-0.766-0.316-1.043-1.407,0.143-4.27
	c0.997-2.411,1.839-3.201,2.539-3.201c0.131,0,0.257,0.028,0.377,0.077C112.76,32.311,113.087,33.274,111.85,36.265z"/>
<path fill="#C8E288" d="M115.055,24.603c-0.766-0.317-1.732,0.262-2.914,3.124c-1.186,2.862-0.908,3.953-0.143,4.269
	c0.764,0.317,1.678-0.133,2.914-3.122C116.149,25.883,115.821,24.92,115.055,24.603z"/>
<path fill="#84B026" d="M115.438,23.679c-0.247-0.102-0.503-0.154-0.76-0.154h0c-1.303,0-2.371,1.178-3.461,3.82
	c-0.868,2.094-1.085,3.521-0.684,4.488c0.21,0.505,0.584,0.881,1.084,1.087c0.258,0.107,0.525,0.162,0.79,0.162
	c1.294,0,2.32-1.144,3.429-3.827C116.359,27.992,117.747,24.636,115.438,23.679z M114.913,28.874
	c-1.023,2.474-1.826,3.209-2.505,3.209c-0.141,0-0.277-0.032-0.409-0.086c-0.766-0.316-1.043-1.407,0.143-4.269
	c0.995-2.411,1.838-3.202,2.537-3.202c0.131,0,0.256,0.028,0.377,0.078C115.821,24.92,116.149,25.883,114.913,28.874z"/>
<path fill="#C8E288" d="M116.266,32.151c-2.992-1.237-3.955-0.91-4.271-0.144c-0.316,0.767,0.262,1.732,3.123,2.915
	c2.863,1.186,3.953,0.908,4.269,0.143C119.706,34.301,119.255,33.387,116.266,32.151z"/>
<path fill="#84B026" d="M116.649,31.227c-1.466-0.606-2.588-0.9-3.43-0.9h0c-1.402,0-1.947,0.814-2.147,1.299
	c-0.954,2.312,2.523,3.749,3.665,4.221c1.429,0.592,2.542,0.88,3.402,0.88c1.431,0,1.976-0.801,2.174-1.279
	c0.214-0.513,0.217-1.052,0.008-1.558C119.925,32.935,118.793,32.114,116.649,31.227z M119.387,35.065
	c-0.164,0.396-0.534,0.661-1.249,0.661c-0.668,0-1.637-0.231-3.02-0.804c-2.861-1.183-3.44-2.148-3.123-2.915
	c0.165-0.4,0.507-0.68,1.223-0.68c0.654,0,1.62,0.234,3.048,0.824C119.255,33.387,119.706,34.301,119.387,35.065z"/>
<path fill="#C8E288" d="M108.874,29.089c-2.99-1.235-3.953-0.908-4.271-0.142c-0.314,0.765,0.264,1.732,3.125,2.914
	c2.861,1.184,3.953,0.906,4.27,0.141C112.313,31.239,111.864,30.328,108.874,29.089z"/>
<path fill="#84B026" d="M109.256,28.165c-1.465-0.605-2.586-0.899-3.428-0.899h0c-1.401,0-1.948,0.813-2.149,1.298
	c-0.951,2.315,2.525,3.75,3.667,4.222c1.428,0.591,2.54,0.878,3.4,0.878c1.433,0,1.978-0.801,2.176-1.279
	C113.876,30.078,110.52,28.689,109.256,28.165z M111.997,32.003c-0.164,0.396-0.535,0.661-1.251,0.661
	c-0.668,0-1.637-0.231-3.018-0.802c-2.861-1.182-3.439-2.149-3.125-2.914c0.166-0.401,0.509-0.681,1.226-0.682
	c0.654,0,1.619,0.234,3.046,0.823C111.864,30.328,112.313,31.239,111.997,32.003z"/>
<path fill="#C8E288" d="M107.725,32.14c-2.861,1.186-3.438,2.153-3.119,2.919c0.316,0.764,1.281,1.092,4.268-0.147
	c2.988-1.241,3.438-2.153,3.121-2.919C111.676,31.227,110.585,30.953,107.725,32.14z"/>
<path fill="#84B026" d="M110.748,30.333c-0.86,0-1.974,0.289-3.406,0.884c-2.095,0.868-3.257,1.723-3.657,2.691
	c-0.209,0.505-0.21,1.036-0.002,1.535c0.2,0.483,0.746,1.295,2.145,1.295c0.844,0,1.965-0.295,3.429-0.903
	c1.263-0.524,4.616-1.917,3.662-4.225C112.72,31.132,112.175,30.333,110.748,30.333z M108.874,34.912
	c-1.427,0.592-2.392,0.826-3.046,0.826c-0.715,0-1.057-0.28-1.222-0.679c-0.318-0.766,0.258-1.733,3.119-2.919
	c1.384-0.575,2.354-0.807,3.022-0.807c0.713,0,1.083,0.264,1.247,0.66C112.311,32.758,111.862,33.67,108.874,34.912z"/>
<path fill="#C8E288" d="M115.116,29.079c-2.861,1.187-3.438,2.153-3.119,2.919c0.316,0.764,1.281,1.092,4.267-0.147
	c2.99-1.241,3.44-2.153,3.121-2.919C119.069,28.165,117.975,27.891,115.116,29.079z"/>
<path fill="#84B026" d="M118.139,27.272c-0.861,0-1.975,0.289-3.406,0.884c-2.095,0.869-3.258,1.724-3.657,2.691
	c-0.209,0.505-0.209,1.036-0.002,1.535c0.2,0.483,0.745,1.295,2.145,1.295c0.843,0,1.965-0.295,3.429-0.903
	c1.555-0.646,2.556-1.243,3.15-1.88c0.895-0.96,0.705-1.883,0.512-2.347C120.113,28.072,119.569,27.272,118.139,27.272z
	 M116.264,31.85c-1.427,0.592-2.392,0.827-3.046,0.827c-0.714,0-1.056-0.28-1.222-0.679c-0.318-0.766,0.258-1.732,3.119-2.919
	c1.384-0.575,2.354-0.807,3.023-0.807c0.713,0,1.083,0.264,1.247,0.66C119.704,29.697,119.255,30.609,116.264,31.85z"/>
<path fill="#C8E288" d="M111.993,32.006c-0.764,0.318-1.039,1.41,0.148,4.27c1.185,2.862,2.154,3.438,2.918,3.12
	c0.766-0.317,1.092-1.281-0.147-4.268C113.673,32.139,112.759,31.689,111.993,32.006z"/>
<path fill="#84B026" d="M112.403,30.92L112.403,30.92c-0.266,0-0.533,0.055-0.793,0.163c-2.308,0.962-0.866,4.436-0.392,5.577
	c1.093,2.638,2.161,3.815,3.464,3.815c0.258,0,0.515-0.052,0.762-0.155c0.463-0.192,1.249-0.71,1.294-2.022
	c0.03-0.87-0.256-1.999-0.9-3.553C114.724,32.064,113.697,30.92,112.403,30.92z M115.059,39.396
	c-0.121,0.05-0.247,0.078-0.378,0.078c-0.698,0-1.542-0.789-2.54-3.198c-1.188-2.86-0.912-3.952-0.148-4.27
	c0.132-0.055,0.269-0.087,0.41-0.087c0.68,0,1.483,0.735,2.51,3.209C116.151,38.115,115.825,39.08,115.059,39.396z"/>
<path fill="#C8E288" d="M108.932,24.616c-0.766,0.318-1.041,1.41,0.146,4.271c1.188,2.861,2.154,3.436,2.92,3.119
	c0.764-0.317,1.09-1.28-0.148-4.268C110.61,24.749,109.698,24.298,108.932,24.616z"/>
<path fill="#84B026" d="M109.343,23.529L109.343,23.529c-0.266,0-0.532,0.055-0.793,0.163c-2.311,0.961-0.868,4.436-0.394,5.578
	c1.095,2.637,2.163,3.813,3.464,3.813c0.259,0,0.515-0.052,0.763-0.155c2.305-0.957,0.915-4.311,0.392-5.574
	C111.661,24.673,110.635,23.529,109.343,23.529z M111.999,32.005c-0.121,0.05-0.248,0.078-0.379,0.078
	c-0.698,0-1.541-0.789-2.541-3.197c-1.188-2.86-0.912-3.952-0.146-4.271c0.132-0.055,0.268-0.087,0.41-0.087
	c0.68,0,1.481,0.735,2.508,3.208C113.089,30.725,112.762,31.688,111.999,32.005z"/>
<g>
	<ellipse transform="matrix(1 -0.0039 0.0039 1 -0.1241 0.4378)" fill="#84B026" cx="111.991" cy="31.981" rx="3" ry="2.999"/>
</g>
<path fill="#C8E288" d="M79.994,95.994c-0.767-0.316-1.732,0.262-2.915,3.123c-1.185,2.863-0.908,3.953-0.143,4.269
	c0.765,0.316,1.679-0.133,2.914-3.121C81.087,97.273,80.76,96.31,79.994,95.994z"/>
<path fill="#84B026" d="M80.376,95.07c-0.247-0.102-0.502-0.153-0.759-0.153h0c-1.303,0-2.37,1.178-3.462,3.819
	c-0.613,1.48-0.9,2.625-0.878,3.497c0.034,1.363,0.815,1.888,1.278,2.079c0.26,0.108,0.526,0.162,0.791,0.162
	c1.295,0,2.32-1.144,3.429-3.825C81.297,99.383,82.685,96.024,80.376,95.07z M79.851,100.266c-1.023,2.473-1.825,3.207-2.505,3.207
	c-0.142,0-0.278-0.032-0.409-0.086c-0.766-0.316-1.043-1.406,0.143-4.269c0.996-2.41,1.839-3.201,2.538-3.201
	c0.131,0,0.256,0.028,0.377,0.078C80.76,96.31,81.087,97.273,79.851,100.266z"/>
<path fill="#C8E288" d="M83.056,88.603c-0.767-0.317-1.733,0.262-2.915,3.123c-1.185,2.862-0.908,3.953-0.142,4.27
	c0.764,0.316,1.677-0.133,2.913-3.123C84.148,89.883,83.821,88.92,83.056,88.603z"/>
<path fill="#84B026" d="M83.438,87.679c-0.246-0.102-0.502-0.154-0.76-0.154h0c-1.303,0-2.371,1.178-3.462,3.819
	c-0.613,1.48-0.9,2.624-0.878,3.496c0.034,1.364,0.816,1.888,1.279,2.079c0.259,0.107,0.525,0.162,0.79,0.162
	c1.294,0,2.319-1.145,3.428-3.827c0.643-1.555,0.928-2.685,0.898-3.555C84.688,88.389,83.902,87.871,83.438,87.679z M82.912,92.873
	c-1.023,2.475-1.825,3.209-2.504,3.209c-0.141,0-0.277-0.032-0.409-0.086c-0.767-0.316-1.043-1.407,0.142-4.27
	c0.995-2.41,1.838-3.201,2.537-3.201c0.131,0,0.257,0.028,0.378,0.078C83.821,88.92,84.148,89.883,82.912,92.873z"/>
<path fill="#C8E288" d="M84.266,96.151c-2.991-1.237-3.954-0.909-4.272-0.144c-0.315,0.767,0.262,1.732,3.123,2.914
	c2.863,1.185,3.954,0.908,4.271,0.143C87.705,98.301,87.254,97.387,84.266,96.151z"/>
<path fill="#84B026" d="M84.648,95.227c-1.465-0.606-2.586-0.9-3.429-0.9h0c-1.401,0-1.947,0.813-2.148,1.298
	c-0.952,2.314,2.523,3.75,3.665,4.221c1.429,0.592,2.543,0.88,3.403,0.88c1.431,0,1.976-0.801,2.174-1.278
	c0.214-0.515,0.216-1.054,0.007-1.559C87.923,96.934,86.791,96.113,84.648,95.227z M87.388,99.065
	c-0.164,0.395-0.534,0.66-1.25,0.66c-0.668,0-1.638-0.231-3.021-0.804c-2.861-1.182-3.438-2.147-3.123-2.914
	c0.166-0.4,0.508-0.681,1.224-0.681c0.654,0,1.619,0.234,3.047,0.824C87.254,97.387,87.705,98.301,87.388,99.065z"/>
<path fill="#C8E288" d="M76.874,93.09c-2.99-1.236-3.953-0.908-4.272-0.143c-0.315,0.766,0.263,1.732,3.125,2.915
	c2.861,1.185,3.953,0.906,4.27,0.142C80.313,95.238,79.863,94.328,76.874,93.09z"/>
<path fill="#84B026" d="M77.257,92.166c-1.465-0.605-2.586-0.9-3.428-0.9h0c-1.401,0-1.948,0.813-2.149,1.297
	c-0.953,2.314,2.524,3.751,3.667,4.223c1.428,0.591,2.54,0.878,3.4,0.878c1.433,0,1.978-0.801,2.176-1.279
	C81.875,94.079,78.52,92.689,77.257,92.166z M79.997,96.004c-0.164,0.396-0.535,0.661-1.251,0.661c-0.668,0-1.637-0.231-3.018-0.803
	c-2.862-1.183-3.44-2.149-3.125-2.915c0.167-0.4,0.509-0.681,1.226-0.681c0.654,0,1.619,0.234,3.046,0.824
	C79.863,94.328,80.313,95.238,79.997,96.004z"/>
<path fill="#C8E288" d="M75.726,96.141c-2.862,1.186-3.438,2.152-3.119,2.918c0.315,0.764,1.28,1.092,4.268-0.146
	c2.988-1.242,3.438-2.154,3.121-2.92C79.677,95.227,78.585,94.953,75.726,96.141z"/>
<path fill="#84B026" d="M78.749,94.333L78.749,94.333c-0.86,0-1.975,0.289-3.407,0.884c-2.095,0.868-3.257,1.723-3.657,2.69
	c-0.209,0.505-0.21,1.036-0.002,1.536c0.199,0.482,0.744,1.295,2.145,1.295c0.843,0,1.965-0.295,3.429-0.902
	c1.263-0.525,4.616-1.919,3.662-4.226C80.721,95.132,80.175,94.333,78.749,94.333z M76.874,98.912
	c-1.427,0.591-2.392,0.826-3.046,0.826c-0.715,0-1.057-0.28-1.222-0.679c-0.318-0.766,0.257-1.732,3.119-2.918
	c1.384-0.575,2.354-0.807,3.023-0.807c0.713,0,1.082,0.264,1.247,0.659C80.312,96.758,79.862,97.67,76.874,98.912z"/>
<path fill="#C8E288" d="M83.116,93.078c-2.861,1.188-3.438,2.154-3.119,2.92c0.315,0.764,1.28,1.092,4.268-0.148
	c2.989-1.24,3.439-2.152,3.121-2.918C87.068,92.165,85.976,91.891,83.116,93.078z"/>
<path fill="#84B026" d="M86.138,91.271c-0.86,0-1.974,0.289-3.405,0.883c-1.48,0.614-2.492,1.22-3.093,1.853
	c-0.94,0.989-0.758,1.912-0.566,2.375c0.199,0.482,0.744,1.295,2.144,1.295c0.844,0,1.966-0.296,3.43-0.904
	c1.263-0.524,4.618-1.916,3.661-4.224C88.112,92.072,87.567,91.271,86.138,91.271z M84.265,95.85
	c-1.427,0.593-2.393,0.827-3.047,0.827c-0.714,0-1.056-0.28-1.221-0.679c-0.318-0.766,0.258-1.732,3.119-2.92
	c1.383-0.574,2.353-0.807,3.022-0.807c0.714,0,1.084,0.265,1.248,0.66C87.703,93.697,87.254,94.609,84.265,95.85z"/>
<path fill="#C8E288" d="M79.993,96.006c-0.765,0.318-1.039,1.41,0.148,4.271c1.185,2.862,2.153,3.438,2.918,3.12
	c0.765-0.316,1.092-1.281-0.147-4.268C81.672,96.139,80.759,95.69,79.993,96.006z"/>
<path fill="#84B026" d="M80.403,94.92L80.403,94.92c-0.265,0-0.532,0.055-0.792,0.162c-2.31,0.961-0.867,4.436-0.393,5.578
	c1.093,2.638,2.161,3.815,3.463,3.815c0.258,0,0.515-0.052,0.762-0.155c0.515-0.213,0.898-0.593,1.107-1.097
	c0.395-0.954,0.175-2.335-0.714-4.477C82.724,96.064,81.697,94.92,80.403,94.92z M83.06,103.396
	c-0.121,0.05-0.247,0.078-0.378,0.078c-0.698,0-1.542-0.789-2.54-3.198c-1.188-2.86-0.913-3.952-0.148-4.271
	c0.132-0.054,0.268-0.086,0.41-0.086c0.68,0,1.483,0.734,2.509,3.209C84.151,102.115,83.824,103.08,83.06,103.396z"/>
<path fill="#C8E288" d="M76.932,88.615c-0.765,0.318-1.04,1.41,0.148,4.271c1.187,2.861,2.154,3.436,2.919,3.118
	c0.765-0.317,1.091-1.28-0.147-4.269C78.61,88.748,77.698,88.299,76.932,88.615z"/>
<path fill="#84B026" d="M77.342,87.529L77.342,87.529c-0.265,0-0.531,0.055-0.792,0.162c-2.311,0.962-0.868,4.437-0.395,5.579
	c1.094,2.637,2.162,3.813,3.464,3.813c0.259,0,0.515-0.052,0.762-0.155c2.307-0.957,0.916-4.312,0.393-5.575
	C79.662,88.673,78.635,87.529,77.342,87.529z M79.998,96.005c-0.121,0.05-0.247,0.078-0.379,0.078c-0.698,0-1.542-0.788-2.54-3.196
	c-1.188-2.861-0.912-3.953-0.148-4.272c0.132-0.055,0.268-0.086,0.41-0.086c0.681,0,1.482,0.734,2.509,3.207
	C81.089,94.725,80.763,95.688,79.998,96.005z"/>
<g>
	<ellipse transform="matrix(1 -0.0041 0.0041 1 -0.3899 0.3263)" fill="#84B026" cx="79.991" cy="95.981" rx="3" ry="3"/>
</g>
<path fill="#C8E288" d="M15.994,95.994c-0.767-0.316-1.732,0.262-2.915,3.123c-1.186,2.863-0.908,3.953-0.143,4.269
	c0.765,0.316,1.679-0.133,2.914-3.121C17.087,97.273,16.76,96.31,15.994,95.994z"/>
<path fill="#84B026" d="M16.376,95.07c-0.247-0.102-0.502-0.153-0.759-0.153h0c-1.303,0-2.37,1.178-3.462,3.819
	c-0.613,1.48-0.9,2.625-0.878,3.497c0.034,1.363,0.815,1.888,1.278,2.079c0.26,0.108,0.526,0.162,0.791,0.162
	c1.295,0,2.32-1.144,3.429-3.825C17.297,99.383,18.685,96.024,16.376,95.07z M15.851,100.266c-1.023,2.473-1.825,3.207-2.505,3.207
	c-0.141,0-0.278-0.032-0.409-0.086c-0.766-0.316-1.043-1.406,0.143-4.269c0.996-2.41,1.839-3.201,2.538-3.201
	c0.131,0,0.256,0.028,0.377,0.078C16.76,96.31,17.087,97.273,15.851,100.266z"/>
<path fill="#C8E288" d="M19.056,88.603c-0.767-0.317-1.733,0.262-2.915,3.123c-1.185,2.862-0.908,3.953-0.142,4.27
	c0.764,0.316,1.677-0.133,2.913-3.123C20.149,89.883,19.821,88.92,19.056,88.603z"/>
<path fill="#84B026" d="M19.438,87.679c-0.246-0.102-0.502-0.154-0.76-0.154h0c-1.303,0-2.371,1.178-3.461,3.819
	c-0.613,1.48-0.9,2.624-0.878,3.496c0.034,1.364,0.816,1.888,1.279,2.079c0.259,0.107,0.525,0.162,0.79,0.162
	c1.294,0,2.319-1.145,3.428-3.827c0.643-1.555,0.928-2.685,0.898-3.555C20.688,88.389,19.902,87.871,19.438,87.679z M18.912,92.873
	c-1.023,2.475-1.825,3.209-2.504,3.209c-0.141,0-0.277-0.032-0.409-0.086c-0.767-0.316-1.043-1.407,0.142-4.27
	c0.995-2.41,1.838-3.201,2.537-3.201c0.131,0,0.257,0.028,0.378,0.078C19.821,88.92,20.149,89.883,18.912,92.873z"/>
<path fill="#C8E288" d="M20.266,96.151c-2.991-1.237-3.954-0.909-4.271-0.144c-0.315,0.767,0.262,1.732,3.123,2.914
	c2.863,1.185,3.954,0.908,4.271,0.143C23.705,98.301,23.254,97.387,20.266,96.151z"/>
<path fill="#84B026" d="M20.648,95.227c-1.464-0.606-2.586-0.9-3.429-0.9h0c-1.401,0-1.947,0.813-2.148,1.298
	c-0.952,2.314,2.523,3.75,3.665,4.221c1.429,0.592,2.543,0.88,3.403,0.88c1.431,0,1.976-0.801,2.174-1.278
	c0.214-0.515,0.216-1.054,0.007-1.559C23.924,96.934,22.791,96.113,20.648,95.227z M23.388,99.065
	c-0.164,0.395-0.534,0.66-1.25,0.66c-0.668,0-1.638-0.231-3.021-0.804c-2.861-1.182-3.438-2.147-3.123-2.914
	c0.166-0.4,0.508-0.681,1.224-0.681c0.654,0,1.619,0.234,3.047,0.824C23.254,97.387,23.705,98.301,23.388,99.065z"/>
<path fill="#C8E288" d="M12.874,93.09c-2.99-1.236-3.953-0.908-4.271-0.143c-0.315,0.766,0.263,1.732,3.125,2.915
	c2.861,1.185,3.953,0.906,4.27,0.142C16.314,95.238,15.863,94.328,12.874,93.09z"/>
<path fill="#84B026" d="M13.257,92.166c-1.465-0.605-2.586-0.9-3.428-0.9h0c-1.401,0-1.948,0.813-2.149,1.297
	c-0.953,2.314,2.524,3.751,3.667,4.223c1.428,0.591,2.54,0.878,3.4,0.878c1.433,0,1.978-0.801,2.176-1.279
	C17.875,94.079,14.52,92.689,13.257,92.166z M15.997,96.004c-0.164,0.396-0.535,0.661-1.251,0.661c-0.668,0-1.637-0.231-3.018-0.803
	c-2.862-1.183-3.44-2.149-3.125-2.915c0.167-0.4,0.509-0.681,1.226-0.681c0.654,0,1.619,0.234,3.046,0.824
	C15.863,94.328,16.314,95.238,15.997,96.004z"/>
<path fill="#C8E288" d="M11.726,96.141c-2.862,1.186-3.438,2.152-3.119,2.918c0.315,0.764,1.28,1.092,4.268-0.146
	c2.988-1.242,3.438-2.154,3.121-2.92C15.677,95.227,14.585,94.953,11.726,96.141z"/>
<path fill="#84B026" d="M14.749,94.333L14.749,94.333c-0.86,0-1.975,0.289-3.406,0.884c-2.095,0.868-3.257,1.723-3.657,2.69
	c-0.209,0.505-0.21,1.036-0.002,1.536c0.199,0.482,0.744,1.295,2.145,1.295c0.843,0,1.965-0.295,3.429-0.902
	c1.263-0.525,4.616-1.919,3.662-4.226C16.721,95.132,16.176,94.333,14.749,94.333z M12.874,98.912
	c-1.427,0.591-2.392,0.826-3.046,0.826c-0.715,0-1.057-0.28-1.222-0.679c-0.318-0.766,0.257-1.732,3.119-2.918
	c1.384-0.575,2.354-0.807,3.023-0.807c0.713,0,1.082,0.264,1.247,0.659C16.312,96.758,15.862,97.67,12.874,98.912z"/>
<path fill="#C8E288" d="M19.116,93.078c-2.861,1.188-3.438,2.154-3.119,2.92c0.315,0.764,1.28,1.092,4.268-0.148
	c2.989-1.24,3.438-2.152,3.121-2.918C23.069,92.165,21.976,91.891,19.116,93.078z"/>
<path fill="#84B026" d="M22.138,91.271c-0.86,0-1.974,0.289-3.405,0.883c-1.48,0.614-2.492,1.22-3.093,1.853
	c-0.94,0.989-0.758,1.912-0.566,2.375c0.199,0.482,0.744,1.295,2.144,1.295c0.844,0,1.966-0.296,3.43-0.904
	c1.263-0.524,4.618-1.916,3.661-4.224C24.112,92.072,23.568,91.271,22.138,91.271z M20.265,95.85
	c-1.427,0.593-2.393,0.827-3.047,0.827c-0.714,0-1.056-0.28-1.221-0.679c-0.318-0.766,0.258-1.732,3.119-2.92
	c1.383-0.574,2.353-0.807,3.022-0.807c0.714,0,1.084,0.265,1.248,0.66C23.703,93.697,23.254,94.609,20.265,95.85z"/>
<path fill="#C8E288" d="M15.993,96.006c-0.765,0.318-1.039,1.41,0.148,4.271c1.185,2.862,2.153,3.438,2.918,3.12
	c0.765-0.316,1.092-1.281-0.147-4.268C17.672,96.139,16.759,95.69,15.993,96.006z"/>
<path fill="#84B026" d="M16.403,94.92L16.403,94.92c-0.265,0-0.532,0.055-0.792,0.162c-2.31,0.961-0.867,4.436-0.393,5.578
	c1.093,2.638,2.161,3.815,3.463,3.815c0.258,0,0.515-0.052,0.762-0.155c0.515-0.213,0.898-0.593,1.107-1.097
	c0.395-0.954,0.175-2.335-0.714-4.477C18.724,96.064,17.697,94.92,16.403,94.92z M19.06,103.396
	c-0.121,0.05-0.247,0.078-0.378,0.078c-0.698,0-1.542-0.789-2.54-3.198c-1.188-2.86-0.913-3.952-0.148-4.271
	c0.132-0.054,0.268-0.086,0.41-0.086c0.68,0,1.483,0.734,2.509,3.209C20.152,102.115,19.824,103.08,19.06,103.396z"/>
<path fill="#C8E288" d="M12.932,88.615c-0.765,0.318-1.04,1.41,0.148,4.271c1.186,2.861,2.154,3.436,2.919,3.118
	c0.765-0.317,1.091-1.28-0.147-4.269C14.611,88.748,13.698,88.299,12.932,88.615z"/>
<path fill="#84B026" d="M13.342,87.529L13.342,87.529c-0.265,0-0.531,0.055-0.792,0.162c-2.311,0.962-0.869,4.437-0.395,5.579
	c1.094,2.637,2.162,3.813,3.464,3.813c0.258,0,0.515-0.052,0.762-0.155c2.307-0.957,0.916-4.312,0.393-5.575
	C15.662,88.673,14.635,87.529,13.342,87.529z M15.998,96.005c-0.121,0.05-0.247,0.078-0.379,0.078c-0.698,0-1.542-0.788-2.54-3.196
	c-1.188-2.861-0.912-3.953-0.148-4.272c0.132-0.055,0.268-0.086,0.41-0.086c0.681,0,1.482,0.734,2.509,3.207
	C17.089,94.725,16.763,95.688,15.998,96.005z"/>
<g>
	<ellipse transform="matrix(1 -0.0041 0.0041 1 -0.3905 0.0659)" fill="#84B026" cx="15.991" cy="95.981" rx="3" ry="3"/>
</g>
</svg>
