<?xml version="1.0" encoding="utf-8"?>
<!-- Generator: Adobe Illustrator 19.2.0, SVG Export Plug-In . SVG Version: 6.00 Build 0)  -->
<svg version="1.0" id="Ebene_1" xmlns="http://www.w3.org/2000/svg" xmlns:xlink="http://www.w3.org/1999/xlink" x="0px" y="0px"
	 viewBox="0 0 64 64" style="enable-background:new 0 0 64 64;" xml:space="preserve">
<style type="text/css">
	.st0{fill:#98C488;}
	.st1{fill:#6CA64A;}
</style>
<rect class="st0" width="64" height="64"/>
<polygon class="st1" points="48,22.6 44.7,19.3 43.3,20.7 46.6,24 48,25.4 49.4,24 52.7,20.7 51.3,19.3 "/>
<rect x="10" y="40.1" class="st1" width="12" height="2"/>
<rect x="42" y="39.8" class="st1" width="12" height="2"/>
<rect x="26" y="46.9" class="st1" width="12" height="2"/>
<rect x="58" y="46.9" class="st1" width="6" height="2"/>
<rect x="0" y="46.9" class="st1" width="0" height="2"/>
<rect y="46.9" class="st1" width="6" height="2"/>
<g>
	<rect x="0" y="31.3" class="st1" width="0" height="2"/>
	<rect y="31.3" class="st1" width="2" height="2"/>
	<rect x="22.1" y="31.3" class="st1" width="4" height="2"/>
	<rect x="14.1" y="31.3" class="st1" width="4" height="2"/>
	<rect x="6" y="31.3" class="st1" width="4" height="2"/>
	<rect x="30.2" y="31.3" class="st1" width="4" height="2"/>
	<rect x="54.4" y="31.3" class="st1" width="4" height="2"/>
	<rect x="46.3" y="31.3" class="st1" width="4" height="2"/>
	<rect x="38.3" y="31.3" class="st1" width="4" height="2"/>
	<rect x="64" y="31.3" class="st1" width="0.5" height="2"/>
	<rect x="62.5" y="31.3" class="st1" width="1.5" height="2"/>
</g>
<rect class="st1" width="2" height="1"/>
<rect x="22.1" class="st1" width="4" height="1"/>
<rect x="14.1" class="st1" width="4" height="1"/>
<rect x="6" class="st1" width="4" height="1"/>
<rect x="46.3" class="st1" width="4" height="1"/>
<rect x="54.4" class="st1" width="4" height="1"/>
<rect x="30.2" class="st1" width="4" height="1"/>
<rect x="38.3" class="st1" width="4" height="1"/>
<rect x="62.5" class="st1" width="1.5" height="1"/>
<rect y="62.8" class="st1" width="2" height="1.2"/>
<rect x="6" y="62.8" class="st1" width="4" height="1.2"/>
<rect x="46.3" y="62.8" class="st1" width="4" height="1.2"/>
<rect x="38.3" y="62.8" class="st1" width="4" height="1.2"/>
<rect x="54.4" y="62.8" class="st1" width="4" height="1.2"/>
<rect x="30.2" y="62.8" class="st1" width="4" height="1.2"/>
<rect x="14.1" y="62.8" class="st1" width="4" height="1.2"/>
<rect x="22.1" y="62.8" class="st1" width="4" height="1.2"/>
<rect x="62.5" y="62.8" class="st1" width="1.5" height="1.2"/>
<polygon class="st1" points="16,38.7 12.7,35.4 11.3,36.8 14.6,40.1 16,41.5 17.4,40.1 20.7,36.8 19.3,35.4 "/>
<polygon class="st1" points="4.7,43.6 3.3,42.2 0,45.5 0,48.3 1.4,46.9 "/>
<polygon class="st1" points="32,45.5 28.7,42.2 27.3,43.6 30.6,46.9 32,48.3 33.4,46.9 36.7,43.6 35.3,42.2 "/>
<polygon class="st1" points="64,45.8 60.7,42.5 59.3,44 62.6,47.2 64,48.7 64,48.6 64,45.8 "/>
<polygon class="st1" points="48,38.4 44.7,35.1 43.3,36.5 46.6,39.8 48,41.2 49.4,39.8 52.7,36.5 51.3,35.1 "/>
<rect x="10" y="56.2" class="st1" width="12" height="2"/>
<rect x="42" y="55.9" class="st1" width="12" height="2"/>
<polygon class="st1" points="16,54.8 12.7,51.5 11.3,52.9 14.6,56.2 16,57.7 17.4,56.2 20.7,52.9 19.3,51.5 "/>
<polygon class="st1" points="48,54.6 44.7,51.3 43.3,52.7 46.6,56 48,57.4 49.4,56 52.7,52.7 51.3,51.3 "/>
<rect x="10" y="8.2" class="st1" width="12" height="2"/>
<rect x="42" y="7.9" class="st1" width="12" height="2"/>
<rect x="26" y="15" class="st1" width="12" height="2"/>
<rect x="58" y="15" class="st1" width="6" height="2"/>
<rect x="0" y="15" class="st1" width="0" height="2"/>
<rect y="15" class="st1" width="6" height="2"/>
<polygon class="st1" points="16,6.8 12.7,3.5 11.3,4.9 14.6,8.2 16,9.6 17.4,8.2 20.7,4.9 19.3,3.5 "/>
<polygon class="st1" points="4.7,11.7 3.3,10.3 0,13.5 0,16.4 1.4,15 "/>
<polygon class="st1" points="32,13.5 28.7,10.3 27.3,11.7 30.6,15 32,16.4 33.4,15 36.7,11.7 35.3,10.3 "/>
<polygon class="st1" points="64,13.9 60.7,10.6 59.3,12 62.6,15.3 64,16.7 64,16.7 64,13.9 "/>
<polygon class="st1" points="48,6.5 44.7,3.2 43.3,4.6 46.6,7.9 48,9.3 49.4,7.9 52.7,4.6 51.3,3.2 "/>
<rect x="10" y="24.3" class="st1" width="12" height="2"/>
<rect x="42" y="24" class="st1" width="12" height="2"/>
<polygon class="st1" points="16,22.9 12.7,19.6 11.3,21 14.6,24.3 16,25.7 17.4,24.3 20.7,21 19.3,19.6 "/>
</svg>
