<?xml version="1.0" encoding="utf-8"?>
<!-- Generator: Adobe Illustrator 19.2.0, SVG Export Plug-In . SVG Version: 6.00 Build 0)  -->
<svg version="1.0" id="Ebene_1" xmlns="http://www.w3.org/2000/svg" xmlns:xlink="http://www.w3.org/1999/xlink" x="0px" y="0px"
	 viewBox="0 0 32 32" style="enable-background:new 0 0 32 32;" xml:space="preserve">
<style type="text/css">
	.st0{fill:#98C488;}
	.st1{fill:#6CA64A;}
</style>
<g>
	<rect class="st0" width="32" height="32"/>
</g>
<rect y="31" class="st1" width="2" height="1"/>
<rect x="14" y="31" class="st1" width="4" height="1"/>
<rect x="6" y="31" class="st1" width="4" height="1"/>
<rect x="22" y="31" class="st1" width="4" height="1"/>
<rect x="30" y="31" class="st1" width="2" height="1"/>
<rect class="st1" width="2" height="1"/>
<rect x="14" class="st1" width="4" height="1"/>
<rect x="22" class="st1" width="4" height="1"/>
<rect x="6" class="st1" width="4" height="1"/>
<rect x="30" class="st1" width="2" height="1"/>
<g>
	<circle class="st1" cx="4" cy="4" r="2"/>
	<circle class="st1" cx="12" cy="4" r="2"/>
	<circle class="st1" cx="4" cy="12.2" r="2"/>
	<circle class="st1" cx="12" cy="12.2" r="2"/>
	<circle class="st1" cx="8" cy="8" r="2"/>
</g>
<g>
	<circle class="st1" cx="4" cy="19.9" r="2"/>
	<circle class="st1" cx="12" cy="19.9" r="2"/>
	<circle class="st1" cx="4" cy="28.1" r="2"/>
	<circle class="st1" cx="12" cy="28.1" r="2"/>
	<circle class="st1" cx="8" cy="23.9" r="2"/>
</g>
<g>
	<circle class="st1" cx="20" cy="4" r="2"/>
	<circle class="st1" cx="28" cy="4" r="2"/>
	<circle class="st1" cx="20" cy="12.1" r="2"/>
	<circle class="st1" cx="28" cy="12.1" r="2"/>
	<circle class="st1" cx="24" cy="8" r="2"/>
</g>
<g>
	<circle class="st1" cx="20" cy="19.9" r="2"/>
	<circle class="st1" cx="28" cy="19.9" r="2"/>
	<circle class="st1" cx="20" cy="28.1" r="2"/>
	<circle class="st1" cx="28" cy="28.1" r="2"/>
	<circle class="st1" cx="24" cy="23.9" r="2"/>
</g>
<circle class="st1" cx="16.1" cy="15.9" r="2"/>
<circle class="st1" cx="8" cy="16.1" r="2"/>
<circle class="st1" cx="24" cy="16.1" r="2"/>
<circle class="st1" cx="16" cy="23.9" r="2"/>
<circle class="st1" cx="16" cy="8.1" r="2"/>
</svg>
