<?xml version="1.0" encoding="utf-8"?>
<!-- Generator: Adobe Illustrator 19.2.0, SVG Export Plug-In . SVG Version: 6.00 Build 0)  -->
<svg version="1.0" id="Ebene_1" xmlns="http://www.w3.org/2000/svg" xmlns:xlink="http://www.w3.org/1999/xlink" x="0px" y="0px"
	 viewBox="0 0 64 48" style="enable-background:new 0 0 64 48;" xml:space="preserve">
<style type="text/css">
	.st0{fill:#98C488;}
	.st1{fill:#6CA64A;}
</style>
<rect class="st0" width="64" height="48"/>
<g>
	<polygon class="st1" points="30.2,1.8 30.2,8 33.8,8 33.8,1.8 40,1.8 40,0 24,0 24,1.8 	"/>
	<polygon class="st1" points="56,0 56,1.8 62.2,1.8 62.2,8 64,8 64,0 	"/>
	<polygon class="st1" points="49.8,15.9 46.1,15.9 46.1,22 40,22 40,25.7 46.1,25.7 46.1,31.9 49.8,31.9 49.8,25.7 56,25.7 56,22 
		49.8,22 	"/>
	<polygon class="st1" points="17.8,15.9 14.2,15.9 14.2,22 8,22 8,25.7 14.2,25.7 14.2,31.9 17.8,31.9 17.8,25.7 24,25.7 24,22 
		17.8,22 	"/>
	<polygon class="st1" points="1.9,1.8 8,1.8 8,0 0,0 0,8 1.9,8 	"/>
	<polygon class="st1" points="64,40 62.2,40 62.2,46.2 56,46.2 56,48 64,48 	"/>
	<polygon class="st1" points="1.9,46.2 1.9,40 0,40 0,48 8,48 8,46.2 	"/>
	<polygon class="st1" points="33.8,46.2 33.8,40 30.2,40 30.2,46.2 24,46.2 24,48 40,48 40,46.2 	"/>
	<rect x="10" y="41.2" class="st1" width="12" height="2"/>
	<rect x="42" y="41.2" class="st1" width="12" height="2"/>
	<polygon class="st1" points="16,40.3 12.7,37 11.3,38.4 14.6,41.7 16,43.1 17.4,41.7 20.7,38.4 19.3,37 	"/>
	<polygon class="st1" points="48,40 44.7,36.8 43.3,38.2 46.6,41.5 48,42.9 49.4,41.5 52.7,38.2 51.3,36.8 	"/>
	<rect x="10" y="6.5" class="st1" width="12" height="2"/>
	<rect x="42" y="6.2" class="st1" width="12" height="2"/>
	<polygon class="st1" points="16,5.1 12.7,1.8 11.3,3.2 14.6,6.5 16,7.9 17.4,6.5 20.7,3.2 19.3,1.8 	"/>
	<polygon class="st1" points="48,4.8 44.7,1.5 43.3,2.9 46.6,6.2 48,7.6 49.4,6.2 52.7,2.9 51.3,1.5 	"/>
	<g>
		<rect x="26" y="30" class="st1" width="12" height="2"/>
		<rect x="58" y="29.7" class="st1" width="6" height="2"/>
		<polygon class="st1" points="32,28.6 28.7,25.3 27.3,26.7 30.6,30 32,31.4 33.4,30 36.7,26.7 35.3,25.3 		"/>
		<polygon class="st1" points="64,28.3 60.7,25 59.3,26.4 62.6,29.7 64,31.1 64,31.1 64,28.3 		"/>
		<rect y="29.7" class="st1" width="6" height="2"/>
		<polygon class="st1" points="4.7,26.4 3.3,25 0,28.3 0,31.1 1.4,29.7 		"/>
	</g>
	<g>
		<polygon class="st1" points="64,14.4 60.7,11.1 59.3,12.6 62.6,15.8 64,17.3 64,17.2 64,14.4 		"/>
		<rect x="26" y="16.1" class="st1" width="12" height="2"/>
		<rect x="58" y="15.8" class="st1" width="6" height="2"/>
		<polygon class="st1" points="4.7,12.6 3.3,11.1 0,14.4 0,17.3 1.4,15.8 		"/>
		<rect y="15.8" class="st1" width="6" height="2"/>
		<polygon class="st1" points="32,14.7 28.7,11.4 27.3,12.8 30.6,16.1 32,17.5 33.4,16.1 36.7,12.8 35.3,11.4 		"/>
	</g>
</g>
</svg>
