<?xml version="1.0" encoding="utf-8"?>
<!-- Generator: Adobe Illustrator 19.2.0, SVG Export Plug-In . SVG Version: 6.00 Build 0)  -->
<svg version="1.0" id="Ebene_1" xmlns="http://www.w3.org/2000/svg" xmlns:xlink="http://www.w3.org/1999/xlink" x="0px" y="0px"
	 viewBox="0 0 64 64" style="enable-background:new 0 0 64 64;" xml:space="preserve">
<style type="text/css">
	.st0{fill:#98C488;}
	.st1{fill:none;stroke:#6CA64A;stroke-width:2;stroke-miterlimit:10;stroke-dasharray:4,2;}
	.st2{fill:none;stroke:#6CA64A;stroke-width:2;stroke-linecap:round;stroke-miterlimit:10;}
	.st3{fill:none;stroke:#6CA64A;stroke-width:2;stroke-linecap:round;stroke-linejoin:round;stroke-miterlimit:10;}
</style>
<rect class="st0" width="64" height="64"/>
<line class="st1" x1="0" y1="28.5" x2="64" y2="28.5"/>
<line class="st1" x1="3" y1="20.6" x2="13" y2="20.6"/>
<line class="st1" x1="19" y1="3.5" x2="29" y2="3.5"/>
<line class="st1" x1="19" y1="35.5" x2="29" y2="35.5"/>
<line class="st1" x1="51" y1="3.5" x2="61" y2="3.5"/>
<line class="st1" x1="51" y1="35.5" x2="61" y2="35.5"/>
<line class="st1" x1="35" y1="20.6" x2="45" y2="20.6"/>
<line class="st1" x1="0" y1="60.5" x2="64" y2="60.5"/>
<line class="st1" x1="3" y1="52.6" x2="13" y2="52.6"/>
<line class="st1" x1="35" y1="52.6" x2="45" y2="52.6"/>
<g>
	<line class="st2" x1="56" y1="23" x2="56" y2="9"/>
	<polyline class="st3" points="61,18 56,23 51,18 	"/>
	<polyline class="st3" points="59,16 56,19 53,16 	"/>
	<polyline class="st3" points="58,9.2 56,11.2 54,9.2 	"/>
</g>
<g>
	<line class="st2" x1="40" y1="15" x2="40" y2="1"/>
	<polyline class="st3" points="45,10 40,15 35,10 	"/>
	<polyline class="st3" points="43,8 40,11 37,8 	"/>
	<polyline class="st3" points="42,1.2 40,3.2 38,1.2 	"/>
</g>
<g>
	<line class="st2" x1="24" y1="23" x2="24" y2="9"/>
	<polyline class="st3" points="29,18 24,23 19,18 	"/>
	<polyline class="st3" points="27,16 24,19 21,16 	"/>
	<polyline class="st3" points="26,9.2 24,11.2 22,9.2 	"/>
</g>
<g>
	<line class="st2" x1="8" y1="15" x2="8" y2="1"/>
	<polyline class="st3" points="13,10 8,15 3,10 	"/>
	<polyline class="st3" points="11,8 8,11 5,8 	"/>
	<polyline class="st3" points="10,1.2 8,3.2 6,1.2 	"/>
</g>
<g>
	<line class="st2" x1="56" y1="55" x2="56" y2="41"/>
	<polyline class="st3" points="61,50 56,55 51,50 	"/>
	<polyline class="st3" points="59,48 56,51 53,48 	"/>
	<polyline class="st3" points="58,41.2 56,43.2 54,41.2 	"/>
</g>
<g>
	<line class="st2" x1="40" y1="47" x2="40" y2="33"/>
	<polyline class="st3" points="45,42 40,47 35,42 	"/>
	<polyline class="st3" points="43,40 40,43 37,40 	"/>
	<polyline class="st3" points="42,33.2 40,35.2 38,33.2 	"/>
</g>
<g>
	<line class="st2" x1="24" y1="55" x2="24" y2="41"/>
	<polyline class="st3" points="29,50 24,55 19,50 	"/>
	<polyline class="st3" points="27,48 24,51 21,48 	"/>
	<polyline class="st3" points="26,41.2 24,43.2 22,41.2 	"/>
</g>
<g>
	<line class="st2" x1="8" y1="47" x2="8" y2="33"/>
	<polyline class="st3" points="13,42 8,47 3,42 	"/>
	<polyline class="st3" points="11,40 8,43 5,40 	"/>
	<polyline class="st3" points="10,33.2 8,35.2 6,33.2 	"/>
</g>
</svg>
