<?xml version="1.0" encoding="utf-8"?>
<!-- Generator: Adobe Illustrator 19.2.0, SVG Export Plug-In . SVG Version: 6.00 Build 0)  -->
<svg version="1.0" id="Ebene_1" xmlns="http://www.w3.org/2000/svg" xmlns:xlink="http://www.w3.org/1999/xlink" x="0px" y="0px"
	 viewBox="0 0 128 128" style="enable-background:new 0 0 128 128;" xml:space="preserve">
<style type="text/css">
	.st0{fill:#98C488;}
	.st1{fill:none;stroke:#6CA64A;stroke-width:2;stroke-miterlimit:10;}
	.st2{fill:none;stroke:#6CA64A;stroke-width:2;stroke-linecap:round;stroke-miterlimit:10;}
	.st3{fill:none;stroke:#6CA64A;stroke-width:2;stroke-linecap:round;stroke-linejoin:round;stroke-miterlimit:10;}
</style>
<rect class="st0" width="128" height="128"/>
<g>
	<g>
		<polygon class="st1" points="18.3,18.3 19.7,21.4 23.6,22.7 27.4,18.5 24.8,14.9 19.9,14.5 		"/>
		<polygon class="st1" points="13.4,58.3 20.1,56.3 20.2,52.5 15.7,50.4 11.5,52.4 		"/>
		<polygon class="st1" points="36.6,27.2 43.9,28.7 44.1,24 41.2,19.4 36.3,21 		"/>
		<polygon class="st1" points="27.4,26.9 28.3,29.9 32.9,31.9 33.5,29.8 32.4,27 29,26 		"/>
		<polygon class="st1" points="16.7,4.6 17.7,7.7 22.3,9.6 22.8,7.6 21.8,4.8 18.4,3.7 		"/>
		<polygon class="st1" points="57.9,53.6 56.1,51.1 50.7,50.4 46.2,54.8 49.4,57.1 55.8,56.4 		"/>
		<polygon class="st1" points="70.6,24.1 64,25.9 60.6,23.2 61,19.7 64.1,17.5 68.4,17.6 		"/>
		<polygon class="st1" points="8,36.3 9.5,32 15.7,32.7 13.4,40 9.4,38.4 		"/>
		<polygon class="st1" points="15.8,65.9 19.5,61.4 23.1,60.2 25.4,64.2 25.4,68 20.6,68.4 		"/>
		<polygon class="st1" points="27.4,51.6 29.7,56.5 35,56.4 36.9,51.3 31.7,48.5 		"/>
		<polygon class="st1" points="93.4,48.9 100.5,51.3 100.4,55.3 92.2,57.7 90.3,54.1 		"/>
		<polygon class="st1" points="116.1,53.5 113,50.5 108.8,51.2 107.2,55.7 112.2,58.7 		"/>
		<polygon class="st1" points="70.4,51.2 72.7,50.2 76.3,49.9 77.8,52.1 77.4,55.5 72.1,56.2 69.6,53.8 		"/>
		<polygon class="st1" points="78.1,30.5 74.1,27.5 71,31.6 71.2,34.5 75.5,36.3 		"/>
		<polygon class="st1" points="101.1,31.4 98.9,28.1 92.8,27 92.8,29.5 95.1,32.4 99.5,32.7 		"/>
		<polygon class="st1" points="110.1,30.3 105.8,27.4 108.5,21.2 113.9,23.5 113.5,29 		"/>
		<polygon class="st1" points="24.2,90.8 27.6,84.8 24.6,82.6 19.5,84.2 19,89.2 		"/>
		<polygon class="st1" points="32,124.1 36.2,122.8 37.8,116.7 34.7,115.8 30.9,117.2 30.3,121.8 		"/>
		<polygon class="st1" points="38,88.4 39.2,84.4 43,83.6 47,86.3 46.5,88.4 43.4,89.8 		"/>
		<polygon class="st1" points="118.5,13.2 122.5,14.6 123.1,18.4 120.3,22.3 118.1,21.7 116.9,18.5 		"/>
		<polygon class="st1" points="51,125 46.5,121.4 45.3,117.7 49.3,115.5 53.1,115.5 53.5,120.2 		"/>
		<polygon class="st1" points="8.5,98.8 12.3,101.3 15.2,97.5 13.9,92.4 8.5,92.9 		"/>
		<polygon class="st1" points="31.1,97.4 35.7,99.7 37.2,97.2 35.7,93.2 32.1,92.4 		"/>
		<polygon class="st1" points="75.9,99.6 69.5,98.7 70.5,94.7 71.7,92.2 76.1,92.5 77.7,95.1 		"/>
		<polygon class="st1" points="56.3,64.9 63,66.9 65.1,64.7 64.4,60.1 57.4,60.4 		"/>
		<polygon class="st1" points="117.8,124.2 116.5,121.5 116.2,117.1 118.8,115.4 122.8,115.8 123.7,122.1 120.8,125.2 		"/>
		<polygon class="st1" points="73.7,123.1 76.8,121.2 77.6,115.9 72.2,111.4 69.5,114.5 70.4,120.9 		"/>
		<polygon class="st1" points="83.9,59.6 88.7,62.6 88.1,66.6 84.3,68.4 79.7,66.6 80.1,61 		"/>
		<polygon class="st1" points="88.2,90.1 85.6,90 80.7,87.9 80.9,82.1 84.7,80.8 88.2,84.8 		"/>
		<polygon class="st1" points="61.8,80.9 65.3,82.9 67.8,86.7 63.3,90.1 58.6,88.8 58.3,84 		"/>
		<polygon class="st1" points="111.5,86.7 105.5,84.3 101.3,86.7 105.6,92.2 110,90.7 		"/>
		<g>
			<polygon class="st1" points="10.8,22.7 7.8,27.5 1.4,24.5 3.8,18.6 9.5,19 			"/>
			<polygon class="st1" points="6.4,83 2.9,83.7 1.8,88.2 6.4,90 10.5,85.9 			"/>
		</g>
		<g>
			<polygon class="st1" points="21.8,126.3 24.2,124.4 24.9,117.4 21.5,115.8 17.8,119.1 18,123.8 			"/>
			<polygon class="st1" points="63.5,126.3 66.1,123 64.8,119.7 60,120.3 60,125 			"/>
			<polygon class="st1" points="105.2,126.2 103.4,119.5 106,116.2 109.6,116.5 111.7,119.7 111.6,123.9 			"/>
			<polygon class="st1" points="87,120.7 82.9,119.8 81.4,124 82.9,126.2 89,126 			"/>
		</g>
		<polygon class="st1" points="98.1,116.2 94.8,112.9 91.9,117 93.4,120.7 97.8,121.1 		"/>
		<polygon class="st1" points="81.7,20.5 84.7,25.6 86.7,22.1 88.3,16.4 83.8,14.3 		"/>
		<polygon class="st1" points="48.9,25.9 53.6,27.9 56,23.9 52.5,20.8 49.9,21.8 		"/>
		<polygon class="st1" points="93.6,93.3 95.9,97.3 98.8,96.6 99.7,93.3 96.4,90.7 		"/>
		<polygon class="st1" points="2.5,121.4 3.7,125.1 7.5,125.7 8.8,121.7 5.8,119 		"/>
		<polygon class="st1" points="99.7,17.8 96.3,15 93,17.4 95.8,22 98.9,22 		"/>
		<g>
			<polygon class="st1" points="123.1,88.8 126.2,86.9 125.5,82.3 120.6,82.4 118.3,87.7 			"/>
			<polygon class="st1" points="126,61.3 122.7,58.5 119.3,60.9 122.1,65.5 125.2,65.5 			"/>
		</g>
		<polygon class="st1" points="48.1,5.8 52.6,7.7 54.1,5.7 52.6,2.4 49.1,1.7 		"/>
		<polygon class="st1" points="120.3,3 119.9,7.9 122.3,8.7 125,6.3 124.6,2.7 		"/>
	</g>
</g>
<g>
	<line class="st2" x1="8" y1="15.2" x2="8" y2="1.2"/>
	<polyline class="st3" points="13,10.1 8,15.2 3,10.1 	"/>
	<polyline class="st3" points="11,8.2 8,11.2 5,8.2 	"/>
	<polyline class="st3" points="10,1.4 8,3.4 6,1.4 	"/>
</g>
<g>
	<line class="st2" x1="40" y1="15.2" x2="40" y2="1.2"/>
	<polyline class="st3" points="45,10.1 40,15.2 35,10.1 	"/>
	<polyline class="st3" points="43,8.2 40,11.2 37,8.2 	"/>
	<polyline class="st3" points="42,1.4 40,3.4 38,1.4 	"/>
</g>
<g>
	<line class="st2" x1="72" y1="15.2" x2="72" y2="1.2"/>
	<polyline class="st3" points="77,10.1 72,15.2 67,10.1 	"/>
	<polyline class="st3" points="75,8.2 72,11.2 69,8.2 	"/>
	<polyline class="st3" points="74,1.4 72,3.4 70,1.4 	"/>
</g>
<g>
	<line class="st2" x1="104" y1="15.2" x2="104" y2="1.2"/>
	<polyline class="st3" points="109,10.1 104,15.2 99,10.1 	"/>
	<polyline class="st3" points="107,8.2 104,11.2 101,8.2 	"/>
	<polyline class="st3" points="106,1.4 104,3.4 102,1.4 	"/>
</g>
<g>
	<line class="st2" x1="24" y1="47.2" x2="24" y2="33.2"/>
	<polyline class="st3" points="29,42.1 24,47.2 19,42.1 	"/>
	<polyline class="st3" points="27,40.2 24,43.2 21,40.2 	"/>
	<polyline class="st3" points="26,33.4 24,35.4 22,33.4 	"/>
</g>
<g>
	<line class="st2" x1="56" y1="47.2" x2="56" y2="33.2"/>
	<polyline class="st3" points="61,42.1 56,47.2 51,42.1 	"/>
	<polyline class="st3" points="59,40.2 56,43.2 53,40.2 	"/>
	<polyline class="st3" points="58,33.4 56,35.4 54,33.4 	"/>
</g>
<g>
	<line class="st2" x1="88" y1="47.2" x2="88" y2="33.2"/>
	<polyline class="st3" points="93,42.1 88,47.2 83,42.1 	"/>
	<polyline class="st3" points="91,40.2 88,43.2 85,40.2 	"/>
	<polyline class="st3" points="90,33.4 88,35.4 86,33.4 	"/>
</g>
<g>
	<line class="st2" x1="120" y1="47.2" x2="120" y2="33.2"/>
	<polyline class="st3" points="125,42.1 120,47.2 115,42.1 	"/>
	<polyline class="st3" points="123,40.2 120,43.2 117,40.2 	"/>
	<polyline class="st3" points="122,33.4 120,35.4 118,33.4 	"/>
</g>
<g>
	<line class="st2" x1="8" y1="79.2" x2="8" y2="65.2"/>
	<polyline class="st3" points="13,74.1 8,79.2 3,74.1 	"/>
	<polyline class="st3" points="11,72.2 8,75.2 5,72.2 	"/>
	<polyline class="st3" points="10,65.4 8,67.4 6,65.4 	"/>
</g>
<g>
	<line class="st2" x1="40" y1="79.2" x2="40" y2="65.2"/>
	<polyline class="st3" points="45,74.1 40,79.2 35,74.1 	"/>
	<polyline class="st3" points="43,72.2 40,75.2 37,72.2 	"/>
	<polyline class="st3" points="42,65.4 40,67.4 38,65.4 	"/>
</g>
<g>
	<line class="st2" x1="72" y1="79.2" x2="72" y2="65.2"/>
	<polyline class="st3" points="77,74.1 72,79.2 67,74.1 	"/>
	<polyline class="st3" points="75,72.2 72,75.2 69,72.2 	"/>
	<polyline class="st3" points="74,65.4 72,67.4 70,65.4 	"/>
</g>
<g>
	<line class="st2" x1="104" y1="79.2" x2="104" y2="65.2"/>
	<polyline class="st3" points="109,74.1 104,79.2 99,74.1 	"/>
	<polyline class="st3" points="107,72.2 104,75.2 101,72.2 	"/>
	<polyline class="st3" points="106,65.4 104,67.4 102,65.4 	"/>
</g>
<g>
	<line class="st2" x1="24" y1="111.2" x2="24" y2="97.2"/>
	<polyline class="st3" points="29,106.1 24,111.2 19,106.1 	"/>
	<polyline class="st3" points="27,104.2 24,107.2 21,104.2 	"/>
	<polyline class="st3" points="26,97.4 24,99.4 22,97.4 	"/>
</g>
<g>
	<line class="st2" x1="56" y1="111.2" x2="56" y2="97.2"/>
	<polyline class="st3" points="61,106.1 56,111.2 51,106.1 	"/>
	<polyline class="st3" points="59,104.2 56,107.2 53,104.2 	"/>
	<polyline class="st3" points="58,97.4 56,99.4 54,97.4 	"/>
</g>
<g>
	<line class="st2" x1="88" y1="111.2" x2="88" y2="97.2"/>
	<polyline class="st3" points="93,106.1 88,111.2 83,106.1 	"/>
	<polyline class="st3" points="91,104.2 88,107.2 85,104.2 	"/>
	<polyline class="st3" points="90,97.4 88,99.4 86,97.4 	"/>
</g>
<g>
	<line class="st2" x1="120" y1="111.2" x2="120" y2="97.2"/>
	<polyline class="st3" points="125,106.1 120,111.2 115,106.1 	"/>
	<polyline class="st3" points="123,104.2 120,107.2 117,104.2 	"/>
	<polyline class="st3" points="122,97.4 120,99.4 118,97.4 	"/>
</g>
<polygon class="st1" points="15.5,111.6 13,111.2 10.9,114.5 13.2,117.1 17.1,114.9 "/>
</svg>
