<?xml version="1.0" encoding="utf-8"?>
<!-- Generator: Adobe Illustrator 19.2.0, SVG Export Plug-In . SVG Version: 6.00 Build 0)  -->
<svg version="1.0" id="Ebene_1" xmlns="http://www.w3.org/2000/svg" xmlns:xlink="http://www.w3.org/1999/xlink" x="0px" y="0px"
	 viewBox="0 0 64 64" style="enable-background:new 0 0 64 64;" xml:space="preserve">
<style type="text/css">
	.st0{fill:#98C488;}
	.st1{fill:none;stroke:#6CA64A;stroke-width:2;stroke-miterlimit:10;stroke-dasharray:4,2;}
	.st2{fill:none;stroke:#6CA64A;stroke-width:2;stroke-miterlimit:10;stroke-dasharray:4,2,4,2,4,2;}
	.st3{fill:none;stroke:#6CA64A;stroke-width:2;stroke-linecap:round;stroke-miterlimit:10;}
	.st4{fill:none;stroke:#6CA64A;stroke-width:2;stroke-linecap:round;stroke-linejoin:round;stroke-miterlimit:10;}
</style>
<rect class="st0" width="64" height="64"/>
<line class="st1" x1="0" y1="27" x2="64" y2="27"/>
<line class="st2" x1="0" y1="21" x2="64" y2="21"/>
<g>
	<line class="st3" x1="56" y1="15" x2="56" y2="1"/>
	<polyline class="st4" points="61,10 56,15 51,10 	"/>
	<polyline class="st4" points="59,8 56,11 53,8 	"/>
	<polyline class="st4" points="58,1.2 56,3.2 54,1.2 	"/>
</g>
<g>
	<line class="st3" x1="40" y1="15" x2="40" y2="1"/>
	<polyline class="st4" points="45,10 40,15 35,10 	"/>
	<polyline class="st4" points="43,8 40,11 37,8 	"/>
	<polyline class="st4" points="42,1.2 40,3.2 38,1.2 	"/>
</g>
<g>
	<line class="st3" x1="24" y1="15" x2="24" y2="1"/>
	<polyline class="st4" points="29,10 24,15 19,10 	"/>
	<polyline class="st4" points="27,8 24,11 21,8 	"/>
	<polyline class="st4" points="26,1.2 24,3.2 22,1.2 	"/>
</g>
<g>
	<line class="st3" x1="8" y1="15" x2="8" y2="1"/>
	<polyline class="st4" points="13,10 8,15 3,10 	"/>
	<polyline class="st4" points="11,8 8,11 5,8 	"/>
	<polyline class="st4" points="10,1.2 8,3.2 6,1.2 	"/>
</g>
<g>
	<line class="st3" x1="56" y1="47" x2="56" y2="33"/>
	<polyline class="st4" points="61,42 56,47 51,42 	"/>
	<polyline class="st4" points="59,40 56,43 53,40 	"/>
	<polyline class="st4" points="58,33.2 56,35.2 54,33.2 	"/>
</g>
<g>
	<line class="st3" x1="40" y1="47" x2="40" y2="33"/>
	<polyline class="st4" points="45,42 40,47 35,42 	"/>
	<polyline class="st4" points="43,40 40,43 37,40 	"/>
	<polyline class="st4" points="42,33.2 40,35.2 38,33.2 	"/>
</g>
<g>
	<line class="st3" x1="24" y1="47" x2="24" y2="33"/>
	<polyline class="st4" points="29,42 24,47 19,42 	"/>
	<polyline class="st4" points="27,40 24,43 21,40 	"/>
	<polyline class="st4" points="26,33.2 24,35.2 22,33.2 	"/>
</g>
<g>
	<line class="st3" x1="8" y1="47" x2="8" y2="33"/>
	<polyline class="st4" points="13,42 8,47 3,42 	"/>
	<polyline class="st4" points="11,40 8,43 5,40 	"/>
	<polyline class="st4" points="10,33.2 8,35.2 6,33.2 	"/>
</g>
<line class="st1" x1="0" y1="59" x2="64" y2="59"/>
<line class="st2" x1="0" y1="53" x2="64" y2="53"/>
</svg>
