<?xml version="1.0" encoding="utf-8"?>
<!-- Generator: Adobe Illustrator 19.2.0, SVG Export Plug-In . SVG Version: 6.00 Build 0)  -->
<svg version="1.0" id="Ebene_1" xmlns="http://www.w3.org/2000/svg" xmlns:xlink="http://www.w3.org/1999/xlink" x="0px" y="0px"
	 viewBox="0 0 64 64" style="enable-background:new 0 0 64 64;" xml:space="preserve">
<style type="text/css">
	.st0{fill:#98C488;}
	.st1{fill:none;stroke:#6CA64A;stroke-linecap:round;stroke-linejoin:bevel;stroke-miterlimit:10;}
	.st2{fill:none;stroke:#6CA64A;stroke-width:2;stroke-linecap:round;stroke-linejoin:bevel;stroke-miterlimit:10;}
	.st3{fill:#6CA64A;}
</style>
<rect class="st0" width="64" height="64"/>
<g>
	<g>
		<line class="st1" x1="2" y1="8" x2="8" y2="14"/>
		<line class="st1" x1="14" y1="8" x2="8" y2="14"/>
	</g>
	<g>
		<line class="st1" x1="2" y1="5" x2="8" y2="11"/>
		<line class="st1" x1="14" y1="5" x2="8" y2="11"/>
	</g>
	<line class="st2" x1="8" y1="2" x2="8" y2="15"/>
</g>
<g>
	<g>
		<line class="st1" x1="18" y1="8" x2="24" y2="14"/>
		<line class="st1" x1="30" y1="8" x2="24" y2="14"/>
	</g>
	<g>
		<line class="st1" x1="18" y1="5" x2="24" y2="11"/>
		<line class="st1" x1="30" y1="5" x2="24" y2="11"/>
	</g>
	<line class="st2" x1="24" y1="2" x2="24" y2="15"/>
</g>
<g>
	<g>
		<line class="st1" x1="34" y1="8" x2="40" y2="14"/>
		<line class="st1" x1="46" y1="8" x2="40" y2="14"/>
	</g>
	<g>
		<line class="st1" x1="34" y1="5" x2="40" y2="11"/>
		<line class="st1" x1="46" y1="5" x2="40" y2="11"/>
	</g>
	<line class="st2" x1="40" y1="2" x2="40" y2="15"/>
</g>
<g>
	<g>
		<line class="st1" x1="50" y1="8" x2="56" y2="14"/>
		<line class="st1" x1="62" y1="8" x2="56" y2="14"/>
	</g>
	<g>
		<line class="st1" x1="50" y1="5" x2="56" y2="11"/>
		<line class="st1" x1="62" y1="5" x2="56" y2="11"/>
	</g>
	<line class="st2" x1="56" y1="2" x2="56" y2="15"/>
</g>
<g>
	<g>
		<line class="st1" x1="10" y1="24" x2="16" y2="30"/>
		<line class="st1" x1="22" y1="24" x2="16" y2="30"/>
	</g>
	<g>
		<line class="st1" x1="10" y1="21" x2="16" y2="27"/>
		<line class="st1" x1="22" y1="21" x2="16" y2="27"/>
	</g>
	<line class="st2" x1="16" y1="18" x2="16" y2="31"/>
</g>
<g>
	<g>
		<line class="st1" x1="26" y1="24" x2="32" y2="30"/>
		<line class="st1" x1="38" y1="24" x2="32" y2="30"/>
	</g>
	<g>
		<line class="st1" x1="26" y1="21" x2="32" y2="27"/>
		<line class="st1" x1="38" y1="21" x2="32" y2="27"/>
	</g>
	<line class="st2" x1="32" y1="18" x2="32" y2="31"/>
</g>
<g>
	<g>
		<line class="st1" x1="42" y1="24" x2="48" y2="30"/>
		<line class="st1" x1="54" y1="24" x2="48" y2="30"/>
	</g>
	<g>
		<line class="st1" x1="42" y1="21" x2="48" y2="27"/>
		<line class="st1" x1="54" y1="21" x2="48" y2="27"/>
	</g>
	<line class="st2" x1="48" y1="18" x2="48" y2="31"/>
</g>
<g>
	<g>
		<line class="st1" x1="2" y1="40" x2="8" y2="46"/>
		<line class="st1" x1="14" y1="40" x2="8" y2="46"/>
	</g>
	<g>
		<line class="st1" x1="2" y1="37" x2="8" y2="43"/>
		<line class="st1" x1="14" y1="37" x2="8" y2="43"/>
	</g>
	<line class="st2" x1="8" y1="34" x2="8" y2="47"/>
</g>
<g>
	<g>
		<line class="st1" x1="18" y1="40" x2="24" y2="46"/>
		<line class="st1" x1="30" y1="40" x2="24" y2="46"/>
	</g>
	<g>
		<line class="st1" x1="18" y1="37" x2="24" y2="43"/>
		<line class="st1" x1="30" y1="37" x2="24" y2="43"/>
	</g>
	<line class="st2" x1="24" y1="34" x2="24" y2="47"/>
</g>
<g>
	<g>
		<line class="st1" x1="34" y1="40" x2="40" y2="46"/>
		<line class="st1" x1="46" y1="40" x2="40" y2="46"/>
	</g>
	<g>
		<line class="st1" x1="34" y1="37" x2="40" y2="43"/>
		<line class="st1" x1="46" y1="37" x2="40" y2="43"/>
	</g>
	<line class="st2" x1="40" y1="34" x2="40" y2="47"/>
</g>
<g>
	<g>
		<line class="st1" x1="50" y1="40" x2="56" y2="46"/>
		<line class="st1" x1="62" y1="40" x2="56" y2="46"/>
	</g>
	<g>
		<line class="st1" x1="50" y1="37" x2="56" y2="43"/>
		<line class="st1" x1="62" y1="37" x2="56" y2="43"/>
	</g>
	<line class="st2" x1="56" y1="34" x2="56" y2="47"/>
</g>
<g>
	<g>
		<line class="st1" x1="10" y1="56" x2="16" y2="62"/>
		<line class="st1" x1="22" y1="56" x2="16" y2="62"/>
	</g>
	<g>
		<line class="st1" x1="10" y1="53" x2="16" y2="59"/>
		<line class="st1" x1="22" y1="53" x2="16" y2="59"/>
	</g>
	<line class="st2" x1="16" y1="50" x2="16" y2="63"/>
</g>
<g>
	<g>
		<line class="st1" x1="26" y1="56" x2="32" y2="62"/>
		<line class="st1" x1="38" y1="56" x2="32" y2="62"/>
	</g>
	<g>
		<line class="st1" x1="26" y1="53" x2="32" y2="59"/>
		<line class="st1" x1="38" y1="53" x2="32" y2="59"/>
	</g>
	<line class="st2" x1="32" y1="50" x2="32" y2="63"/>
</g>
<g>
	<g>
		<line class="st1" x1="42" y1="56" x2="48" y2="62"/>
		<line class="st1" x1="54" y1="56" x2="48" y2="62"/>
	</g>
	<g>
		<line class="st1" x1="42" y1="53" x2="48" y2="59"/>
		<line class="st1" x1="54" y1="53" x2="48" y2="59"/>
	</g>
	<line class="st2" x1="48" y1="50" x2="48" y2="63"/>
</g>
<g>
	<path class="st3" d="M1,31v-1.3l5.3-5.3c0.2-0.2,0.2-0.5,0-0.7c-0.2-0.2-0.5-0.2-0.7,0L1,28.3v-1.6l5.3-5.3c0.2-0.2,0.2-0.5,0-0.7
		c-0.2-0.2-0.4-0.2-0.6,0L1,25.3V18c0-0.6-0.4-1-1-1v15C0.6,32,1,31.6,1,31z"/>
</g>
<path class="st3" d="M63,18v7.3l-5-4.6c-0.2-0.2-0.7-0.2-0.9,0s0.1,0.5,0.3,0.7l5.6,5.4v1.6l-5-4.6c-0.2-0.2-0.7-0.2-0.9,0
	s0.1,0.5,0.3,0.7l5.6,5.4V31c0,0.6,0,1,1,1V17C63,17,63,17.4,63,18z"/>
<path class="st3" d="M63,50v7.3l-4.7-4.6c-0.2-0.2-0.6-0.2-0.7,0s-0.1,0.5,0.1,0.7l5.4,5.4v1.6l-4.7-4.6c-0.2-0.2-0.6-0.2-0.7,0
	s-0.1,0.5,0.1,0.7l5.4,5.4V63c0,0.6,0.4,1,1,1V49C63.4,49,63,49.4,63,50z"/>
<path class="st3" d="M1,63v-1.3l5.3-5.3c0.2-0.2,0.2-0.5,0-0.7c-0.2-0.2-0.5-0.2-0.7,0L1,60.3v-1.6l5.3-5.3c0.2-0.2,0.2-0.5,0-0.7
	c-0.2-0.2-0.4-0.2-0.6,0L1,57.3V50c0-0.6-0.4-1-1-1v15C0.6,64,1,63.6,1,63z"/>
</svg>
