<?xml version="1.0" encoding="utf-8"?>
<!-- Generator: Adobe Illustrator 19.2.0, SVG Export Plug-In . SVG Version: 6.00 Build 0)  -->
<svg version="1.0" id="Ebene_1" xmlns="http://www.w3.org/2000/svg" xmlns:xlink="http://www.w3.org/1999/xlink" x="0px" y="0px"
	 viewBox="0 0 64 64" style="enable-background:new 0 0 64 64;" xml:space="preserve">
<style type="text/css">
	.st0{fill:#98C488;}
	.st1{fill:none;stroke:#6CA64A;stroke-linecap:round;stroke-linejoin:bevel;stroke-miterlimit:10;}
	.st2{fill:none;stroke:#6CA64A;stroke-width:2;stroke-linecap:round;stroke-linejoin:bevel;stroke-miterlimit:10;}
	.st3{fill:#6CA64A;}
</style>
<rect class="st0" width="64" height="64"/>
<g>
	<g>
		<line class="st1" x1="2" y1="2.6" x2="8" y2="8.6"/>
		<line class="st1" x1="14" y1="2.6" x2="8" y2="8.6"/>
	</g>
	<g>
		<line class="st1" x1="14" y1="14" x2="8" y2="8"/>
		<line class="st1" x1="2" y1="14" x2="8" y2="8"/>
	</g>
	<line class="st2" x1="8" y1="2" x2="8" y2="15"/>
</g>
<g>
	<g>
		<line class="st1" x1="18" y1="2.6" x2="24" y2="8.6"/>
		<line class="st1" x1="30" y1="2.6" x2="24" y2="8.6"/>
	</g>
	<g>
		<line class="st1" x1="30" y1="14" x2="24" y2="8"/>
		<line class="st1" x1="18" y1="14" x2="24" y2="8"/>
	</g>
	<line class="st2" x1="24" y1="2" x2="24" y2="15"/>
</g>
<g>
	<g>
		<line class="st1" x1="34" y1="2.6" x2="40" y2="8.6"/>
		<line class="st1" x1="46" y1="2.6" x2="40" y2="8.6"/>
	</g>
	<g>
		<line class="st1" x1="46" y1="14" x2="40" y2="8"/>
		<line class="st1" x1="34" y1="14" x2="40" y2="8"/>
	</g>
	<line class="st2" x1="40" y1="2" x2="40" y2="15"/>
</g>
<g>
	<g>
		<line class="st1" x1="50" y1="2.6" x2="56" y2="8.6"/>
		<line class="st1" x1="62" y1="2.6" x2="56" y2="8.6"/>
	</g>
	<g>
		<line class="st1" x1="62" y1="14" x2="56" y2="8"/>
		<line class="st1" x1="50" y1="14" x2="56" y2="8"/>
	</g>
	<line class="st2" x1="56" y1="2" x2="56" y2="15"/>
</g>
<g>
	<g>
		<line class="st1" x1="10" y1="18.6" x2="16" y2="24.6"/>
		<line class="st1" x1="22" y1="18.6" x2="16" y2="24.6"/>
	</g>
	<g>
		<line class="st1" x1="22" y1="30" x2="16" y2="24"/>
		<line class="st1" x1="10" y1="30" x2="16" y2="24"/>
	</g>
	<line class="st2" x1="16" y1="18" x2="16" y2="31"/>
</g>
<g>
	<g>
		<line class="st1" x1="26" y1="18.6" x2="32" y2="24.6"/>
		<line class="st1" x1="38" y1="18.6" x2="32" y2="24.6"/>
	</g>
	<g>
		<line class="st1" x1="38" y1="30" x2="32" y2="24"/>
		<line class="st1" x1="26" y1="30" x2="32" y2="24"/>
	</g>
	<line class="st2" x1="32" y1="18" x2="32" y2="31"/>
</g>
<g>
	<g>
		<line class="st1" x1="42" y1="18.6" x2="48" y2="24.6"/>
		<line class="st1" x1="54" y1="18.6" x2="48" y2="24.6"/>
	</g>
	<g>
		<line class="st1" x1="54" y1="30" x2="48" y2="24"/>
		<line class="st1" x1="42" y1="30" x2="48" y2="24"/>
	</g>
	<line class="st2" x1="48" y1="18" x2="48" y2="31"/>
</g>
<g>
	<path class="st3" d="M63,18v4.9l-4.6-4.6c-0.2-0.2-0.5-0.2-0.7,0s-0.2,0.5,0,0.7l5.3,5.3l-5.3,5.3c-0.2,0.2-0.2,0.5,0,0.7
		c0.1,0.1,0.2,0.1,0.4,0.1s0.3,0,0.4-0.1l4.6-4.6V31c0,0.6,0.4,1,1,1V17C63.4,17,63,17.4,63,18z"/>
</g>
<path class="st3" d="M1,31v-5.3l4.6,4.6c0.1,0.1,0.2,0.1,0.4,0.1s0.3,0,0.4-0.1c0.2-0.2,0.2-0.5,0-0.7L1,24.3L6.4,19
	c0.2-0.2,0.2-0.5,0-0.7s-0.5-0.2-0.7,0L1,22.9V18c0-0.6-0.4-1-1-1v15C0.6,32,1,31.6,1,31z"/>
<g>
	<g>
		<line class="st1" x1="2" y1="34.6" x2="8" y2="40.6"/>
		<line class="st1" x1="14" y1="34.6" x2="8" y2="40.6"/>
	</g>
	<g>
		<line class="st1" x1="14" y1="46" x2="8" y2="40"/>
		<line class="st1" x1="2" y1="46" x2="8" y2="40"/>
	</g>
	<line class="st2" x1="8" y1="34" x2="8" y2="47"/>
</g>
<g>
	<g>
		<line class="st1" x1="18" y1="34.6" x2="24" y2="40.6"/>
		<line class="st1" x1="30" y1="34.6" x2="24" y2="40.6"/>
	</g>
	<g>
		<line class="st1" x1="30" y1="46" x2="24" y2="40"/>
		<line class="st1" x1="18" y1="46" x2="24" y2="40"/>
	</g>
	<line class="st2" x1="24" y1="34" x2="24" y2="47"/>
</g>
<g>
	<g>
		<line class="st1" x1="34" y1="34.6" x2="40" y2="40.6"/>
		<line class="st1" x1="46" y1="34.6" x2="40" y2="40.6"/>
	</g>
	<g>
		<line class="st1" x1="46" y1="46" x2="40" y2="40"/>
		<line class="st1" x1="34" y1="46" x2="40" y2="40"/>
	</g>
	<line class="st2" x1="40" y1="34" x2="40" y2="47"/>
</g>
<g>
	<g>
		<line class="st1" x1="50" y1="34.6" x2="56" y2="40.6"/>
		<line class="st1" x1="62" y1="34.6" x2="56" y2="40.6"/>
	</g>
	<g>
		<line class="st1" x1="62" y1="46" x2="56" y2="40"/>
		<line class="st1" x1="50" y1="46" x2="56" y2="40"/>
	</g>
	<line class="st2" x1="56" y1="34" x2="56" y2="47"/>
</g>
<g>
	<g>
		<line class="st1" x1="10" y1="50.6" x2="16" y2="56.6"/>
		<line class="st1" x1="22" y1="50.6" x2="16" y2="56.6"/>
	</g>
	<g>
		<line class="st1" x1="22" y1="62" x2="16" y2="56"/>
		<line class="st1" x1="10" y1="62" x2="16" y2="56"/>
	</g>
	<line class="st2" x1="16" y1="50" x2="16" y2="63"/>
</g>
<g>
	<g>
		<line class="st1" x1="26" y1="50.6" x2="32" y2="56.6"/>
		<line class="st1" x1="38" y1="50.6" x2="32" y2="56.6"/>
	</g>
	<g>
		<line class="st1" x1="38" y1="62" x2="32" y2="56"/>
		<line class="st1" x1="26" y1="62" x2="32" y2="56"/>
	</g>
	<line class="st2" x1="32" y1="50" x2="32" y2="63"/>
</g>
<g>
	<g>
		<line class="st1" x1="42" y1="50.6" x2="48" y2="56.6"/>
		<line class="st1" x1="54" y1="50.6" x2="48" y2="56.6"/>
	</g>
	<g>
		<line class="st1" x1="54" y1="62" x2="48" y2="56"/>
		<line class="st1" x1="42" y1="62" x2="48" y2="56"/>
	</g>
	<line class="st2" x1="48" y1="50" x2="48" y2="63"/>
</g>
<g>
	<path class="st3" d="M63,50v4.9l-4.6-4.6c-0.2-0.2-0.5-0.2-0.7,0s-0.2,0.5,0,0.7l5.3,5.3l-5.3,5.3c-0.2,0.2-0.2,0.5,0,0.7
		c0.1,0.1,0.2,0.1,0.4,0.1s0.3,0,0.4-0.1l4.6-4.6V63c0,0.6,0.4,1,1,1V49C63.4,49,63,49.4,63,50z"/>
</g>
<path class="st3" d="M1,63v-5.3l4.6,4.6c0.1,0.1,0.2,0.1,0.4,0.1s0.3,0,0.4-0.1c0.2-0.2,0.2-0.5,0-0.7L1,56.3L6.4,51
	c0.2-0.2,0.2-0.5,0-0.7s-0.5-0.2-0.7,0L1,54.9V50c0-0.6-0.4-1-1-1v15C0.6,64,1,63.6,1,63z"/>
</svg>
