<?xml version="1.0" encoding="utf-8"?>
<!-- Generator: Adobe Illustrator 19.2.0, SVG Export Plug-In . SVG Version: 6.00 Build 0)  -->
<svg version="1.0" id="Ebene_1" xmlns="http://www.w3.org/2000/svg" xmlns:xlink="http://www.w3.org/1999/xlink" x="0px" y="0px"
	 viewBox="0 0 96 64" style="enable-background:new 0 0 96 64;" xml:space="preserve">
<style type="text/css">
	.st0{fill:#98C488;}
	.st1{fill:none;stroke:#6CA64A;stroke-miterlimit:10;}
	.st2{fill:none;stroke:#6CA64A;stroke-width:3;stroke-miterlimit:10;}
	.st3{fill:none;stroke:#6CA64A;stroke-width:2;stroke-miterlimit:10;}
</style>
<rect class="st0" width="96" height="64"/>
<g>
	<line class="st1" x1="64" y1="27.4" x2="68" y2="23.4"/>
	<line class="st1" x1="60" y1="23.4" x2="64" y2="27.4"/>
	<g>
		<path class="st2" d="M73.2,30.4c1.7-1,2.8-2.5,2.8-3.9c0-1.5-1-2.8-2.8-3.9c0.5-2,0.3-3.7-0.8-4.7c-1-1-2.7-1.2-4.7-0.8
			c-1-1.7-2.4-2.8-3.8-2.8c-1.5,0-2.8,1-3.8,2.8c-2-0.5-3.6-0.3-4.7,0.8c-1,1-1.2,2.7-0.8,4.7c-1.7,1-2.8,2.5-2.8,3.9
			c0,1.5,1,2.9,2.8,3.9H73.2z"/>
		<line class="st3" x1="64" y1="30.4" x2="64" y2="27"/>
	</g>
</g>
<g>
	<line class="st1" x1="80" y1="59.4" x2="84" y2="55.4"/>
	<line class="st1" x1="76" y1="55.4" x2="80" y2="59.4"/>
	<g>
		<path class="st2" d="M89.2,62.4c1.7-1,2.8-2.5,2.8-3.9c0-1.5-1-2.8-2.8-3.9c0.5-2,0.3-3.7-0.8-4.7c-1-1-2.7-1.2-4.7-0.8
			c-1-1.7-2.4-2.8-3.8-2.8c-1.5,0-2.8,1-3.8,2.8c-2-0.5-3.6-0.3-4.7,0.8c-1,1-1.2,2.7-0.8,4.7c-1.7,1-2.8,2.5-2.8,3.9
			c0,1.5,1,2.9,2.8,3.9H89.2z"/>
		<line class="st3" x1="80" y1="62.4" x2="80" y2="59"/>
	</g>
</g>
<g>
	<line class="st1" x1="16" y1="27.4" x2="20" y2="23.4"/>
	<line class="st1" x1="12" y1="23.4" x2="16" y2="27.4"/>
	<g>
		<path class="st2" d="M25.2,30.4c1.7-1,2.8-2.5,2.8-3.9c0-1.5-1-2.8-2.8-3.9c0.5-2,0.3-3.7-0.8-4.7c-1-1-2.7-1.2-4.7-0.8
			c-1-1.7-2.4-2.8-3.8-2.8c-1.5,0-2.8,1-3.8,2.8c-2-0.5-3.6-0.3-4.7,0.8c-1,1-1.2,2.7-0.8,4.7C5,23.6,4,25.1,4,26.5
			c0,1.5,1,2.9,2.8,3.9H25.2z"/>
		<line class="st3" x1="16" y1="30.4" x2="16" y2="27"/>
	</g>
</g>
<g>
	<line class="st1" x1="32" y1="59.4" x2="36" y2="55.4"/>
	<line class="st1" x1="28" y1="55.4" x2="32" y2="59.4"/>
	<g>
		<path class="st2" d="M41.2,62.4c1.7-1,2.8-2.5,2.8-3.9c0-1.5-1-2.8-2.8-3.9c0.5-2,0.3-3.7-0.8-4.7c-1-1-2.7-1.2-4.7-0.8
			c-1-1.7-2.4-2.8-3.8-2.8c-1.5,0-2.8,1-3.8,2.8c-2-0.5-3.6-0.3-4.7,0.8c-1,1-1.2,2.7-0.8,4.7c-1.7,1-2.8,2.5-2.8,3.9
			c0,1.5,1,2.9,2.8,3.9H41.2z"/>
		<line class="st3" x1="32" y1="62.4" x2="32" y2="59"/>
	</g>
</g>
</svg>
