<?xml version="1.0" encoding="utf-8"?>
<!-- Generator: Adobe Illustrator 19.2.0, SVG Export Plug-In . SVG Version: 6.00 Build 0)  -->
<svg version="1.0" id="Ebene_1" xmlns="http://www.w3.org/2000/svg" xmlns:xlink="http://www.w3.org/1999/xlink" x="0px" y="0px"
	 viewBox="0 0 96 64" style="enable-background:new 0 0 96 64;" xml:space="preserve">
<style type="text/css">
	.st0{fill:#98C488;}
	.st1{fill:#6CA64A;}
</style>
<rect class="st0" width="96" height="64"/>
<g>
	<rect x="82.3" y="23" transform="matrix(0.7071 -0.7071 0.7071 0.7071 8.804 69.2548)" class="st1" width="11.3" height="2"/>
	<rect x="87" y="18.3" transform="matrix(0.7071 -0.7071 0.7071 0.7071 8.804 69.2548)" class="st1" width="2" height="11.3"/>
</g>
<polygon class="st1" points="3.3,3.3 0,6.6 0,9.4 4.7,4.7 "/>
<polygon class="st1" points="4.7,11.3 0,6.6 0,9.4 3.3,12.7 "/>
<polygon class="st1" points="92.7,12.7 96,9.4 96,6.6 91.3,11.3 "/>
<polygon class="st1" points="92.7,3.3 91.3,4.7 96,9.4 96,6.6 "/>
<g>
	<rect x="10.3" y="7" transform="matrix(0.7071 -0.7071 0.7071 0.7071 -0.9706 13.6569)" class="st1" width="11.3" height="2"/>
	<rect x="15" y="2.3" transform="matrix(0.7071 -0.7071 0.7071 0.7071 -0.9706 13.6569)" class="st1" width="2" height="11.3"/>
</g>
<g>
	<rect x="34.3" y="23" transform="matrix(0.7071 -0.7071 0.7071 0.7071 -5.2548 35.3137)" class="st1" width="11.3" height="2"/>
	<rect x="39" y="18.3" transform="matrix(0.7071 -0.7071 0.7071 0.7071 -5.2548 35.3137)" class="st1" width="2" height="11.3"/>
</g>
<g>
	<rect x="26.3" y="7" transform="matrix(0.7071 -0.7071 0.7071 0.7071 3.7157 24.9706)" class="st1" width="11.3" height="2"/>
	<rect x="31" y="2.3" transform="matrix(0.7071 -0.7071 0.7071 0.7071 3.7157 24.9706)" class="st1" width="2" height="11.3"/>
</g>
<g>
	<rect x="42.3" y="7" transform="matrix(0.7071 -0.7071 0.7071 0.7071 8.402 36.2843)" class="st1" width="11.3" height="2"/>
	<rect x="47" y="2.3" transform="matrix(0.7071 -0.7071 0.7071 0.7071 8.402 36.2843)" class="st1" width="2" height="11.3"/>
</g>
<g>
	<rect x="2.3" y="55" transform="matrix(0.7071 -0.7071 0.7071 0.7071 -37.2548 22.0589)" class="st1" width="11.3" height="2"/>
	<rect x="7" y="50.3" transform="matrix(0.7071 -0.7071 0.7071 0.7071 -37.2548 22.0589)" class="st1" width="2" height="11.3"/>
</g>
<polygon class="st1" points="3.3,35.3 0,38.6 0,41.4 4.7,36.7 "/>
<polygon class="st1" points="4.7,43.3 0,38.6 0,41.4 3.3,44.7 "/>
<polygon class="st1" points="92.7,44.7 96,41.4 96,38.6 91.3,43.3 "/>
<polygon class="st1" points="92.7,35.3 91.3,36.7 96,41.4 96,38.6 "/>
<g>
	<rect x="10.3" y="39" transform="matrix(0.7071 -0.7071 0.7071 0.7071 -23.598 23.0294)" class="st1" width="11.3" height="2"/>
	<rect x="15" y="34.3" transform="matrix(0.7071 -0.7071 0.7071 0.7071 -23.598 23.0294)" class="st1" width="2" height="11.3"/>
</g>
<g>
	<rect x="26.3" y="39" transform="matrix(0.7071 -0.7071 0.7071 0.7071 -18.9117 34.3431)" class="st1" width="11.3" height="2"/>
	<rect x="31" y="34.3" transform="matrix(0.7071 -0.7071 0.7071 0.7071 -18.9117 34.3431)" class="st1" width="2" height="11.3"/>
</g>
<g>
	<rect x="42.3" y="39" transform="matrix(0.7071 -0.7071 0.7071 0.7071 -14.2254 45.6569)" class="st1" width="11.3" height="2"/>
	<rect x="47" y="34.3" transform="matrix(0.7071 -0.7071 0.7071 0.7071 -14.2254 45.6569)" class="st1" width="2" height="11.3"/>
</g>
<g>
	<rect x="58.3" y="7" transform="matrix(0.7071 -0.7071 0.7071 0.7071 13.0883 47.598)" class="st1" width="11.3" height="2"/>
	<rect x="63" y="2.3" transform="matrix(0.7071 -0.7071 0.7071 0.7071 13.0883 47.598)" class="st1" width="2" height="11.3"/>
</g>
<g>
	<rect x="74.3" y="7" transform="matrix(0.7071 -0.7071 0.7071 0.7071 17.7746 58.9117)" class="st1" width="11.3" height="2"/>
	<rect x="79" y="2.3" transform="matrix(0.7071 -0.7071 0.7071 0.7071 17.7746 58.9117)" class="st1" width="2" height="11.3"/>
</g>
<g>
	<rect x="50.3" y="55" transform="matrix(0.7071 -0.7071 0.7071 0.7071 -23.196 56)" class="st1" width="11.3" height="2"/>
	<rect x="55" y="50.3" transform="matrix(0.7071 -0.7071 0.7071 0.7071 -23.196 56)" class="st1" width="2" height="11.3"/>
</g>
<g>
	<rect x="58.3" y="39" transform="matrix(0.7071 -0.7071 0.7071 0.7071 -9.5391 56.9706)" class="st1" width="11.3" height="2"/>
	<rect x="63" y="34.3" transform="matrix(0.7071 -0.7071 0.7071 0.7071 -9.5391 56.9706)" class="st1" width="2" height="11.3"/>
</g>
<g>
	<rect x="74.3" y="39" transform="matrix(0.7071 -0.7071 0.7071 0.7071 -4.8528 68.2843)" class="st1" width="11.3" height="2"/>
	<rect x="79" y="34.3" transform="matrix(0.7071 -0.7071 0.7071 0.7071 -4.8528 68.2843)" class="st1" width="2" height="11.3"/>
</g>
<path class="st1" d="M74.9,22c0.3-2.1-0.2-3.9-1.4-5.1c-1.2-1.2-2.9-1.7-5-1.4c-1.3-1.7-2.8-2.6-4.5-2.6c-1.7,0-3.2,0.9-4.5,2.6
	c-2.1-0.3-3.9,0.2-5,1.4c-1.2,1.2-1.6,2.9-1.4,5c-1.7,1.3-2.6,2.9-2.6,4.6c0,2,1.3,4,3.5,5.2l0.3,0.2h19.3l0.3-0.2
	c2.2-1.3,3.5-3.2,3.5-5.2C77.5,24.8,76.6,23.2,74.9,22z M72.8,29H65v-1.9l3.4-3.4l-0.7-0.7L64,26.7l-3.6-3.6l-0.7,0.7l3.4,3.4V29
	h-7.8c-1-1-1.7-1.6-1.7-2.4c0-0.9,0.8-1.9,2-2.6l0.9-0.6l-0.3-1.1c-0.2-0.9-0.5-2.4,0.4-3.2c0.8-0.8,2.4-0.6,3.2-0.4l1.1,0.3
	l0.6-0.9c0.5-0.8,1.4-2,2.5-2c1.1,0,2.1,1.3,2.5,2l0.6,0.9l1.1-0.3c1.5-0.4,2.6-0.2,3.2,0.4c0.6,0.6,0.7,1.8,0.4,3.3l-0.3,1.1
	l0.9,0.6c1.3,0.8,2,1.8,2,2.6C74.5,27.4,73.9,28,72.8,29z"/>
<path class="st1" d="M90.9,54c0.3-2.1-0.2-3.9-1.4-5.1c-1.2-1.2-2.9-1.7-5-1.4c-1.3-1.7-2.8-2.6-4.5-2.6c-1.7,0-3.2,0.9-4.5,2.6
	c-2.1-0.3-3.9,0.2-5,1.4c-1.2,1.2-1.6,2.9-1.4,5c-1.7,1.3-2.6,2.9-2.6,4.6c0,2,1.3,4,3.5,5.2l0.3,0.2h19.3l0.3-0.2
	c2.2-1.3,3.5-3.2,3.5-5.2C93.5,56.8,92.6,55.2,90.9,54z M88.8,61H81v-1.9l3.4-3.4l-0.7-0.7L80,58.7l-3.6-3.6l-0.7,0.7l3.4,3.4V61
	h-7.8c-1-1-1.7-1.6-1.7-2.4c0-0.9,0.8-1.9,2-2.6l0.9-0.6l-0.3-1.1c-0.2-0.9-0.5-2.4,0.4-3.2c0.8-0.8,2.4-0.6,3.2-0.4l1.1,0.3
	l0.6-0.9c0.5-0.8,1.4-2,2.5-2c1.1,0,2.1,1.3,2.5,2l0.6,0.9l1.1-0.3c1.5-0.4,2.6-0.2,3.2,0.4c0.6,0.6,0.7,1.8,0.4,3.3l-0.3,1.1
	l0.9,0.6c1.3,0.8,2,1.8,2,2.6C90.5,59.4,89.9,60,88.8,61z"/>
<path class="st1" d="M26.9,22c0.3-2.1-0.2-3.9-1.4-5.1c-1.2-1.2-2.9-1.7-5-1.4c-1.3-1.7-2.8-2.6-4.5-2.6c-1.7,0-3.2,0.9-4.5,2.6
	c-2.1-0.3-3.9,0.2-5,1.4c-1.2,1.2-1.6,2.9-1.4,5c-1.7,1.3-2.6,2.9-2.6,4.6c0,2,1.3,4,3.5,5.2L6.4,32h19.3l0.3-0.2
	c2.2-1.3,3.5-3.2,3.5-5.2C29.5,24.8,28.6,23.2,26.9,22z M24.8,29H17v-1.9l3.4-3.4l-0.7-0.7L16,26.7l-3.6-3.6l-0.7,0.7l3.4,3.4V29
	H7.2c-1-1-1.7-1.6-1.7-2.4c0-0.9,0.8-1.9,2-2.6l0.9-0.6l-0.3-1.1C8,21.4,7.8,19.8,8.6,19c0.8-0.8,2.4-0.6,3.2-0.4l1.1,0.3l0.6-0.9
	c0.5-0.8,1.4-2,2.5-2c1.1,0,2.1,1.3,2.5,2l0.6,0.9l1.1-0.3c1.5-0.4,2.6-0.2,3.2,0.4c0.6,0.6,0.7,1.8,0.4,3.3l-0.3,1.1l0.9,0.6
	c1.3,0.8,2,1.8,2,2.6C26.5,27.4,25.9,28,24.8,29z"/>
<path class="st1" d="M42.9,54c0.3-2.1-0.2-3.9-1.4-5.1c-1.2-1.2-2.9-1.7-5-1.4c-1.3-1.7-2.8-2.6-4.5-2.6c-1.7,0-3.2,0.9-4.5,2.6
	c-2.1-0.3-3.9,0.2-5,1.4c-1.2,1.2-1.6,2.9-1.4,5c-1.7,1.3-2.6,2.9-2.6,4.6c0,2,1.3,4,3.5,5.2l0.3,0.2h19.3l0.3-0.2
	c2.2-1.3,3.5-3.2,3.5-5.2C45.5,56.8,44.6,55.2,42.9,54z M40.8,61H33v-1.9l3.4-3.4l-0.7-0.7L32,58.7l-3.6-3.6l-0.7,0.7l3.4,3.4V61
	h-7.8c-1-1-1.7-1.6-1.7-2.4c0-0.9,0.8-1.9,2-2.6l0.9-0.6l-0.3-1.1c-0.2-0.9-0.5-2.4,0.4-3.2c0.8-0.8,2.4-0.6,3.2-0.4l1.1,0.3
	l0.6-0.9c0.5-0.8,1.4-2,2.5-2c1.1,0,2.1,1.3,2.5,2l0.6,0.9l1.1-0.3c1.5-0.4,2.6-0.2,3.2,0.4c0.6,0.6,0.7,1.8,0.4,3.3l-0.3,1.1
	l0.9,0.6c1.3,0.8,2,1.8,2,2.6C42.5,59.4,41.9,60,40.8,61z"/>
</svg>
