<?xml version="1.0" encoding="utf-8"?>
<!-- Generator: Adobe Illustrator 19.2.0, SVG Export Plug-In . SVG Version: 6.00 Build 0)  -->
<svg version="1.0" id="Ebene_1" xmlns="http://www.w3.org/2000/svg" xmlns:xlink="http://www.w3.org/1999/xlink" x="0px" y="0px"
	 viewBox="0 0 32 32" style="enable-background:new 0 0 32 32;" xml:space="preserve">
<style type="text/css">
	.st0{fill:#98C488;}
	.st1{fill:#6CA64A;}
</style>
<polyline class="st0" points="0,32 32,32 32,0 0,0 "/>
<g>
	<polygon class="st1" points="3.3,19.3 0,22.6 0,25.4 3.3,28.7 4.7,27.3 1.4,24 4.7,20.7 	"/>
	<polygon class="st1" points="28.7,19.3 27.3,20.7 30.6,24 27.3,27.3 28.7,28.7 32,25.4 32,22.6 	"/>
	<polygon class="st1" points="19.3,19.3 16,22.6 12.7,19.3 11.3,20.7 14.6,24 11.3,27.3 12.7,28.7 16,25.4 19.3,28.7 20.7,27.3 
		17.4,24 20.7,20.7 	"/>
	<polygon class="st1" points="11.3,12.7 12.7,11.3 9.4,8 12.7,4.7 11.3,3.3 8,6.6 4.7,3.3 3.3,4.7 6.6,8 3.3,11.3 4.7,12.7 8,9.4 	
		"/>
	<polygon class="st1" points="27.3,12.7 28.7,11.3 25.4,8 28.7,4.7 27.3,3.3 24,6.6 20.7,3.3 19.3,4.7 22.6,8 19.3,11.3 20.7,12.7 
		24,9.4 	"/>
</g>
</svg>
