<?xml version="1.0" encoding="utf-8"?>
<!-- Generator: Adobe Illustrator 19.2.0, SVG Export Plug-In . SVG Version: 6.00 Build 0)  -->
<svg version="1.0" id="Ebene_1" xmlns="http://www.w3.org/2000/svg" xmlns:xlink="http://www.w3.org/1999/xlink" x="0px" y="0px"
	 viewBox="0 0 128 128" style="enable-background:new 0 0 128 128;" xml:space="preserve">
<style type="text/css">
	.st0{fill:#98C488;}
	.st1{fill:#6CA64A;}
</style>
<rect class="st0" width="128" height="128"/>
<g>
	<rect x="2.4" y="7" transform="matrix(0.7071 -0.7071 0.7071 0.7071 -3.2565 8.0394)" class="st1" width="11.3" height="2"/>
	<rect x="34.4" y="7" transform="matrix(0.7071 -0.7071 0.7071 0.7071 6.1161 30.6668)" class="st1" width="11.3" height="2"/>
	<rect x="98.4" y="7" transform="matrix(0.7071 -0.7071 0.7071 0.7071 24.8612 75.9217)" class="st1" width="11.3" height="2"/>
	<rect x="66.4" y="7" transform="matrix(0.7071 -0.7071 0.7071 0.7071 15.4886 53.2943)" class="st1" width="11.3" height="2"/>
	<rect x="18.4" y="23" transform="matrix(0.7071 -0.7071 0.7071 0.7071 -9.8839 24.0394)" class="st1" width="11.3" height="2"/>
	<rect x="82.4" y="23" transform="matrix(0.7071 -0.7071 0.7071 0.7071 8.8612 69.2943)" class="st1" width="11.3" height="2"/>
	<rect x="2.4" y="39" transform="matrix(0.7071 -0.7071 0.7071 0.7071 -25.8839 17.412)" class="st1" width="11.3" height="2"/>
	<rect x="66.4" y="39" transform="matrix(0.7071 -0.7071 0.7071 0.7071 -7.1388 62.6668)" class="st1" width="11.3" height="2"/>
	<rect x="18.4" y="55" transform="matrix(0.7071 -0.7071 0.7071 0.7071 -32.5114 33.412)" class="st1" width="11.3" height="2"/>
	<rect x="82.4" y="55" transform="matrix(0.7071 -0.7071 0.7071 0.7071 -13.7662 78.6668)" class="st1" width="11.3" height="2"/>
	<rect x="50.4" y="55" transform="matrix(0.7071 -0.7071 0.7071 0.7071 -23.1388 56.0394)" class="st1" width="11.3" height="2"/>
	<rect x="114.4" y="55" transform="matrix(0.7071 -0.7071 0.7071 0.7071 -4.3936 101.2943)" class="st1" width="11.3" height="2"/>
	<rect x="2.4" y="71" transform="matrix(0.7071 -0.7071 0.7071 0.7071 -48.5114 26.7846)" class="st1" width="11.3" height="2"/>
	<rect x="34.4" y="71" transform="matrix(0.7071 -0.7071 0.7071 0.7071 -39.1388 49.412)" class="st1" width="11.3" height="2"/>
	<rect x="98.4" y="71" transform="matrix(0.7071 -0.7071 0.7071 0.7071 -20.3936 94.6668)" class="st1" width="11.3" height="2"/>
	<rect x="66.4" y="71" transform="matrix(0.7071 -0.7071 0.7071 0.7071 -29.7662 72.0394)" class="st1" width="11.3" height="2"/>
	<rect x="50.4" y="87" transform="matrix(0.7071 -0.7071 0.7071 0.7071 -45.7664 65.4121)" class="st1" width="11.3" height="2"/>
	<rect x="114.4" y="87" transform="matrix(0.7071 -0.7071 0.7071 0.7071 -27.0212 110.6669)" class="st1" width="11.3" height="2"/>
	<rect x="34.4" y="103" transform="matrix(0.7071 -0.7071 0.7071 0.7071 -61.7665 58.7847)" class="st1" width="11.3" height="2"/>
	<rect x="98.4" y="103" transform="matrix(0.7071 -0.7071 0.7071 0.7071 -43.0214 104.0396)" class="st1" width="11.3" height="2"/>
	<rect x="18.4" y="119" transform="matrix(0.7071 -0.7071 0.7071 0.7071 -77.7665 52.1573)" class="st1" width="11.3" height="2"/>
	<rect x="50.4" y="119" transform="matrix(0.7071 -0.7071 0.7071 0.7071 -68.394 74.7847)" class="st1" width="11.3" height="2"/>
	
		<rect x="114.4" y="119" transform="matrix(0.7071 -0.7071 0.7071 0.7071 -49.6488 120.0396)" class="st1" width="11.3" height="2"/>
	<rect x="82.4" y="119" transform="matrix(0.7071 -0.7071 0.7071 0.7071 -59.0214 97.4121)" class="st1" width="11.3" height="2"/>
	<rect x="2.4" y="7" transform="matrix(0.7071 -0.7071 0.7071 0.7071 -3.2565 8.0394)" class="st1" width="11.3" height="2"/>
	<rect x="34.4" y="7" transform="matrix(0.7071 -0.7071 0.7071 0.7071 6.1161 30.6668)" class="st1" width="11.3" height="2"/>
	<rect x="98.4" y="7" transform="matrix(0.7071 -0.7071 0.7071 0.7071 24.8612 75.9217)" class="st1" width="11.3" height="2"/>
	<rect x="66.4" y="7" transform="matrix(0.7071 -0.7071 0.7071 0.7071 15.4886 53.2943)" class="st1" width="11.3" height="2"/>
	<rect x="18.4" y="23" transform="matrix(0.7071 -0.7071 0.7071 0.7071 -9.8839 24.0394)" class="st1" width="11.3" height="2"/>
	<rect x="82.4" y="23" transform="matrix(0.7071 -0.7071 0.7071 0.7071 8.8612 69.2943)" class="st1" width="11.3" height="2"/>
	<rect x="2.4" y="39" transform="matrix(0.7071 -0.7071 0.7071 0.7071 -25.8839 17.412)" class="st1" width="11.3" height="2"/>
	<rect x="66.4" y="39" transform="matrix(0.7071 -0.7071 0.7071 0.7071 -7.1388 62.6668)" class="st1" width="11.3" height="2"/>
	<rect x="18.4" y="55" transform="matrix(0.7071 -0.7071 0.7071 0.7071 -32.5114 33.412)" class="st1" width="11.3" height="2"/>
	<rect x="82.4" y="55" transform="matrix(0.7071 -0.7071 0.7071 0.7071 -13.7662 78.6668)" class="st1" width="11.3" height="2"/>
	<rect x="50.4" y="55" transform="matrix(0.7071 -0.7071 0.7071 0.7071 -23.1388 56.0394)" class="st1" width="11.3" height="2"/>
	<rect x="114.4" y="55" transform="matrix(0.7071 -0.7071 0.7071 0.7071 -4.3936 101.2943)" class="st1" width="11.3" height="2"/>
	<rect x="2.4" y="71" transform="matrix(0.7071 -0.7071 0.7071 0.7071 -48.5114 26.7846)" class="st1" width="11.3" height="2"/>
	<rect x="34.4" y="71" transform="matrix(0.7071 -0.7071 0.7071 0.7071 -39.1388 49.412)" class="st1" width="11.3" height="2"/>
	<rect x="98.4" y="71" transform="matrix(0.7071 -0.7071 0.7071 0.7071 -20.3936 94.6668)" class="st1" width="11.3" height="2"/>
	<rect x="66.4" y="71" transform="matrix(0.7071 -0.7071 0.7071 0.7071 -29.7662 72.0394)" class="st1" width="11.3" height="2"/>
	<rect x="50.4" y="87" transform="matrix(0.7071 -0.7071 0.7071 0.7071 -45.7664 65.4121)" class="st1" width="11.3" height="2"/>
	<rect x="114.4" y="87" transform="matrix(0.7071 -0.7071 0.7071 0.7071 -27.0212 110.6669)" class="st1" width="11.3" height="2"/>
	<rect x="34.4" y="103" transform="matrix(0.7071 -0.7071 0.7071 0.7071 -61.7665 58.7847)" class="st1" width="11.3" height="2"/>
	<rect x="98.4" y="103" transform="matrix(0.7071 -0.7071 0.7071 0.7071 -43.0214 104.0396)" class="st1" width="11.3" height="2"/>
	<rect x="18.4" y="119" transform="matrix(0.7071 -0.7071 0.7071 0.7071 -77.7665 52.1573)" class="st1" width="11.3" height="2"/>
	<rect x="50.4" y="119" transform="matrix(0.7071 -0.7071 0.7071 0.7071 -68.394 74.7847)" class="st1" width="11.3" height="2"/>
	
		<rect x="114.4" y="119" transform="matrix(0.7071 -0.7071 0.7071 0.7071 -49.6488 120.0396)" class="st1" width="11.3" height="2"/>
	<rect x="82.4" y="119" transform="matrix(0.7071 -0.7071 0.7071 0.7071 -59.0214 97.4121)" class="st1" width="11.3" height="2"/>
</g>
<g>
	<path class="st1" d="M112,18.5c-7.4,0-13.5,6.1-13.5,13.5c0,3.6,1.4,7,4,9.5l1.1,1.1l7.5-7.5l0,8H109v2h6v-2h-1.9l0-7.9l7.5,7.5
		l1.1-1.1c2.5-2.6,4-5.9,4-9.5C125.5,24.5,119.5,18.5,112,18.5z M120.5,38.2l-8.4-8.4l-8.4,8.4c-1.4-1.8-2.1-4-2.1-6.3
		c0-5.8,4.7-10.5,10.5-10.5s10.5,4.7,10.5,10.5C122.5,34.3,121.8,36.4,120.5,38.2z"/>
	<path class="st1" d="M48,18.5c-7.4,0-13.5,6.1-13.5,13.5c0,3.6,1.4,7,4,9.5l1.1,1.1L47,35l0,8h-2v2h6v-2h-2l0-7.9l7.5,7.5l1.1-1.1
		c2.5-2.6,4-5.9,4-9.5C61.5,24.5,55.4,18.5,48,18.5z M56.4,38.2L48,29.8l-8.4,8.4c-1.4-1.8-2.1-4-2.1-6.3c0-5.8,4.7-10.5,10.5-10.5
		S58.5,26.2,58.5,32C58.5,34.3,57.7,36.4,56.4,38.2z"/>
	<path class="st1" d="M80,82.5c-7.4,0-13.5,6.1-13.5,13.5c0,3.6,1.4,7,4,9.5l1.1,1.1l7.5-7.5l0,8H77v2h6v-2h-1.9l0-7.9l7.5,7.5
		l1.1-1.1c2.5-2.6,4-5.9,4-9.5C93.5,88.5,87.5,82.5,80,82.5z M88.5,102.2L80,93.8l-8.4,8.4c-1.4-1.8-2.1-4-2.1-6.3
		c0-5.8,4.7-10.5,10.5-10.5S90.5,90.2,90.5,96C90.5,98.3,89.8,100.4,88.5,102.2z"/>
	<path class="st1" d="M16,82.5C8.5,82.5,2.5,88.5,2.5,96c0,3.6,1.4,7,4,9.5l1.1,1.1L15,99l0,8h-2v2h6v-2h-2l0-7.9l7.5,7.5l1.1-1.1
		c2.5-2.6,4-5.9,4-9.5C29.5,88.5,23.4,82.5,16,82.5z M24.4,102.2L16,93.8l-8.4,8.4c-1.4-1.8-2.1-4-2.1-6.3c0-5.8,4.7-10.5,10.5-10.5
		S26.5,90.2,26.5,96C26.5,98.3,25.7,100.4,24.4,102.2z"/>
</g>
</svg>
