<?xml version="1.0" encoding="utf-8"?>
<!-- Generator: Adobe Illustrator 19.2.0, SVG Export Plug-In . SVG Version: 6.00 Build 0)  -->
<svg version="1.0" id="Ebene_1" xmlns="http://www.w3.org/2000/svg" xmlns:xlink="http://www.w3.org/1999/xlink" x="0px" y="0px"
	 viewBox="0 0 128 128" style="enable-background:new 0 0 128 128;" xml:space="preserve">
<style type="text/css">
	.st0{fill:#98C488;}
	.st1{fill:#6CA64A;}
</style>
<rect class="st0" width="128" height="128"/>
<g>
	<path class="st1" d="M103.6,25.9l7.5-7.5l0,8.6H109v2h6v-2h-1.9l0-8.6l7.5,7.5l0.7-0.7c2.5-2.5,3.8-5.7,3.8-9.2c0-7.2-5.8-13-13-13
		s-13,5.8-13,13c0,3.5,1.4,6.7,3.8,9.2L103.6,25.9z M112.1,5c6.1,0,11,4.9,11,11c0,2.6-0.9,5.1-2.5,7l-8.5-8.5l-8.5,8.5
		c-1.6-2-2.5-4.4-2.5-7C101.1,9.9,106,5,112.1,5z"/>
	<path class="st1" d="M48,3c-7.2,0-13,5.8-13,13c0,3.5,1.4,6.7,3.8,9.2l0.7,0.7l7.5-7.5l0,8.6h-2v2h6v-2h-2l0-8.6l7.5,7.5l0.7-0.7
		c2.5-2.5,3.8-5.7,3.8-9.2C61,8.8,55.2,3,48,3z M56.5,23L48,14.6L39.5,23c-1.6-2-2.5-4.4-2.5-7c0-6.1,4.9-11,11-11s11,4.9,11,11
		C59,18.6,58.1,21.1,56.5,23z"/>
	<path class="st1" d="M80,34.9c-7.2,0-13,5.8-13,13c0,3.5,1.4,6.7,3.8,9.2l0.7,0.7l7.5-7.5l0,8.7H77v2h6v-2h-1.9l0-8.7l7.5,7.5
		l0.7-0.7c2.5-2.5,3.8-5.7,3.8-9.2C93,40.8,87.2,34.9,80,34.9z M88.5,55L80,46.5L71.6,55c-1.6-2-2.5-4.4-2.5-7c0-6.1,4.9-11,11-11
		s11,4.9,11,11C91,50.5,90.1,53,88.5,55z"/>
	<path class="st1" d="M7.5,57.8l7.5-7.5l0,8.7h-2v2h6v-2h-2l0-8.7l7.5,7.5l0.7-0.7c2.5-2.5,3.8-5.7,3.8-9.2c0-7.2-5.8-13-13-13
		s-13,5.8-13,13c0,3.5,1.4,6.7,3.8,9.2L7.5,57.8z M15.9,36.9c6.1,0,11,4.9,11,11c0,2.6-0.9,5.1-2.5,7l-8.5-8.5L7.5,55
		c-1.6-2-2.5-4.4-2.5-7C4.9,41.9,9.9,36.9,15.9,36.9z"/>
	<path class="st1" d="M112,66.9c-7.2,0-13,5.8-13,13c0,3.5,1.4,6.7,3.8,9.2l0.7,0.7l7.5-7.5l0,8.7H109v2h6v-2h-1.9l0-8.7l7.5,7.5
		l0.7-0.7c2.5-2.5,3.8-5.7,3.8-9.2C125,72.8,119.2,66.9,112,66.9z M120.5,87l-8.5-8.5l-8.5,8.5c-1.6-2-2.5-4.4-2.5-7
		c0-6.1,4.9-11,11-11s11,4.9,11,11C123,82.5,122.1,85,120.5,87z"/>
	<path class="st1" d="M47.9,66.9c-7.2,0-13,5.8-13,13c0,3.5,1.4,6.7,3.8,9.2l0.7,0.7l7.5-7.5l0,8.7h-2v2h6v-2h-2l0-8.7l7.5,7.5
		l0.7-0.7c2.5-2.5,3.8-5.7,3.8-9.2C60.9,72.8,55.1,66.9,47.9,66.9z M56.4,87l-8.5-8.5L39.5,87c-1.6-2-2.5-4.4-2.5-7
		c0-6.1,4.9-11,11-11s11,4.9,11,11C58.9,82.5,58,85,56.4,87z"/>
	<path class="st1" d="M80,98.9c-7.2,0-13,5.8-13,13c0,3.5,1.4,6.7,3.8,9.2l0.7,0.7l7.5-7.5l0,8.7H77v2h6v-2h-1.9l0-8.7l7.5,7.5
		l0.7-0.7c2.5-2.5,3.8-5.7,3.8-9.2C93,104.8,87.2,98.9,80,98.9z M88.5,119l-8.5-8.5l-8.5,8.5c-1.6-2-2.5-4.4-2.5-7
		c0-6.1,4.9-11,11-11s11,4.9,11,11C91,114.5,90.1,117,88.5,119z"/>
	<path class="st1" d="M15.9,98.9c-7.2,0-13,5.8-13,13c0,3.5,1.4,6.7,3.8,9.2l0.7,0.7l7.5-7.5l0,8.7h-2v2h6v-2h-2l0-8.7l7.5,7.5
		l0.7-0.7c2.5-2.5,3.8-5.7,3.8-9.2C28.9,104.8,23.1,98.9,15.9,98.9z M24.4,119l-8.5-8.5L7.5,119c-1.6-2-2.5-4.4-2.5-7
		c0-6.1,4.9-11,11-11s11,4.9,11,11C26.9,114.5,26,117,24.4,119z"/>
</g>
</svg>
