<?xml version="1.0" encoding="utf-8"?>
<!-- Generator: Adobe Illustrator 19.2.0, SVG Export Plug-In . SVG Version: 6.00 Build 0)  -->
<svg version="1.0" id="Ebene_1" xmlns="http://www.w3.org/2000/svg" xmlns:xlink="http://www.w3.org/1999/xlink" x="0px" y="0px"
	 viewBox="0 0 96 64" style="enable-background:new 0 0 96 64;" xml:space="preserve">
<style type="text/css">
	.st0{fill:#98C488;}
	.st1{fill:#6CA64A;}
</style>
<rect class="st0" width="96" height="64"/>
<g>
	<polygon class="st1" points="4.7,19.3 3.3,20.7 6.6,24 3.3,27.3 4.7,28.7 8,25.4 11.3,28.7 12.7,27.3 9.4,24 12.7,20.7 11.3,19.3 
		8,22.6 	"/>
	<polygon class="st1" points="4.7,11.3 1.4,8 4.7,4.7 3.3,3.3 0,6.6 0,9.4 3.3,12.7 	"/>
	<polygon class="st1" points="92.7,3.3 91.3,4.7 94.6,8 91.3,11.3 92.7,12.7 96,9.4 96,6.6 	"/>
	<polygon class="st1" points="12.7,12.7 16,9.4 19.3,12.7 20.7,11.3 17.4,8 20.7,4.7 19.3,3.3 16,6.6 12.7,3.3 11.3,4.7 14.6,8 
		11.3,11.3 	"/>
	<polygon class="st1" points="52.7,19.3 51.3,20.7 54.6,24 51.3,27.3 52.7,28.7 56,25.4 59.3,28.7 60.7,27.3 57.4,24 60.7,20.7 
		59.3,19.3 56,22.6 	"/>
	<polygon class="st1" points="28.7,12.7 32,9.4 35.3,12.7 36.7,11.3 33.4,8 36.7,4.7 35.3,3.3 32,6.6 28.7,3.3 27.3,4.7 30.6,8 
		27.3,11.3 	"/>
	<polygon class="st1" points="44.7,12.7 48,9.4 51.3,12.7 52.7,11.3 49.4,8 52.7,4.7 51.3,3.3 48,6.6 44.7,3.3 43.3,4.7 46.6,8 
		43.3,11.3 	"/>
	<polygon class="st1" points="11.3,51.3 8,54.6 4.7,51.3 3.3,52.7 6.6,56 3.3,59.3 4.7,60.7 8,57.4 11.3,60.7 12.7,59.3 9.4,56 
		12.7,52.7 	"/>
	<polygon class="st1" points="4.7,43.3 1.4,40 4.7,36.7 3.3,35.3 0,38.6 0,41.4 3.3,44.7 	"/>
	<polygon class="st1" points="91.3,36.7 94.6,40 91.3,43.3 92.7,44.7 96,41.4 96,38.6 92.7,35.3 	"/>
	<polygon class="st1" points="19.3,44.7 20.7,43.3 17.4,40 20.7,36.7 19.3,35.3 16,38.6 12.7,35.3 11.3,36.7 14.6,40 11.3,43.3 
		12.7,44.7 16,41.4 	"/>
	<polygon class="st1" points="35.3,35.3 32,38.6 28.7,35.3 27.3,36.7 30.6,40 27.3,43.3 28.7,44.7 32,41.4 35.3,44.7 36.7,43.3 
		33.4,40 36.7,36.7 	"/>
	<polygon class="st1" points="44.7,44.7 48,41.4 51.3,44.7 52.7,43.3 49.4,40 52.7,36.7 51.3,35.3 48,38.6 44.7,35.3 43.3,36.7 
		46.6,40 43.3,43.3 	"/>
	<polygon class="st1" points="60.7,12.7 64,9.4 67.3,12.7 68.7,11.3 65.4,8 68.7,4.7 67.3,3.3 64,6.6 60.7,3.3 59.3,4.7 62.6,8 
		59.3,11.3 	"/>
	<polygon class="st1" points="76.7,12.7 80,9.4 83.3,12.7 84.7,11.3 81.4,8 84.7,4.7 83.3,3.3 80,6.6 76.7,3.3 75.3,4.7 78.6,8 
		75.3,11.3 	"/>
	<polygon class="st1" points="59.3,51.3 56,54.6 52.7,51.3 51.3,52.7 54.6,56 51.3,59.3 52.7,60.7 56,57.4 59.3,60.7 60.7,59.3 
		57.4,56 60.7,52.7 	"/>
	<polygon class="st1" points="67.3,35.3 64,38.6 60.7,35.3 59.3,36.7 62.6,40 59.3,43.3 60.7,44.7 64,41.4 67.3,44.7 68.7,43.3 
		65.4,40 68.7,36.7 	"/>
	<polygon class="st1" points="76.7,44.7 80,41.4 83.3,44.7 84.7,43.3 81.4,40 84.7,36.7 83.3,35.3 80,38.6 76.7,35.3 75.3,36.7 
		78.6,40 75.3,43.3 	"/>
	<path class="st1" d="M42.9,54c0.3-2.1-0.2-3.9-1.4-5.1c-1.2-1.2-2.9-1.7-5-1.4c-1.3-1.7-2.8-2.6-4.5-2.6c-1.7,0-3.2,0.9-4.5,2.6
		c-2.1-0.3-3.9,0.2-5,1.4c-1.2,1.2-1.6,2.9-1.4,5c-1.7,1.3-2.6,2.9-2.6,4.6c0,2,1.3,4,3.5,5.2l0.3,0.2h19.3l0.3-0.2
		c2.2-1.3,3.5-3.2,3.5-5.2C45.5,56.8,44.6,55.2,42.9,54z M40.8,61H33v-1.9l3.3-3.4l-0.7-0.7L32,58.7l-3.6-3.6l-0.7,0.7l3.4,3.4V61
		h-7.8c-1-1-1.7-1.6-1.7-2.4c0-0.9,0.8-1.9,2-2.6l0.9-0.6l-0.3-1.1c-0.2-0.9-0.5-2.4,0.4-3.2c0.8-0.8,2.4-0.6,3.2-0.4l1.1,0.3
		l0.6-0.9c0.5-0.8,1.4-2,2.5-2c1.1,0,2.1,1.3,2.5,2l0.6,0.9l1.1-0.3c1.5-0.4,2.6-0.2,3.2,0.4c0.6,0.6,0.7,1.8,0.4,3.3l-0.3,1.1
		l0.9,0.6c1.3,0.8,2,1.8,2,2.6C42.5,59.4,41.8,60,40.8,61z"/>
	<path class="st1" d="M93.5,26.5c0-1.7-0.9-3.3-2.6-4.6c0.3-2.1-0.2-3.9-1.4-5.1c-1.2-1.2-2.9-1.7-5-1.4c-1.3-1.7-2.8-2.6-4.5-2.6
		c-1.7,0-3.2,0.9-4.5,2.6c-2.1-0.3-3.9,0.2-5,1.4c-1.2,1.2-1.6,2.9-1.4,5c-1.7,1.3-2.6,2.9-2.6,4.6c0,2,1.3,4,3.5,5.2l0.3,0.2h19.3
		l0.3-0.2C92.2,30.5,93.5,28.5,93.5,26.5z M88.8,29H81v-1.9l3.4-3.4l-0.7-0.7L80,26.7l-3.6-3.6l-0.7,0.7l3.4,3.4V29h-7.8
		c-1-1-1.7-1.6-1.7-2.4c0-0.9,0.8-1.9,2-2.6l0.9-0.6l-0.3-1.1c-0.2-0.9-0.5-2.4,0.4-3.2c0.8-0.8,2.4-0.6,3.2-0.4l1.1,0.3l0.6-0.9
		c0.5-0.8,1.4-2,2.5-2c1.1,0,2.1,1.3,2.5,2l0.6,0.9l1.1-0.3c1.5-0.4,2.6-0.2,3.2,0.4c0.6,0.6,0.7,1.8,0.4,3.3l-0.3,1.1l0.9,0.6
		c1.3,0.8,2,1.8,2,2.6C90.5,27.4,89.9,28,88.8,29z"/>
	<polygon class="st1" points="30,32 34,32 34,26 40,26 40,22 34,22 34,16 30,16 30,22 24,22 24,26 30,26 	"/>
	<polygon class="st1" points="82,48 78,48 78,54 72,54 72,58 78,58 78,64 82,64 82,58 88,58 88,54 82,54 	"/>
</g>
</svg>
