<?xml version="1.0" encoding="utf-8"?>
<!-- Generator: Adobe Illustrator 19.2.0, SVG Export Plug-In . SVG Version: 6.00 Build 0)  -->
<svg version="1.0" id="Ebene_1" xmlns="http://www.w3.org/2000/svg" xmlns:xlink="http://www.w3.org/1999/xlink" x="0px" y="0px"
	 viewBox="0 0 80 53.4" style="enable-background:new 0 0 80 53.4;" xml:space="preserve">
<style type="text/css">
	.st0{fill:#CAB39D;}
	.st1{fill:#9D8B72;}
</style>
<rect y="0" class="st0" width="80" height="53.4"/>
<polygon class="st1" points="40,6.7 46.7,0 46.7,0 43.9,0 43.9,0 40,3.9 36.1,0 36.1,0 33.3,0 33.3,0 "/>
<polygon class="st1" points="48.9,0 47.1,0 47.6,0.8 "/>
<polygon class="st1" points="75.6,6.3 75.1,0 73.1,0 73.7,8.3 80,8.3 80,6.3 "/>
<path class="st1" d="M33.3,18l6.7,6.7l6.7-6.7L40,11.3L33.3,18z M40,21.9L36.1,18l3.9-3.9l3.9,3.9L40,21.9z"/>
<path class="st1" d="M41.6,8.4l6,10.3l10.5-6L50.8,2.4L41.6,8.4z M48.3,16l-4-7l6.1-4l4.8,7L48.3,16z"/>
<polygon class="st1" points="72.6,9.2 70.2,0 68.1,0 70.2,7.8 61,10.5 57.4,0.4 58.7,0 55.2,0 59.7,13 "/>
<polygon class="st1" points="7.4,0 5.3,0 4.9,6.3 0,6.3 0,8.3 6.7,8.3 "/>
<polygon class="st1" points="33.1,0 31.3,0 32.6,0.8 "/>
<path class="st1" d="M22.2,12.8l10.4,6l6-10.4l-10.4-6L22.2,12.8z M35.9,9.1l-4,6.9L25,12l4-6.9L35.9,9.1z"/>
<polygon class="st1" points="20.5,13 25,0 21.5,0 22.8,0.4 19.2,10.5 10,7.8 12.1,0 10,0 7.5,9.2 "/>
<polygon class="st1" points="75.6,23.7 74.7,12.7 80,12.7 80,10.7 72.5,10.7 73.7,25.7 80,25.7 80,23.7 "/>
<path class="st1" d="M33.3,35.4l6.7,6.7l6.7-6.7L40,28.7L33.3,35.4z M40,39.3l-3.9-3.9l3.9-3.9l3.9,3.9L40,39.3z"/>
<path class="st1" d="M41.6,25.9l6,10.3l10.5-6l-7.2-10.4L41.6,25.9z M48.3,33.5l-4-7l6.1-4l4.8,7L48.3,33.5z"/>
<path class="st1" d="M54.8,16.4l4.9,14l12.9-3.8l-3.7-14L54.8,16.4z M61,27.9l-3.6-10.2l10.1-2.7l2.7,10.2L61,27.9z"/>
<polygon class="st1" points="7.9,10.7 0,10.7 0,12.7 5.7,12.7 4.9,23.7 0,23.7 0,25.7 6.7,25.7 "/>
<path class="st1" d="M22.2,30.2l10.4,6l6-10.4l-10.4-6L22.2,30.2z M35.9,26.5l-4,6.9l-6.9-4l4-6.9L35.9,26.5z"/>
<path class="st1" d="M7.5,26.6l12.9,3.8l4.9-14l-14.1-3.8L7.5,26.6z M22.8,17.8l-3.6,10.2L10,25.2l2.7-10.2L22.8,17.8z"/>
<polygon class="st1" points="75.6,41.7 74.7,30.7 80,30.7 80,28.7 72.5,28.7 73.7,43.7 80,43.7 80,41.7 "/>
<polygon class="st1" points="33.3,53.4 36.1,53.4 40,49.5 43.9,53.4 46.7,53.4 40,46.7 "/>
<path class="st1" d="M50.8,37.8l-9.3,6l5.5,9.6h1.8l9.1-5.3L50.8,37.8z M44.3,44.5l6.1-4l4.8,7l-6.9,4L44.3,44.5z"/>
<path class="st1" d="M54.8,34.4l4.9,14l12.9-3.8l-3.7-14L54.8,34.4z M61,45.9l-3.6-10.2l10.1-2.7l2.7,10.2L61,45.9z"/>
<polygon class="st1" points="7.9,28.7 0,28.7 0,30.7 5.7,30.7 4.9,41.7 0,41.7 0,43.7 6.7,43.7 "/>
<path class="st1" d="M28.2,37.8l-6,10.4l9,5.2h1.8l5.5-9.6L28.2,37.8z M25,47.5l4-6.9l6.9,4l-4,6.9L25,47.5z"/>
<path class="st1" d="M7.5,44.6l12.9,3.8l4.9-14l-14.1-3.8L7.5,44.6z M22.8,35.8l-3.6,10.2L10,43.2l2.7-10.2L22.8,35.8z"/>
<polygon class="st1" points="74.7,48.6 80,48.6 80,46.6 72.5,46.6 73.1,53.4 75.1,53.4 "/>
<polygon class="st1" points="54.8,52.4 55.2,53.4 58.6,53.4 67.5,51 68.1,53.4 70.2,53.4 68.9,48.6 "/>
<polygon class="st1" points="0,46.6 0,48.6 5.7,48.6 5.3,53.4 7.3,53.4 7.9,46.6 "/>
<polygon class="st1" points="11.3,48.6 10,53.4 12.1,53.4 12.7,51 21.6,53.4 25,53.4 25.4,52.4 "/>
</svg>
