<?xml version="1.0" encoding="utf-8"?>
<!-- Generator: Adobe Illustrator 19.2.0, SVG Export Plug-In . SVG Version: 6.00 Build 0)  -->
<svg version="1.0" id="Ebene_1" xmlns="http://www.w3.org/2000/svg" xmlns:xlink="http://www.w3.org/1999/xlink" x="0px" y="0px"
	 viewBox="0 0 128 64" style="enable-background:new 0 0 128 64;" xml:space="preserve">
<style type="text/css">
	.st0{fill:#CAB39D;}
	.st1{fill:#9D8B72;}
</style>
<rect class="st0" width="128" height="64"/>
<path class="st1" d="M1.2,31.8h40.7L43.9,1H2L1.2,31.8z M4.9,4l35.8-0.1L39,28.8H4.2L4.9,4z"/>
<path class="st1" d="M45.5,1.5L44,31.8h9.7L53.5,1.5H45.5z M47.2,28.8l1.2-24.3h2.2v24.3H47.2z"/>
<path class="st1" d="M55.7,1.5l-0.2,29.4l23.2,0.7l-2-30.2H55.7z M58.5,28l0.1-23.7L74,4.6l1.3,23.9L58.5,28z"/>
<path class="st1" d="M81.2,30.9l27.6,0.6l1.7-30.7L80.3,1L81.2,30.9z M107.2,3.8L106,28.4L83.9,28L83.6,4L107.2,3.8z"/>
<path class="st1" d="M112.8,1l-1.2,30.7l14.7,0.5l-0.5-30.7L112.8,1z M114.9,28.8l0.7-24.4l7.4-0.3l0.2,24.9L114.9,28.8z"/>
<polygon class="st1" points="33,33.9 0,33.9 0,36.9 30.4,36.8 29.9,43.6 0,43.3 0,46.4 33.3,46.6 "/>
<polygon class="st1" points="123.8,43.5 123.7,36.8 128,37 128,34 120.7,33.9 120.7,46.6 128,46.4 128,43.4 "/>
<path class="st1" d="M35.7,46.6h11l0.8-13.2l-11.9-0.3L35.7,46.6z M44.3,36.4l-0.5,7.2h-5.4l0.4-7.4L44.3,36.4z"/>
<path class="st1" d="M48.3,46.5l36.3,1l1.8-13.5l-37.3-0.8L48.3,46.5z M52,36.2l31.1,0.6l-1,7.5l-30.5-0.8L52,36.2z"/>
<path class="st1" d="M86.5,47.4l8.3-0.1V34.4l-7-0.5L86.5,47.4z M90.5,37.1l1.3,0.1v7.2l-2,0L90.5,37.1z"/>
<path class="st1" d="M96.8,46.6h22l0-12.7H96L96.8,46.6z M115.6,37l0.4,6.7H99.6L99.2,37H115.6z"/>
<polygon class="st1" points="23.5,50 0,49.9 0,52.9 20.8,53 21.5,59.4 0,59.4 0,62.4 24.9,62.4 "/>
<polygon class="st1" points="118.6,59.4 119.3,53 128,52.9 128,49.9 116.6,50 115.2,62.4 128,62.4 128,59.4 "/>
<path class="st1" d="M27.4,62.4l27-0.4l1.4-12.3l-28.4,0V62.4z M30.4,52.6l21.6,0.2l0,6.2l-21.6,0.3V52.6z"/>
<path class="st1" d="M57.1,62.4l8.5,0.1V48.6h-6.4L57.1,62.4z M61.8,51.6h0.9v7.8l-2,0L61.8,51.6z"/>
<path class="st1" d="M68.2,62.2l23.1,0.3L92,49.9l-24.5,0.2L68.2,62.2z M88.8,52.9l-0.3,6.6l-17.4-0.2L70.7,53L88.8,52.9z"/>
<path class="st1" d="M94,62l16.2,0.3l3-12.4l-18.5-0.3L94,62z M97.6,52.7l11.9,0.2l-1.6,6.4l-10.7-0.2L97.6,52.7z"/>
</svg>
