<?xml version="1.0" encoding="utf-8"?>
<!-- Generator: Adobe Illustrator 19.2.0, SVG Export Plug-In . SVG Version: 6.00 Build 0)  -->
<svg version="1.0" id="Ebene_1" xmlns="http://www.w3.org/2000/svg" xmlns:xlink="http://www.w3.org/1999/xlink" x="0px" y="0px"
	 viewBox="0 0 128 128" style="enable-background:new 0 0 128 128;" xml:space="preserve">
<style type="text/css">
	.st0{clip-path:url(#SVGID_2_);}
	.st1{fill:#CAB39D;}
	.st2{fill:none;stroke:#9D8B72;stroke-width:3;stroke-miterlimit:10;}
</style>
<g>
	<defs>
		<rect id="SVGID_1_" width="128" height="128"/>
	</defs>
	<clipPath id="SVGID_2_">
		<use xlink:href="#SVGID_1_"  style="overflow:visible;"/>
	</clipPath>
	<g class="st0">
		<rect class="st1" width="128" height="128"/>
		<polygon class="st2" points="33.4,15.6 28.6,12.2 29.8,7.5 36.5,6.3 36.8,11.9 		"/>
		<polygon class="st2" points="17.4,21.7 18.7,24.8 22.2,26.1 25.6,21.9 23.3,18.3 18.8,17.9 		"/>
		<polygon class="st2" points="8.6,57.7 15.3,55.6 15.4,51.8 10.9,49.8 6.7,51.8 		"/>
		<polygon class="st2" points="37.1,26.2 45,27.5 45.4,22.4 42.5,17.5 37.1,19.5 		"/>
		<polygon class="st2" points="49.4,14.2 54.2,15.1 58.1,13 57.1,8.3 51.9,6.8 49.9,10.7 		"/>
		<polygon class="st2" points="28.4,31.9 30.3,35.8 36.6,36.4 37,33.2 35,29.7 30.4,29.8 		"/>
		<polygon class="st2" points="59.1,53.3 57.3,50.2 51.9,49.4 47.4,54.8 50.6,57.5 57,56.6 		"/>
		<polygon class="st2" points="40.2,38 45.5,39.3 46.5,43.1 43,47.1 40.2,46.6 38.3,43.4 		"/>
		<polygon class="st2" points="68.8,23.5 62.2,25.3 58.8,22.6 59.2,19.1 62.3,16.9 66.6,17 		"/>
		<polygon class="st2" points="7.2,32.6 8.8,28.4 14.9,29 12.6,36.4 8.6,34.8 		"/>
		<polygon class="st2" points="20.9,38.8 17.4,40.8 18.6,47.2 25.8,46 25.4,41.1 		"/>
		<polygon class="st2" points="17,66.3 20.7,61.8 24.3,60.6 26.6,64.6 26.6,68.4 21.8,68.8 		"/>
		<polygon class="st2" points="28.6,52 30.9,56.9 36.2,56.7 38.1,51.7 32.9,48.9 		"/>
		<polygon class="st2" points="29.9,77.9 28.9,75.1 34.1,71.7 35.2,74.2 35.6,77.9 32.2,78.4 		"/>
		<polygon class="st2" points="116.9,9.2 113.8,11.5 115.2,14.9 119.8,13.4 120.4,10.7 		"/>
		<polygon class="st2" points="94.6,49.3 101.7,51.7 101.6,55.7 93.4,58.1 91.5,54.5 		"/>
		<polygon class="st2" points="123.3,52.6 120.2,49.4 116,50.2 114.4,54.9 119.4,58.1 		"/>
		<polygon class="st2" points="115.2,77.2 118.5,78.6 121.9,75.5 119,71.5 113.4,72.6 		"/>
		<polygon class="st2" points="112.3,42.1 107.8,39.4 101.1,41.4 100.9,45.2 105.5,47.3 109.7,45.3 		"/>
		<polygon class="st2" points="71.6,51.6 73.9,50.5 77.5,50.3 79,52.5 78.6,55.8 73.3,56.6 70.8,54.2 		"/>
		<polygon class="st2" points="79.3,30.8 75.3,27.9 72.2,31.9 72.4,34.8 76.7,36.7 		"/>
		<polygon class="st2" points="56.3,99.8 57.9,94.8 52.9,93.1 50.1,94.2 49.6,99.1 		"/>
		<polygon class="st2" points="101.7,33.1 100.1,28.5 93.6,28.4 92.9,32.4 94.6,36.4 99.5,35.8 		"/>
		<polygon class="st2" points="106.9,26.7 102.2,23.7 105.2,17.3 111.1,19.7 110.7,25.3 		"/>
		<polygon class="st2" points="119.4,38 114,36.8 113,33 116.5,29 119.4,29.5 121.2,32.7 		"/>
		<polygon class="st2" points="80.2,41 86.9,39.2 90.2,41.8 89.9,45.4 86.7,47.5 82.5,47.4 		"/>
		<polygon class="st2" points="96.8,15.4 99.7,13.8 98.7,8.5 93.6,6.5 92.8,11.6 94.7,15.1 		"/>
		<polygon class="st2" points="76.9,13.1 78.1,9.7 73.7,8.1 71.4,9.7 72.3,14 		"/>
		<polygon class="st2" points="25.6,103.9 26.8,108.8 23.3,111 19.3,111 17.1,107.4 18,102.8 23.1,101.6 		"/>
		<polygon class="st2" points="22.4,89.2 25.8,83.2 22.8,80.9 17.7,82.6 17.2,87.6 		"/>
		<polygon class="st2" points="30.3,121.5 34.4,120.2 36,114.1 32.9,113.2 29.1,114.6 28.5,119.2 		"/>
		<polygon class="st2" points="38.5,65 41.3,60.5 47.3,63.3 45.1,68.8 39.8,68.5 		"/>
		<polygon class="st2" points="56.4,71.9 53.9,70.9 50.2,73 51.4,76.8 54.4,79.2 57.4,74.7 		"/>
		<polygon class="st2" points="38.2,87.4 39.4,82.1 43.2,81 47.2,84.5 46.7,87.4 43.6,89.2 		"/>
		<polygon class="st2" points="13.3,70.9 15.1,77.6 12.4,80.9 8.9,80.6 6.7,77.4 6.8,73.2 		"/>
		<polygon class="st2" points="38,108.2 39.8,111.4 45.5,110.3 47.8,104.8 42.2,103.9 38.3,106 		"/>
		<polygon class="st2" points="55.2,122.4 50.7,118.7 49.5,115.1 53.5,112.8 57.3,112.8 57.7,117.6 		"/>
		<polygon class="st2" points="7.7,99.2 11.5,101.6 14.4,97.9 13.1,92.8 7.7,93.3 		"/>
		<polygon class="st2" points="29.3,97.8 33.9,100.1 35.4,97.6 33.9,93.6 30.3,92.8 		"/>
		<polygon class="st2" points="77.1,100 70.7,99.1 71.7,95.1 72.9,92.6 77.3,92.9 78.9,95.4 		"/>
		<polygon class="st2" points="59.5,66.1 66.6,68.4 68.8,65.9 68.1,60.5 60.7,60.8 		"/>
		<polygon class="st2" points="105.8,60 102.6,63.1 103.4,67.3 108.2,69 111.3,64 		"/>
		<polygon class="st2" points="116.1,91.3 113.8,95.2 115.6,100.9 118.8,101.1 120.6,97.2 118.9,93.6 		"/>
		<polygon class="st2" points="115,122.5 113.7,119.9 113.4,115.5 116,113.7 120,114.2 120.9,120.5 118,123.5 		"/>
		<polygon class="st2" points="103.9,103.7 102.2,108.8 107.3,110.6 110.2,109.4 110.7,104.4 		"/>
		<polygon class="st2" points="74.9,123.5 78,121.6 78.8,116.3 73.4,111.8 70.7,114.9 71.6,121.3 		"/>
		<polygon class="st2" points="90.7,104.6 89.5,110 85.7,111 81.7,107.5 82.2,104.6 85.4,102.8 		"/>
		<polygon class="st2" points="85.1,60 89.9,63 89.3,67 85.5,68.8 81,67 81.3,61.4 		"/>
		<polygon class="st2" points="89.4,90.5 86.8,90.4 81.9,88.3 82.1,82.5 85.9,81.2 89.4,85.2 		"/>
		<polygon class="st2" points="79.7,74.5 77.9,71.4 72.3,72.4 70.1,77.9 75.6,78.7 79.4,76.7 		"/>
		<polygon class="st2" points="63,81.3 66.5,83.3 69,87.1 64.5,90.4 59.8,89.2 59.5,84.4 		"/>
		<polygon class="st2" points="111.7,84.1 105.7,81.6 101.5,84.1 105.8,89.6 110.2,88.1 		"/>
		<g>
			<polygon class="st2" points="133,22.1 130,26.9 123.6,23.9 126,18 131.7,18.4 			"/>
			<polygon class="st2" points="129.2,46.4 131.5,41.8 129,40.3 125,41.8 124.2,45.4 			"/>
			<polygon class="st2" points="128.6,82.4 125.1,83.1 124,87.6 128.6,89.3 132.7,85.3 			"/>
			<polygon class="st2" points="125.5,102.7 124.6,107.4 126.7,111.4 131.3,110.4 132.8,105.2 129,103.2 			"/>
			<polygon class="st2" points="131.2,63.7 127.9,60.9 124.5,63.3 127.3,67.9 130.5,67.9 			"/>
		</g>
		<g>
			<polygon class="st2" points="5,22.1 2,26.9 -4.4,23.9 -2,18 3.7,18.4 			"/>
			<polygon class="st2" points="1.2,46.4 3.5,41.8 1,40.3 -3,41.8 -3.8,45.4 			"/>
			<polygon class="st2" points="0.6,82.4 -2.9,83.1 -4,87.6 0.6,89.3 4.7,85.3 			"/>
			<polygon class="st2" points="-2.5,102.7 -3.4,107.4 -1.3,111.4 3.3,110.4 4.8,105.2 1,103.2 			"/>
			<polygon class="st2" points="3.2,63.7 -0.1,60.9 -3.5,63.3 -0.7,67.9 2.5,67.9 			"/>
		</g>
		<g>
			<polygon class="st2" points="22,133.6 24.4,131.8 25.1,124.8 21.7,123.2 18,126.5 18.2,131.1 			"/>
			<polygon class="st2" points="43.2,132.7 38.5,129.7 41.5,123.3 47.4,125.7 47,131.3 			"/>
			<polygon class="st2" points="64.7,131.7 67.3,128.4 66,125.1 61.2,125.7 61.2,130.4 			"/>
			<polygon class="st2" points="125.3,130.7 124.4,126.9 127.1,125.2 130.2,125.2 131.9,128 132.1,131.6 129.3,131.6 			"/>
			<polygon class="st2" points="-3,130.7 -3.9,126.9 -1.2,125.2 1.9,125.2 3.6,128 3.8,131.6 1,131.6 			"/>
			<polygon class="st2" points="104.4,133.5 102.6,126.9 105.2,123.5 108.8,123.9 110.9,127.1 110.8,131.3 			"/>
			<polygon class="st2" points="87.2,126.1 83.1,125.2 81.6,129.4 83.1,131.6 89.2,131.4 			"/>
		</g>
		<g>
			<polygon class="st2" points="22,5.6 24.4,3.8 25.1,-3.2 21.7,-4.8 18,-1.5 18.2,3.1 			"/>
			<polygon class="st2" points="43.2,4.7 38.5,1.7 41.5,-4.7 47.4,-2.3 47,3.3 			"/>
			<polygon class="st2" points="64.7,3.7 67.3,0.4 66,-2.9 61.2,-2.3 61.2,2.4 			"/>
			<polygon class="st2" points="125.3,2.7 124.4,-1.1 127.1,-2.8 130.2,-2.8 131.9,0 132.1,3.6 129.3,3.6 			"/>
			<polygon class="st2" points="-3,2.7 -3.9,-1.1 -1.2,-2.8 1.9,-2.8 3.6,0 3.8,3.6 1,3.6 			"/>
			<polygon class="st2" points="104.4,5.5 102.6,-1.1 105.2,-4.5 108.8,-4.1 110.9,-0.9 110.8,3.3 			"/>
			<polygon class="st2" points="87.2,-1.9 83.1,-2.8 81.6,1.4 83.1,3.6 89.2,3.4 			"/>
		</g>
		<polygon class="st2" points="99.3,116.6 96,113.3 93.1,117.4 94.7,121.1 99,121.4 		"/>
		<polygon class="st2" points="81.9,22.9 84.9,25.9 87,23.9 88.5,20.4 84,19.2 		"/>
		<polygon class="st2" points="63,104.5 61.6,108 64.7,111.1 66.8,109 66.7,105.7 		"/>
		<polygon class="st2" points="50.2,35.1 55.5,37.2 58.2,33.1 54.2,29.8 51.2,30.8 		"/>
		<polygon class="st2" points="92.8,95.7 95.1,99.7 98,99 98.9,95.7 95.6,93.1 		"/>
		<polygon class="st2" points="7.7,116.8 8.9,120.5 12.7,121.1 14,117.1 11,114.4 		"/>
		<polygon class="st2" points="97,71.6 93.6,72.8 93.8,76.8 97.9,78.5 99.6,74.9 		"/>
		<polygon class="st2" points="60.6,40.6 59.8,45.7 64.1,47.4 68.7,44.3 67.7,39.3 64.1,39.5 		"/>
		<polygon class="st2" points="7.6,8.6 7.6,13.3 12.7,14.5 14.3,11.1 11.7,7.7 		"/>
	</g>
</g>
</svg>
