<?xml version="1.0" encoding="utf-8"?>
<!-- Generator: Adobe Illustrator 19.2.0, SVG Export Plug-In . SVG Version: 6.00 Build 0)  -->
<svg version="1.0" id="Ebene_1" xmlns="http://www.w3.org/2000/svg" xmlns:xlink="http://www.w3.org/1999/xlink" x="0px" y="0px"
	 viewBox="0 0 192 128" style="enable-background:new 0 0 192 128;" xml:space="preserve">
<style type="text/css">
	.st0{clip-path:url(#SVGID_1_);}
	.st1{fill:#CAB39D;}
	.st2{fill:none;stroke:#9D8B72;stroke-width:2;stroke-miterlimit:10;}
	.st3{fill:none;stroke:#9D8B72;stroke-width:3;stroke-miterlimit:10;}
</style>
<g>
	<defs>
		<rect id="SVGID_3_" width="192" height="128"/>
	</defs>
	<use xlink:href="#SVGID_3_"  style="overflow:visible;fill:#CAB39D;"/>
	<clipPath id="SVGID_1_">
		<use xlink:href="#SVGID_3_"  style="overflow:visible;"/>
	</clipPath>
	<g class="st0">
		<rect class="st1" width="192" height="128"/>
		<line class="st2" x1="42" y1="127.1" x2="54" y2="127.1"/>
		<line class="st2" x1="74" y1="127.1" x2="86" y2="127.1"/>
		<line class="st2" x1="26" y1="111" x2="38" y2="111"/>
		<line class="st2" x1="0" y1="111" x2="6" y2="111"/>
		<line class="st2" x1="42" y1="95" x2="54" y2="95"/>
		<line class="st2" x1="26" y1="79" x2="38" y2="79"/>
		<line class="st2" x1="0" y1="79" x2="6" y2="79"/>
		<line class="st2" x1="42" y1="63" x2="54" y2="63"/>
		<line class="st2" x1="42" y1="31" x2="54" y2="31"/>
		<line class="st2" x1="74" y1="63" x2="86" y2="63"/>
		<line class="st2" x1="74" y1="95" x2="86" y2="95"/>
		<line class="st2" x1="26" y1="47" x2="38" y2="47"/>
		<line class="st2" x1="0" y1="47" x2="6" y2="47"/>
		<line class="st2" x1="26" y1="15" x2="38" y2="15"/>
		<line class="st2" x1="0" y1="15" x2="6" y2="15"/>
		<line class="st2" x1="186" y1="111" x2="192" y2="111"/>
		<line class="st2" x1="186" y1="79" x2="192" y2="79"/>
		<line class="st2" x1="186" y1="47" x2="192" y2="47"/>
		<line class="st2" x1="186" y1="15" x2="192" y2="15"/>
		<line class="st2" x1="74.2" y1="31" x2="86.2" y2="31"/>
		<line class="st2" x1="137.9" y1="127.1" x2="149.9" y2="127.1"/>
		<line class="st2" x1="169.9" y1="127.1" x2="181.9" y2="127.1"/>
		<line class="st2" x1="137.9" y1="95" x2="149.9" y2="95"/>
		<line class="st2" x1="137.9" y1="63" x2="149.9" y2="63"/>
		<line class="st2" x1="137.9" y1="31" x2="149.9" y2="31"/>
		<line class="st2" x1="169.9" y1="63" x2="181.9" y2="63"/>
		<line class="st2" x1="169.9" y1="95" x2="181.9" y2="95"/>
		<line class="st2" x1="170.1" y1="31" x2="182.1" y2="31"/>
		<line class="st2" x1="90" y1="111" x2="102" y2="111"/>
		<line class="st2" x1="90" y1="79" x2="102" y2="79"/>
		<line class="st2" x1="90" y1="47" x2="102" y2="47"/>
		<line class="st2" x1="90" y1="15" x2="102" y2="15"/>
		<line class="st2" x1="122" y1="111" x2="134" y2="111"/>
		<line class="st2" x1="122" y1="79" x2="134" y2="79"/>
		<line class="st2" x1="122" y1="47" x2="134" y2="47"/>
		<line class="st2" x1="122" y1="15" x2="134" y2="15"/>
		<polygon class="st3" points="7.1,36.4 10.1,30.2 18.3,26.6 23.8,30.5 24.9,34.2 15.5,37.4 		"/>
		<polygon class="st3" points="103.1,36.4 106.1,30.2 114.3,26.6 119.8,30.5 120.9,34.2 111.5,37.4 		"/>
		<polygon class="st3" points="7.1,68.5 10.1,62.2 18.3,58.7 23.8,62.6 24.9,66.2 15.5,69.4 		"/>
		<polygon class="st3" points="103.1,68.5 106.1,62.2 114.3,58.7 119.8,62.6 120.9,66.2 111.5,69.4 		"/>
		<polygon class="st3" points="7.1,100.4 10.1,94.1 18.3,90.6 23.8,94.5 24.9,98.1 15.5,101.4 		"/>
		<polygon class="st3" points="103.1,100.4 106.1,94.1 114.3,90.6 119.8,94.5 120.9,98.1 111.5,101.4 		"/>
		<polygon class="st3" points="7.1,132.4 10.1,126.2 18.3,122.6 23.8,126.5 24.9,130.2 15.5,133.4 		"/>
		<polygon class="st3" points="103.1,132.4 106.1,126.2 114.3,122.6 119.8,126.5 120.9,130.2 111.5,133.4 		"/>
		<polygon class="st3" points="7.1,4.4 10.1,-1.8 18.3,-5.4 23.8,-1.5 24.9,2.2 15.5,5.4 		"/>
		<polygon class="st3" points="103.1,4.4 106.1,-1.8 114.3,-5.4 119.8,-1.5 120.9,2.2 111.5,5.4 		"/>
		<polygon class="st3" points="55.1,52.4 58.1,46.2 66.3,42.6 71.8,46.5 72.9,50.2 63.5,53.4 		"/>
		<polygon class="st3" points="55.1,84.4 58.1,78.2 66.3,74.6 71.8,78.5 72.9,82.2 63.5,85.4 		"/>
		<polygon class="st3" points="55.1,116.4 58.1,110.2 66.3,106.6 71.8,110.5 72.9,114.2 63.5,117.4 		"/>
		<polygon class="st3" points="55.1,20.4 58.1,14.2 66.3,10.6 71.8,14.5 72.9,18.2 63.5,21.4 		"/>
		<polygon class="st3" points="151.1,52.4 154.1,46.2 162.3,42.6 167.8,46.5 168.9,50.2 159.5,53.4 		"/>
		<polygon class="st3" points="151.1,84.4 154.1,78.2 162.3,74.6 167.8,78.5 168.9,82.2 159.5,85.4 		"/>
		<polygon class="st3" points="151.1,116.4 154.1,110.2 162.3,106.6 167.8,110.5 168.9,114.2 159.5,117.4 		"/>
		<polygon class="st3" points="151.1,20.4 154.1,14.2 162.3,10.6 167.8,14.5 168.9,18.2 159.5,21.4 		"/>
	</g>
</g>
</svg>
