<?xml version="1.0" encoding="utf-8"?>
<!-- Generator: Adobe Illustrator 19.2.0, SVG Export Plug-In . SVG Version: 6.00 Build 0)  -->
<svg version="1.0" id="Ebene_1" xmlns="http://www.w3.org/2000/svg" xmlns:xlink="http://www.w3.org/1999/xlink" x="0px" y="0px"
	 viewBox="0 0 32 32" style="enable-background:new 0 0 32 32;" xml:space="preserve">
<style type="text/css">
	.st0{fill:#CAB39D;}
	.st1{fill:#9D8B72;}
</style>
<rect x="0" class="st0" width="32" height="32"/>
<rect x="20.6" y="4.6" transform="matrix(0.7071 -0.7071 0.7071 0.7071 1.3664 19.2987)" class="st1" width="6.8" height="6.8"/>
<polygon class="st1" points="32,4.7 32,0 27.2,0 32,4.8 "/>
<rect x="20.6" y="20.6" transform="matrix(0.7071 -0.7071 0.7071 0.7071 -9.9473 23.9849)" class="st1" width="6.8" height="6.8"/>
<polygon class="st1" points="32,27.2 32,27.2 27.2,32 32,32 "/>
<rect x="12.6" y="12.7" transform="matrix(0.7071 -0.7071 0.7071 0.7071 -6.6628 15.9969)" class="st1" width="6.8" height="6.8"/>
<polygon class="st1" points="27.2,16 32,20.8 32,20.8 32,11.3 32,11.3 "/>
<polygon class="st1" points="0,10.9 0,21.2 5.1,16 "/>
<rect x="4.3" y="4.3" transform="matrix(0.7071 -0.7071 0.7071 0.7071 -3.3199 7.9849)" class="st1" width="7.4" height="7.4"/>
<polygon class="st1" points="16,27.2 11.2,32 11.3,32 20.8,32 20.8,32 "/>
<polygon class="st1" points="20.8,0 11.2,0 16,4.8 "/>
<polygon class="st1" points="0,0 0,4.8 4.8,0 "/>
<rect x="4.6" y="20.6" transform="matrix(0.7071 -0.7071 0.7071 0.7071 -14.6336 12.6712)" class="st1" width="6.8" height="6.8"/>
<polygon class="st1" points="0.1,27.1 0,27.2 0,32 4.8,32 4.8,31.9 "/>
<rect x="7.5" y="0" class="st1" width="1" height="32"/>
<rect x="23.5" y="0" class="st1" width="1" height="32"/>
<rect x="15.5" y="0" class="st1" width="1" height="32"/>
<path class="st1" d="M0,32h32V0H0V32z M0.5,0.5h31v31h-31V0.5z"/>
</svg>
