<?xml version="1.0" encoding="utf-8"?>
<!-- Generator: Adobe Illustrator 19.2.0, SVG Export Plug-In . SVG Version: 6.00 Build 0)  -->
<svg version="1.0" id="Ebene_1" xmlns="http://www.w3.org/2000/svg" xmlns:xlink="http://www.w3.org/1999/xlink" x="0px" y="0px"
	 viewBox="0 0 32 32" style="enable-background:new 0 0 32 32;" xml:space="preserve">
<style type="text/css">
	.st0{fill:#CAB39D;}
	.st1{fill:none;stroke:#9D8B72;stroke-width:2;stroke-linecap:round;stroke-linejoin:round;stroke-miterlimit:10;}
	.st2{fill:#9D8B72;}
	.st3{fill:none;stroke:#9D8B72;stroke-miterlimit:10;}
</style>
<rect class="st0" width="32" height="32"/>
<g>
	<line class="st1" x1="4" y1="8" x2="12" y2="8"/>
	<line class="st1" x1="4" y1="4" x2="12" y2="4"/>
	<line class="st1" x1="4" y1="12" x2="12" y2="12"/>
</g>
<g>
	<line class="st1" x1="24" y1="4" x2="24" y2="12"/>
	<line class="st1" x1="28" y1="4" x2="28" y2="12"/>
	<line class="st1" x1="20" y1="4" x2="20" y2="12"/>
</g>
<g>
	<line class="st1" x1="28" y1="24" x2="20" y2="24"/>
	<line class="st1" x1="28" y1="28" x2="20" y2="28"/>
	<line class="st1" x1="28" y1="20" x2="20" y2="20"/>
</g>
<g>
	<line class="st1" x1="8" y1="28" x2="8" y2="20"/>
	<line class="st1" x1="4" y1="28" x2="4" y2="20"/>
	<line class="st1" x1="12" y1="28" x2="12" y2="20"/>
</g>
<g>
	<path class="st2" d="M31.5,0.5v31h-31v-31H31.5 M32,0H0v32h32V0L32,0z"/>
</g>
<line class="st3" x1="0" y1="16" x2="32" y2="16"/>
<line class="st3" x1="16" y1="0" x2="16" y2="32"/>
</svg>
