<?xml version="1.0" encoding="utf-8"?>
<!-- Generator: Adobe Illustrator 19.2.0, SVG Export Plug-In . SVG Version: 6.00 Build 0)  -->
<svg version="1.0" id="Ebene_1" xmlns="http://www.w3.org/2000/svg" xmlns:xlink="http://www.w3.org/1999/xlink" x="0px" y="0px"
	 viewBox="0 0 64 64" style="enable-background:new 0 0 64 64;" xml:space="preserve">
<style type="text/css">
	.st0{fill:#C4A891;}
	.st1{fill:#CAB39D;}
	.st2{fill:#9D8B72;}
</style>
<rect class="st0" width="0" height="64"/>
<rect class="st1" width="64" height="64"/>
<path class="st2" d="M63,0h-6h-2h-6h-2h0h0v7h-6V0h0h0h-2h-6h-2h-6h-2h-6h-2h0h0v7H9V0h0H7H0v1h7v6H1l0,0H0l0,0v2v6v2v6v2v6v2l0,0h7
	v6H1H0v2v6v2v8v6v1h7h2h0h0v-7h6v7l0,0h0h2h6h2h6h2h6h2h0h0v-1l0,0v-6h6v7h0h2h14h1v-7v-2v-6v-2v-6v-2h-1h-6v-6h7h0v-2v-6v-2v-6v-2
	V9V7l0,0h-7V1h7h0V0H63z M63,9v6l0,0v8h-6v-8V9H63z M49,23L49,23h-8v-6h8h6v6H49z M17,25h8h6v6h-6l0,0h-8V25z M41,9L41,9h6v6h-6l0,0
	h-8V9H41z M47,39h-6v-6l0,0v-8h6V39z M33,17h6v6l0,0v8h-6v-8l0,0V17z M31,23h-6v-6l0,0V9h6V23z M25,33h14v6h-6h-2h-6V33z M33,47v-6
	h8h6v6h-6h-2H33z M55,15h-6V9l0,0V1h6V15z M23,7v8h-6V7l0,0V1h6V7L23,7z M17,17h6v6h-6l0,0H9v-6H17z M1,25v-8h6v14H1V25L1,25z M9,31
	v-6h6v6l0,0v8H9V31L9,31z M17,41L17,41v-8h6v14h-6V41z M25,47v-6h6v6l0,0v8h-6V47L25,47z M33,57L33,57v-8h6v14h-6V57z M49,39v-6h6v6
	l0,0v8h-6V39L49,39z M49,31v-6h8h6v6h-6l0,0H49z M33,1h6v6h-6l0,0h-8V1H33z M9,9h6v6H9l0,0H1V9H9z M7,41h2h6v6H9H7H1v-6H7z M1,63V49
	h6v6l0,0v8H1z M9,55v-6h6h2h6v6h-6h-2H9z M25,63h-2h-6v-6h6h2h6v6H25z M41,55v-6h8l0,0h6v6h-6h-2H41z M63,63H49v-6h6h2h6V63z M63,41
	v14h-6v-6l0,0v-8H63z"/>
</svg>
