<?xml version="1.0" encoding="utf-8"?>
<!-- Generator: Adobe Illustrator 19.2.0, SVG Export Plug-In . SVG Version: 6.00 Build 0)  -->
<svg version="1.0" id="Ebene_1" xmlns="http://www.w3.org/2000/svg" xmlns:xlink="http://www.w3.org/1999/xlink" x="0px" y="0px"
	 viewBox="0 0 128 128" style="enable-background:new 0 0 128 128;" xml:space="preserve">
<style type="text/css">
	.st0{fill:#CAB39D;}
	.st1{fill:#9D8B72;}
</style>
<rect class="st0" width="128" height="128"/>
<path class="st1" d="M64,75.8c-6.5,0-11.8-5.3-11.8-11.8S57.5,52.2,64,52.2S75.8,57.5,75.8,64S70.5,75.8,64,75.8z M64,53.2
	c-5.9,0-10.8,4.8-10.8,10.8S58.1,74.8,64,74.8S74.8,69.9,74.8,64S69.9,53.2,64,53.2z"/>
<g>
	<rect x="0.1" y="63.6" class="st1" width="2" height="1"/>
	<path class="st1" d="M124,64.6h-4.1v-1h4.1V64.6z M117.9,64.6h-4.1v-1h4.1V64.6z M111.8,64.6h-4.1v-1h4.1V64.6z M105.7,64.6h-4.1
		v-1h4.1V64.6z M99.6,64.6h-4.1v-1h4.1V64.6z M93.5,64.6h-4.1v-1h4.1V64.6z M87.4,64.6h-4.1v-1h4.1V64.6z M81.3,64.6h-4.1v-1h4.1
		V64.6z M75.2,64.6h-4.1v-1h4.1V64.6z M69.1,64.6h-4.1v-1h4.1V64.6z M63,64.6H59v-1H63V64.6z M57,64.6h-4.1v-1H57V64.6z M50.9,64.6
		h-4.1v-1h4.1V64.6z M44.8,64.6h-4.1v-1h4.1V64.6z M38.7,64.6h-4.1v-1h4.1V64.6z M32.6,64.6h-4.1v-1h4.1V64.6z M26.5,64.6h-4.1v-1
		h4.1V64.6z M20.4,64.6h-4.1v-1h4.1V64.6z M14.3,64.6h-4.1v-1h4.1V64.6z M8.2,64.6H4.2v-1h4.1V64.6z"/>
	<rect x="126" y="63.6" class="st1" width="2" height="1"/>
</g>
<path class="st1" d="M64.1,112.6c-26.7,0-48.5-21.8-48.5-48.5s21.8-48.5,48.5-48.5s48.5,21.8,48.5,48.5S90.9,112.6,64.1,112.6z
	 M64.1,16.6c-26.2,0-47.5,21.3-47.5,47.5s21.3,47.5,47.5,47.5s47.5-21.3,47.5-47.5S90.3,16.6,64.1,16.6z"/>
<path class="st1" d="M30.5,128h-1c0-16.3-13.2-29.5-29.5-29.5v-1C16.8,97.5,30.5,111.2,30.5,128z"/>
<path class="st1" d="M25.5,128h-1c0-13.5-11-24.5-24.5-24.5v-1C14.1,102.5,25.5,113.9,25.5,128z"/>
<path class="st1" d="M128,30.5c-16.8,0-30.5-13.7-30.5-30.5h1c0,16.3,13.2,29.5,29.5,29.5V30.5z"/>
<path class="st1" d="M128,25.5c-14.1,0-25.5-11.4-25.5-25.5h1c0,13.5,11,24.5,24.5,24.5V25.5z"/>
<path class="st1" d="M98.5,128h-1c0-16.8,13.7-30.5,30.5-30.5v1C111.7,98.5,98.5,111.7,98.5,128z"/>
<path class="st1" d="M103.5,128h-1c0-14.1,11.4-25.5,25.5-25.5v1C114.5,103.5,103.5,114.5,103.5,128z"/>
<path class="st1" d="M0,30.5v-1c16.3,0,29.5-13.2,29.5-29.5h1C30.5,16.8,16.8,30.5,0,30.5z"/>
<path class="st1" d="M0,25.5v-1c13.5,0,24.5-11,24.5-24.5h1C25.5,14.1,14.1,25.5,0,25.5z"/>
<path class="st1" d="M0,20.5v-1c10.8,0,19.5-8.7,19.5-19.5h1C20.5,11.3,11.3,20.5,0,20.5z"/>
<path class="st1" d="M128,20.5c-11.3,0-20.5-9.2-20.5-20.5h1c0,10.8,8.7,19.5,19.5,19.5V20.5z"/>
<path class="st1" d="M108.5,128h-1c0-11.3,9.2-20.5,20.5-20.5v1C117.2,108.5,108.5,117.2,108.5,128z"/>
<path class="st1" d="M20.5,128h-1c0-10.8-8.7-19.5-19.5-19.5v-1C11.3,107.5,20.5,116.7,20.5,128z"/>
</svg>
