<?xml version="1.0" encoding="utf-8"?>
<!-- Generator: Adobe Illustrator 19.2.0, SVG Export Plug-In . SVG Version: 6.00 Build 0)  -->
<svg version="1.0" id="Ebene_1" xmlns="http://www.w3.org/2000/svg" xmlns:xlink="http://www.w3.org/1999/xlink" x="0px" y="0px"
	 viewBox="0 0 64 40" style="enable-background:new 0 0 64 40;" xml:space="preserve">
<style type="text/css">
	.st0{fill:#CAB39D;}
	.st1{fill:#9D8B72;}
	.st2{fill:none;}
</style>
<rect y="0" class="st0" width="64" height="40"/>
<path class="st1" d="M32,13.5c-3.6,0-6.5,2.9-6.5,6.5h3c0-1.9,1.6-3.5,3.5-3.5s3.5,1.6,3.5,3.5h3C38.5,16.4,35.6,13.5,32,13.5z"/>
<path class="st1" d="M3.5,20h3c0-3.6-2.9-6.5-6.5-6.5v3C1.9,16.5,3.5,18.1,3.5,20z"/>
<path class="st1" d="M16,33.5c-3.6,0-6.5,2.9-6.5,6.5h3c0-1.9,1.6-3.5,3.5-3.5s3.5,1.6,3.5,3.5h3C22.5,36.4,19.6,33.5,16,33.5z"/>
<path class="st1" d="M48,33.5c-3.6,0-6.5,2.9-6.5,6.5h3c0-1.9,1.6-3.5,3.5-3.5s3.5,1.6,3.5,3.5h3C54.5,36.4,51.6,33.5,48,33.5z"/>
<path class="st1" d="M8,3.5c-3.6,0-6.5,2.9-6.5,6.5h3c0-1.9,1.6-3.5,3.5-3.5s3.5,1.6,3.5,3.5h3C14.5,6.4,11.6,3.5,8,3.5z"/>
<path class="st1" d="M40,3.5c-3.6,0-6.5,2.9-6.5,6.5h3c0-1.9,1.6-3.5,3.5-3.5s3.5,1.6,3.5,3.5h3C46.5,6.4,43.6,3.5,40,3.5z"/>
<path class="st1" d="M24,3.5c-3.6,0-6.5,2.9-6.5,6.5h3c0-1.9,1.6-3.5,3.5-3.5s3.5,1.6,3.5,3.5h3C30.5,6.4,27.6,3.5,24,3.5z"/>
<path class="st1" d="M56,3.5c-3.6,0-6.5,2.9-6.5,6.5h3c0-1.9,1.6-3.5,3.5-3.5s3.5,1.6,3.5,3.5h3C62.5,6.4,59.6,3.5,56,3.5z"/>
<path class="st1" d="M8,23.5c-3.6,0-6.5,2.9-6.5,6.5h3c0-1.9,1.6-3.5,3.5-3.5s3.5,1.6,3.5,3.5h3C14.5,26.4,11.6,23.5,8,23.5z"/>
<path class="st1" d="M40,23.5c-3.6,0-6.5,2.9-6.5,6.5h3c0-1.9,1.6-3.5,3.5-3.5s3.5,1.6,3.5,3.5h3C46.5,26.4,43.6,23.5,40,23.5z"/>
<path class="st1" d="M24,23.5c-3.6,0-6.5,2.9-6.5,6.5h3c0-1.9,1.6-3.5,3.5-3.5s3.5,1.6,3.5,3.5h3C30.5,26.4,27.6,23.5,24,23.5z"/>
<path class="st1" d="M56,23.5c-3.6,0-6.5,2.9-6.5,6.5h3c0-1.9,1.6-3.5,3.5-3.5s3.5,1.6,3.5,3.5h3C62.5,26.4,59.6,23.5,56,23.5z"/>
<rect x="12.8" y="16" transform="matrix(0.7071 -0.7071 0.7071 0.7071 -6.5102 18.2813)" class="st1" width="12" height="2"/>
<rect x="7.2" y="16" transform="matrix(0.7071 -0.7071 0.7071 0.7071 -8.1649 14.2866)" class="st1" width="12" height="2"/>
<rect x="44.8" y="16" transform="matrix(0.7071 -0.7071 0.7071 0.7071 2.8662 40.9187)" class="st1" width="12" height="2"/>
<rect x="39.2" y="16" transform="matrix(0.7071 -0.7071 0.7071 0.7071 1.2116 36.924)" class="st1" width="12" height="2"/>
<polygon class="st1" points="63.3,1.9 64,1.2 64,0 62.4,0 61.9,0.5 "/>
<polygon class="st1" points="57.6,1.9 59.6,0 56.8,0 56.2,0.5 "/>
<polygon class="st1" points="31.3,1.9 33.2,0 30.4,0 29.9,0.5 "/>
<polygon class="st1" points="25.6,1.9 27.6,0 24.8,0 24.2,0.5 "/>
<polygon class="st1" points="38.4,32 30.4,40 33.2,40 39.8,33.5 "/>
<polygon class="st1" points="32.7,32 24.8,40 27.6,40 34.1,33.5 "/>
<polygon class="st1" points="64,38.4 62.4,40 64,40 "/>
<polygon class="st1" points="64,32.8 56.8,40 59.6,40 64,35.6 "/>
<polygon class="st1" points="6.4,32 0,38.4 0,40 1.2,40 7.8,33.5 "/>
<polygon class="st1" points="0.7,32 0,32.8 0,35.6 2.1,33.5 "/>
<polygon class="st1" points="0,0 0,1.2 1.2,0 "/>
<rect y="0" class="st2" width="64" height="40"/>
<rect y="0" class="st2" width="64" height="40"/>
<path class="st1" d="M57.5,20h3c0-1.9,1.6-3.5,3.5-3.5c0,0,0,0,0,0v-3c0,0,0,0,0,0C60.4,13.5,57.5,16.4,57.5,20z"/>
</svg>
