<?xml version="1.0" encoding="utf-8"?>
<!-- Generator: Adobe Illustrator 19.2.0, SVG Export Plug-In . SVG Version: 6.00 Build 0)  -->
<svg version="1.0" id="Ebene_1" xmlns="http://www.w3.org/2000/svg" xmlns:xlink="http://www.w3.org/1999/xlink" x="0px" y="0px"
	 viewBox="0 0 64 40" style="enable-background:new 0 0 64 40;" xml:space="preserve">
<style type="text/css">
	.st0{fill:#CAB39D;}
	.st1{fill:#9D8B72;}
</style>
<rect class="st0" width="64" height="40"/>
<path class="st1" d="M8.2,3.5c-3.6,0-6.5,2.9-6.5,6.5h3c0-1.9,1.6-3.5,3.5-3.5s3.5,1.6,3.5,3.5h3C14.7,6.4,11.7,3.5,8.2,3.5z"/>
<path class="st1" d="M8,23.5c-3.6,0-6.5,2.9-6.5,6.5h3c0-1.9,1.6-3.5,3.5-3.5s3.5,1.6,3.5,3.5h3C14.5,26.4,11.6,23.5,8,23.5z"/>
<path class="st1" d="M40.1,3.5c-3.6,0-6.5,2.9-6.5,6.5h3c0-1.9,1.6-3.5,3.5-3.5s3.5,1.6,3.5,3.5h3C46.6,6.4,43.7,3.5,40.1,3.5z"/>
<path class="st1" d="M24,3.5c-3.6,0-6.5,2.9-6.5,6.5h3c0-1.9,1.6-3.5,3.5-3.5s3.5,1.6,3.5,3.5h3C30.5,6.4,27.6,3.5,24,3.5z"/>
<path class="st1" d="M32,13.5c-3.6,0-6.5,2.9-6.5,6.5h3c0-1.9,1.6-3.5,3.5-3.5s3.5,1.6,3.5,3.5h3C38.5,16.4,35.6,13.5,32,13.5z"/>
<path class="st1" d="M16,13.5c-3.6,0-6.5,2.9-6.5,6.5h3c0-1.9,1.6-3.5,3.5-3.5s3.5,1.6,3.5,3.5h3C22.5,16.4,19.6,13.5,16,13.5z"/>
<path class="st1" d="M3.5,20h3c0-3.6-2.9-6.5-6.5-6.5v3C1.9,16.5,3.5,18.1,3.5,20z"/>
<path class="st1" d="M57.5,20h3c0-1.9,1.6-3.5,3.5-3.5v-3C60.4,13.5,57.5,16.4,57.5,20z"/>
<path class="st1" d="M48,13.5c-3.6,0-6.5,2.9-6.5,6.5h3c0-1.9,1.6-3.5,3.5-3.5s3.5,1.6,3.5,3.5h3C54.5,16.4,51.6,13.5,48,13.5z"/>
<path class="st1" d="M32,33.5c-3.6,0-6.5,2.9-6.5,6.5h3c0-1.9,1.6-3.5,3.5-3.5s3.5,1.6,3.5,3.5h3C38.5,36.4,35.6,33.5,32,33.5z"/>
<path class="st1" d="M16,33.5c-3.6,0-6.5,2.9-6.5,6.5h3c0-1.9,1.6-3.5,3.5-3.5s3.5,1.6,3.5,3.5h3C22.5,36.4,19.6,33.5,16,33.5z"/>
<path class="st1" d="M0,33.5v3c1.9,0,3.5,1.6,3.5,3.5h3C6.5,36.4,3.6,33.5,0,33.5z"/>
<path class="st1" d="M57.5,40h3c0-1.9,1.6-3.5,3.5-3.5v-3C60.4,33.5,57.5,36.4,57.5,40z"/>
<path class="st1" d="M48,33.5c-3.6,0-6.5,2.9-6.5,6.5h3c0-1.9,1.6-3.5,3.5-3.5s3.5,1.6,3.5,3.5h3C54.5,36.4,51.6,33.5,48,33.5z"/>
<path class="st1" d="M56,3.5c-3.6,0-6.5,2.9-6.5,6.5h3c0-1.9,1.6-3.5,3.5-3.5s3.5,1.6,3.5,3.5h3C62.5,6.4,59.6,3.5,56,3.5z"/>
<path class="st1" d="M24,23.5c-3.6,0-6.5,2.9-6.5,6.5h3c0-1.9,1.6-3.5,3.5-3.5s3.5,1.6,3.5,3.5h3C30.5,26.4,27.6,23.5,24,23.5z"/>
<path class="st1" d="M56,23.5c-3.6,0-6.5,2.9-6.5,6.5h3c0-1.9,1.6-3.5,3.5-3.5s3.5,1.6,3.5,3.5h3C62.5,26.4,59.6,23.5,56,23.5z"/>
<path class="st1" d="M40.1,23.5c-3.6,0-6.5,2.9-6.5,6.5h3c0-1.9,1.6-3.5,3.5-3.5s3.5,1.6,3.5,3.5h3C46.6,26.4,43.7,23.5,40.1,23.5z"
	/>
</svg>
