<?xml version="1.0" encoding="utf-8"?>
<!-- Generator: Adobe Illustrator 19.2.0, SVG Export Plug-In . SVG Version: 6.00 Build 0)  -->
<svg version="1.0" id="Ebene_1" xmlns="http://www.w3.org/2000/svg" xmlns:xlink="http://www.w3.org/1999/xlink" x="0px" y="0px"
	 viewBox="0 0 64 40" style="enable-background:new 0 0 64 40;" xml:space="preserve">
<style type="text/css">
	.st0{fill:#CAB39D;}
	.st1{fill:#9D8B72;}
</style>
<rect class="st0" width="64" height="40"/>
<path class="st1" d="M8.2,3.5c-3.6,0-6.5,2.9-6.5,6.5h3c0-1.9,1.6-3.5,3.5-3.5s3.5,1.6,3.5,3.5h3C14.7,6.4,11.7,3.5,8.2,3.5z"/>
<path class="st1" d="M8,23.5c-3.6,0-6.5,2.9-6.5,6.5h3c0-1.9,1.6-3.5,3.5-3.5s3.5,1.6,3.5,3.5h3C14.5,26.4,11.6,23.5,8,23.5z"/>
<path class="st1" d="M40.1,3.5c-3.6,0-6.5,2.9-6.5,6.5h3c0-1.9,1.6-3.5,3.5-3.5s3.5,1.6,3.5,3.5h3C46.6,6.4,43.7,3.5,40.1,3.5z"/>
<path class="st1" d="M24,3.5c-3.6,0-6.5,2.9-6.5,6.5h3c0-1.9,1.6-3.5,3.5-3.5s3.5,1.6,3.5,3.5h3C30.5,6.4,27.6,3.5,24,3.5z"/>
<path class="st1" d="M32,13.5c-3.6,0-6.5,2.9-6.5,6.5h3c0-1.9,1.6-3.5,3.5-3.5s3.5,1.6,3.5,3.5h3C38.5,16.4,35.6,13.5,32,13.5z"/>
<path class="st1" d="M3.5,20h3c0-3.6-2.9-6.5-6.5-6.5v3C1.9,16.5,3.5,18.1,3.5,20z"/>
<path class="st1" d="M57.5,20h3c0-1.9,1.6-3.5,3.5-3.5v-3C60.4,13.5,57.5,16.4,57.5,20z"/>
<path class="st1" d="M16,33.5c-3.6,0-6.5,2.9-6.5,6.5h3c0-1.9,1.6-3.5,3.5-3.5s3.5,1.6,3.5,3.5h3C22.5,36.4,19.6,33.5,16,33.5z"/>
<path class="st1" d="M48,33.5c-3.6,0-6.5,2.9-6.5,6.5h3c0-1.9,1.6-3.5,3.5-3.5s3.5,1.6,3.5,3.5h3C54.5,36.4,51.6,33.5,48,33.5z"/>
<path class="st1" d="M56,3.5c-3.6,0-6.5,2.9-6.5,6.5h3c0-1.9,1.6-3.5,3.5-3.5s3.5,1.6,3.5,3.5h3C62.5,6.4,59.6,3.5,56,3.5z"/>
<path class="st1" d="M24,23.5c-3.6,0-6.5,2.9-6.5,6.5h3c0-1.9,1.6-3.5,3.5-3.5s3.5,1.6,3.5,3.5h3C30.5,26.4,27.6,23.5,24,23.5z"/>
<path class="st1" d="M56,23.5c-3.6,0-6.5,2.9-6.5,6.5h3c0-1.9,1.6-3.5,3.5-3.5s3.5,1.6,3.5,3.5h3C62.5,26.4,59.6,23.5,56,23.5z"/>
<path class="st1" d="M40.1,23.5c-3.6,0-6.5,2.9-6.5,6.5h3c0-1.9,1.6-3.5,3.5-3.5s3.5,1.6,3.5,3.5h3C46.6,26.4,43.7,23.5,40.1,23.5z"
	/>
<polygon class="st1" points="0,35.4 0,37.4 0.5,37.4 2.9,40 5.7,40 1.5,35.5 "/>
<polygon class="st1" points="60.9,39.8 62.6,37.2 64,37.4 64,35.4 61.6,35.1 58.4,40 61.2,40 "/>
<polygon class="st1" points="5.9,0.2 5.7,0 2.9,0 3.1,0.1 0.8,2.3 0,1.8 0,4.2 1,4.9 "/>
<polygon class="st1" points="61.2,0 58.4,0 58.1,0.4 64,4.2 64,1.8 "/>
<path class="st1" d="M12.4,13.8L11.8,20l4.7,2.3l3.7-4.1l-1.4-4.7L12.4,13.8z M16,19.9l-2.1-1l0.3-3.1l3.1-0.1l0.6,2.1L16,19.9z"/>
<polygon class="st1" points="34.9,35.7 31.1,34.5 28,37 27.1,40 29.2,40 29.8,38.2 31.5,36.7 33.8,37.5 35.4,39.2 34.4,40 37.5,40 
	38.3,39.3 "/>
<polygon class="st1" points="31,4.1 35.2,1.9 37.5,0 34.4,0 34.2,0.2 31.2,1.8 29.1,0.3 29.2,0 27.1,0 26.8,1.1 "/>
<path class="st1" d="M43.3,18.6l4.3,4.3l2.9-2.9l2.1-4.7l-6.4-1.8L43.3,18.6z M49.9,16.6l-1,2.2L47.6,20l-1.8-1.8l1.4-2.4L49.9,16.6
	z"/>
</svg>
