<?xml version="1.0" encoding="utf-8"?>
<!-- Generator: Adobe Illustrator 19.2.0, SVG Export Plug-In . SVG Version: 6.00 Build 0)  -->
<svg version="1.0" id="Ebene_1" xmlns="http://www.w3.org/2000/svg" xmlns:xlink="http://www.w3.org/1999/xlink" x="0px" y="0px"
	 viewBox="0 0 128 128" style="enable-background:new 0 0 128 128;" xml:space="preserve">
<style type="text/css">
	.st0{clip-path:url(#SVGID_2_);fill:#CAB39D;}
	.st1{clip-path:url(#SVGID_2_);fill:none;stroke:#9D8B72;stroke-width:3;stroke-miterlimit:10;}
</style>
<g>
	<defs>
		<rect id="SVGID_1_" width="128" height="128"/>
	</defs>
	<use xlink:href="#SVGID_1_"  style="overflow:visible;fill:#CAB39D;"/>
	<clipPath id="SVGID_2_">
		<use xlink:href="#SVGID_1_"  style="overflow:visible;"/>
	</clipPath>
	<rect class="st0" width="128" height="128"/>
	<polygon class="st1" points="7.1,36.4 10.1,30.2 18.3,26.6 23.8,30.5 24.9,34.2 15.5,37.4 	"/>
	<polygon class="st1" points="103.1,68.5 106.1,62.2 114.3,58.7 119.8,62.6 120.9,66.2 111.5,69.4 	"/>
	<polygon class="st1" points="7.1,100.4 10.1,94.1 18.3,90.6 23.8,94.5 24.9,98.1 15.5,101.4 	"/>
	<polygon class="st1" points="103.1,132.4 106.1,126.2 114.3,122.6 119.8,126.5 120.9,130.2 111.5,133.4 	"/>
	<polygon class="st1" points="103.1,4.4 106.1,-1.8 114.3,-5.4 119.8,-1.5 120.9,2.2 111.5,5.4 	"/>
	<polygon class="st1" points="55.1,84.4 58.1,78.2 66.3,74.6 71.8,78.5 72.9,82.2 63.5,85.4 	"/>
	<polygon class="st1" points="55.1,20.4 58.1,14.2 66.3,10.6 71.8,14.5 72.9,18.2 63.5,21.4 	"/>
	<polygon class="st1" points="26,16.8 29.9,23.6 36.4,23.6 40.1,16.8 36.1,11.3 27.1,12.1 	"/>
	<polygon class="st1" points="24,50.1 29.2,54.7 37.2,52.3 40.1,45 37.2,42.1 29.2,41.3 	"/>
	<polygon class="st1" points="26,79.3 29.9,86.2 36.4,86.2 40.1,79.3 36.1,73.8 27.1,74.7 	"/>
	<polygon class="st1" points="43.2,114.1 38,118.7 30,116.3 26,111 30,106.1 38,105.3 	"/>
	<polygon class="st1" points="45.2,-6.1 40,1.3 45.2,6.1 51.2,6.1 54,2.3 53.4,-6.1 	"/>
	<polygon class="st1" points="45.2,121.9 40,129.3 45.2,134 51.2,134 54,130.3 53.4,121.9 	"/>
	<polygon class="st1" points="41,28.9 43.8,36.6 50.8,39.2 55.9,31.2 49.5,25.9 	"/>
	<polygon class="st1" points="-7.5,108.4 -4.7,116.1 2.3,118.7 7.5,110.7 1,105.4 	"/>
	<polygon class="st1" points="120.5,108.4 123.3,116.1 130.3,118.7 135.5,110.7 129,105.4 	"/>
	<polygon class="st1" points="45.2,70.1 40,62.7 45.2,57.9 51.2,57.9 54,61.7 53.4,70.1 	"/>
	<polygon class="st1" points="92.4,118.9 87.2,111.5 92.4,106.8 98.4,106.8 101.2,110.5 100.6,118.9 	"/>
	<polygon class="st1" points="41,92.4 43.8,100.1 50.8,102.7 55.9,94.7 48,88 	"/>
	<polygon class="st1" points="74.2,29.2 82.8,23.6 88,28.2 88,33 82.5,40.5 74.2,38.5 	"/>
	<polygon class="st1" points="19.2,57 24.8,65.6 20.2,70.8 15.4,70.8 8,65.3 10,57 	"/>
	<polygon class="st1" points="82.8,121.1 88.4,129.7 83.8,134.9 79,134.9 71.5,129.4 73.5,121.1 	"/>
	<polygon class="st1" points="82.8,-6.9 88.4,1.7 83.8,6.9 79,6.9 71.5,1.5 73.5,-6.9 	"/>
	<polygon class="st1" points="72.2,59.6 81.2,56.8 88.5,63 85,70.7 73.2,70.2 69.5,63 	"/>
	<polygon class="st1" points="56,51.3 62.7,54.7 72,49.2 68.8,41.3 61.5,41.3 55.1,48 	"/>
	<polygon class="st1" points="-7.5,19.3 -0.9,22.7 8.5,17.2 5.3,9.3 -2,9.3 -8.5,16 	"/>
	<polygon class="st1" points="120.5,19.3 127.1,22.7 136.5,17.2 133.3,9.3 126,9.3 119.5,16 	"/>
	<polygon class="st1" points="74,97.3 79,103.3 86,102 90,95 83.3,88 74,92 	"/>
	<polygon class="st1" points="-8,49.7 -3,55.7 4,54.3 8,47.3 1.3,40.3 -8,44.3 	"/>
	<polygon class="st1" points="122,49.7 127,55.7 134,54.3 138,47.3 131.4,40.3 122,44.3 	"/>
	<polygon class="st1" points="55.9,110.3 59,114.7 69.4,117.4 72.9,110.7 66.5,104 59,105.3 	"/>
	<polygon class="st1" points="93.2,9.3 88.7,13.5 89.5,20.8 95.5,22.7 103.3,17.3 102.2,11.3 	"/>
	<polygon class="st1" points="-2.8,73.3 -7.3,77.5 -6.5,84.8 -0.5,86.7 7.3,81.3 6.2,75.3 	"/>
	<polygon class="st1" points="125.2,73.3 120.7,77.5 121.5,84.8 127.5,86.7 135.3,81.3 134.2,75.3 	"/>
	<polygon class="st1" points="92.8,72 90,77.5 92.8,85.4 99,85.4 104,81.2 100.8,72 	"/>
	<polygon class="st1" points="93.9,42 88.9,45.7 87.1,50 92.3,54 104.9,49.5 104.2,44.7 	"/>
	<polygon class="st1" points="13.9,122 8.9,125.7 7.1,130 12.3,134 24.9,129.5 24.2,124.7 	"/>
	<polygon class="st1" points="13.9,-6 8.9,-2.3 7.1,2 12.3,6 24.9,1.5 24.2,-3.3 	"/>
	<polygon class="st1" points="110,23.3 104,29.8 107,35.3 116.6,36.6 120.9,29.9 120,24 	"/>
	<polygon class="st1" points="109.8,88 104,93.2 104.9,100.6 113.8,101.4 120.9,96 115,86.7 	"/>
</g>
</svg>
