<?xml version="1.0" encoding="utf-8"?>
<!-- Generator: Adobe Illustrator 19.2.0, SVG Export Plug-In . SVG Version: 6.00 Build 0)  -->
<svg version="1.0" id="Ebene_1" xmlns="http://www.w3.org/2000/svg" xmlns:xlink="http://www.w3.org/1999/xlink" x="0px" y="0px"
	 viewBox="0 0 64 48" style="enable-background:new 0 0 64 48;" xml:space="preserve">
<style type="text/css">
	.st0{fill:#9D8B72;}
	.st1{fill:none;stroke:#CAB39D;stroke-linecap:round;stroke-miterlimit:10;stroke-dasharray:1,8,2,8;}
	.st2{fill:none;stroke:#CAB39D;stroke-linecap:round;stroke-miterlimit:10;}
	.st3{fill:none;stroke:#CAB39D;stroke-linecap:round;stroke-miterlimit:10;stroke-dasharray:0.8873,7.0986;}
	.st4{fill:none;stroke:#CAB39D;stroke-linecap:round;stroke-miterlimit:10;stroke-dasharray:0.8873,7.0986,0.8873,7.0986;}
	.st5{fill:none;stroke:#CAB39D;stroke-linecap:round;stroke-miterlimit:10;stroke-dasharray:2,8,1,8;}
	.st6{fill:none;stroke:#CAB39D;stroke-linecap:round;stroke-miterlimit:10;stroke-dasharray:1.1273,9.0182;}
	.st7{fill:none;stroke:#CAB39D;stroke-linecap:round;stroke-miterlimit:10;stroke-dasharray:2.2545,9.0182,1.1273,9.0182;}
</style>
<rect class="st0" width="64" height="48"/>
<line class="st1" x1="0" y1="16" x2="64" y2="16"/>
<g>
	<g>
		<line class="st2" x1="0" y1="8" x2="0.5" y2="8"/>
		<line class="st3" x1="7.6" y1="8" x2="12" y2="8"/>
		<line class="st4" x1="15.6" y1="8" x2="60" y2="8"/>
		<line class="st2" x1="63.5" y1="8" x2="64" y2="8"/>
	</g>
</g>
<line class="st5" x1="0" y1="32" x2="64" y2="32"/>
<g>
	<g>
		<line class="st2" x1="0" y1="24" x2="0.5" y2="24"/>
		<line class="st3" x1="7.6" y1="24" x2="12" y2="24"/>
		<line class="st4" x1="15.6" y1="24" x2="60" y2="24"/>
		<line class="st2" x1="63.5" y1="24" x2="64" y2="24"/>
	</g>
</g>
<g>
	<g>
		<line class="st2" x1="0" y1="48" x2="1" y2="48"/>
		<line class="st6" x1="10" y1="48" x2="15.7" y2="48"/>
		<line class="st7" x1="20.2" y1="48" x2="58.5" y2="48"/>
		<line class="st2" x1="63" y1="48" x2="64" y2="48"/>
	</g>
</g>
<g>
	<g>
		<line class="st2" x1="0" y1="0" x2="1" y2="0"/>
		<line class="st6" x1="10" y1="0" x2="15.7" y2="0"/>
		<line class="st7" x1="20.2" y1="0" x2="58.5" y2="0"/>
		<line class="st2" x1="63" y1="0" x2="64" y2="0"/>
	</g>
</g>
<g>
	<g>
		<line class="st2" x1="0" y1="40" x2="0.5" y2="40"/>
		<line class="st3" x1="7.6" y1="40" x2="12" y2="40"/>
		<line class="st4" x1="15.6" y1="40" x2="60" y2="40"/>
		<line class="st2" x1="63.5" y1="40" x2="64" y2="40"/>
	</g>
</g>
</svg>
