<?xml version="1.0" encoding="utf-8"?>
<!-- Generator: Adobe Illustrator 19.2.0, SVG Export Plug-In . SVG Version: 6.00 Build 0)  -->
<svg version="1.0" id="Ebene_1" xmlns="http://www.w3.org/2000/svg" xmlns:xlink="http://www.w3.org/1999/xlink" x="0px" y="0px"
	 viewBox="0 0 32 32" style="enable-background:new 0 0 32 32;" xml:space="preserve">
<style type="text/css">
	.st0{fill:#CAB39D;}
	.st1{fill:#9D8B72;}
</style>
<rect class="st0" width="32" height="32"/>
<path class="st1" d="M16.9,20.2l0,11.8h14.1l0-11.9L24,12.2L16.9,20.2z M28.1,21.3l0,7.7H25v-3.8h-2V29h-3.1l0-7.7l4.1-4.6
	L28.1,21.3z"/>
<path class="st1" d="M1.1,16h14.1l0-12.7L11.8,0H4.5L1.1,3.4L1.1,16z M4.1,4.6l4.1-4l4,4l0,8.4H9.1V9.3h-2V13H4.1L4.1,4.6z"/>
<polygon class="st1" points="4.5,32 11.8,32 8.1,28.4 "/>
</svg>
