<?xml version="1.0" encoding="utf-8"?>
<!-- Generator: Adobe Illustrator 19.2.0, SVG Export Plug-In . SVG Version: 6.00 Build 0)  -->
<svg version="1.0" id="Ebene_1" xmlns="http://www.w3.org/2000/svg" xmlns:xlink="http://www.w3.org/1999/xlink" x="0px" y="0px"
	 viewBox="0 0 96 42.1" style="enable-background:new 0 0 96 42.1;" xml:space="preserve">
<style type="text/css">
	.st0{fill:#CAB39D;}
	.st1{fill:#9D8B72;}
</style>
<polygon class="st0" points="0,42.1 96,42.1 0,42.1 "/>
<rect x="0" y="0" class="st0" width="96" height="42.1"/>
<path class="st1" d="M53,3.3l-0.2,0.1C52.2,3.5,51.9,4,52,4.6c0.1,0.4,0.5,0.7,1,0.7c0.1,0,0.2,0,0.3,0l0.3-0.1
	C54,5.1,54.3,4.5,54.2,4C54,3.5,53.5,3.1,53,3.3z"/>
<path class="st1" d="M48.7,4.1l-0.2,0c-0.5,0.1-0.9,0.6-0.9,1.1c0.1,0.5,0.5,0.9,1,0.9c0,0,0.1,0,0.1,0l0.3,0
	C49.5,6,49.9,5.5,49.8,5C49.8,4.4,49.3,4.1,48.7,4.1z"/>
<path class="st1" d="M60.3,1.5C60.5,1.8,60.8,2,61.2,2c0.2,0,0.3,0,0.5-0.1l0.2-0.1c0.5-0.3,0.6-0.9,0.4-1.4C62.2,0.2,62.1,0.1,62,0
	h-1.1l-0.2,0.1C60.2,0.4,60,1,60.3,1.5z"/>
<path class="st1" d="M57,1.9L56.8,2c-0.5,0.2-0.8,0.8-0.5,1.3c0.2,0.4,0.5,0.6,0.9,0.6c0.1,0,0.3,0,0.4-0.1l0.2-0.1
	c0.5-0.2,0.7-0.8,0.5-1.3C58.1,1.9,57.5,1.7,57,1.9z"/>
<path class="st1" d="M31.8,2l-0.2-0.1c-0.5-0.2-1.1,0-1.3,0.5c-0.2,0.5,0,1.1,0.5,1.3L31,3.8c0.1,0.1,0.3,0.1,0.4,0.1
	c0.4,0,0.8-0.2,0.9-0.6C32.5,2.8,32.3,2.2,31.8,2z"/>
<path class="st1" d="M35.9,3.3l-0.2-0.1c-0.5-0.1-1.1,0.2-1.2,0.7c-0.1,0.5,0.2,1.1,0.7,1.2l0.3,0.1c0.1,0,0.2,0,0.3,0
	c0.4,0,0.8-0.3,1-0.7C36.7,4,36.4,3.5,35.9,3.3z"/>
<path class="st1" d="M40.1,4.2l-0.3,0c-0.5-0.1-1.1,0.3-1.1,0.9C38.7,5.5,39,6,39.6,6.1l0.3,0c0,0,0.1,0,0.1,0c0.5,0,0.9-0.4,1-0.9
	C41,4.7,40.7,4.2,40.1,4.2z"/>
<path class="st1" d="M26.3,0.3c-0.3,0.5-0.1,1.1,0.4,1.4l0.2,0.1c0.2,0.1,0.3,0.1,0.5,0.1c0.3,0,0.7-0.2,0.9-0.5
	c0.3-0.5,0.1-1.1-0.4-1.4L27.8,0h-1.1C26.5,0.1,26.4,0.2,26.3,0.3z"/>
<path class="st1" d="M44.4,4.4h-0.3c-0.6,0-1,0.4-1,1s0.4,1,1,1h0.3c0.6,0,1-0.4,1-1S45,4.4,44.4,4.4z"/>
<g>
	<path class="st1" d="M75,1.1l-0.2,0.1c-0.5,0.3-0.6,0.9-0.4,1.4c0.2,0.3,0.5,0.5,0.9,0.5c0.2,0,0.3,0,0.5-0.1L76,2.9
		c0.5-0.3,0.6-0.9,0.4-1.4C76.1,1,75.5,0.9,75,1.1z"/>
	<path class="st1" d="M78.4,0.5c0.2,0.4,0.5,0.6,0.9,0.6c0.1,0,0.3,0,0.4-0.1L79.9,1c0.4-0.2,0.6-0.6,0.6-1h-2.2
		C78.3,0.2,78.3,0.4,78.4,0.5z"/>
	<path class="st1" d="M71.2,3.7L71,3.8c-0.4,0.3-0.5,1-0.2,1.4c0.2,0.3,0.5,0.4,0.8,0.4c0.2,0,0.4-0.1,0.6-0.2l0.2-0.2
		c0.4-0.3,0.5-1,0.2-1.4C72.3,3.4,71.6,3.3,71.2,3.7z"/>
	<path class="st1" d="M67.7,6.7L67.7,6.7c-0.5,0.5-0.5,1.1-0.1,1.5c0.2,0.2,0.5,0.3,0.7,0.3s0.5-0.1,0.7-0.3l0.1-0.1
		c0.4-0.4,0.4-1,0-1.4C68.8,6.3,68.1,6.3,67.7,6.7z"/>
</g>
<g>
	<path class="st1" d="M21,6.8c-0.4-0.4-1-0.4-1.4,0s-0.4,1,0,1.4l0.1,0.1c0.2,0.2,0.4,0.3,0.7,0.3c0.3,0,0.5-0.1,0.7-0.3
		C21.4,7.9,21.4,7.3,21,6.8L21,6.8z"/>
	<path class="st1" d="M31.8,14l-0.2-0.1c-0.5-0.2-1.1,0-1.3,0.5c-0.2,0.5,0,1.1,0.5,1.3l0.3,0.1c0.1,0.1,0.3,0.1,0.4,0.1
		c0.4,0,0.8-0.2,0.9-0.6C32.5,14.8,32.3,14.2,31.8,14z"/>
	<path class="st1" d="M44.3,16.5l-0.2,0c0,0,0,0,0,0c-0.5,0-1,0.4-1,1c0,0.6,0.4,1,1,1l0.3,0c0.6,0,1-0.4,1-1S44.9,16.5,44.3,16.5z"
		/>
	<path class="st1" d="M40.1,16.2l-0.3,0c-0.5-0.1-1.1,0.3-1.1,0.9c-0.1,0.5,0.3,1.1,0.9,1.1l0.3,0c0,0,0.1,0,0.1,0
		c0.5,0,0.9-0.4,1-0.9C41,16.8,40.7,16.3,40.1,16.2z"/>
	<path class="st1" d="M24.1,9.6c-0.4-0.3-1.1-0.3-1.4,0.2c-0.3,0.4-0.3,1.1,0.2,1.4l0.2,0.2c0.2,0.1,0.4,0.2,0.6,0.2
		c0.3,0,0.6-0.1,0.8-0.4c0.3-0.4,0.3-1.1-0.2-1.4L24.1,9.6z"/>
	<path class="st1" d="M27.9,12.1L27.7,12c-0.5-0.3-1.1-0.1-1.4,0.4s-0.1,1.1,0.4,1.4l0.2,0.1c0.2,0.1,0.3,0.1,0.5,0.1
		c0.3,0,0.7-0.2,0.9-0.5C28.5,13,28.4,12.4,27.9,12.1z"/>
	<path class="st1" d="M35.9,15.4l-0.2-0.1c-0.5-0.1-1.1,0.2-1.2,0.7c-0.1,0.5,0.2,1.1,0.7,1.2l0.3,0.1c0.1,0,0.2,0,0.3,0
		c0.4,0,0.8-0.3,1-0.7C36.7,16.1,36.4,15.5,35.9,15.4z"/>
	<path class="st1" d="M64.5,9.6l-0.2,0.2c-0.4,0.3-0.5,1-0.2,1.4c0.2,0.3,0.5,0.4,0.8,0.4c0.2,0,0.4-0.1,0.6-0.2l0.2-0.2
		c0.4-0.3,0.5-1,0.2-1.4S64.9,9.2,64.5,9.6z"/>
	<path class="st1" d="M60.9,12l-0.2,0.1c-0.5,0.3-0.6,0.9-0.4,1.4c0.2,0.3,0.5,0.5,0.9,0.5c0.2,0,0.3,0,0.5-0.1l0.2-0.1
		c0.5-0.3,0.6-0.9,0.4-1.4C62,11.9,61.4,11.7,60.9,12z"/>
	<path class="st1" d="M53,15.3l-0.2,0.1c-0.5,0.1-0.9,0.7-0.7,1.2c0.1,0.4,0.5,0.7,1,0.7c0.1,0,0.2,0,0.3,0l0.3-0.1
		c0.5-0.1,0.8-0.7,0.7-1.2C54,15.5,53.5,15.2,53,15.3z"/>
	<path class="st1" d="M48.7,16.2l-0.2,0c-0.5,0.1-0.9,0.6-0.9,1.1c0.1,0.5,0.5,0.9,1,0.9c0,0,0.1,0,0.1,0l0.3,0
		c0.5-0.1,0.9-0.6,0.9-1.1C49.8,16.5,49.3,16.1,48.7,16.2z"/>
	<path class="st1" d="M57,13.9L56.8,14c-0.5,0.2-0.8,0.8-0.5,1.3c0.2,0.4,0.5,0.6,0.9,0.6c0.1,0,0.3,0,0.4-0.1l0.2-0.1
		c0.5-0.2,0.7-0.8,0.5-1.3C58.1,13.9,57.5,13.7,57,13.9z"/>
</g>
<g>
	<path class="st1" d="M17.5,3.7c-0.4-0.3-1.1-0.3-1.4,0.2c-0.3,0.4-0.3,1.1,0.2,1.4l0.2,0.2c0.2,0.1,0.4,0.2,0.6,0.2
		c0.3,0,0.6-0.1,0.8-0.4c0.3-0.4,0.3-1.1-0.2-1.4L17.5,3.7z"/>
	<path class="st1" d="M13.9,1.3l-0.2-0.1c-0.5-0.3-1.1-0.1-1.4,0.4s-0.1,1.1,0.4,1.4l0.2,0.1c0.2,0.1,0.3,0.1,0.5,0.1
		c0.3,0,0.7-0.2,0.9-0.5C14.5,2.2,14.3,1.6,13.9,1.3z"/>
	<path class="st1" d="M8.8,1L9,1.1c0.1,0.1,0.3,0.1,0.4,0.1c0.4,0,0.8-0.2,0.9-0.6c0.1-0.2,0.1-0.4,0-0.6H8.2C8.1,0.4,8.3,0.9,8.8,1
		z"/>
</g>
<g>
	<path class="st1" d="M79.1,11.2l-0.3,0.1c-0.5,0.2-0.7,0.8-0.5,1.3c0.2,0.4,0.5,0.6,0.9,0.6c0.1,0,0.3,0,0.4-0.1l0.2-0.1
		c0.5-0.2,0.8-0.8,0.6-1.3C80.2,11.2,79.7,10.9,79.1,11.2z"/>
	<path class="st1" d="M75,13.2l-0.2,0.1c-0.5,0.3-0.6,0.9-0.4,1.4c0.2,0.3,0.5,0.5,0.9,0.5c0.2,0,0.3,0,0.5-0.1l0.2-0.1
		c0.5-0.3,0.6-0.9,0.4-1.4C76.1,13.1,75.5,12.9,75,13.2z"/>
	<path class="st1" d="M71.2,15.7L71,15.9c-0.4,0.3-0.5,1-0.2,1.4c0.2,0.3,0.5,0.4,0.8,0.4c0.2,0,0.4-0.1,0.6-0.2l0.2-0.2
		c0.4-0.3,0.5-1,0.2-1.4S71.6,15.4,71.2,15.7z"/>
	<path class="st1" d="M95.7,9.7c0,0.3,0.1,0.6,0.3,0.8V9.2C95.9,9.3,95.8,9.5,95.7,9.7z"/>
	<path class="st1" d="M92.5,8.6l-0.3,0c-0.6,0-1,0.4-1,1s0.4,1,1,1l0.3,0c0.6,0,1-0.4,1-1S93.1,8.6,92.5,8.6z"/>
	<path class="st1" d="M88,8.8l-0.3,0c-0.5,0.1-0.9,0.6-0.9,1.1c0.1,0.5,0.5,0.9,1,0.9c0,0,0.1,0,0.1,0l0.2,0
		c0.5-0.1,0.9-0.6,0.9-1.1C89,9.2,88.5,8.8,88,8.8z"/>
	<path class="st1" d="M83.5,9.7l-0.3,0.1c-0.5,0.1-0.8,0.7-0.7,1.2c0.1,0.4,0.5,0.7,1,0.7c0.1,0,0.2,0,0.3,0l0.2-0.1
		c0.5-0.1,0.9-0.7,0.7-1.2C84.6,9.9,84,9.6,83.5,9.7z"/>
	<path class="st1" d="M67.7,18.7L67.7,18.7c-0.5,0.5-0.5,1.1-0.1,1.5c0.2,0.2,0.4,0.3,0.7,0.3c0.3,0,0.5-0.1,0.7-0.3c0,0,0,0,0,0
		c0.4-0.4,0.4-1,0-1.4S68.1,18.3,67.7,18.7z"/>
</g>
<g>
	<path class="st1" d="M21,18.8c-0.4-0.4-1-0.4-1.4,0s-0.4,1,0,1.4l0.1,0.1c0.2,0.2,0.5,0.3,0.7,0.3s0.5-0.1,0.7-0.3
		C21.4,19.9,21.4,19.3,21,18.8L21,18.8z"/>
	<path class="st1" d="M35.9,27.4l-0.2-0.1c-0.5-0.1-1.1,0.2-1.2,0.7c-0.1,0.5,0.2,1.1,0.7,1.2l0.3,0.1c0.1,0,0.2,0,0.3,0
		c0.4,0,0.8-0.3,1-0.7C36.7,28.1,36.4,27.5,35.9,27.4z"/>
	<path class="st1" d="M31.8,26l-0.2-0.1c-0.5-0.2-1.1,0-1.3,0.5c-0.2,0.5,0,1.1,0.5,1.3l0.3,0.1c0.1,0.1,0.3,0.1,0.4,0.1
		c0.4,0,0.8-0.2,0.9-0.6C32.5,26.8,32.3,26.2,31.8,26z"/>
	<path class="st1" d="M27.9,24.1L27.7,24c-0.5-0.3-1.1-0.1-1.4,0.4s-0.1,1.1,0.4,1.4l0.2,0.1c0.2,0.1,0.3,0.1,0.5,0.1
		c0.3,0,0.7-0.2,0.9-0.5C28.5,25,28.4,24.4,27.9,24.1z"/>
	<path class="st1" d="M24.1,21.6c-0.4-0.3-1.1-0.3-1.4,0.2c-0.3,0.4-0.3,1.1,0.2,1.4l0.2,0.2c0.2,0.1,0.4,0.2,0.6,0.2
		c0.3,0,0.6-0.1,0.8-0.4c0.3-0.4,0.3-1.1-0.2-1.4L24.1,21.6z"/>
	<path class="st1" d="M44.4,28.5h-0.3c-0.6,0-1,0.4-1,1s0.4,1,1,1h0.3c0.6,0,1-0.4,1-1S45,28.5,44.4,28.5z"/>
	<path class="st1" d="M40.1,28.2l-0.3,0c-0.5-0.1-1.1,0.3-1.1,0.9c-0.1,0.5,0.3,1.1,0.9,1.1l0.3,0c0,0,0.1,0,0.1,0
		c0.5,0,0.9-0.4,1-0.9C41,28.8,40.7,28.3,40.1,28.2z"/>
	<path class="st1" d="M64.5,21.6l-0.2,0.2c-0.4,0.3-0.5,1-0.2,1.4c0.2,0.3,0.5,0.4,0.8,0.4c0.2,0,0.4-0.1,0.6-0.2l0.2-0.2
		c0.4-0.3,0.5-1,0.2-1.4C65.5,21.3,64.9,21.3,64.5,21.6z"/>
	<path class="st1" d="M60.9,24l-0.2,0.1c-0.5,0.3-0.6,0.9-0.4,1.4c0.2,0.3,0.5,0.5,0.9,0.5c0.2,0,0.3,0,0.5-0.1l0.2-0.1
		c0.5-0.3,0.6-0.9,0.4-1.4C62,23.9,61.4,23.7,60.9,24z"/>
	<path class="st1" d="M48.7,28.2l-0.2,0c-0.5,0.1-0.9,0.6-0.9,1.1c0.1,0.5,0.5,0.9,1,0.9c0,0,0.1,0,0.1,0l0.3,0
		c0.5-0.1,0.9-0.6,0.9-1.1S49.3,28.1,48.7,28.2z"/>
	<path class="st1" d="M57,25.9L56.8,26c-0.5,0.2-0.8,0.8-0.5,1.3c0.2,0.4,0.5,0.6,0.9,0.6c0.1,0,0.3,0,0.4-0.1l0.2-0.1
		c0.5-0.2,0.7-0.8,0.5-1.3C58.1,26,57.5,25.7,57,25.9z"/>
	<path class="st1" d="M53,27.3l-0.2,0.1c-0.5,0.1-0.9,0.7-0.7,1.2c0.1,0.4,0.5,0.7,1,0.7c0.1,0,0.2,0,0.3,0l0.3-0.1
		c0.5-0.1,0.8-0.7,0.7-1.2C54,27.5,53.5,27.2,53,27.3z"/>
</g>
<path class="st1" d="M17.5,15.8c-0.4-0.3-1.1-0.3-1.4,0.2c-0.3,0.4-0.3,1.1,0.2,1.4l0.2,0.2c0.2,0.1,0.4,0.2,0.6,0.2
	c0.3,0,0.6-0.1,0.8-0.4c0.3-0.4,0.3-1.1-0.2-1.4L17.5,15.8z"/>
<path class="st1" d="M13.9,13.4l-0.2-0.1c-0.5-0.3-1.1-0.1-1.4,0.4s-0.1,1.1,0.4,1.4l0.2,0.1c0.2,0.1,0.3,0.1,0.5,0.1
	c0.3,0,0.7-0.2,0.9-0.5C14.5,14.3,14.3,13.6,13.9,13.4z"/>
<path class="st1" d="M0.7,10.9c0,0,0.1,0,0.1,0c0.5,0,0.9-0.4,1-0.9C1.9,9.5,1.5,9,1,8.9l-0.3,0c-0.3,0-0.5,0-0.7,0.2v1.6
	c0.1,0.1,0.3,0.2,0.4,0.2L0.7,10.9z"/>
<path class="st1" d="M9.8,11.3l-0.3-0.1c-0.5-0.2-1.1,0-1.3,0.5c-0.2,0.5,0,1.1,0.5,1.3L9,13.2c0.1,0.1,0.3,0.1,0.4,0.1
	c0.4,0,0.8-0.2,0.9-0.6C10.5,12.1,10.3,11.5,9.8,11.3z"/>
<path class="st1" d="M5.4,9.8L5.2,9.8C4.6,9.6,4.1,9.9,4,10.5s0.2,1.1,0.7,1.2l0.2,0.1c0.1,0,0.2,0,0.3,0c0.4,0,0.8-0.3,1-0.7
	C6.3,10.5,6,10,5.4,9.8z"/>
<g>
	<path class="st1" d="M71.2,27.7L71,27.9c-0.4,0.3-0.5,1-0.2,1.4c0.2,0.3,0.5,0.4,0.8,0.4c0.2,0,0.4-0.1,0.6-0.2l0.2-0.2
		c0.4-0.3,0.5-1,0.2-1.4C72.3,27.5,71.7,27.4,71.2,27.7z"/>
	<path class="st1" d="M79.1,23.2l-0.2,0.1c-0.5,0.2-0.7,0.8-0.5,1.3c0.2,0.4,0.5,0.6,0.9,0.6c0.1,0,0.3,0,0.4-0.1l0.2-0.1
		c0.5-0.2,0.8-0.8,0.5-1.3C80.2,23.2,79.6,23,79.1,23.2z"/>
	<path class="st1" d="M83.5,21.7l-0.3,0.1c-0.5,0.1-0.8,0.7-0.7,1.2c0.1,0.4,0.5,0.7,1,0.7c0.1,0,0.2,0,0.3,0l0.2-0.1
		c0.5-0.1,0.9-0.7,0.7-1.2C84.6,21.9,84,21.6,83.5,21.7z"/>
	<path class="st1" d="M75,25.2l-0.2,0.1c-0.5,0.3-0.6,0.9-0.4,1.4c0.2,0.3,0.5,0.5,0.9,0.5c0.2,0,0.3,0,0.5-0.1l0.2-0.1
		c0.5-0.3,0.6-0.9,0.4-1.4S75.5,24.9,75,25.2z"/>
	<path class="st1" d="M95.7,21.7c0,0.3,0.1,0.6,0.3,0.8v-1.4C95.9,21.3,95.8,21.5,95.7,21.7z"/>
	<path class="st1" d="M92.5,20.6h-0.3c-0.6,0-1,0.4-1,1s0.4,1,1,1h0.3c0.6,0,1-0.4,1-1S93.1,20.6,92.5,20.6z"/>
	<path class="st1" d="M88,20.9l-0.3,0c-0.5,0.1-0.9,0.6-0.9,1.1c0.1,0.5,0.5,0.9,1,0.9c0,0,0.1,0,0.1,0l0.2,0
		c0.5-0.1,0.9-0.6,0.9-1.1S88.5,20.8,88,20.9z"/>
	<path class="st1" d="M67.7,30.7L67.7,30.7c-0.5,0.5-0.5,1.1-0.1,1.5c0.2,0.2,0.4,0.3,0.7,0.3c0.3,0,0.5-0.1,0.7-0.3c0,0,0,0,0,0
		c0.4-0.4,0.4-1,0-1.4S68.1,30.4,67.7,30.7z"/>
</g>
<g>
	<path class="st1" d="M21,30.8c-0.4-0.4-1-0.4-1.4,0s-0.4,1,0,1.4l0.1,0.1c0.2,0.2,0.4,0.3,0.7,0.3c0.3,0,0.5-0.1,0.7-0.3
		C21.4,32,21.4,31.3,21,30.8L21,30.8z"/>
	<path class="st1" d="M39.6,42.2l0.3,0c0,0,0.1,0,0.1,0c0.2,0,0.3,0,0.4-0.1h-1C39.5,42.1,39.5,42.2,39.6,42.2z"/>
	<path class="st1" d="M48.6,42.2c0,0,0.1,0,0.1,0l0.3,0c0.1,0,0.1,0,0.2-0.1h-1C48.3,42.2,48.4,42.2,48.6,42.2z"/>
	<path class="st1" d="M49.9,41.1c-0.1-0.5-0.6-0.9-1.1-0.9l-0.2,0c-0.5,0.1-0.9,0.6-0.9,1.1c0,0.3,0.3,0.6,0.6,0.8h1
		C49.6,42,49.9,41.5,49.9,41.1z"/>
	<path class="st1" d="M41,41.4c0.1-0.5-0.3-1-0.9-1.1l-0.3,0c-0.5-0.1-1.1,0.3-1.1,0.9c-0.1,0.5,0.2,0.9,0.7,1.1h1
		C40.7,42,40.9,41.7,41,41.4z"/>
	<path class="st1" d="M24.1,33.6c-0.4-0.3-1.1-0.3-1.4,0.2c-0.3,0.4-0.3,1.1,0.2,1.4l0.2,0.2c0.2,0.1,0.4,0.2,0.6,0.2
		c0.3,0,0.6-0.1,0.8-0.4c0.3-0.4,0.3-1.1-0.2-1.4L24.1,33.6z"/>
	<path class="st1" d="M44.4,40.5h-0.3c-0.6,0-1,0.4-1,1c0,0.2,0.1,0.4,0.2,0.6h1.8c0.1-0.2,0.2-0.4,0.2-0.6
		C45.4,41,45,40.5,44.4,40.5z"/>
	<path class="st1" d="M27.9,36.2L27.7,36c-0.5-0.3-1.1-0.1-1.4,0.4c-0.3,0.5-0.1,1.1,0.4,1.4l0.2,0.1c0.2,0.1,0.3,0.1,0.5,0.1
		c0.3,0,0.7-0.2,0.9-0.5C28.5,37,28.4,36.4,27.9,36.2z"/>
	<path class="st1" d="M60.9,36l-0.2,0.1c-0.5,0.3-0.6,0.9-0.4,1.4c0.2,0.3,0.5,0.5,0.9,0.5c0.2,0,0.3,0,0.5-0.1l0.2-0.1
		c0.5-0.3,0.6-0.9,0.4-1.4C62,35.9,61.4,35.8,60.9,36z"/>
	<path class="st1" d="M57,38l-0.2,0.1c-0.5,0.2-0.8,0.8-0.5,1.3c0.2,0.4,0.5,0.6,0.9,0.6c0.1,0,0.3,0,0.4-0.1l0.2-0.1
		c0.5-0.2,0.7-0.8,0.5-1.3C58.1,38,57.5,37.7,57,38z"/>
	<path class="st1" d="M64.5,33.6l-0.2,0.2c-0.4,0.3-0.5,1-0.2,1.4c0.2,0.3,0.5,0.4,0.8,0.4c0.2,0,0.4-0.1,0.6-0.2l0.2-0.2
		c0.4-0.3,0.5-1,0.2-1.4C65.5,33.4,64.9,33.3,64.5,33.6z"/>
	<path class="st1" d="M31.8,38.1L31.5,38c-0.5-0.2-1.1,0-1.3,0.5s0,1.1,0.5,1.3l0.3,0.1c0.1,0.1,0.3,0.1,0.4,0.1
		c0.4,0,0.8-0.2,0.9-0.6C32.5,38.8,32.3,38.3,31.8,38.1z"/>
	<path class="st1" d="M35.9,39.4l-0.2-0.1c-0.5-0.1-1.1,0.2-1.2,0.7c-0.1,0.5,0.2,1.1,0.7,1.2l0.3,0.1c0.1,0,0.2,0,0.3,0
		c0.4,0,0.8-0.3,1-0.7C36.7,40.1,36.4,39.6,35.9,39.4z"/>
	<path class="st1" d="M53,39.4l-0.2,0.1c-0.5,0.1-0.9,0.7-0.7,1.2c0.1,0.4,0.5,0.7,1,0.7c0.1,0,0.2,0,0.3,0l0.3-0.1
		c0.5-0.1,0.8-0.7,0.7-1.2C54,39.5,53.5,39.2,53,39.4z"/>
</g>
<path class="st1" d="M17.5,27.8c-0.4-0.3-1.1-0.3-1.4,0.2c-0.3,0.4-0.3,1.1,0.2,1.4l0.2,0.2c0.2,0.1,0.4,0.2,0.6,0.2
	c0.3,0,0.6-0.1,0.8-0.4c0.3-0.4,0.3-1.1-0.2-1.4L17.5,27.8z"/>
<path class="st1" d="M0.7,22.9c0,0,0.1,0,0.1,0c0.5,0,0.9-0.4,1-0.9C1.9,21.5,1.5,21,1,21l-0.3,0c-0.3,0-0.5,0-0.7,0.2v1.6
	c0.1,0.1,0.3,0.2,0.4,0.2L0.7,22.9z"/>
<path class="st1" d="M13.9,25.4l-0.2-0.1c-0.5-0.3-1.1-0.1-1.4,0.4s-0.1,1.1,0.4,1.4l0.2,0.1c0.2,0.1,0.3,0.1,0.5,0.1
	c0.3,0,0.7-0.2,0.9-0.5C14.5,26.3,14.3,25.7,13.9,25.4z"/>
<path class="st1" d="M5.4,21.9l-0.3-0.1C4.6,21.7,4.1,22,4,22.5c-0.1,0.5,0.2,1.1,0.7,1.2l0.2,0.1c0.1,0,0.2,0,0.3,0
	c0.4,0,0.8-0.3,1-0.7C6.3,22.6,6,22,5.4,21.9z"/>
<path class="st1" d="M9.8,23.3l-0.3-0.1c-0.5-0.2-1.1,0-1.3,0.5c-0.2,0.5,0,1.1,0.5,1.3L9,25.2c0.1,0.1,0.3,0.1,0.4,0.1
	c0.4,0,0.8-0.2,0.9-0.6C10.5,24.1,10.3,23.6,9.8,23.3z"/>
<g>
	<g>
		<path class="st1" d="M83.5,33.8l-0.3,0.1c-0.5,0.1-0.8,0.7-0.7,1.2c0.1,0.4,0.5,0.7,1,0.7c0.1,0,0.2,0,0.3,0l0.2-0.1
			c0.5-0.1,0.9-0.7,0.7-1.2C84.6,33.9,84,33.6,83.5,33.8z"/>
		<path class="st1" d="M79.1,35.2l-0.2,0.1c-0.5,0.2-0.7,0.8-0.5,1.3c0.2,0.4,0.5,0.6,0.9,0.6c0.1,0,0.3,0,0.4-0.1l0.2-0.1
			c0.5-0.2,0.8-0.8,0.5-1.3C80.2,35.2,79.6,35,79.1,35.2z"/>
		<path class="st1" d="M75,37.2l-0.2,0.1c-0.5,0.3-0.6,0.9-0.4,1.4c0.2,0.3,0.5,0.5,0.9,0.5c0.2,0,0.3,0,0.5-0.1l0.2-0.1
			c0.5-0.3,0.6-0.9,0.4-1.4S75.5,36.9,75,37.2z"/>
		<path class="st1" d="M71.2,39.7L71,39.9c-0.4,0.3-0.5,1-0.2,1.4c0.2,0.3,0.5,0.4,0.8,0.4c0.2,0,0.4-0.1,0.6-0.2l0.2-0.2
			c0.4-0.3,0.5-1,0.2-1.4C72.3,39.5,71.7,39.4,71.2,39.7z"/>
		<path class="st1" d="M95.7,33.8c0,0.3,0.1,0.6,0.3,0.8v-1.3C95.9,33.4,95.8,33.5,95.7,33.8z"/>
		<path class="st1" d="M92.5,32.6l-0.3,0c-0.6,0-1,0.4-1,1s0.5,1,1,1l0.2,0c0,0,0,0,0,0c0.5,0,1-0.4,1-1
			C93.5,33.1,93.1,32.6,92.5,32.6z"/>
		<path class="st1" d="M88,32.9l-0.3,0c-0.5,0.1-0.9,0.6-0.9,1.1c0.1,0.5,0.5,0.9,1,0.9c0,0,0.1,0,0.1,0l0.2,0
			c0.5-0.1,0.9-0.6,0.9-1.1C89,33.2,88.5,32.8,88,32.9z"/>
	</g>
	<g>
		<path class="st1" d="M9.8,35.4l-0.3-0.1c-0.5-0.2-1.1,0-1.3,0.5c-0.2,0.5,0,1.1,0.5,1.3L9,37.2c0.1,0.1,0.3,0.1,0.4,0.1
			c0.4,0,0.8-0.2,0.9-0.6C10.5,36.2,10.3,35.6,9.8,35.4z"/>
		<path class="st1" d="M17.5,39.8c-0.4-0.3-1.1-0.3-1.4,0.2c-0.3,0.4-0.3,1.1,0.2,1.4l0.2,0.2c0.2,0.1,0.4,0.2,0.6,0.2
			c0.3,0,0.6-0.1,0.8-0.4c0.3-0.4,0.3-1.1-0.2-1.4L17.5,39.8z"/>
		<path class="st1" d="M13.9,37.4l-0.2-0.1c-0.5-0.3-1.1-0.1-1.4,0.4c-0.3,0.5-0.1,1.1,0.4,1.4l0.2,0.1c0.2,0.1,0.3,0.1,0.5,0.1
			c0.3,0,0.7-0.2,0.9-0.5C14.5,38.3,14.4,37.7,13.9,37.4z"/>
		<path class="st1" d="M0.7,35c0,0,0.1,0,0.1,0c0.5,0,0.9-0.4,1-0.9C1.9,33.6,1.5,33.1,1,33l-0.3,0c-0.3,0-0.5,0-0.7,0.2v1.6
			c0.1,0.1,0.3,0.2,0.4,0.2L0.7,35z"/>
		<path class="st1" d="M5.4,33.9l-0.3-0.1C4.6,33.7,4.1,34,4,34.5s0.2,1.1,0.7,1.2l0.2,0.1c0.1,0,0.2,0,0.3,0c0.4,0,0.8-0.3,1-0.7
			C6.3,34.6,6,34,5.4,33.9z"/>
	</g>
</g>
<g>
	<path class="st1" d="M67.7,0.7L67.7,0.7c-0.5,0.5-0.5,1.1-0.1,1.5c0.2,0.2,0.4,0.3,0.7,0.3c0.3,0,0.5-0.1,0.7-0.3c0,0,0,0,0,0
		c0.4-0.4,0.4-1,0-1.4S68.1,0.3,67.7,0.7z"/>
</g>
<g>
	<path class="st1" d="M20.9,0.8c-0.4-0.4-1-0.4-1.4,0s-0.4,1,0,1.4l0.1,0.1c0.2,0.2,0.4,0.3,0.7,0.3c0.3,0,0.5-0.1,0.7-0.3
		C21.4,1.9,21.4,1.3,20.9,0.8L20.9,0.8z"/>
	<path class="st1" d="M40.1,10.2l-0.3,0c-0.5-0.1-1.1,0.3-1.1,0.9c-0.1,0.5,0.3,1.1,0.9,1.1l0.3,0c0,0,0.1,0,0.1,0
		c0.5,0,0.9-0.4,1-0.9C41,10.8,40.7,10.3,40.1,10.2z"/>
	<path class="st1" d="M31.8,8l-0.2-0.1c-0.5-0.2-1.1,0-1.3,0.5c-0.2,0.5,0,1.1,0.5,1.3L31,9.8c0.1,0.1,0.3,0.1,0.4,0.1
		c0.4,0,0.8-0.2,0.9-0.6C32.5,8.8,32.3,8.2,31.8,8z"/>
	<path class="st1" d="M35.9,9.4l-0.2-0.1c-0.5-0.1-1.1,0.2-1.2,0.7c-0.1,0.5,0.2,1.1,0.7,1.2l0.3,0.1c0.1,0,0.2,0,0.3,0
		c0.4,0,0.8-0.3,1-0.7C36.7,10,36.4,9.5,35.9,9.4z"/>
	<path class="st1" d="M27.9,6.1L27.7,6c-0.5-0.3-1.1-0.1-1.4,0.4c-0.3,0.5-0.1,1.1,0.4,1.4l0.2,0.1C27.1,7.9,27.2,8,27.4,8
		c0.3,0,0.7-0.2,0.9-0.5C28.5,7,28.4,6.4,27.9,6.1z"/>
	<path class="st1" d="M24.1,3.6c-0.4-0.3-1.1-0.3-1.4,0.2c-0.3,0.4-0.3,1.1,0.2,1.4l0.2,0.2c0.2,0.1,0.4,0.2,0.6,0.2
		c0.3,0,0.6-0.1,0.8-0.4c0.3-0.4,0.3-1.1-0.2-1.4L24.1,3.6z"/>
	<path class="st1" d="M64.5,3.6l-0.2,0.2c-0.4,0.3-0.5,1-0.2,1.4c0.2,0.3,0.5,0.4,0.8,0.4c0.2,0,0.4-0.1,0.6-0.2l0.2-0.2
		c0.4-0.3,0.5-1,0.2-1.4S64.9,3.2,64.5,3.6z"/>
	<path class="st1" d="M44.4,10.4h-0.3c-0.6,0-1,0.4-1,1s0.4,1,1,1h0.3c0.6,0,1-0.4,1-1S45,10.4,44.4,10.4z"/>
	<path class="st1" d="M60.9,6l-0.2,0.1C60.2,6.4,60,7,60.3,7.5C60.5,7.8,60.8,8,61.2,8c0.2,0,0.3,0,0.5-0.1l0.2-0.1
		c0.5-0.3,0.6-0.9,0.4-1.4S61.4,5.7,60.9,6z"/>
	<path class="st1" d="M57,7.9L56.8,8c-0.5,0.2-0.8,0.8-0.5,1.3c0.2,0.4,0.5,0.6,0.9,0.6c0.1,0,0.3,0,0.4-0.1l0.2-0.1
		c0.5-0.2,0.7-0.8,0.5-1.3C58.1,7.9,57.5,7.7,57,7.9z"/>
	<path class="st1" d="M53,9.3l-0.2,0.1c-0.5,0.1-0.9,0.7-0.7,1.2c0.1,0.4,0.5,0.7,1,0.7c0.1,0,0.2,0,0.3,0l0.3-0.1
		c0.5-0.1,0.8-0.7,0.7-1.2C54,9.5,53.5,9.2,53,9.3z"/>
	<path class="st1" d="M48.7,10.1l-0.2,0c-0.5,0.1-0.9,0.6-0.9,1.1c0.1,0.5,0.5,0.9,1,0.9c0,0,0.1,0,0.1,0l0.3,0
		c0.5-0.1,0.9-0.6,0.9-1.1S49.3,10.1,48.7,10.1z"/>
</g>
<g>
	<path class="st1" d="M79.1,5.1l-0.2,0.1c-0.5,0.2-0.7,0.8-0.5,1.3c0.2,0.4,0.5,0.6,0.9,0.6c0.1,0,0.3,0,0.4-0.1L79.9,7
		c0.5-0.2,0.8-0.8,0.5-1.3C80.2,5.2,79.6,4.9,79.1,5.1z"/>
	<path class="st1" d="M75,7.2l-0.2,0.1c-0.5,0.3-0.6,0.9-0.4,1.4c0.2,0.3,0.5,0.5,0.9,0.5c0.2,0,0.3,0,0.5-0.1L76,8.9
		c0.5-0.3,0.6-0.9,0.4-1.4C76.1,7,75.5,6.9,75,7.2z"/>
	<path class="st1" d="M71.2,9.7L71,9.8c-0.4,0.3-0.5,1-0.2,1.4c0.2,0.3,0.5,0.4,0.8,0.4c0.2,0,0.4-0.1,0.6-0.2l0.2-0.2
		c0.4-0.3,0.5-1,0.2-1.4C72.3,9.4,71.6,9.3,71.2,9.7z"/>
	<path class="st1" d="M83.5,3.7l-0.3,0.1c-0.5,0.1-0.8,0.7-0.7,1.2c0.1,0.4,0.5,0.7,1,0.7c0.1,0,0.2,0,0.3,0L84,5.6
		c0.5-0.1,0.9-0.7,0.7-1.2C84.6,3.9,84,3.5,83.5,3.7z"/>
	<path class="st1" d="M95.7,3.7c0,0.3,0.1,0.6,0.3,0.8V3.1C95.9,3.3,95.8,3.5,95.7,3.7z"/>
	<path class="st1" d="M92.5,2.5l-0.3,0c-0.6,0-1,0.4-1,1s0.5,1,1,1l0.2,0c0,0,0,0,0,0c0.5,0,1-0.4,1-1C93.5,3,93.1,2.5,92.5,2.5z"/>
	<path class="st1" d="M88,2.8l-0.3,0c-0.5,0.1-0.9,0.6-0.9,1.1c0.1,0.5,0.5,0.9,1,0.9c0,0,0.1,0,0.1,0l0.2,0
		c0.5-0.1,0.9-0.6,0.9-1.1S88.5,2.7,88,2.8z"/>
	<path class="st1" d="M67.7,12.7L67.7,12.7c-0.5,0.5-0.5,1.1-0.1,1.5c0.2,0.2,0.5,0.3,0.7,0.3s0.5-0.1,0.7-0.3l0.1-0.1
		c0.4-0.4,0.4-1,0-1.4C68.8,12.3,68.1,12.3,67.7,12.7z"/>
</g>
<g>
	<path class="st1" d="M31.8,20l-0.2-0.1c-0.5-0.2-1.1,0-1.3,0.5c-0.2,0.5,0,1.1,0.5,1.3l0.3,0.1c0.1,0.1,0.3,0.1,0.4,0.1
		c0.4,0,0.8-0.2,0.9-0.6C32.5,20.8,32.3,20.2,31.8,20z"/>
	<path class="st1" d="M35.9,21.4l-0.2-0.1c-0.5-0.1-1.1,0.2-1.2,0.7c-0.1,0.5,0.2,1.1,0.7,1.2l0.3,0.1c0.1,0,0.2,0,0.3,0
		c0.4,0,0.8-0.3,1-0.7C36.7,22.1,36.4,21.5,35.9,21.4z"/>
	<path class="st1" d="M27.9,18.1L27.7,18c-0.5-0.3-1.1-0.1-1.4,0.4s-0.1,1.1,0.4,1.4l0.2,0.1c0.2,0.1,0.3,0.1,0.5,0.1
		c0.3,0,0.7-0.2,0.9-0.5C28.5,19,28.4,18.4,27.9,18.1z"/>
	<path class="st1" d="M24.1,15.6c-0.4-0.3-1.1-0.3-1.4,0.2c-0.3,0.4-0.3,1.1,0.2,1.4l0.2,0.2c0.2,0.1,0.4,0.2,0.6,0.2
		c0.3,0,0.6-0.1,0.8-0.4c0.3-0.4,0.3-1.1-0.2-1.4L24.1,15.6z"/>
	<path class="st1" d="M44.4,22.5C44.4,22.5,44.4,22.5,44.4,22.5l-0.1,0l-0.1,0c-0.6,0-1,0.4-1,1s0.4,1,1,1l0.1,0l0.1,0
		c0.6,0,1-0.5,1-1C45.4,22.9,45,22.5,44.4,22.5z"/>
	<path class="st1" d="M40.1,22.2l-0.3,0c-0.5-0.1-1.1,0.3-1.1,0.9c-0.1,0.5,0.3,1.1,0.9,1.1l0.3,0c0,0,0.1,0,0.1,0
		c0.5,0,0.9-0.4,1-0.9C41,22.8,40.7,22.3,40.1,22.2z"/>
	<path class="st1" d="M48.7,22.2l-0.2,0c-0.5,0.1-0.9,0.6-0.9,1.1c0.1,0.5,0.5,0.9,1,0.9c0,0,0.1,0,0.1,0l0.3,0
		c0.5-0.1,0.9-0.6,0.9-1.1S49.3,22.1,48.7,22.2z"/>
	<path class="st1" d="M64.5,15.6l-0.2,0.2c-0.4,0.3-0.5,1-0.2,1.4c0.2,0.3,0.5,0.4,0.8,0.4c0.2,0,0.4-0.1,0.6-0.2l0.2-0.2
		c0.4-0.3,0.5-1,0.2-1.4C65.5,15.3,64.9,15.2,64.5,15.6z"/>
	<path class="st1" d="M60.9,18l-0.2,0.1c-0.5,0.3-0.6,0.9-0.4,1.4c0.2,0.3,0.5,0.5,0.9,0.5c0.2,0,0.3,0,0.5-0.1l0.2-0.1
		c0.5-0.3,0.6-0.9,0.4-1.4S61.4,17.7,60.9,18z"/>
	<path class="st1" d="M53,21.3l-0.2,0.1c-0.5,0.1-0.9,0.7-0.7,1.2c0.1,0.4,0.5,0.7,1,0.7c0.1,0,0.2,0,0.3,0l0.3-0.1
		c0.5-0.1,0.8-0.7,0.7-1.2C54,21.5,53.5,21.2,53,21.3z"/>
	<path class="st1" d="M57,19.9L56.8,20c-0.5,0.2-0.8,0.8-0.6,1.3c0.2,0.4,0.5,0.6,0.9,0.6c0.1,0,0.3,0,0.4-0.1l0.3-0.1
		c0.5-0.2,0.7-0.8,0.5-1.3C58.1,19.9,57.5,19.7,57,19.9z"/>
</g>
<g>
	<path class="st1" d="M20.9,12.8c-0.4-0.4-1-0.4-1.4,0s-0.4,1,0,1.4l0.1,0.1c0.2,0.2,0.5,0.3,0.7,0.3s0.5-0.1,0.7-0.3
		C21.4,13.9,21.4,13.2,20.9,12.8L20.9,12.8z"/>
	<path class="st1" d="M17.5,9.8c-0.4-0.3-1.1-0.3-1.4,0.2c-0.3,0.4-0.3,1.1,0.2,1.4l0.2,0.2c0.2,0.1,0.4,0.2,0.6,0.2
		c0.3,0,0.6-0.1,0.8-0.4c0.3-0.4,0.3-1.1-0.2-1.4L17.5,9.8z"/>
	<path class="st1" d="M0.7,4.9c0,0,0.1,0,0.1,0c0.5,0,0.9-0.4,1-0.9C1.9,3.5,1.5,3,1,2.9l-0.3,0c-0.3,0-0.5,0-0.7,0.2v1.6
		c0.1,0.1,0.3,0.2,0.4,0.2L0.7,4.9z"/>
	<path class="st1" d="M13.9,7.4l-0.2-0.1c-0.5-0.3-1.1-0.1-1.4,0.4C12,8.1,12.2,8.7,12.6,9l0.2,0.1c0.2,0.1,0.3,0.1,0.5,0.1
		c0.3,0,0.7-0.2,0.9-0.5C14.5,8.2,14.3,7.6,13.9,7.4z"/>
	<path class="st1" d="M5.4,3.8L5.2,3.8C4.6,3.6,4.1,3.9,4,4.5s0.2,1.1,0.7,1.2l0.2,0.1c0.1,0,0.2,0,0.3,0c0.4,0,0.8-0.3,1-0.7
		C6.3,4.5,6,4,5.4,3.8z"/>
	<path class="st1" d="M9.8,5.3L9.5,5.2C9,5,8.4,5.2,8.2,5.8C8,6.3,8.3,6.9,8.8,7.1L9,7.2c0.1,0.1,0.3,0.1,0.4,0.1
		c0.4,0,0.8-0.2,0.9-0.6C10.5,6.1,10.3,5.5,9.8,5.3z"/>
</g>
<g>
	<path class="st1" d="M79.1,17.2l-0.2,0.1c-0.5,0.2-0.7,0.8-0.5,1.3c0.2,0.4,0.5,0.6,0.9,0.6c0.1,0,0.3,0,0.4-0.1l0.2-0.1
		c0.5-0.2,0.8-0.8,0.5-1.3C80.2,17.2,79.6,17,79.1,17.2z"/>
	<path class="st1" d="M75,19.2l-0.2,0.1c-0.5,0.3-0.6,0.9-0.4,1.4c0.2,0.3,0.5,0.5,0.9,0.5c0.2,0,0.3,0,0.5-0.1l0.2-0.1
		c0.5-0.3,0.6-0.9,0.4-1.4C76.1,19.1,75.5,18.9,75,19.2z"/>
	<path class="st1" d="M83.5,15.7l-0.3,0.1c-0.5,0.1-0.8,0.7-0.7,1.2c0.1,0.4,0.5,0.7,1,0.7c0.1,0,0.2,0,0.3,0l0.2-0.1
		c0.5-0.1,0.9-0.7,0.7-1.2C84.6,15.9,84,15.6,83.5,15.7z"/>
	<path class="st1" d="M71.2,21.7L71,21.9c-0.4,0.3-0.5,1-0.2,1.4c0.2,0.3,0.5,0.4,0.8,0.4c0.2,0,0.4-0.1,0.6-0.2l0.2-0.2
		c0.4-0.3,0.5-1,0.2-1.4C72.3,21.5,71.7,21.4,71.2,21.7z"/>
	<path class="st1" d="M95.7,15.7c0,0.3,0.1,0.6,0.3,0.8v-1.3C95.9,15.3,95.8,15.5,95.7,15.7z"/>
	<path class="st1" d="M92.5,14.6h-0.3c-0.6,0-1,0.4-1,1s0.4,1,1,1h0.3c0.6,0,1-0.4,1-1S93.1,14.6,92.5,14.6z"/>
	<path class="st1" d="M88,14.8l-0.3,0c-0.5,0.1-0.9,0.6-0.9,1.1c0.1,0.5,0.5,0.9,1,0.9c0,0,0.1,0,0.1,0l0.2,0
		c0.5-0.1,0.9-0.6,0.9-1.1C89,15.2,88.5,14.8,88,14.8z"/>
</g>
<path class="st1" d="M31.8,32l-0.2-0.1c-0.5-0.2-1.1,0-1.3,0.5c-0.2,0.5,0,1.1,0.5,1.3l0.3,0.1c0.1,0.1,0.3,0.1,0.4,0.1
	c0.4,0,0.8-0.2,0.9-0.6C32.5,32.8,32.3,32.2,31.8,32z"/>
<path class="st1" d="M35.9,33.4l-0.2-0.1c-0.5-0.1-1.1,0.2-1.2,0.7c-0.1,0.5,0.2,1.1,0.7,1.2l0.3,0.1c0.1,0,0.2,0,0.3,0
	c0.4,0,0.8-0.3,1-0.7C36.7,34.1,36.4,33.5,35.9,33.4z"/>
<path class="st1" d="M27.9,30.1L27.7,30c-0.5-0.3-1.1-0.1-1.4,0.4s-0.1,1.1,0.4,1.4l0.2,0.1c0.2,0.1,0.3,0.1,0.5,0.1
	c0.3,0,0.7-0.2,0.9-0.5C28.5,31,28.4,30.4,27.9,30.1z"/>
<path class="st1" d="M24.1,27.6c-0.4-0.3-1.1-0.3-1.4,0.2c-0.3,0.4-0.3,1.1,0.2,1.4l0.2,0.2c0.2,0.1,0.4,0.2,0.6,0.2
	c0.3,0,0.6-0.1,0.8-0.4c0.3-0.4,0.3-1.1-0.2-1.4L24.1,27.6z"/>
<path class="st1" d="M40.1,34.2l-0.3,0c-0.5-0.1-1.1,0.3-1.1,0.9c-0.1,0.5,0.3,1.1,0.9,1.1l0.3,0c0,0,0.1,0,0.1,0
	c0.5,0,0.9-0.4,1-0.9C41,34.8,40.7,34.3,40.1,34.2z"/>
<path class="st1" d="M53,33.3l-0.2,0.1c-0.5,0.1-0.9,0.7-0.7,1.2c0.1,0.4,0.5,0.7,1,0.7c0.1,0,0.2,0,0.3,0l0.3-0.1
	c0.5-0.1,0.8-0.7,0.7-1.2C54,33.5,53.5,33.2,53,33.3z"/>
<path class="st1" d="M64.5,27.6l-0.2,0.2c-0.4,0.3-0.5,1-0.2,1.4c0.2,0.3,0.5,0.4,0.8,0.4c0.2,0,0.4-0.1,0.6-0.2l0.2-0.2
	c0.4-0.3,0.5-1,0.2-1.4C65.5,27.4,64.9,27.3,64.5,27.6z"/>
<path class="st1" d="M60.9,30l-0.2,0.1c-0.5,0.3-0.6,0.9-0.4,1.4c0.2,0.3,0.5,0.5,0.9,0.5c0.2,0,0.3,0,0.5-0.1l0.2-0.1
	c0.5-0.3,0.6-0.9,0.4-1.4C62,29.9,61.4,29.7,60.9,30z"/>
<path class="st1" d="M48.7,34.2l-0.2,0c-0.5,0.1-0.9,0.6-0.9,1.1c0.1,0.5,0.5,0.9,1,0.9c0,0,0.1,0,0.1,0l0.3,0
	c0.5-0.1,0.9-0.6,0.9-1.1C49.8,34.5,49.3,34.1,48.7,34.2z"/>
<path class="st1" d="M44.4,34.5h-0.3c-0.6,0-1,0.4-1,1s0.4,1,1,1h0.3c0.6,0,1-0.4,1-1S45,34.5,44.4,34.5z"/>
<path class="st1" d="M57,31.9L56.8,32c-0.5,0.2-0.8,0.8-0.5,1.3c0.2,0.4,0.5,0.6,0.9,0.6c0.1,0,0.3,0,0.4-0.1l0.2-0.1
	c0.5-0.2,0.7-0.8,0.5-1.3C58.1,32,57.5,31.7,57,31.9z"/>
<path class="st1" d="M67.6,24.8L67.6,24.8c-0.5,0.5-0.5,1.1-0.1,1.5c0.2,0.2,0.5,0.3,0.7,0.3c0.3,0,0.5-0.1,0.7-0.3l0.1-0.1
	c0.4-0.4,0.4-1,0-1.4S68,24.4,67.6,24.8z"/>
<g>
	<path class="st1" d="M20.9,24.8c-0.4-0.4-1-0.4-1.4,0s-0.4,1,0,1.4l0.1,0.1c0.2,0.2,0.5,0.3,0.7,0.3s0.5-0.1,0.7-0.3
		C21.4,25.9,21.4,25.3,20.9,24.8L20.9,24.8z"/>
	<path class="st1" d="M17.5,21.8c-0.4-0.3-1.1-0.3-1.4,0.2c-0.3,0.4-0.3,1.1,0.2,1.4l0.2,0.2c0.2,0.1,0.4,0.2,0.6,0.2
		c0.3,0,0.6-0.1,0.8-0.4c0.3-0.4,0.3-1.1-0.2-1.4L17.5,21.8z"/>
	<path class="st1" d="M0.7,16.9c0,0,0.1,0,0.1,0c0.5,0,0.9-0.4,1-0.9C1.9,15.5,1.5,15,1,14.9l-0.3,0c-0.3,0-0.5,0-0.7,0.2v1.6
		c0.1,0.1,0.3,0.2,0.4,0.2L0.7,16.9z"/>
	<path class="st1" d="M5.4,15.9l-0.3-0.1C4.6,15.6,4.1,16,4,16.5c-0.1,0.5,0.2,1.1,0.7,1.2l0.2,0.1c0.1,0,0.2,0,0.3,0
		c0.4,0,0.8-0.3,1-0.7C6.3,16.5,6,16,5.4,15.9z"/>
	<path class="st1" d="M13.9,19.4l-0.2-0.1c-0.5-0.3-1.1-0.1-1.4,0.4s-0.1,1.1,0.4,1.4l0.2,0.1c0.2,0.1,0.3,0.1,0.5,0.1
		c0.3,0,0.7-0.2,0.9-0.5C14.5,20.3,14.3,19.7,13.9,19.4z"/>
	<path class="st1" d="M9.8,17.3l-0.3-0.1c-0.5-0.2-1.1,0-1.3,0.5c-0.2,0.5,0,1.1,0.5,1.3L9,19.2c0.1,0.1,0.3,0.1,0.4,0.1
		c0.4,0,0.8-0.2,0.9-0.6C10.5,18.1,10.3,17.5,9.8,17.3z"/>
</g>
<g>
	<path class="st1" d="M79.1,29.2l-0.3,0.1c-0.5,0.2-0.7,0.8-0.5,1.3c0.2,0.4,0.5,0.6,0.9,0.6c0.1,0,0.3,0,0.4-0.1l0.2-0.1
		c0.5-0.2,0.8-0.8,0.6-1.3C80.2,29.2,79.7,29,79.1,29.2z"/>
	<path class="st1" d="M71.2,33.7L71,33.9c-0.4,0.3-0.5,1-0.2,1.4c0.2,0.3,0.5,0.4,0.8,0.4c0.2,0,0.4-0.1,0.6-0.2l0.2-0.2
		c0.4-0.3,0.5-1,0.2-1.4C72.3,33.5,71.7,33.4,71.2,33.7z"/>
	<path class="st1" d="M75,31.2l-0.2,0.1c-0.5,0.3-0.6,0.9-0.4,1.4c0.2,0.3,0.5,0.5,0.9,0.5c0.2,0,0.3,0,0.5-0.1l0.2-0.1
		c0.5-0.3,0.6-0.9,0.4-1.4C76.1,31.1,75.5,30.9,75,31.2z"/>
	<path class="st1" d="M83.5,27.7l-0.3,0.1c-0.5,0.1-0.8,0.7-0.7,1.2c0.1,0.4,0.5,0.7,1,0.7c0.1,0,0.2,0,0.3,0l0.2-0.1
		c0.5-0.1,0.9-0.7,0.7-1.2C84.6,27.9,84,27.6,83.5,27.7z"/>
	<path class="st1" d="M88,26.9l-0.3,0c-0.5,0.1-0.9,0.6-0.9,1.1c0.1,0.5,0.5,0.9,1,0.9c0,0,0.1,0,0.1,0l0.2,0
		c0.5-0.1,0.9-0.6,0.9-1.1C89,27.2,88.5,26.8,88,26.9z"/>
	<path class="st1" d="M95.7,27.7c0,0.3,0.1,0.6,0.3,0.8v-1.3C95.9,27.3,95.8,27.5,95.7,27.7z"/>
	<path class="st1" d="M92.5,26.6h-0.3c-0.6,0-1,0.4-1,1s0.4,1,1,1h0.3c0.6,0,1-0.4,1-1S93.1,26.6,92.5,26.6z"/>
</g>
<g>
	<path class="st1" d="M21,36.9c-0.4-0.4-1-0.4-1.4,0c-0.4,0.4-0.4,1,0,1.4l0.1,0.1c0.2,0.2,0.4,0.3,0.7,0.3c0.3,0,0.5-0.1,0.7-0.3
		C21.4,38,21.4,37.3,21,36.9L21,36.9z"/>
	<path class="st1" d="M24.1,39.6c-0.4-0.3-1.1-0.3-1.4,0.2c-0.3,0.4-0.3,1.1,0.2,1.4l0.2,0.2c0.2,0.1,0.4,0.2,0.6,0.2
		c0.3,0,0.6-0.1,0.8-0.4c0.3-0.4,0.3-1.1-0.2-1.4L24.1,39.6z"/>
	<path class="st1" d="M64.5,39.6l-0.2,0.2c-0.4,0.3-0.5,1-0.2,1.4c0.2,0.3,0.5,0.4,0.8,0.4c0.2,0,0.4-0.1,0.6-0.2l0.2-0.2
		c0.4-0.3,0.5-1,0.2-1.4C65.5,39.4,64.9,39.3,64.5,39.6z"/>
	<path class="st1" d="M60.9,42.1l-0.1,0.1H62C61.7,41.9,61.3,41.8,60.9,42.1z"/>
	<path class="st1" d="M26.6,42.1h1.3L27.7,42C27.3,41.8,26.9,41.9,26.6,42.1z"/>
	<path class="st1" d="M67.6,36.8L67.6,36.8c-0.5,0.5-0.5,1.1-0.1,1.5c0.2,0.2,0.5,0.3,0.7,0.3s0.5-0.1,0.7-0.3l0.1-0.1
		c0.4-0.4,0.4-1,0-1.4C68.7,36.5,68,36.5,67.6,36.8z"/>
</g>
<path class="st1" d="M0.7,29c0,0,0.1,0,0.1,0c0.5,0,0.9-0.4,1-0.9C1.9,27.5,1.5,27,1,27l-0.3,0c-0.3,0-0.5,0-0.7,0.2v1.6
	c0.1,0.1,0.3,0.2,0.4,0.2L0.7,29z"/>
<path class="st1" d="M17.5,33.8c-0.4-0.3-1.1-0.3-1.4,0.2c-0.3,0.4-0.3,1.1,0.2,1.4l0.2,0.2c0.2,0.1,0.4,0.2,0.6,0.2
	c0.3,0,0.6-0.1,0.8-0.4c0.3-0.4,0.3-1.1-0.2-1.4L17.5,33.8z"/>
<path class="st1" d="M13.9,31.4l-0.2-0.1c-0.5-0.3-1.1-0.1-1.4,0.4s-0.1,1.1,0.4,1.4l0.2,0.1c0.2,0.1,0.3,0.1,0.5,0.1
	c0.3,0,0.7-0.2,0.9-0.5C14.5,32.3,14.3,31.7,13.9,31.4z"/>
<path class="st1" d="M9.8,29.4l-0.3-0.1c-0.5-0.2-1.1,0-1.3,0.5c-0.2,0.5,0,1.1,0.5,1.3L9,31.2c0.1,0.1,0.3,0.1,0.4,0.1
	c0.4,0,0.8-0.2,0.9-0.6C10.5,30.2,10.3,29.6,9.8,29.4z"/>
<path class="st1" d="M5.4,27.9l-0.3-0.1C4.6,27.7,4.1,28,4,28.5s0.2,1.1,0.7,1.2l0.2,0.1c0.1,0,0.2,0,0.3,0c0.4,0,0.8-0.3,1-0.7
	C6.3,28.6,6,28,5.4,27.9z"/>
<g>
	<g>
		<path class="st1" d="M79.1,41.2l-0.2,0.1c-0.3,0.1-0.5,0.5-0.6,0.8h2.2c0-0.1,0-0.2-0.1-0.4C80.2,41.3,79.6,41,79.1,41.2z"/>
		<path class="st1" d="M92.5,38.6h-0.3c-0.6,0-1,0.4-1,1s0.4,1,1,1h0.3c0.6,0,1-0.4,1-1S93.1,38.6,92.5,38.6z"/>
		<path class="st1" d="M95.7,39.8c0,0.3,0.1,0.6,0.3,0.8v-1.3C95.9,39.4,95.8,39.6,95.7,39.8z"/>
		<path class="st1" d="M88,38.9l-0.3,0c-0.5,0.1-0.9,0.6-0.9,1.1c0.1,0.5,0.5,0.9,1,0.9c0,0,0.1,0,0.1,0l0.2,0
			c0.5-0.1,0.9-0.6,0.9-1.1S88.5,38.8,88,38.9z"/>
		<path class="st1" d="M83.5,39.8l-0.3,0.1c-0.5,0.1-0.8,0.7-0.7,1.2c0.1,0.4,0.5,0.7,1,0.7c0.1,0,0.2,0,0.3,0l0.2-0.1
			c0.5-0.1,0.9-0.7,0.7-1.2C84.6,40,84,39.6,83.5,39.8z"/>
	</g>
	<g>
		<path class="st1" d="M5.4,39.9l-0.3-0.1C4.6,39.7,4.1,40,4,40.5c-0.1,0.5,0.2,1.1,0.7,1.2l0.2,0.1c0.1,0,0.2,0,0.3,0
			c0.4,0,0.8-0.3,1-0.7C6.3,40.6,6,40,5.4,39.9z"/>
		<path class="st1" d="M9.8,41.4l-0.3-0.1c-0.5-0.2-1.1,0-1.3,0.5c0,0.1,0,0.2-0.1,0.3h2.2C10.3,41.8,10.1,41.5,9.8,41.4z"/>
		<path class="st1" d="M0.7,41c0,0,0.1,0,0.1,0c0.5,0,0.9-0.4,1-0.9C1.9,39.6,1.5,39.1,1,39l-0.3,0c-0.3,0-0.5,0-0.7,0.2v1.6
			c0.1,0.1,0.3,0.2,0.4,0.2L0.7,41z"/>
	</g>
</g>
<path class="st1" d="M39.9,0.1c0,0,0.1,0,0.1,0c0.2,0,0.3-0.1,0.5-0.1h-1.2c0.1,0,0.2,0.1,0.3,0.1L39.9,0.1z"/>
<path class="st1" d="M48.7,0.1l0.3,0c0.1,0,0.2-0.1,0.3-0.1h-1.2c0.1,0.1,0.3,0.1,0.5,0.1C48.6,0.1,48.7,0.1,48.7,0.1z"/>
<path class="st1" d="M44.2,0.4h0.3c0.3,0,0.6-0.2,0.8-0.4h-1.8C43.5,0.2,43.8,0.4,44.2,0.4z"/>
</svg>
