<?xml version="1.0" encoding="utf-8"?>
<!-- Generator: Adobe Illustrator 19.2.0, SVG Export Plug-In . SVG Version: 6.00 Build 0)  -->
<svg version="1.0" id="Ebene_1" xmlns="http://www.w3.org/2000/svg" xmlns:xlink="http://www.w3.org/1999/xlink" x="0px" y="0px"
	 viewBox="0 0 128 128" style="enable-background:new 0 0 128 128;" xml:space="preserve">
<style type="text/css">
	.st0{fill:#9ACCE7;}
	.st1{fill:none;stroke:#009CDE;stroke-width:2;stroke-linejoin:round;stroke-miterlimit:10;}
</style>
<rect class="st0" width="128" height="128"/>
<path class="st1" d="M14.9,3.2C10.7,4.4,8.1,8,8.1,8s-2.8,3.5-7,4.8"/>
<path class="st1" d="M30.9,3.2C26.7,4.4,24.1,8,24.1,8s-2.8,3.5-7,4.8"/>
<path class="st1" d="M46.9,3.2C42.7,4.4,40.1,8,40.1,8s-2.8,3.5-7,4.8"/>
<path class="st1" d="M62.9,3.2C58.7,4.4,56.1,8,56.1,8s-2.8,3.5-7,4.8"/>
<path class="st1" d="M78.8,3.2C74.6,4.4,72,8,72,8s-2.8,3.5-7,4.8"/>
<path class="st1" d="M94.9,3.2C90.7,4.4,88.1,8,88.1,8s-2.8,3.5-7,4.8"/>
<path class="st1" d="M110.9,3.2c-4.2,1.3-6.8,4.9-6.8,4.9s-2.8,3.5-7,4.8"/>
<path class="st1" d="M126.9,3.2c-4.2,1.3-6.8,4.9-6.8,4.9s-2.8,3.5-7,4.8"/>
<path class="st1" d="M134.9,19.2c-4.2,1.3-6.8,4.9-6.8,4.9s-2.8,3.5-7,4.8"/>
<path class="st1" d="M22.9,19.2c-4.2,1.3-6.8,4.9-6.8,4.9s-2.8,3.5-7,4.8"/>
<path class="st1" d="M38.9,19.2c-4.2,1.3-6.8,4.9-6.8,4.9s-2.8,3.5-7,4.8"/>
<path class="st1" d="M54.9,19.2c-4.2,1.3-6.8,4.9-6.8,4.9s-2.8,3.5-7,4.8"/>
<path class="st1" d="M70.8,19.2C66.5,20.4,64,24,64,24s-2.8,3.5-7,4.8"/>
<path class="st1" d="M86.9,19.2c-4.2,1.3-6.8,4.9-6.8,4.9s-2.8,3.5-7,4.8"/>
<path class="st1" d="M102.9,19.2c-4.2,1.3-6.8,4.9-6.8,4.9s-2.8,3.5-7,4.8"/>
<path class="st1" d="M118.9,19.2c-4.2,1.3-6.8,4.9-6.8,4.9s-2.8,3.5-7,4.8"/>
<path class="st1" d="M14.9,35.2c-4.2,1.3-6.8,4.9-6.8,4.9s-2.8,3.5-7,4.8"/>
<path class="st1" d="M30.9,35.2c-4.2,1.3-6.8,4.9-6.8,4.9s-2.8,3.5-7,4.8"/>
<path class="st1" d="M46.9,35.2c-4.2,1.3-6.8,4.9-6.8,4.9s-2.8,3.5-7,4.8"/>
<path class="st1" d="M62.9,35.2c-4.2,1.3-6.8,4.9-6.8,4.9s-2.8,3.5-7,4.8"/>
<path class="st1" d="M78.8,35.2c-4.2,1.3-6.8,4.9-6.8,4.9s-2.8,3.5-7,4.8"/>
<path class="st1" d="M94.9,35.2c-4.2,1.3-6.8,4.9-6.8,4.9s-2.8,3.5-7,4.8"/>
<path class="st1" d="M110.9,35.2c-4.2,1.3-6.8,4.9-6.8,4.9s-2.8,3.5-7,4.8"/>
<path class="st1" d="M126.9,35.2c-4.2,1.3-6.8,4.9-6.8,4.9s-2.8,3.5-7,4.8"/>
<path class="st1" d="M126.8,67.2c-4.2,1.3-6.8,4.9-6.8,4.9s-2.8,3.5-7,4.8"/>
<path class="st1" d="M134.9,51.2c-4.2,1.3-6.8,4.9-6.8,4.9s-2.8,3.5-7,4.8"/>
<path class="st1" d="M22.9,51.2c-4.2,1.3-6.8,4.9-6.8,4.9s-2.8,3.5-7,4.8"/>
<path class="st1" d="M38.9,51.2c-4.2,1.3-6.8,4.9-6.8,4.9s-2.8,3.5-7,4.8"/>
<path class="st1" d="M54.9,51.2c-4.2,1.3-6.8,4.9-6.8,4.9s-2.8,3.5-7,4.8"/>
<path class="st1" d="M70.8,51.2c-4.2,1.3-6.8,4.9-6.8,4.9s-2.8,3.5-7,4.8"/>
<path class="st1" d="M86.9,51.2c-4.2,1.3-6.8,4.9-6.8,4.9s-2.8,3.5-7,4.8"/>
<path class="st1" d="M102.9,51.2c-4.2,1.3-6.8,4.9-6.8,4.9s-2.8,3.5-7,4.8"/>
<path class="st1" d="M118.9,51.2c-4.2,1.3-6.8,4.9-6.8,4.9s-2.8,3.5-7,4.8"/>
<path class="st1" d="M14.9,67.2C10.7,68.4,8.1,72,8.1,72s-2.8,3.5-7,4.8"/>
<path class="st1" d="M30.9,67.2c-4.2,1.3-6.8,4.9-6.8,4.9s-2.8,3.5-7,4.8"/>
<path class="st1" d="M46.9,67.2c-4.2,1.3-6.8,4.9-6.8,4.9s-2.8,3.5-7,4.8"/>
<path class="st1" d="M62.9,67.2c-4.2,1.3-6.8,4.9-6.8,4.9s-2.8,3.5-7,4.8"/>
<path class="st1" d="M78.8,67.2C74.6,68.4,72,72,72,72s-2.8,3.5-7,4.8"/>
<path class="st1" d="M94.9,67.2c-4.2,1.3-6.8,4.9-6.8,4.9s-2.8,3.5-7,4.8"/>
<path class="st1" d="M110.9,67.2c-4.2,1.3-6.8,4.9-6.8,4.9s-2.8,3.5-7,4.8"/>
<path class="st1" d="M134.9,83.2c-4.2,1.3-6.8,4.9-6.8,4.9s-2.8,3.5-7,4.8"/>
<path class="st1" d="M22.9,83.2c-4.2,1.3-6.8,4.9-6.8,4.9s-2.8,3.5-7,4.8"/>
<path class="st1" d="M38.9,83.2c-4.2,1.3-6.8,4.9-6.8,4.9s-2.8,3.5-7,4.8"/>
<path class="st1" d="M54.9,83.2c-4.2,1.3-6.8,4.9-6.8,4.9s-2.8,3.5-7,4.8"/>
<path class="st1" d="M70.8,83.2C66.5,84.4,64,88,64,88s-2.8,3.5-7,4.8"/>
<path class="st1" d="M86.9,83.2c-4.2,1.3-6.8,4.9-6.8,4.9s-2.8,3.5-7,4.8"/>
<path class="st1" d="M102.9,83.2c-4.2,1.3-6.8,4.9-6.8,4.9s-2.8,3.5-7,4.8"/>
<path class="st1" d="M118.9,83.2c-4.2,1.3-6.8,4.9-6.8,4.9s-2.8,3.5-7,4.8"/>
<path class="st1" d="M14.9,99.2c-4.2,1.3-6.8,4.9-6.8,4.9s-2.8,3.5-7,4.8"/>
<path class="st1" d="M30.9,99.2c-4.2,1.3-6.8,4.9-6.8,4.9s-2.8,3.5-7,4.8"/>
<path class="st1" d="M46.9,99.2c-4.2,1.3-6.8,4.9-6.8,4.9s-2.8,3.5-7,4.8"/>
<path class="st1" d="M62.9,99.2c-4.2,1.3-6.8,4.9-6.8,4.9s-2.8,3.5-7,4.8"/>
<path class="st1" d="M78.8,99.2c-4.2,1.3-6.8,4.9-6.8,4.9s-2.8,3.5-7,4.8"/>
<path class="st1" d="M94.9,99.2c-4.2,1.3-6.8,4.9-6.8,4.9s-2.8,3.5-7,4.8"/>
<path class="st1" d="M110.9,99.2c-4.2,1.3-6.8,4.9-6.8,4.9s-2.8,3.5-7,4.8"/>
<path class="st1" d="M126.9,99.2c-4.2,1.3-6.8,4.9-6.8,4.9s-2.8,3.5-7,4.8"/>
<path class="st1" d="M134.9,115.2c-4.2,1.3-6.8,4.9-6.8,4.9s-2.8,3.5-7,4.8"/>
<path class="st1" d="M22.9,115.2c-4.2,1.3-6.8,4.9-6.8,4.9s-2.8,3.5-7,4.8"/>
<path class="st1" d="M38.9,115.2c-4.2,1.3-6.8,4.9-6.8,4.9s-2.8,3.5-7,4.8"/>
<path class="st1" d="M54.9,115.2c-4.2,1.3-6.8,4.9-6.8,4.9s-2.8,3.5-7,4.8"/>
<path class="st1" d="M70.8,115.2c-4.2,1.3-6.8,4.9-6.8,4.9s-2.8,3.5-7,4.8"/>
<path class="st1" d="M86.9,115.2c-4.2,1.3-6.8,4.9-6.8,4.9s-2.8,3.5-7,4.8"/>
<path class="st1" d="M102.9,115.2c-4.2,1.3-6.8,4.9-6.8,4.9s-2.8,3.5-7,4.8"/>
<path class="st1" d="M118.9,115.2c-4.2,1.3-6.8,4.9-6.8,4.9s-2.8,3.5-7,4.8"/>
<path class="st1" d="M6.9,19.1C2.6,20.4,0.1,24,0.1,24s-2.8,3.5-7,4.8"/>
<path class="st1" d="M6.9,51.1C2.6,52.4,0.1,56,0.1,56s-2.8,3.5-7,4.8"/>
<path class="st1" d="M6.9,83.1C2.6,84.4,0.1,88,0.1,88s-2.8,3.5-7,4.8"/>
<path class="st1" d="M6.9,115.1c-4.2,1.3-6.8,4.9-6.8,4.9s-2.8,3.5-7,4.8"/>
</svg>
