<?xml version="1.0" encoding="utf-8"?>
<!-- Generator: Adobe Illustrator 19.2.0, SVG Export Plug-In . SVG Version: 6.00 Build 0)  -->
<svg version="1.0" id="Ebene_1" xmlns="http://www.w3.org/2000/svg" xmlns:xlink="http://www.w3.org/1999/xlink" x="0px" y="0px"
	 viewBox="0 0 128 128" style="enable-background:new 0 0 128 128;" xml:space="preserve">
<style type="text/css">
	.st0{fill:#9ACCE7;}
	.st1{fill:none;stroke:#009CDE;stroke-width:2;stroke-linejoin:round;stroke-miterlimit:10;}
</style>
<rect class="st0" width="128" height="128"/>
<line class="st1" x1="0" y1="15" x2="6" y2="15"/>
<line class="st1" x1="122" y1="15" x2="128" y2="15"/>
<line class="st1" x1="26" y1="15" x2="38" y2="15"/>
<line class="st1" x1="10" y1="31" x2="22" y2="31"/>
<line class="st1" x1="42" y1="31" x2="54" y2="31"/>
<line class="st1" x1="58" y1="15" x2="70" y2="15"/>
<line class="st1" x1="90" y1="15" x2="102" y2="15"/>
<line class="st1" x1="42" y1="63" x2="54" y2="63"/>
<line class="st1" x1="10" y1="63" x2="22" y2="63"/>
<line class="st1" x1="74" y1="63" x2="86" y2="63"/>
<line class="st1" x1="106" y1="63" x2="118" y2="63"/>
<line class="st1" x1="42" y1="127" x2="54" y2="127"/>
<line class="st1" x1="10" y1="127" x2="22" y2="127"/>
<line class="st1" x1="74" y1="127" x2="86" y2="127"/>
<line class="st1" x1="106" y1="127" x2="118" y2="127"/>
<line class="st1" x1="0" y1="47" x2="6" y2="47"/>
<line class="st1" x1="122" y1="47" x2="128" y2="47"/>
<line class="st1" x1="26" y1="47" x2="38" y2="47"/>
<line class="st1" x1="58" y1="47" x2="70" y2="47"/>
<line class="st1" x1="90" y1="47" x2="102" y2="47"/>
<line class="st1" x1="0" y1="79" x2="6" y2="79"/>
<line class="st1" x1="122" y1="79" x2="128" y2="79"/>
<line class="st1" x1="26" y1="79" x2="38" y2="79"/>
<line class="st1" x1="58" y1="79" x2="70" y2="79"/>
<line class="st1" x1="90" y1="79" x2="102" y2="79"/>
<line class="st1" x1="74" y1="95" x2="86" y2="95"/>
<line class="st1" x1="0" y1="111" x2="6" y2="111"/>
<line class="st1" x1="122" y1="111" x2="128" y2="111"/>
<line class="st1" x1="26" y1="111" x2="38" y2="111"/>
<line class="st1" x1="58" y1="111" x2="70" y2="111"/>
<line class="st1" x1="90" y1="111" x2="102" y2="111"/>
<line class="st1" x1="74" y1="31" x2="86" y2="31"/>
<line class="st1" x1="106" y1="31" x2="118" y2="31"/>
<line class="st1" x1="42" y1="95" x2="54" y2="95"/>
<line class="st1" x1="10" y1="95" x2="22" y2="95"/>
<line class="st1" x1="106" y1="95" x2="118" y2="95"/>
</svg>
