<?xml version="1.0" encoding="utf-8"?>
<!-- Generator: Adobe Illustrator 19.2.0, SVG Export Plug-In . SVG Version: 6.00 Build 0)  -->
<svg version="1.0" id="Ebene_1" xmlns="http://www.w3.org/2000/svg" xmlns:xlink="http://www.w3.org/1999/xlink" x="0px" y="0px"
	 viewBox="0 0 128 128" style="enable-background:new 0 0 128 128;" xml:space="preserve">
<style type="text/css">
	.st0{fill:#9ACCE7;}
	.st1{fill:none;stroke:#009CDE;stroke-linejoin:round;stroke-miterlimit:10;}
	.st2{fill:#009CDE;}
	.st3{fill:none;stroke:#009CDE;stroke-miterlimit:10;}
	.st4{fill:none;stroke:#009CDE;stroke-width:2;stroke-linejoin:round;stroke-miterlimit:10;}
</style>
<rect class="st0" width="128" height="128"/>
<g>
	<circle class="st1" cx="48" cy="31" r="7.2"/>
	<circle class="st1" cx="48" cy="31" r="3.3"/>
	<path class="st2" d="M46.8,27.9c0,0-1.1-3.2-1.3-3.7c-0.2-0.5-4.3,2.6-3.7,2.9c0.6,0.3,3.8,1.7,3.8,1.7L46.8,27.9z"/>
	<path class="st2" d="M44.5,31.2c0,0-3.1-0.1-3.8-0.1c-0.6,0,1.2,4.9,1.7,4.5c0.6-0.5,2.8-2.7,2.8-2.7L44.5,31.2z"/>
	<path class="st2" d="M47.6,34.1c0,0-0.7,3.1-0.9,3.7c-0.1,0.6,5.1-0.1,4.7-0.8c-0.3-0.7-2.1-3.1-2.1-3.1L47.6,34.1z"/>
	<path class="st2" d="M50.1,28.9c0,0,2.9-1.5,3.3-1.8c0.4-0.2-3-3.5-3.2-2.9c-0.2,0.6-1.1,3.8-1.1,3.8L50.1,28.9z"/>
	<path class="st2" d="M50.7,32.3c0,0,2.8,2,3.2,2.3c0.4,0.3,2-4.6,1.3-4.5c-0.7,0.1-4.1,0.8-4.1,0.8L50.7,32.3z"/>
</g>
<g>
	<circle class="st1" cx="80" cy="95" r="7.2"/>
	<circle class="st1" cx="80" cy="95" r="3.3"/>
	<path class="st2" d="M78.8,91.9c0,0-1.1-3.2-1.3-3.7c-0.2-0.5-4.3,2.6-3.7,2.9c0.6,0.3,3.8,1.7,3.8,1.7L78.8,91.9z"/>
	<path class="st2" d="M76.5,95.2c0,0-3.1-0.1-3.8-0.1c-0.6,0,1.2,4.9,1.7,4.5c0.6-0.5,2.8-2.7,2.8-2.7L76.5,95.2z"/>
	<path class="st2" d="M79.6,98.1c0,0-0.7,3.1-0.9,3.7c-0.1,0.6,5.1-0.1,4.7-0.8c-0.3-0.7-2.1-3.1-2.1-3.1L79.6,98.1z"/>
	<path class="st2" d="M82.1,92.9c0,0,2.9-1.5,3.3-1.8c0.4-0.2-3-3.5-3.2-2.9c-0.2,0.6-1.1,3.8-1.1,3.8L82.1,92.9z"/>
	<path class="st2" d="M82.7,96.3c0,0,2.8,2,3.2,2.3c0.4,0.3,2-4.6,1.3-4.5c-0.7,0.1-4.1,0.8-4.1,0.8L82.7,96.3z"/>
</g>
<g>
	<ellipse class="st1" cx="112" cy="31" rx="7.2" ry="7.2"/>
	<path class="st3" d="M110.6,28.8c-0.2,1-0.8,1.9-1.7,1.9c-0.9,0-1.6-0.3-1.8-1.7c0-1,0.6-1.8,1.8-2C109.8,27,110.8,27.5,110.6,28.8
		z"/>
	<path class="st1" d="M110.5,27.8c1.2-0.9,4.2-2.4,6.4-2.3"/>
	<path class="st1" d="M110.2,29.8c3.1,0.7,8.5,2.3,8.8,2.9"/>
	<path class="st1" d="M109,27c0.1-0.9,0.4-2.7,0.4-2.7"/>
	<path class="st1" d="M107.5,27.7c-0.5-0.4-1.3-1-1.3-1"/>
	<path class="st1" d="M107.2,29.5c0,0-1.8,1.2-2.4,1.9"/>
	<path class="st1" d="M108.7,30.7c0,1,1,5.9,3,7.5"/>
</g>
<g>
	<ellipse class="st1" cx="16" cy="95" rx="7.2" ry="7.2"/>
	<path class="st3" d="M14.6,92.8c-0.2,1-0.8,1.9-1.7,1.9c-0.9,0-1.6-0.3-1.8-1.7c0-1,0.6-1.8,1.8-2C13.8,91,14.8,91.5,14.6,92.8z"/>
	<path class="st1" d="M14.5,91.8c1.2-0.9,4.2-2.4,6.4-2.3"/>
	<path class="st1" d="M14.2,93.8c3.1,0.7,8.5,2.3,8.8,2.9"/>
	<path class="st1" d="M13,91c0.1-0.9,0.4-2.7,0.4-2.7"/>
	<path class="st1" d="M11.5,91.7c-0.5-0.4-1.3-1-1.3-1"/>
	<path class="st1" d="M11.2,93.5c0,0-1.8,1.2-2.4,1.9"/>
	<path class="st1" d="M12.7,94.7c0,1,1,5.9,3,7.5"/>
</g>
<line class="st4" x1="0" y1="15" x2="6" y2="15"/>
<line class="st4" x1="122" y1="15" x2="128" y2="15"/>
<line class="st4" x1="26" y1="15" x2="38" y2="15"/>
<line class="st4" x1="10" y1="31" x2="22" y2="31"/>
<line class="st4" x1="58" y1="15" x2="70" y2="15"/>
<line class="st4" x1="90" y1="15" x2="102" y2="15"/>
<line class="st4" x1="42" y1="63" x2="54" y2="63"/>
<line class="st4" x1="10" y1="63" x2="22" y2="63"/>
<line class="st4" x1="74" y1="63" x2="86" y2="63"/>
<line class="st4" x1="106" y1="63" x2="118" y2="63"/>
<line class="st4" x1="42" y1="127" x2="54" y2="127"/>
<line class="st4" x1="10" y1="127" x2="22" y2="127"/>
<line class="st4" x1="74" y1="127" x2="86" y2="127"/>
<line class="st4" x1="106" y1="127" x2="118" y2="127"/>
<line class="st4" x1="0" y1="47" x2="6" y2="47"/>
<line class="st4" x1="122" y1="47" x2="128" y2="47"/>
<line class="st4" x1="26" y1="47" x2="38" y2="47"/>
<line class="st4" x1="58" y1="47" x2="70" y2="47"/>
<line class="st4" x1="90" y1="47" x2="102" y2="47"/>
<line class="st4" x1="0" y1="79" x2="6" y2="79"/>
<line class="st4" x1="122" y1="79" x2="128" y2="79"/>
<line class="st4" x1="26" y1="79" x2="38" y2="79"/>
<line class="st4" x1="58" y1="79" x2="70" y2="79"/>
<line class="st4" x1="90" y1="79" x2="102" y2="79"/>
<line class="st4" x1="0" y1="111" x2="6" y2="111"/>
<line class="st4" x1="122" y1="111" x2="128" y2="111"/>
<line class="st4" x1="26" y1="111" x2="38" y2="111"/>
<line class="st4" x1="58" y1="111" x2="70" y2="111"/>
<line class="st4" x1="90" y1="111" x2="102" y2="111"/>
<line class="st4" x1="74" y1="31" x2="86" y2="31"/>
<line class="st4" x1="42" y1="95" x2="54" y2="95"/>
<line class="st4" x1="106" y1="95" x2="118" y2="95"/>
</svg>
