<?xml version="1.0" encoding="utf-8"?>
<!-- Generator: Adobe Illustrator 19.2.0, SVG Export Plug-In . SVG Version: 6.00 Build 0)  -->
<svg version="1.0" id="Ebene_1" xmlns="http://www.w3.org/2000/svg" xmlns:xlink="http://www.w3.org/1999/xlink" x="0px" y="0px"
	 viewBox="0 0 32 32" style="enable-background:new 0 0 32 32;" xml:space="preserve">
<style type="text/css">
	.st0{fill:#3C3B3B;}
</style>
<g>
	<path class="st0" d="M32,8.5H0v-4h32V8.5z"/>
</g>
<g>
	<path class="st0" d="M32,27.5H0v-4h32V27.5z"/>
</g>
<path class="st0" d="M32,7.1l-7.5,7.5L18,8.1V0.5C18,0.2,17.8,0,17.5,0h-3C14.2,0,14,0.2,14,0.5v7.7l-6.4,6.4L0,7v2.8L6.2,16L0,22.2
	V25l7.6-7.6l6.4,6.4v7.7c0,0.3,0.2,0.5,0.5,0.5h3c0.3,0,0.5-0.2,0.5-0.5v-7.6l6.5-6.5l7.5,7.5v-2.8L25.9,16L32,9.9V7.1z M14,21l-5-5
	l5-5V21z M18,21.1V10.9l5.1,5.1L18,21.1z"/>
</svg>
