<?xml version="1.0" encoding="utf-8"?>
<!-- Generator: Adobe Illustrator 19.2.0, SVG Export Plug-In . SVG Version: 6.00 Build 0)  -->
<svg version="1.0" id="Ebene_1" xmlns="http://www.w3.org/2000/svg" xmlns:xlink="http://www.w3.org/1999/xlink" x="0px" y="0px"
	 viewBox="0 0 32 13.4" style="enable-background:new 0 0 32 13.4;" xml:space="preserve">
<style type="text/css">
	.st0{fill:#3C3B3B;}
</style>
<g>
	<path class="st0" d="M16.2,12.8L16,11.9c3.4-0.7,6.9-2.9,7.7-4.4c0.1-0.1,0-0.2-0.1-0.6c-0.5-1.2-0.2-2.1,2.2-3.2l0.4,0.9
		c-2.1,1-1.9,1.4-1.7,1.9c0.1,0.4,0.3,0.9,0,1.4C24.1,8.9,24.1,10.2,16.2,12.8z"/>
</g>
<g>
	<path class="st0" d="M0.5,12.8L0,11.9c5.7-3.7,2.1-2.3,3.8-4.4c1.5-1.8,3.9-0.6,7.2-3.7l0.7,0.7c-3.6,3.3-6.5,2-7.8,4
		C3.4,9.3,6,9.2,0.5,12.8z"/>
</g>
<g>
	<path class="st0" d="M11.3,4.2c-5.7,2-4.2,0.6-3-2.1C9,0.3,11,0,12.9,0.3C14.7,0.6,19,0.6,19,0.6L15.7,6c0,0-3,5-4.4,2.5
		C9.5,6,11.3,4.2,11.3,4.2z"/>
</g>
<g>
	<path class="st0" d="M25.6,4.2c-4.4,1.6-3.4-0.1-2.3-2.6c0.8-1.7,2.7-1.3,4.6-1C29.8,0.8,32,0,32,0l-1.4,5c0,0-1.2,4.1-4.4,2.3
		C23.7,6,25.6,4.2,25.6,4.2z"/>
</g>
<path class="st0" d="M32,12.9c-3,0.6-6.7,0.3-10.2,0.1c-2.5-0.2-4.6-0.3-5.8-0.1c-3.7,0.8-7.9,0.5-11.5,0.2C2.9,13,1.4,12.9,0,12.9
	v-1c1.4,0,3,0.1,4.6,0.2c3.6,0.3,7.7,0.6,11.2-0.2c1.3-0.3,3.5-0.1,6.1,0.1c3.4,0.3,7.3,0.5,10.1-0.1"/>
</svg>
