<?xml version="1.0" encoding="utf-8"?>
<!-- Generator: Adobe Illustrator 19.2.0, SVG Export Plug-In . SVG Version: 6.00 Build 0)  -->
<svg version="1.0" id="Ebene_1" xmlns="http://www.w3.org/2000/svg" xmlns:xlink="http://www.w3.org/1999/xlink" x="0px" y="0px"
	 viewBox="0 0 32 32" style="enable-background:new 0 0 32 32;" xml:space="preserve">
<style type="text/css">
	.st0{fill:#3E3C3C;}
</style>
<g>
	<path class="st0" d="M16.2,10.8L16,9.9c3.4-0.7,6.9-0.9,7.7-2.4c0.1-0.1,0-0.2-0.1-0.6c-0.5-1.2-0.2-2.1,2.2-3.2l0.4,0.9
		c-2.1,1-1.9,1.4-1.7,1.9c0.1,0.4,0.3,0.9,0,1.4C24.1,8.9,24.1,8.9,16.2,10.8z"/>
</g>
<g>
	<path class="st0" d="M0.5,12.8L0,11.9c5.7-3.7,2.1-2.3,3.8-4.4c1.5-1.8,3.9-0.6,7.2-3.7l0.7,0.7c-3.6,3.3-6.5,2-7.8,4
		C3.4,9.3,6,9.2,0.5,12.8z"/>
</g>
<g>
	<path class="st0" d="M11.3,4.2c-5.7,2-4.2,0.6-3-2.1C9,0.3,11,0,12.9,0.3C14.7,0.6,19,0.6,19,0.6L15.7,6c0,0-3,5-4.4,2.5
		C9.5,6,11.3,4.2,11.3,4.2z"/>
</g>
<g>
	<path class="st0" d="M25.6,4.2c-4.4,1.6-3.4-0.1-2.3-2.6c0.8-1.7,2.7-1.3,4.6-1C29.8,0.8,32,0,32,0l-1.4,5c0,0-1.2,4.1-4.4,2.3
		C23.7,6,25.6,4.2,25.6,4.2z"/>
</g>
<path class="st0" d="M32,12.9c-3,0.6-6.7-1.7-10.2-1.9c-2.5-0.2-4.6-0.3-5.8-0.1c-3.7,0.8-7.9,2.5-11.5,2.2C2.9,13,1.4,12.9,0,12.9
	v-1c1.4,0,3,0.1,4.6,0.2c3.6,0.3,7.7-1.4,11.2-2.2c1.3-0.3,3.5-0.1,6.1,0.1c3.4,0.3,7.3,2.5,10.1,1.9"/>
<g>
	<path class="st0" d="M16.2,19.2L16,20.1c3.4,0.7,6.9,2.9,7.7,4.4c0.1,0.1,0,0.2-0.1,0.6c-0.5,1.2-0.2,2.1,2.2,3.2l0.4-0.9
		c-2.1-1-1.9-1.4-1.7-1.9c0.1-0.4,0.3-0.9,0-1.4C24.1,23.1,24.1,21.8,16.2,19.2z"/>
</g>
<g>
	<path class="st0" d="M0.5,19.2L0,20.1c5.7,3.7,2.1,2.3,3.8,4.4c1.5,1.8,3.9,0.6,7.2,3.7l0.7-0.7c-3.6-3.3-6.5-2-7.8-4
		C3.4,22.7,6,22.8,0.5,19.2z"/>
</g>
<g>
	<path class="st0" d="M11.3,27.8c-5.7-2-4.2-0.6-3,2.1C9,31.7,11,32,12.9,31.7c1.9-0.3,6.1-0.2,6.1-0.2L15.7,26c0,0-3-5-4.4-2.5
		C9.5,26,11.3,27.8,11.3,27.8z"/>
</g>
<g>
	<path class="st0" d="M25.6,27.8c-4.4-1.6-3.4,0.1-2.3,2.6c0.8,1.7,2.7,1.3,4.6,1C29.8,31.2,32,32,32,32l-1.4-5c0,0-1.2-4.1-4.4-2.3
		C23.7,26,25.6,27.8,25.6,27.8z"/>
</g>
<path class="st0" d="M32,19.1c-3-0.6-6.7-0.3-10.2-0.1c-2.5,0.2-4.6,0.3-5.8,0.1c-3.7-0.8-6.9,0.5-10.5,0.8C3.9,20,1.4,19.1,0,19.1
	v1c1.4,0,4,0.9,5.6,0.8c3.6-0.3,6.7-1.6,10.2-0.8c1.3,0.3,3.5,0.1,6.1-0.1c3.4-0.3,7.3-0.5,10.1,0.1"/>
<g>
	<path class="st0" d="M8.2,15l0.4,0.8c3.5-1.8,7.3-1.6,10.7-0.6c3.1,1,4.6,1.9,7.3,0.8l-0.7-0.5c-1.5,0.6-3-0.1-6.3-1.1
		C16.2,13.3,12,13,8.2,15z"/>
</g>
<g>
	<path class="st0" d="M23.3,15.8c-3.9-2.7-3.7-3.5-0.8-4.1c1.9-0.4,3.3,1.3,4.2,3.1c0.8,1.7,2.1,3.5,2.1,3.5l-5.2,2
		c0,0-6.1,2.5-4.5-2.2C20.1,15.2,23.3,15.8,23.3,15.8z"/>
</g>
<g>
	<path class="st0" d="M7.2,14.8c-4.6,0.6-3.3-0.9-1.6-3.1c1.1-1.5,2.9-0.7,4.7,0c1.8,0.7,4.1,0.4,4.1,0.4l-2.5,4.6
		c0,0-2.1,3.7-4.8,1.3C5,16.1,7.2,14.8,7.2,14.8z"/>
</g>
<path class="st0" d="M6.7,13.8c-0.7,1.8-3,1.9-6.7,1.7v1c3.6,0.1,6.7,0.2,7.6-2.4L6.7,13.8z"/>
<path class="st0" d="M25.1,18.3c0.7-1.8,2.9-1.9,6.9-1.7v-1c-4-0.1-6.8-0.2-7.7,2.4L25.1,18.3z"/>
</svg>
