<?xml version="1.0" encoding="utf-8"?>
<!-- Generator: Adobe Illustrator 19.2.0, SVG Export Plug-In . SVG Version: 6.00 Build 0)  -->
<svg version="1.0" id="Ebene_1" xmlns="http://www.w3.org/2000/svg" xmlns:xlink="http://www.w3.org/1999/xlink" x="0px" y="0px"
	 viewBox="0 0 32 32" style="enable-background:new 0 0 32 32;" xml:space="preserve">
<style type="text/css">
	.st0{fill:#CCCCCC;}
	.st1{fill:#3C3B3B;}
	.st2{fill:none;stroke:#3C3B3B;stroke-width:3.5;stroke-miterlimit:10;}
</style>
<rect class="st0" width="32" height="32"/>
<polygon class="st1" points="19.5,0.1 19.8,5.3 26.1,5.9 25.9,0 "/>
<polygon class="st1" points="22.2,31.9 22,27.1 16.8,26.6 17,32 "/>
<polygon class="st1" points="22.8,26.5 23.3,32 28,32 27.8,26.3 "/>
<polygon class="st1" points="0.3,7.2 5.2,7 5.3,12.9 0,12.9 "/>
<polygon class="st1" points="6.4,0 6,6 0,6.5 0.6,0 "/>
<polygon class="st1" points="32,20.2 28,20.2 27.4,16.4 31.8,16.6 "/>
<polygon class="st1" points="14.2,0 14,5.1 6.8,6.1 6.9,0.3 "/>
<polygon class="st1" points="10.4,27.1 10.7,32 0.1,31.8 0.1,27.2 "/>
<polygon class="st1" points="5.5,23.9 5.7,26.4 0,26.6 0.2,24 "/>
<polygon class="st1" points="16,26.4 16,32 11.5,31.7 12,26.6 "/>
<polygon class="st1" points="31.8,0.2 31.1,6.2 26.9,6.3 26.6,0 "/>
<polygon class="st1" points="32,11.8 31.4,15.8 27.7,15.9 27.5,11.7 "/>
<polygon class="st1" points="18.8,0 18.7,5.4 14.9,5.4 15.3,0.1 "/>
<polygon class="st1" points="32,26.1 31.9,32 28.5,32 28.9,26.3 "/>
<polygon class="st1" points="5,13.9 4.8,17.8 0.4,18 0.2,13.6 "/>
<polygon class="st1" points="31.8,7.2 31.7,11 27.6,11.1 27.5,7.3 "/>
<polygon class="st1" points="31.8,21 31.6,25.3 26.7,25.2 27.3,21 "/>
<polygon class="st1" points="5.4,18.4 5.3,23 0.3,23.2 0.5,18.7 "/>
<line class="st2" x1="16" y1="8" x2="16" y2="24"/>
<line class="st2" x1="24" y1="16" x2="8" y2="16"/>
</svg>
