<?xml version="1.0" encoding="utf-8"?>
<!-- Generator: Adobe Illustrator 19.2.0, SVG Export Plug-In . SVG Version: 6.00 Build 0)  -->
<svg version="1.0" id="Ebene_1" xmlns="http://www.w3.org/2000/svg" xmlns:xlink="http://www.w3.org/1999/xlink" x="0px" y="0px"
	 viewBox="0 0 287 287" style="enable-background:new 0 0 287 287;" xml:space="preserve">
<style type="text/css">
	.st0{fill:#B2C597;}
	.st1{fill:#5F7A2E;}
</style>
<g>
	<path class="st0" d="M143.5,283C66.6,283,4,220.4,4,143.5C4,66.6,66.6,4,143.5,4C220.4,4,283,66.6,283,143.5
		C283,220.4,220.4,283,143.5,283z"/>
	<path class="st1" d="M143.5,8c36.2,0,70.2,14.1,95.8,39.7c25.6,25.6,39.7,59.6,39.7,95.8c0,36.2-14.1,70.2-39.7,95.8
		c-25.6,25.6-59.6,39.7-95.8,39.7s-70.2-14.1-95.8-39.7C22.1,213.7,8,179.7,8,143.5c0-36.2,14.1-70.2,39.7-95.8
		C73.3,22.1,107.3,8,143.5,8 M143.5,0C64.2,0,0,64.2,0,143.5C0,222.8,64.2,287,143.5,287S287,222.8,287,143.5
		C287,64.2,222.8,0,143.5,0L143.5,0z"/>
</g>
<g>
	<path class="st0" d="M143.5,263.5c-66.2,0-120-53.8-120-120s53.8-120,120-120s120,53.8,120,120S209.7,263.5,143.5,263.5z"/>
	<path class="st1" d="M143.5,31.5c29.9,0,58,11.7,79.2,32.8s32.8,49.3,32.8,79.2s-11.7,58-32.8,79.2s-49.3,32.8-79.2,32.8
		s-58-11.7-79.2-32.8s-32.8-49.3-32.8-79.2s11.7-58,32.8-79.2S113.6,31.5,143.5,31.5 M143.5,15.5c-70.7,0-128,57.3-128,128
		s57.3,128,128,128s128-57.3,128-128S214.2,15.5,143.5,15.5L143.5,15.5z"/>
</g>
<path class="st1" d="M200.9,120.9c0-31.7-25.7-57.4-57.4-57.4c-31.7,0-57.4,25.7-57.4,57.4"/>
<path class="st1" d="M158.5,211.3l-9,0l0-21.4l36.5-36.5l-4.2-4.2l-32.2,32.2l0-44.4c0-3.3-2.7-6-6-6c0,0,0,0,0,0c-3.3,0-6,2.7-6,6
	l0,44.4l-32.3-32.3l-4.2,4.2l36.5,36.5l0,21.2l-9-0.1c0,0,0,0,0,0c-3.3,0-6,2.8-6,6.1c0,3.3,2.7,5.9,6,5.9l30,0c0,0,0,0,0,0
	c3.3,0,6-2.5,6-5.8C164.5,213.8,161.8,211.3,158.5,211.3z"/>
<rect x="110" y="107" class="st1" width="66" height="42"/>
<g>
	<path class="st1" d="M226.5,159.5c0-23-18.4-41.9-41.5-41.9c-23.1,0-41.5,18.9-41.5,41.9l0,0c0-23-18.3-41.9-41.4-41.9
		c-23.1,0-41.4,18.9-41.4,41.9"/>
	<path class="st0" d="M226.5,162.5c-1.7,0-3-1.3-3-3c0-21.5-17.3-38.9-38.5-38.9c-21.2,0-38.5,17.5-38.5,38.9h-6
		c0-21.5-17.2-38.9-38.4-38.9s-38.4,17.5-38.4,38.9c0,1.7-1.3,3-3,3s-3-1.3-3-3c0-24.8,19.9-44.9,44.4-44.9
		c18.9,0,35,11.9,41.5,28.7c6.5-16.8,22.6-28.7,41.5-28.7c24.6,0,44.5,20.1,44.5,44.9C229.5,161.2,228.1,162.5,226.5,162.5z"/>
</g>
</svg>
