<?xml version="1.0" encoding="utf-8"?>
<!-- Generator: Adobe Illustrator 19.2.0, SVG Export Plug-In . SVG Version: 6.00 Build 0)  -->
<svg version="1.0" id="Ebene_1" xmlns="http://www.w3.org/2000/svg" xmlns:xlink="http://www.w3.org/1999/xlink" x="0px" y="0px"
	 viewBox="0 0 256 256" style="enable-background:new 0 0 256 256;" xml:space="preserve">
<style type="text/css">
	.st0{fill:#B2C597;}
	.st1{fill:#5F7A2E;}
</style>
<g>
	<path class="st0" d="M128,248C61.8,248,8,194.2,8,128S61.8,8,128,8s120,53.8,120,120S194.2,248,128,248z"/>
	<g>
		<path class="st1" d="M128,16c29.9,0,58,11.7,79.2,32.8S240,98.1,240,128s-11.7,58-32.8,79.2S157.9,240,128,240s-58-11.7-79.2-32.8
			S16,157.9,16,128s11.7-58,32.8-79.2S98.1,16,128,16 M128,0C57.3,0,0,57.3,0,128s57.3,128,128,128s128-57.3,128-128S198.7,0,128,0
			L128,0z"/>
	</g>
</g>
<g>
	<path class="st1" d="M185.4,105.4c0-31.7-25.7-57.4-57.4-57.4c-31.7,0-57.4,25.7-57.4,57.4"/>
	<path class="st1" d="M143.1,195.8l-9,0l0-21.4l36.5-36.5l-4.2-4.2l-32.2,32.2l0-44.1c0-3.3-2.7-5.7-6-5.7c0,0,0,0,0,0
		c-3.3,0-6,2.4-6,5.8l0,44.3l-32.3-32.3l-4.2,4.2l36.5,36.5l0,21.5l-9,0.1c0,0,0,0,0,0c-3.3,0-6,2.6-6,5.9c0,3.3,2.7,6,6,6l30,0.1
		c0,0,0,0,0,0c3.3,0,6-2.8,6-6.1C149.1,198.6,146.4,195.8,143.1,195.8z"/>
	<rect x="95" y="92" class="st1" width="66" height="42"/>
	<g>
		<path class="st1" d="M211,144c0-23-18.4-41.9-41.5-41.9c-23.1,0-41.5,18.9-41.5,41.9l0,0c0-23-18.3-41.9-41.4-41.9
			C63.3,102.1,45,121,45,144"/>
		<path class="st0" d="M211,147c-1.7,0-3-1.3-3-3c0-21.5-17.3-38.9-38.5-38.9c-21.2,0-38.5,17.5-38.5,38.9h-6
			c0-21.5-17.2-38.9-38.4-38.9S48,122.6,48,144c0,1.7-1.3,3-3,3s-3-1.3-3-3c0-24.8,19.9-44.9,44.4-44.9c18.9,0,35,11.9,41.5,28.7
			c6.5-16.8,22.6-28.7,41.5-28.7c24.6,0,44.5,20.1,44.5,44.9C214,145.7,212.6,147,211,147z"/>
	</g>
</g>
</svg>
