<?xml version="1.0" encoding="utf-8"?>
<!-- Generator: Adobe Illustrator 19.2.0, SVG Export Plug-In . SVG Version: 6.00 Build 0)  -->
<svg version="1.0" id="Ebene_1" xmlns="http://www.w3.org/2000/svg" xmlns:xlink="http://www.w3.org/1999/xlink" x="0px" y="0px"
	 viewBox="0 0 256 256" style="enable-background:new 0 0 256 256;" xml:space="preserve">
<style type="text/css">
	.st0{fill:#B2C597;}
	.st1{fill:#5F7A2E;}
	.st2{fill:none;stroke:#000000;stroke-miterlimit:10;}
	.st3{fill:#FFFFFF;stroke:#4D8333;stroke-width:2;stroke-miterlimit:10;}
	.st4{fill:none;stroke:#5F7A2E;stroke-width:12;stroke-linecap:round;stroke-linejoin:round;stroke-miterlimit:10;}
</style>
<g>
	<path class="st0" d="M128,248C61.8,248,8,194.2,8,128S61.8,8,128,8s120,53.8,120,120S194.2,248,128,248z"/>
	<g>
		<path class="st1" d="M128,16c29.9,0,58,11.7,79.2,32.8S240,98.1,240,128s-11.7,58-32.8,79.2S157.9,240,128,240s-58-11.7-79.2-32.8
			C27.7,186,16,157.9,16,128s11.7-58,32.8-79.2C70,27.7,98.1,16,128,16 M128,0C57.3,0,0,57.3,0,128s57.3,128,128,128
			c70.7,0,128-57.3,128-128S198.7,0,128,0L128,0z"/>
	</g>
</g>
<path class="st1" d="M84.6,159.5c-0.6,1.8,0,3.7,1.6,4.7c12.1,7.5,26.4,11.8,41.7,11.8c14.8,0,28.7-4.1,40.6-11.1
	c1.6-1,2.3-2.9,1.7-4.7L131.7,50.7c-1.2-3.5-6.1-3.5-7.4,0L84.6,159.5z"/>
<path class="st2" d="M125.5,121"/>
<path class="st3" d="M125.5,201.7"/>
<line class="st4" x1="128" y1="178.1" x2="128.1" y2="201.9"/>
<line class="st4" x1="112.9" y1="201.7" x2="143.1" y2="201.7"/>
</svg>
