<?xml version="1.0" encoding="utf-8"?>
<!-- Generator: Adobe Illustrator 19.2.0, SVG Export Plug-In . SVG Version: 6.00 Build 0)  -->
<svg version="1.0" id="Ebene_1" xmlns="http://www.w3.org/2000/svg" xmlns:xlink="http://www.w3.org/1999/xlink" x="0px" y="0px"
	 viewBox="0 0 287 287" style="enable-background:new 0 0 287 287;" xml:space="preserve">
<style type="text/css">
	.st0{fill:#B2C597;}
	.st1{fill:#5F7A2E;}
	.st2{fill:none;stroke:#000000;stroke-width:2;stroke-miterlimit:10;}
	.st3{fill:#558D31;stroke:#A1BC8A;stroke-miterlimit:10;}
	.st4{fill:none;}
</style>
<g>
	<path class="st0" d="M143.5,283C66.6,283,4,220.4,4,143.5C4,66.6,66.6,4,143.5,4C220.4,4,283,66.6,283,143.5
		C283,220.4,220.4,283,143.5,283z"/>
	<g>
		<path class="st1" d="M143.5,8c36.2,0,70.2,14.1,95.8,39.7c25.6,25.6,39.7,59.6,39.7,95.8c0,36.2-14.1,70.2-39.7,95.8
			c-25.6,25.6-59.6,39.7-95.8,39.7s-70.2-14.1-95.8-39.7C22.1,213.7,8,179.7,8,143.5c0-36.2,14.1-70.2,39.7-95.8
			C73.3,22.1,107.3,8,143.5,8 M143.5,0C64.2,0,0,64.2,0,143.5C0,222.8,64.2,287,143.5,287S287,222.8,287,143.5
			C287,64.2,222.8,0,143.5,0L143.5,0z"/>
	</g>
</g>
<g>
	<path class="st0" d="M143.5,263.5c-66.2,0-120-53.8-120-120s53.8-120,120-120s120,53.8,120,120S209.7,263.5,143.5,263.5z"/>
	<g>
		<path class="st1" d="M143.5,31.5c29.9,0,58,11.7,79.2,32.8s32.8,49.3,32.8,79.2s-11.7,58-32.8,79.2s-49.3,32.8-79.2,32.8
			s-58-11.7-79.2-32.8s-32.8-49.3-32.8-79.2s11.7-58,32.8-79.2S113.6,31.5,143.5,31.5 M143.5,15.5c-70.7,0-128,57.3-128,128
			s57.3,128,128,128s128-57.3,128-128S214.2,15.5,143.5,15.5L143.5,15.5z"/>
	</g>
</g>
<path class="st2" d="M146.4,115.1"/>
<path class="st3" d="M63.3,154.8"/>
<g>
	<path class="st4" d="M94.9,235.6l96.4,0.1c4.2-2.2,8.3-4.7,12.1-7.4l-120.6-0.1C86.7,230.9,90.7,233.4,94.9,235.6z"/>
	<path class="st1" d="M82.8,228.2l120.6,0.1c5-3.6,9.7-7.6,14-12l-148.7-0.2C73.1,220.6,77.8,224.6,82.8,228.2z"/>
	<path class="st1" d="M143.2,247.5c17.4,0,33.7-4.3,48.1-11.8l-96.4-0.1C109.3,243.2,125.8,247.5,143.2,247.5z"/>
</g>
<path class="st1" d="M200.9,120.1c0-31.7-25.7-57.4-57.4-57.4c-31.7,0-57.4,25.7-57.4,57.4"/>
<path class="st1" d="M158.5,210.5l-9,0l0-21.4l36.5-36.5l-4.2-4.2l-32.2,32.2l0-44.5c0-3.3-2.7-6.1-6-6.1c0,0,0,0,0,0
	c-3.3,0-6,2.8-6,6.1l0,44.5l-32.3-32.2l-4.2,4.3l36.5,36.5l0,21.1l-9-0.3c0,0,0,0,0,0c-3.3,0-6,2.9-6,6.2c0,3.3,2.7,5.9,6,5.9
	l30-0.1c0,0,0,0,0,0c3.3,0,6-2.4,6-5.7C164.5,213,161.8,210.5,158.5,210.5z"/>
<rect x="110" y="106" class="st1" width="66" height="42"/>
<g>
	<path class="st1" d="M226.5,158.8c0-23-18.4-41.9-41.5-41.9c-23.1,0-41.5,18.9-41.5,41.9l0,0c0-23-18.3-41.9-41.4-41.9
		c-23.1,0-41.4,18.9-41.4,41.9"/>
	<path class="st0" d="M226.5,161.8c-1.7,0-3-1.3-3-3c0-21.5-17.3-38.9-38.5-38.9c-21.2,0-38.5,17.5-38.5,38.9h-6
		c0-21.5-17.2-38.9-38.4-38.9s-38.4,17.5-38.4,38.9c0,1.7-1.3,3-3,3s-3-1.3-3-3c0-24.8,19.9-44.9,44.4-44.9
		c18.9,0,35,11.9,41.5,28.7c6.5-16.8,22.6-28.7,41.5-28.7c24.6,0,44.5,20.1,44.5,44.9C229.5,160.4,228.1,161.8,226.5,161.8z"/>
</g>
</svg>
