<?xml version="1.0" encoding="utf-8"?>
<!-- Generator: Adobe Illustrator 19.2.0, SVG Export Plug-In . SVG Version: 6.00 Build 0)  -->
<svg version="1.0" id="Ebene_1" xmlns="http://www.w3.org/2000/svg" xmlns:xlink="http://www.w3.org/1999/xlink" x="0px" y="0px"
	 viewBox="0 0 256 256" style="enable-background:new 0 0 256 256;" xml:space="preserve">
<style type="text/css">
	.st0{fill:#B2C597;}
	.st1{fill:#5F7A2E;}
	.st2{fill:none;stroke:#000000;stroke-width:2;stroke-miterlimit:10;}
	.st3{fill:#4D8333;stroke:#98B481;stroke-miterlimit:10;}
	.st4{fill:none;}
</style>
<g>
	<path class="st0" d="M128,248C61.8,248,8,194.2,8,128S61.8,8,128,8s120,53.8,120,120S194.2,248,128,248z"/>
	<g>
		<path class="st1" d="M128,16c29.9,0,58,11.7,79.2,32.8S240,98.1,240,128s-11.7,58-32.8,79.2S157.9,240,128,240s-58-11.7-79.2-32.8
			S16,157.9,16,128s11.7-58,32.8-79.2S98.1,16,128,16 M128,0C57.3,0,0,57.3,0,128s57.3,128,128,128s128-57.3,128-128S198.7,0,128,0
			L128,0z"/>
	</g>
</g>
<path class="st2" d="M128,79.6"/>
<path class="st3" d="M128,119.3"/>
<g>
	<path class="st4" d="M79.8,220.6l96.4,0.1c4.2-2.2,8.3-4.7,12.1-7.4l-120.6-0.1C71.5,215.9,75.6,218.4,79.8,220.6z"/>
	<path class="st1" d="M67.7,213.2l120.6,0.1c5-3.6,9.7-7.6,14-12l-148.7-0.2C58,205.6,62.7,209.6,67.7,213.2z"/>
	<path class="st1" d="M128.1,232.5c17.4,0,33.7-4.3,48.1-11.8l-96.4-0.1C94.2,228.2,110.6,232.5,128.1,232.5z"/>
</g>
<path class="st1" d="M185.4,105.3c0-31.7-25.7-57.4-57.4-57.4c-31.7,0-57.4,25.7-57.4,57.4"/>
<path class="st1" d="M143,195.7l-9,0l0-21.4l36.5-36.5l-4.2-4.2L134,165.8l0-44.3c0-3.3-2.7-5.9-6-5.9c0,0,0,0,0,0
	c-3.3,0-6,2.6-6,5.9l0,44.3l-32.3-32.3l-4.2,4.2l36.5,36.5l0,21.3l-9-0.1c0,0,0,0,0,0c-3.3,0-6,2.7-6,6c0,3.3,2.7,6,6,6l30,0
	c0,0,0,0,0,0c3.3,0,6-2.6,6-5.9C149,198.3,146.3,195.7,143,195.7z"/>
<rect x="94" y="91.6" class="st1" width="66" height="42"/>
<g>
	<path class="st1" d="M211,143.9c0-23-18.4-41.9-41.5-41.9c-23.1,0-41.5,18.9-41.5,41.9l0,0c0-23-18.3-41.9-41.4-41.9
		C63.3,102,45,120.9,45,143.9"/>
	<path class="st0" d="M211,146.9c-1.7,0-3-1.3-3-3c0-21.5-17.3-39.1-38.5-39.1c-21.2,0-38.5,17.7-38.5,38.7h-6
		c0-21-17.2-38.7-38.4-38.7S48,122.4,48,143.9c0,1.7-1.3,3-3,3s-3-1.3-3-3C42,119.2,61.9,99,86.5,99c18.9,0,35,11.9,41.5,28.7
		c6.5-16.8,22.6-28.7,41.5-28.7c24.6,0,44.5,20.1,44.5,44.9C214,145.6,212.6,146.9,211,146.9z"/>
</g>
</svg>
