<?xml version="1.0" encoding="utf-8"?>
<!-- Generator: Adobe Illustrator 19.2.0, SVG Export Plug-In . SVG Version: 6.00 Build 0)  -->
<svg version="1.0" id="Ebene_1" xmlns="http://www.w3.org/2000/svg" xmlns:xlink="http://www.w3.org/1999/xlink" x="0px" y="0px"
	 viewBox="0 0 287 287" style="enable-background:new 0 0 287 287;" xml:space="preserve">
<style type="text/css">
	.st0{fill:#B2C597;}
	.st1{fill:#5F7A2E;}
	.st2{fill:#FFFFFF;stroke:#000000;stroke-miterlimit:10;}
	.st3{fill:none;}
</style>
<g>
	<path class="st0" d="M143.5,283C66.6,283,4,220.4,4,143.5C4,66.6,66.6,4,143.5,4C220.4,4,283,66.6,283,143.5
		C283,220.4,220.4,283,143.5,283z"/>
	<path class="st1" d="M143.5,8c36.2,0,70.2,14.1,95.8,39.7c25.6,25.6,39.7,59.6,39.7,95.8c0,36.2-14.1,70.2-39.7,95.8
		c-25.6,25.6-59.6,39.7-95.8,39.7s-70.2-14.1-95.8-39.7C22.1,213.7,8,179.7,8,143.5c0-36.2,14.1-70.2,39.7-95.8
		C73.3,22.1,107.3,8,143.5,8 M143.5,0C64.2,0,0,64.2,0,143.5C0,222.8,64.2,287,143.5,287S287,222.8,287,143.5
		C287,64.2,222.8,0,143.5,0L143.5,0z"/>
</g>
<g>
	<path class="st0" d="M143.5,263.5c-66.2,0-120-53.8-120-120s53.8-120,120-120s120,53.8,120,120S209.7,263.5,143.5,263.5z"/>
	<g>
		<path class="st1" d="M143.5,31.5c29.9,0,58,11.7,79.2,32.8s32.8,49.3,32.8,79.2s-11.7,58-32.8,79.2s-49.3,32.8-79.2,32.8
			s-58-11.7-79.2-32.8s-32.8-49.3-32.8-79.2s11.7-58,32.8-79.2S113.6,31.5,143.5,31.5 M143.5,15.5c-70.7,0-128,57.3-128,128
			s57.3,128,128,128s128-57.3,128-128S214.2,15.5,143.5,15.5L143.5,15.5z"/>
	</g>
</g>
<path class="st2" d="M141,224.2"/>
<g>
	<path class="st3" d="M94.8,236.7l96.4,0.1c4.2-2.2,8.3-4.7,12.1-7.4l-120.6-0.1C86.5,232,90.6,234.5,94.8,236.7z"/>
	<path class="st1" d="M82.7,229.3l120.6,0.1c5-3.6,9.7-7.6,14-12l-148.7-0.2C73,221.7,77.7,225.7,82.7,229.3z"/>
	<path class="st1" d="M143.1,248.6c17.4,0,33.7-4.3,48.1-11.8l-96.4-0.1C109.2,244.3,125.6,248.6,143.1,248.6z"/>
</g>
<g>
	<g>
		<path class="st1" d="M143.1,224c-3.3,0-6-3.1-6-6.4l-0.1-52.5c0-3.3,2.7-6.1,6-6.1c0,0,0,0,0,0c3.3,0,6,2.6,6,5.9l0.1,52.7
			C149.1,220.9,146.4,224,143.1,224C143.1,224,143.1,224,143.1,224z"/>
	</g>
	<g>
		<path class="st1" d="M158.4,223.8C158.4,223.8,158.4,223.8,158.4,223.8l-30,0c-3.3,0-6-2.7-6-6c0-3.3,2.7-6,6-6c0,0,0,0,0,0l30,0
			c3.3,0,6,2.7,6,6C164.4,221.2,161.7,223.8,158.4,223.8z"/>
	</g>
	<circle class="st1" cx="143.5" cy="119.2" r="56"/>
</g>
</svg>
