<?xml version="1.0" encoding="utf-8"?>
<!-- Generator: Adobe Illustrator 19.2.0, SVG Export Plug-In . SVG Version: 6.00 Build 0)  -->
<svg version="1.0" id="Ebene_1" xmlns="http://www.w3.org/2000/svg" xmlns:xlink="http://www.w3.org/1999/xlink" x="0px" y="0px"
	 viewBox="0 0 256 256" style="enable-background:new 0 0 256 256;" xml:space="preserve">
<style type="text/css">
	.st0{fill:#B2C597;}
	.st1{fill:#5F7A2E;}
	.st2{fill:#B2C597;stroke:#A8BB8C;stroke-width:12;stroke-linecap:round;stroke-miterlimit:10;}
</style>
<g>
	<path class="st0" d="M128,248C61.8,248,8,194.2,8,128S61.8,8,128,8s120,53.8,120,120S194.2,248,128,248z"/>
	<path class="st1" d="M128,16c29.9,0,58,11.7,79.2,32.8S240,98.1,240,128c0,29.9-11.7,58-32.8,79.2C186,228.3,157.9,240,128,240
		s-58-11.7-79.2-32.8C27.7,186,16,157.9,16,128c0-29.9,11.7-58,32.8-79.2S98.1,16,128,16 M128,0C57.3,0,0,57.3,0,128
		c0,70.7,57.3,128,128,128s128-57.3,128-128C256,57.3,198.7,0,128,0L128,0z"/>
</g>
<g>
	<path class="st1" d="M189.6,181.3c11.5-6.7,18.4-16.4,18.4-26.1c0-9.7-6.9-18.9-18.4-25.8c3.2-13,1.8-24.3-5-31.2
		c-6.9-6.9-18-8.3-31.1-5.1c-6.9-11.5-15.8-18.4-25.5-18.4c-9.7,0-18.6,6.9-25.5,18.4c-13-3.2-24.2-1.8-31.1,5
		c-6.9,6.9-8.3,18-5,31.1C54.9,136.1,48,145.5,48,155.2c0,9.7,6.9,19.4,18.4,26.1H189.6z"/>
	<g>
		<line class="st2" x1="128" y1="180.3" x2="128" y2="157.3"/>
		<line class="st2" x1="128" y1="160.3" x2="154.7" y2="133.7"/>
		<line class="st2" x1="101.3" y1="133.7" x2="128" y2="160.3"/>
	</g>
</g>
</svg>
