<?xml version="1.0" encoding="utf-8"?>
<!-- Generator: Adobe Illustrator 19.1.0, SVG Export Plug-In . SVG Version: 6.00 Build 0)  -->
<svg version="1.0" id="Ebene_1" xmlns="http://www.w3.org/2000/svg" xmlns:xlink="http://www.w3.org/1999/xlink" x="0px" y="0px"
	 viewBox="0 0 256 256" style="enable-background:new 0 0 256 256;" xml:space="preserve">
<style type="text/css">
	.st0{fill:#E7C7B2;}
	.st1{fill:#CB6843;}
</style>
<g>
	<path class="st0" d="M24,248c-8.8,0-16-7.2-16-16V24c0-8.8,7.2-16,16-16h208c8.8,0,16,7.2,16,16v208c0,8.8-7.2,16-16,16H24z"/>
	<path class="st1" d="M232,16c4.4,0,8,3.6,8,8v208c0,4.4-3.6,8-8,8H24c-4.4,0-8-3.6-8-8V24c0-4.4,3.6-8,8-8H232 M232,0H24
		C10.7,0,0,10.7,0,24v208c0,13.3,10.7,24,24,24h208c13.3,0,24-10.7,24-24V24C256,10.7,245.3,0,232,0L232,0z"/>
</g>
<g>
	<path class="st1" d="M173.7,208c-5.4,0-5.3,0.1-5.6-1.3l-0.1-0.4l-10.7-58.1c-0.6-3.2-3.3-5.7-6.6-6l-44.4-3.8
		c-3.8-0.3-7.2,2.3-7.8,6.1c-0.9,5.7-2.3,14.2-4.1,25.1c-2.7,16.6-5.5,33.6-5.7,34.9c-0.5,3.2,0.1,3.5-3.2,3.5c-2.2,0-6.5,0-9.2,0
		c-2,0-1.5-3.7-1.2-5.7c0.2-1.1,2.5-15.9,4.8-30.2l0.4-2.6c3.7-23.5,5.5-34.9,5.6-35.5l0,0.1c1.7-6.8,6.3-9.1,9.9-9.1c0,0,0,0,0,0
		c0.6,0,37.2,2.8,53,4.1c3.8,0.3,7.2-2.5,7.8-6.2c0.9-6.1,2.2-14.7,3.2-21.2l5.9-48.1c0.7-4.9,1.9-5.4,4.8-5.5c1.6-0.1,6.1,0,7.7,0
		c2.4,0,1.8,1.7,1.8,1.7l-6.3,54.2c-1.1,8.1-3.5,26.6-4,29.1c0,0,0,0,0,0c-0.1,0.8-0.2,1.7,0,2.5l11.4,66.4c0.9,4.8,1.5,5.9-1.1,5.9
		C178.1,208,175.8,208,173.7,208z"/>
</g>
</svg>
