<?xml version="1.0" encoding="utf-8"?>
<!-- Generator: Adobe Illustrator 19.1.0, SVG Export Plug-In . SVG Version: 6.00 Build 0)  -->
<svg version="1.0" id="Ebene_1" xmlns="http://www.w3.org/2000/svg" xmlns:xlink="http://www.w3.org/1999/xlink" x="0px" y="0px"
	 viewBox="0 0 256 256" style="enable-background:new 0 0 256 256;" xml:space="preserve">
<style type="text/css">
	.st0{fill:#E7C7B2;}
	.st1{fill:#CB6843;}
	.st2{fill:none;stroke:#CB6843;stroke-width:12;stroke-miterlimit:10;}
	.st3{fill:#CB6843;stroke:#CB6843;stroke-width:2;stroke-miterlimit:10;}
	.st4{fill:#CB6843;stroke:#CB6843;stroke-width:2.1831;stroke-miterlimit:10;}
</style>
<g>
	<path class="st0" d="M24,248c-8.8,0-16-7.2-16-16V24c0-8.8,7.2-16,16-16h208c8.8,0,16,7.2,16,16v208c0,8.8-7.2,16-16,16H24z"/>
	<path class="st1" d="M232,16c4.4,0,8,3.6,8,8v208c0,4.4-3.6,8-8,8H24c-4.4,0-8-3.6-8-8V24c0-4.4,3.6-8,8-8H232 M232,0H24
		C10.7,0,0,10.7,0,24v208c0,13.3,10.7,24,24,24h208c13.3,0,24-10.7,24-24V24C256,10.7,245.3,0,232,0L232,0z"/>
</g>
<g id="Tisch_Bank">
	<path class="st2" d="M158,91.2c0,0-26.8,82.1-27.8,84.7c-1.2,3.2-3.9,10.2,5.8,10.2c3.9,0,72.3,0,72.3,0s13.5,0.2,8.6-11.8
		s-13-35.3-13-35.3"/>
	<path class="st2" d="M98,91.2c0,0,26.8,82.1,27.8,84.7c1.2,3.2,3.9,10.3-5.8,10.2c-3.9,0-72.3,0-72.3,0s-13.5,0.2-8.6-11.8
		s13-35.3,13-35.3"/>
	<g>
		<path class="st3" d="M72.7,142.8H33.9c-0.3,0-0.6-0.6-0.6-1.2v-7.5c0-0.7,0.3-1.2,0.6-1.2h38.8c0.3,0,0.6,0.6,0.6,1.2v7.5
			C73.3,142.3,73,142.8,72.7,142.8z"/>
	</g>
	<g>
		<path class="st3" d="M222.3,142.8h-38.8c-0.3,0-0.6-0.6-0.6-1.2v-7.5c0-0.7,0.3-1.2,0.6-1.2h38.8c0.3,0,0.6,0.6,0.6,1.2v7.5
			C222.9,142.3,222.6,142.8,222.3,142.8z"/>
	</g>
	<g>
		<path class="st4" d="M182.3,95H73.7c-0.9,0-1.7-0.8-1.7-1.7V82.7c0-1,0.8-1.7,1.7-1.7h108.6c0.9,0,1.7,0.8,1.7,1.7v10.5
			C184,94.2,183.2,95,182.3,95z"/>
	</g>
</g>
</svg>
