<?xml version="1.0" encoding="utf-8"?>
<!-- Generator: Adobe Illustrator 19.1.0, SVG Export Plug-In . SVG Version: 6.00 Build 0)  -->
<svg version="1.0" id="Ebene_1" xmlns="http://www.w3.org/2000/svg" xmlns:xlink="http://www.w3.org/1999/xlink" x="0px" y="0px"
	 viewBox="0 0 256 256" style="enable-background:new 0 0 256 256;" xml:space="preserve">
<style type="text/css">
	.st0{fill:#E7C7B2;}
	.st1{fill:#CB6843;}
	.st2{fill-rule:evenodd;clip-rule:evenodd;fill:#E7C7B2;}
	.st3{fill-rule:evenodd;clip-rule:evenodd;fill:#CB6843;}
</style>
<g>
	<path class="st0" d="M24,248c-8.8,0-16-7.2-16-16V24c0-8.8,7.2-16,16-16h208c8.8,0,16,7.2,16,16v208c0,8.8-7.2,16-16,16H24z"/>
	<path class="st1" d="M232,16c4.4,0,8,3.6,8,8v208c0,4.4-3.6,8-8,8H24c-4.4,0-8-3.6-8-8V24c0-4.4,3.6-8,8-8H232 M232,0H24
		C10.7,0,0,10.7,0,24v208c0,13.3,10.7,24,24,24h208c13.3,0,24-10.7,24-24V24C256,10.7,245.3,0,232,0L232,0z"/>
</g>
<g>
	<g>
		<path class="st1" d="M172.7,208.2H83.3c-1.8,0-3.3-1.6-3.3-3.5V62.6C80,48.5,105.8,47,128,47s48,1.5,48,15.6v142.2
			C176,206.7,174.6,208.2,172.7,208.2z"/>
	</g>
	<path class="st0" d="M158.2,93.3H97.8c-1.8,0-3.3-1.5-3.3-3.3V69.2C94.6,62,128,62,128,62s33.4,0.1,33.4,7.2V90
		C161.4,91.8,160,93.3,158.2,93.3z"/>
</g>
<g>
	<g>
		<path class="st2" d="M156.4,150.1c-0.5-0.3-1-0.7-1.5-0.8c-1.8-0.4-2-0.9-3.1-2.4c-0.4-0.6-1-1.1-1.5-1.6c-1.4-1-2.3-2.1-1.6-4.1
			c0.4-1-0.6-2.4-1.3-2.6c-0.8-0.2-1.7,0.5-2.4,1.6c-1,1.7-2,3.5-3.2,5.1c-1.3,1.8-2.2,3.3-3.6,5.1c-4.6,5.7-24.5,2.1-26.8,1.2
			c-2.8-1.1-5.8-6.5-5.8-6.5s-4-4-2.6,4.3c0.3,1.8,6.3,6,6.3,6s-1.2,5.7,0.2,9.1c0.9,2.4-0.8,16-0.5,16.2c0.3,0.2,4.9,0.3,5.2,0
			c0.2-0.3,1.6-14.9,1.9-15.3c0.3-0.5,17.5,1.1,17.9,1.5c0.5,0.4,1.3,13.6,1.6,13.8c0.3,0.2,4,0.3,4.3,0c0.3-0.3-0.6-12.6,0-15.2
			c0.3-1.4,2.6-7.6,6.3-11.1c0,0,0,0,0,0c1.2-1.3,2.4-1.4,4.1-0.6c3.1,1.6,4.5,1.6,5.8-1.6c0.1-0.2,0.2-0.3,0.3-0.5
			C156.6,151.5,156.8,150.3,156.4,150.1z"/>
		<polygon class="st3" points="145.7,159.3 136.6,149.6 137.9,148.4 146.9,158.2 		"/>
	</g>
</g>
</svg>
