<?xml version="1.0" encoding="utf-8"?>
<!-- Generator: Adobe Illustrator 19.1.0, SVG Export Plug-In . SVG Version: 6.00 Build 0)  -->
<svg version="1.0" id="Ebene_1" xmlns="http://www.w3.org/2000/svg" xmlns:xlink="http://www.w3.org/1999/xlink" x="0px" y="0px"
	 viewBox="0 0 256 256" style="enable-background:new 0 0 256 256;" xml:space="preserve">
<style type="text/css">
	.st0{fill:#E7C7B2;}
	.st1{fill:#CB6843;}
	.st2{fill:#CD6843;}
</style>
<g>
	<path class="st0" d="M24,248c-8.8,0-16-7.2-16-16V24c0-8.8,7.2-16,16-16h208c8.8,0,16,7.2,16,16v208c0,8.8-7.2,16-16,16H24z"/>
	<path class="st1" d="M232,16c4.4,0,8,3.6,8,8v208c0,4.4-3.6,8-8,8H24c-4.4,0-8-3.6-8-8V24c0-4.4,3.6-8,8-8H232 M232,0H24
		C10.7,0,0,10.7,0,24v208c0,13.3,10.7,24,24,24h208c13.3,0,24-10.7,24-24V24C256,10.7,245.3,0,232,0L232,0z"/>
</g>
<path class="st1" d="M217.2,128h4.8c1.1,0,2-0.9,2-2v-12c0-1.1-0.9-2-2-2H34c-1.1,0-2,0.9-2,2v12c0,1.1,0.9,2,2,2l4.6-0.1
	c0.8,0,1.5,0.4,1.8,1.1l31,61.9c0.3,0.7,1,1.1,1.8,1.1h109.5c0.8,0,1.5-0.4,1.8-1.1l30.9-61.8C215.8,128.4,216.5,128,217.2,128z"/>
<path class="st2" d="M240,208.1H16v-64l14.8-0.1c0.8,0,1.5,0.4,1.8,1.1L63.4,207c0.3,0.7,1,1.1,1.8,1.1h125.5c0.8,0,1.4-0.4,1.8-1.1
	l31-61.8c0.3-0.7,1-1.1,1.8-1.1l14.8,0L240,208.1z"/>
<rect x="8" y="206.3" class="st2" width="236.7" height="38.3"/>
</svg>
