<?xml version="1.0" encoding="utf-8"?>
<!-- Generator: Adobe Illustrator 19.1.0, SVG Export Plug-In . SVG Version: 6.00 Build 0)  -->
<svg version="1.0" id="Ebene_1" xmlns="http://www.w3.org/2000/svg" xmlns:xlink="http://www.w3.org/1999/xlink" x="0px" y="0px"
	 viewBox="0 0 256 256" style="enable-background:new 0 0 256 256;" xml:space="preserve">
<style type="text/css">
	.st0{fill:#E7C7B2;}
	.st1{fill:#CB6843;}
</style>
<g>
	<path class="st0" d="M24,248c-8.8,0-16-7.2-16-16V24c0-8.8,7.2-16,16-16h208c8.8,0,16,7.2,16,16v208c0,8.8-7.2,16-16,16H24z"/>
	<path class="st1" d="M232,16c4.4,0,8,3.6,8,8v208c0,4.4-3.6,8-8,8H24c-4.4,0-8-3.6-8-8V24c0-4.4,3.6-8,8-8H232 M232,0H24
		C10.7,0,0,10.7,0,24v208c0,13.3,10.7,24,24,24h208c13.3,0,24-10.7,24-24V24C256,10.7,245.3,0,232,0L232,0z"/>
</g>
<g>
	<g>
		<path class="st1" d="M168,176H88.1c-1.6,0-3,0-3,0V45.9c0-12.6,23.1-13.9,42.9-13.9S171,33.4,171,45.9V176
			C171,176,169.6,176,168,176z"/>
	</g>
	<path class="st0" d="M155,76h-53.9c-1.6,0-2.9-1.3-2.9-3V54.4c0-6.4,29.8-6.4,29.8-6.4s29.8,0.1,29.8,6.4V73
		C157.9,74.6,156.6,76,155,76z"/>
</g>
<polygon class="st1" points="251,241 176,240 171,224 171,176 251,176 "/>
<polygon class="st1" points="5.2,241 80,241 85.2,224 85.2,176 5.2,176 "/>
</svg>
