<?xml version="1.0" encoding="utf-8"?>
<!-- Generator: Adobe Illustrator 19.1.0, SVG Export Plug-In . SVG Version: 6.00 Build 0)  -->
<svg version="1.0" id="Ebene_1" xmlns="http://www.w3.org/2000/svg" xmlns:xlink="http://www.w3.org/1999/xlink" x="0px" y="0px"
	 viewBox="0 0 256 256" style="enable-background:new 0 0 256 256;" xml:space="preserve">
<style type="text/css">
	.st0{fill:#E7C7B2;}
	.st1{fill:#CB6843;}
</style>
<g>
	<path class="st0" d="M24,248c-8.8,0-16-7.2-16-16V24c0-8.8,7.2-16,16-16h208c8.8,0,16,7.2,16,16v208c0,8.8-7.2,16-16,16H24z"/>
	<path class="st1" d="M232,16c4.4,0,8,3.6,8,8v208c0,4.4-3.6,8-8,8H24c-4.4,0-8-3.6-8-8V24c0-4.4,3.6-8,8-8H232 M232,0H24
		C10.7,0,0,10.7,0,24v208c0,13.3,10.7,24,24,24h208c13.3,0,24-10.7,24-24V24C256,10.7,245.3,0,232,0L232,0z"/>
</g>
<g>
	<g>
		<rect x="63.8" y="172.8" class="st1" width="12.1" height="19.2"/>
	</g>
</g>
<g>
	<g>
		<rect x="180.6" y="172.8" class="st1" width="12.1" height="19.2"/>
	</g>
</g>
<path class="st1" d="M221.4,72.7c-0.8-0.5-1.7-0.7-2.6-0.7H37.2c-0.9,0-1.8,0.2-2.6,0.7c-1.8,1.1-2.8,3.1-2.5,5.1l10.1,77.8
	c2.7,16.1,13.3,27.4,25.7,27.4h123.9c8.3,0,18.9-4.9,22-27.6L224,77.8C224.2,75.8,223.3,73.7,221.4,72.7z M120.2,82l5.7,5.8
	l-9.3,9.3l-9.3-9.3l5.7-5.8H120.2z M144.5,82l5.7,5.8L141,97l-9.3-9.3l5.7-5.8H144.5z M207.3,127.5l-5.7,5.7l-9.2-9.2l9.3-9.2
	l6.5,6.5L207.3,127.5z M48.1,122.8l8-7.9l9.3,9.2l-9.2,9.2l-7.6-7.6L48.1,122.8z M44.5,82h3l5.7,5.8l-8.6,8.6L43,83.5L44.5,82z
	 M56.1,90.7l9.3,9.2l-9.3,9.2l-9.3-9.2L56.1,90.7z M71.7,82l5.7,5.8L68.2,97l-9.3-9.3l5.7-5.8H71.7z M96,82l5.7,5.8L92.5,97
	l-9.3-9.3l5.7-5.8H96z M168.8,82l5.7,5.8l-9.3,9.3l-9.3-9.3l5.7-5.8H168.8z M193,82l5.7,5.8l-9.3,9.3l-9.3-9.3l5.7-5.8H193z
	 M186.6,99.9l-9.3,9.2l-9.3-9.2l9.3-9.2L186.6,99.9z M89.6,124.1l-9.3,9.2l-9.3-9.2l9.3-9.2L89.6,124.1z M83.2,112l9.3-9.2l9.3,9.2
	l-9.3,9.2L83.2,112z M92.5,126.9l9.3,9.2l-9.3,9.2l-9.3-9.2L92.5,126.9z M95.3,124.1l9.3-9.2l9.3,9.2l-9.3,9.2L95.3,124.1z
	 M116.7,126.9l9.3,9.2l-9.3,9.2l-9.3-9.2L116.7,126.9z M119.6,124.1l9.3-9.2l9.3,9.2l-9.3,9.2L119.6,124.1z M141,126.9l9.3,9.2
	l-9.3,9.2l-9.3-9.2L141,126.9z M143.8,124.1l9.3-9.2l9.3,9.2l-9.3,9.2L143.8,124.1z M165.2,126.9l9.3,9.2l-9.3,9.2l-9.3-9.2
	L165.2,126.9z M168.1,124.1l9.3-9.2l9.3,9.2l-9.3,9.2L168.1,124.1z M165.2,121.2l-9.3-9.2l9.3-9.2l9.3,9.2L165.2,121.2z M162.4,99.9
	l-9.3,9.2l-9.3-9.2l9.3-9.2L162.4,99.9z M150.2,112l-9.3,9.2l-9.3-9.2l9.3-9.2L150.2,112z M128.8,109.2l-9.3-9.2l9.3-9.2l9.3,9.2
	L128.8,109.2z M126,112l-9.3,9.2l-9.3-9.2l9.3-9.2L126,112z M104.6,109.2l-9.3-9.2l9.3-9.2l9.3,9.2L104.6,109.2z M89.6,99.9
	l-9.3,9.2l-9.3-9.2l9.3-9.2L89.6,99.9z M68.2,102.8l9.3,9.2l-9.3,9.2l-9.3-9.2L68.2,102.8z M68.2,126.9l9.3,9.2l-9.2,9.2l-9.3-9.2
	L68.2,126.9z M80.3,139l9.3,9.2l-9.2,9.2l-9.3-9.2L80.3,139z M92.5,151.1l9.3,9.2l-9.2,9.2l-9.3-9.2L92.5,151.1z M95.3,148.2
	l9.3-9.2l9.3,9.2l-9.3,9.2L95.3,148.2z M116.7,151.1l9.3,9.2l-9.3,9.2l-9.3-9.2L116.7,151.1z M119.6,148.2l9.3-9.2l9.3,9.2l-9.3,9.2
	L119.6,148.2z M141,151.1l9.3,9.2l-9.3,9.2l-9.3-9.2L141,151.1z M143.8,148.2l9.3-9.2l9.3,9.2l-9.3,9.2L143.8,148.2z M165.2,151.1
	l9.2,9.2l-9.3,9.2l-9.2-9.2L165.2,151.1z M168.1,148.2l9.3-9.2l9.2,9.2l-9.3,9.2L168.1,148.2z M180.2,136.2l9.3-9.2l9.2,9.2
	l-9.3,9.2L180.2,136.2z M189.5,121.2l-9.3-9.2l9.3-9.2l9.3,9.2L189.5,121.2z M192.3,99.9l9.3-9.2l9.3,9.2l-9.3,9.2L192.3,99.9z
	 M211.5,94.8l-7.1-7.1l5.7-5.7h3L211.5,94.8z M201.6,84.9l-2.9-2.9h5.7L201.6,84.9z M177.3,84.9l-2.9-2.9h5.7L177.3,84.9z
	 M153.1,84.9l-2.9-2.9h5.7L153.1,84.9z M128.8,84.9L126,82h5.7L128.8,84.9z M104.6,84.9l-2.9-2.9h5.7L104.6,84.9z M80.3,84.9
	L77.5,82h5.7L80.3,84.9z M56.1,84.9L53.2,82h5.7L56.1,84.9z M45.7,104.5l7.5,7.5l-5.8,5.8L45.7,104.5z M53.3,136.1l-3,3l-0.9-6.9
	L53.3,136.1z M52.1,153.5l-1.2-9.4l5.2-5.2l9.3,9.2l-9.3,9.3L52.1,153.5z M68.3,151l9.3,9.2l-9.3,9.3l-9.3-9.2L68.3,151z
	 M71.1,172.5l9.3-9.4l9.3,9.3l-0.4,0.5H71.4L71.1,172.5z M95.4,172.5l9.2-9.3l9.3,9.3l-0.3,0.4H95.7L95.4,172.5z M119.6,172.5
	l9.3-9.3l9.3,9.3l-0.3,0.4h-17.9L119.6,172.5z M143.8,172.5l9.3-9.3l9.2,9.3l-0.4,0.5h-17.8L143.8,172.5z M168,172.5l9.3-9.3
	l9.3,9.4l-0.3,0.4h-17.9L168,172.5z M180.1,160.3l9.3-9.2l9.3,9.3l-9.3,9.2L180.1,160.3z M192.3,148.2l9.3-9.2l3.8,3.7l-1.5,11.2
	c-0.1,0.5-0.2,1-0.2,1.5l-2,2L192.3,148.2z M204.4,136.1l2-2l-0.5,3.6L204.4,136.1z M204.4,112l5.6-5.6l-1.3,9.8L204.4,112z
	 M55.5,163.7l0.5-0.5l9.3,9.2C61.3,171.4,57.9,168,55.5,163.7z M192.6,172.7l-0.3-0.3l9.3-9.2l0.1,0.1
	C199.7,169.2,196.6,172.3,192.6,172.7z"/>
</svg>
