<?xml version="1.0" encoding="utf-8"?>
<!-- Generator: Adobe Illustrator 19.1.0, SVG Export Plug-In . SVG Version: 6.00 Build 0)  -->
<svg version="1.0" id="Ebene_1" xmlns="http://www.w3.org/2000/svg" xmlns:xlink="http://www.w3.org/1999/xlink" x="0px" y="0px"
	 viewBox="0 0 256 256" style="enable-background:new 0 0 256 256;" xml:space="preserve">
<style type="text/css">
	.st0{fill:#E7C7B2;}
	.st1{fill:#CB6843;}
	.st2{fill-rule:evenodd;clip-rule:evenodd;fill:#E7C7B2;}
	.st3{fill-rule:evenodd;clip-rule:evenodd;fill:#CB6843;}
</style>
<g>
	<path class="st0" d="M24,248c-8.8,0-16-7.2-16-16V24c0-8.8,7.2-16,16-16h208c8.8,0,16,7.2,16,16v208c0,8.8-7.2,16-16,16H24z"/>
	<path class="st1" d="M232,16c4.4,0,8,3.6,8,8v208c0,4.4-3.6,8-8,8H24c-4.4,0-8-3.6-8-8V24c0-4.4,3.6-8,8-8H232 M232,0H24
		C10.7,0,0,10.7,0,24v208c0,13.3,10.7,24,24,24h208c13.3,0,24-10.7,24-24V24C256,10.7,245.3,0,232,0L232,0z"/>
</g>
<g>
	<g>
		<g>
			<path class="st1" d="M179.9,209H76.1c-2.4,0-4.3-1.9-4.3-4.3V53.3c0-2.4,1.9-4.3,4.3-4.3l69.9,0L184.2,86v118.7
				C184.2,207.1,182.3,209,179.9,209z"/>
		</g>
		<g>
			<path class="st2" d="M168.2,136.2c-0.7-0.4-1.4-1-2.1-1.1c-2.7-0.5-2.9-1.3-4.5-3.5c-0.6-0.8-1.4-1.6-2.2-2.2
				c-2-1.5-3.4-3-2.3-5.8c0.5-1.4-0.8-3.5-1.9-3.8c-1.2-0.4-2.5,0.7-3.5,2.4c-1.4,2.5-2.9,4.9-4.6,7.3c-1.9,2.6-3.2,4.8-5.2,7.3
				c-6.7,8.2-35.4,2.9-38.7,1.7c-4-1.5-8.4-9.2-8.4-9.2s-5.8-5.8-3.7,6.1c0.4,2.6,9.1,8.6,9.1,8.6s-1.8,8.2,0.4,13.1
				c1.3,3.5-1.1,22.9-0.7,23.2c0.4,0.3,7.1,0.4,7.5,0c0.3-0.4,2.4-21.3,2.8-21.9c0.4-0.6,25.2,1.6,25.9,2.2
				c0.7,0.6,1.9,19.4,2.4,19.8c0.4,0.3,5.7,0.4,6.2,0c0.4-0.4-0.9-18.1,0-21.8c0.5-2,3.8-10.8,9.1-15.9c0,0,0,0,0,0
				c1.8-1.9,3.4-2,5.9-0.8c4.5,2.2,6.5,2.3,8.4-2.3c0.1-0.2,0.2-0.5,0.4-0.7C168.6,138.2,168.8,136.5,168.2,136.2z"/>
			<polygon class="st3" points="152.8,149.4 139.7,135.4 141.5,133.8 154.6,147.8 			"/>
		</g>
	</g>
	<path class="st0" d="M180.1,86.5h-32.6c-1.8,0-3.2-1.4-3.2-3.2V52.2"/>
</g>
</svg>
