<?xml version="1.0" encoding="utf-8"?>
<!-- Generator: Adobe Illustrator 19.1.0, SVG Export Plug-In . SVG Version: 6.00 Build 0)  -->
<svg version="1.0" id="Ebene_1" xmlns="http://www.w3.org/2000/svg" xmlns:xlink="http://www.w3.org/1999/xlink" x="0px" y="0px"
	 viewBox="0 0 256 256" style="enable-background:new 0 0 256 256;" xml:space="preserve">
<style type="text/css">
	.st0{fill:#E7C7B2;}
	.st1{fill:#CB6843;}
</style>
<g>
	<path class="st0" d="M24,248c-8.8,0-16-7.2-16-16V24c0-8.8,7.2-16,16-16h208c8.8,0,16,7.2,16,16v208c0,8.8-7.2,16-16,16H24z"/>
	<path class="st1" d="M232,16c4.4,0,8,3.6,8,8v208c0,4.4-3.6,8-8,8H24c-4.4,0-8-3.6-8-8V24c0-4.4,3.6-8,8-8H232 M232,0H24
		C10.7,0,0,10.7,0,24v208c0,13.3,10.7,24,24,24h208c13.3,0,24-10.7,24-24V24C256,10.7,245.3,0,232,0L232,0z"/>
</g>
<g>
	<path class="st1" d="M128.1,49.1l9.3,0.7c0,8.2,0,25.1,0.2,26.5c0.7,3.6,2.2,6.5,3.5,8.5c1.2,2,2.5,3.9,3.7,5.8l0.6,0.9
		c1.9,2.9,3.7,5.7,5.1,8.6c1.2,2.4,2.1,4.8,2.7,7.2c0.5,1.8,0.7,3.4,0.9,4.9c0,0.4,0,2,0,2.5c-0.2,1.7-0.8,4.5-1.3,5.9
		c-0.5,1.4-1.2,2.7-2,4c-0.8,1.2-1.7,2.4-2.7,3.5c-1.7,1.9-3.7,3.4-6,4.8c-2.1,1.2-4.3,2.1-6.8,2.8c-1.2,0.3-2.6,0.6-4.1,0.7
		c-1,0.1-2,0.2-3,0.2c-1.1,0-2-0.1-3-0.2c-1.6-0.2-3-0.4-4.2-0.7c-2.4-0.6-4.7-1.6-6.8-2.8c-2.3-1.4-4.3-2.9-6-4.8
		c-1-1.1-2-2.3-2.7-3.5c-0.8-1.2-1.5-2.6-2-4c-0.5-1.4-1.2-4.2-1.3-5.9c0-0.5,0-2.1,0-2.5c0.1-1.5,0.4-3.1,0.9-4.9
		c0.6-2.4,1.5-4.8,2.7-7.2c1.4-2.9,3.2-5.7,5.1-8.6l0.6-0.9c1.2-1.9,2.5-3.8,3.7-5.8c1.3-2.1,2.8-4.9,3.5-8.5
		c0.3-1.4,0.3-18.4,0.2-26.5L128.1,49.1 M128.1,43L114,44c-0.8,0-1.4,0.6-1.4,1.4c0,3.5,0,29-0.1,29.8c-0.4,2.4-1.4,4.5-2.7,6.5
		c-1.3,2.2-2.8,4.4-4.2,6.5c-2,3-3.9,6-5.5,9.2c-1.3,2.7-2.3,5.5-3.1,8.4c-0.5,1.9-0.9,3.9-1,5.9c-0.1,0.8-0.1,3,0,3.4
		c0.2,2.1,0.9,5.6,1.7,7.6c0.7,1.8,1.5,3.5,2.5,5.1c1,1.6,2.1,3,3.4,4.4c2.2,2.4,4.7,4.3,7.4,5.9c2.6,1.5,5.4,2.6,8.3,3.4
		c1.6,0.4,3.3,0.7,5,0.9c1.2,0.1,2.3,0.2,3.7,0.2c1.2,0,2.4-0.1,3.6-0.2c1.7-0.2,3.3-0.5,5-0.9c2.9-0.8,5.7-1.9,8.3-3.4
		c2.8-1.6,5.3-3.5,7.4-5.9c1.3-1.4,2.4-2.8,3.4-4.4c1-1.6,1.8-3.3,2.5-5c0.8-2,1.5-5.4,1.7-7.6c0-0.4,0-2.7,0-3.4
		c-0.2-2-0.5-3.9-1-5.9c-0.7-2.9-1.8-5.7-3.1-8.4c-1.6-3.2-3.5-6.2-5.5-9.2c-1.4-2.2-2.8-4.3-4.2-6.5c-1.3-2.1-2.2-4.1-2.7-6.5
		c-0.1-0.8-0.2-26.3-0.1-29.8c0-0.8-0.6-1.4-1.4-1.4L128.1,43L128.1,43z"/>
</g>
<path class="st1" d="M153.8,207.9l-0.3,0.1c-1,0.3-2-0.3-2.3-1.3L139,160.7c-0.3-1,0.3-2,1.3-2.3l0.3-0.1c1-0.3,2,0.3,2.3,1.3
	l12.3,45.9C155.4,206.6,154.8,207.6,153.8,207.9z"/>
<path class="st1" d="M196.4,180.2L196.4,180.2c-0.7,0.7-1.9,0.7-2.6,0L162,148.5c-0.7-0.7-0.7-1.9,0-2.6l0,0c0.7-0.7,1.9-0.7,2.6,0
	l31.7,31.7C197.1,178.3,197.1,179.5,196.4,180.2z"/>
<path class="st1" d="M215.9,129.4l-0.1,0.3c-0.3,1-1.3,1.6-2.3,1.3l-37.9-4.1c-1-0.3-1.6-1.3-1.3-2.3l0.1-0.3c0.3-1,1.3-1.6,2.3-1.3
	l37.9,4.1C215.5,127.4,216.1,128.4,215.9,129.4z"/>
<path class="st1" d="M40.2,129.7l-0.1-0.3c-0.3-1,0.3-2,1.3-2.3l37.9-4.2c1-0.3,2,0.3,2.3,1.3l0.1,0.3c0.3,1-0.3,2-1.3,2.3L42.5,131
	C41.5,131.3,40.5,130.7,40.2,129.7z"/>
<path class="st1" d="M60.2,180l-0.2-0.2c-0.7-0.7-0.7-1.9,0-2.6l31.3-31.3c0.7-0.7,1.9-0.7,2.6,0l0.2,0.2c0.7,0.7,0.7,1.9,0,2.6
	L62.9,180C62.1,180.7,60.9,180.7,60.2,180z"/>
<path class="st1" d="M102.5,207.8l-0.3-0.1c-1-0.3-1.6-1.3-1.3-2.3l12.3-45.8c0.3-1,1.3-1.6,2.3-1.3l0.3,0.1c1,0.3,1.6,1.3,1.3,2.3
	l-12.3,45.8C104.5,207.5,103.5,208,102.5,207.8z"/>
<polygon class="st1" points="140.7,76.8 128.3,76.8 116,76.8 116,46.7 140.7,46.7 "/>
</svg>
