<?xml version="1.0" encoding="utf-8"?>
<!-- Generator: Adobe Illustrator 19.1.0, SVG Export Plug-In . SVG Version: 6.00 Build 0)  -->
<svg version="1.0" id="Ebene_1" xmlns="http://www.w3.org/2000/svg" xmlns:xlink="http://www.w3.org/1999/xlink" x="0px" y="0px"
	 viewBox="0 0 256 256" style="enable-background:new 0 0 256 256;" xml:space="preserve">
<style type="text/css">
	.st0{fill:#E8BFA9;}
	.st1{fill:#CB5B38;}
</style>
<g>
	<path class="st0" d="M24,248c-8.8,0-16-7.2-16-16V24c0-8.8,7.2-16,16-16h208c8.8,0,16,7.2,16,16v208c0,8.8-7.2,16-16,16H24z"/>
	<path class="st1" d="M232,16c4.4,0,8,3.6,8,8v208c0,4.4-3.6,8-8,8H24c-4.4,0-8-3.6-8-8V24c0-4.4,3.6-8,8-8H232 M232,0H24
		C10.7,0,0,10.7,0,24v208c0,13.3,10.7,24,24,24h208c13.3,0,24-10.7,24-24V24C256,10.7,245.3,0,232,0L232,0z"/>
</g>
<path class="st1" d="M208,128c0,44.2-35.8,80-80,80c-44.2,0-80-35.8-80-80s35.8-80,80-80C172.2,48,208,83.8,208,128z"/>
<path class="st0" d="M144,118v-4c0-1.1-0.9-2-2-2h-6h-16h-6c-1.1,0-2,0.9-2,2v4c0,1.1,0.9,2,2,2h3c1.1,0,2,0.9,2,2v44
	c0,1.1-0.9,2-2,2h-3c-1.1,0-2,0.9-2,2v4c0,1.1,0.9,2,2,2h6h16h6c1.1,0,2-0.9,2-2v-4c0-1.1-0.9-2-2-2h-3c-1.1,0-2-0.9-2-2v-44
	c0-1.1,0.9-2,2-2h3C143.1,120,144,119.1,144,118z"/>
<path class="st0" d="M133.9,96h-11.9c-1.1,0-2-0.9-2-2V82.1c0-1.1,0.9-2,2-2h11.9c1.1,0,2,0.9,2,2V94C135.9,95.1,135,96,133.9,96z"
	/>
</svg>
