<?xml version="1.0" encoding="utf-8"?>
<!-- Generator: Adobe Illustrator 19.1.0, SVG Export Plug-In . SVG Version: 6.00 Build 0)  -->
<svg version="1.0" id="Ebene_1" xmlns="http://www.w3.org/2000/svg" xmlns:xlink="http://www.w3.org/1999/xlink" x="0px" y="0px"
	 viewBox="0 0 256 256" style="enable-background:new 0 0 256 256;" xml:space="preserve">
<style type="text/css">
	.st0{fill:#E8BFA9;}
	.st1{fill:#CB5B38;}
</style>
<g>
	<path class="st0" d="M24,248c-8.8,0-16-7.2-16-16V24c0-8.8,7.2-16,16-16h208c8.8,0,16,7.2,16,16v208c0,8.8-7.2,16-16,16H24z"/>
	<path class="st1" d="M232,16c4.4,0,8,3.6,8,8v208c0,4.4-3.6,8-8,8H24c-4.4,0-8-3.6-8-8V24c0-4.4,3.6-8,8-8H232 M232,0H24
		C10.7,0,0,10.7,0,24v208c0,13.3,10.7,24,24,24h208c13.3,0,24-10.7,24-24V24C256,10.7,245.3,0,232,0L232,0z"/>
</g>
<g>
	<path class="st1" d="M31.5,250.9C20.8,251,8.4,245.3,8.4,235L9,100c0-2.2,1.8-4,4-4L44,96c2.2,0,4,1.8,4,4v120c0,2.2,1.8,4,4,4
		l152,0.2c2.2,0,4-1.8,4-4l0-120.1c0-2.2,1.8-4,4-4l31,0c2.2,0,4,1.8,4,4l0.5,135c0,10.6-12.3,16-23.1,16L31.5,250.9z"/>
</g>
<g>
	<path class="st1" d="M164.8,208.8H91.3c-1.8,0-3.3-1.7-3.3-3.9v-89.3c0-2.1,1.5-3.9,3.3-3.9h73.4c1.8,0,3.3,1.7,3.3,3.9V205
		C168.1,207.1,166.6,208.8,164.8,208.8z"/>
</g>
<g>
	<path class="st1" d="M127.3,123.4c-4.2-0.4-7.3-4.4-7.3-8.9V72.9c0-4.5,3.1-8.5,7.3-8.9c4.7-0.4,8.7,3.5,8.7,8.5V115
		C136,119.9,132.1,123.8,127.3,123.4z"/>
</g>
<g>
	<path class="st1" d="M153.6,88l-50.8,0c-3.4,0-6.4-3.1-6.7-7.3c-0.3-4.7,2.7-8.7,6.4-8.7l50.8,0c3.4,0,6.4,3.1,6.7,7.3
		C160.3,84,157.3,88,153.6,88z"/>
</g>
<rect x="154.2" y="143.9" class="st1" width="79.3" height="31.9"/>
</svg>
